G75*
%MOIN*%
%OFA0B0*%
%FSLAX25Y25*%
%IPPOS*%
%LPD*%
%AMOC8*
5,1,8,0,0,1.08239X$1,22.5*
%
%ADD10C,0.02800*%
%ADD11OC8,0.06000*%
%ADD12OC8,0.07100*%
%ADD13C,0.07100*%
%ADD14C,0.07400*%
%ADD15C,0.13800*%
%ADD16C,0.06000*%
%ADD17C,0.06800*%
%ADD18C,0.06737*%
D10*
X0036500Y0073800D03*
X0046500Y0073800D03*
X0056500Y0073800D03*
X0071500Y0098800D03*
X0061500Y0113800D03*
X0041500Y0113800D03*
X0031500Y0098800D03*
X0081500Y0123800D03*
X0081500Y0123800D03*
X0101500Y0113800D03*
X0126500Y0103800D03*
X0136500Y0103800D03*
X0151500Y0118800D03*
X0171500Y0123800D03*
X0181500Y0123800D03*
X0191500Y0133800D03*
X0191500Y0143800D03*
X0191500Y0153800D03*
X0191500Y0163800D03*
X0176500Y0163800D03*
X0186500Y0178800D03*
X0221500Y0163800D03*
X0221500Y0163800D03*
X0221500Y0153800D03*
X0221500Y0143800D03*
X0221500Y0133800D03*
X0241500Y0123800D03*
X0286500Y0123800D03*
X0306500Y0123800D03*
X0336500Y0103800D03*
X0336500Y0093800D03*
X0311500Y0088800D03*
X0311500Y0068800D03*
X0311500Y0068800D03*
X0351500Y0073800D03*
X0361500Y0073800D03*
X0371500Y0073800D03*
X0376500Y0093800D03*
X0376500Y0103800D03*
X0276500Y0163800D03*
X0256500Y0163800D03*
X0241500Y0163800D03*
X0241500Y0163800D03*
X0241500Y0178800D03*
X0241500Y0188800D03*
X0226500Y0178800D03*
X0201500Y0203800D03*
X0201500Y0213800D03*
X0176500Y0213800D03*
X0176500Y0203800D03*
X0141500Y0188800D03*
X0131500Y0188800D03*
X0101500Y0183800D03*
X0101500Y0193800D03*
X0076500Y0188800D03*
X0056500Y0188800D03*
X0036500Y0188800D03*
X0016500Y0188800D03*
X0026500Y0168800D03*
X0066500Y0168800D03*
X0081500Y0143800D03*
X0081500Y0143800D03*
X0106500Y0143800D03*
X0106500Y0153800D03*
X0106500Y0163800D03*
X0136500Y0163800D03*
X0151500Y0158800D03*
X0136500Y0153800D03*
X0136500Y0143800D03*
X0136500Y0133800D03*
X0106500Y0133800D03*
X0171500Y0083800D03*
X0181500Y0083800D03*
X0171500Y0073800D03*
X0161500Y0073800D03*
X0151500Y0073800D03*
X0101500Y0073800D03*
X0201500Y0078800D03*
X0201500Y0058800D03*
X0251500Y0048800D03*
X0261500Y0048800D03*
X0271500Y0048800D03*
X0311500Y0173800D03*
X0321500Y0173800D03*
X0331500Y0173800D03*
X0341500Y0173800D03*
X0351500Y0173800D03*
X0361500Y0173800D03*
X0371500Y0173800D03*
X0381500Y0173800D03*
X0381500Y0193800D03*
X0391500Y0193800D03*
X0371500Y0193800D03*
X0361500Y0193800D03*
X0351500Y0193800D03*
X0341500Y0193800D03*
X0331500Y0193800D03*
X0321500Y0193800D03*
X0311500Y0193800D03*
X0301500Y0193800D03*
X0291500Y0193800D03*
X0281500Y0193800D03*
X0271500Y0193800D03*
X0261500Y0193800D03*
X0261500Y0213800D03*
X0271500Y0213800D03*
X0281500Y0213800D03*
X0291500Y0213800D03*
X0301500Y0213800D03*
X0311500Y0213800D03*
X0321500Y0213800D03*
X0331500Y0213800D03*
X0341500Y0213800D03*
X0351500Y0213800D03*
X0361500Y0213800D03*
X0371500Y0213800D03*
X0381500Y0213800D03*
X0391500Y0213800D03*
X0391500Y0233800D03*
X0381500Y0233800D03*
X0371500Y0233800D03*
X0361500Y0233800D03*
X0351500Y0233800D03*
X0341500Y0233800D03*
X0331500Y0233800D03*
X0321500Y0233800D03*
X0311500Y0233800D03*
X0301500Y0233800D03*
X0291500Y0233800D03*
X0281500Y0233800D03*
X0251500Y0233800D03*
X0211500Y0233800D03*
X0186500Y0233800D03*
X0176500Y0233800D03*
X0136500Y0213800D03*
X0061500Y0228800D03*
D11*
X0136500Y0213800D03*
X0176500Y0213800D03*
X0176500Y0203800D03*
X0186500Y0178800D03*
X0176500Y0163800D03*
X0151500Y0158800D03*
X0171500Y0123800D03*
X0181500Y0123800D03*
X0151500Y0118800D03*
X0101500Y0113800D03*
X0081500Y0123800D03*
X0061500Y0113800D03*
X0041500Y0113800D03*
X0031500Y0098800D03*
X0071500Y0098800D03*
X0101500Y0073800D03*
X0171500Y0083800D03*
X0181500Y0083800D03*
X0201500Y0078800D03*
X0201500Y0058800D03*
X0241500Y0123800D03*
X0286500Y0123800D03*
X0306500Y0123800D03*
X0336500Y0103800D03*
X0336500Y0093800D03*
X0311500Y0088800D03*
X0311500Y0068800D03*
X0376500Y0093800D03*
X0376500Y0103800D03*
X0276500Y0163800D03*
X0256500Y0163800D03*
X0241500Y0163800D03*
X0226500Y0178800D03*
X0211500Y0233800D03*
X0251500Y0233800D03*
X0081500Y0143800D03*
D12*
X0126500Y0103800D03*
X0241500Y0178800D03*
X0176500Y0233800D03*
X0131500Y0188800D03*
X0101500Y0193800D03*
D13*
X0101500Y0183800D03*
X0141500Y0188800D03*
X0186500Y0233800D03*
X0241500Y0188800D03*
X0136500Y0103800D03*
D14*
X0151500Y0077100D02*
X0151500Y0070500D01*
X0161500Y0070500D02*
X0161500Y0077100D01*
X0171500Y0077100D02*
X0171500Y0070500D01*
X0056500Y0070500D02*
X0056500Y0077100D01*
X0046500Y0077100D02*
X0046500Y0070500D01*
X0036500Y0070500D02*
X0036500Y0077100D01*
X0351500Y0077100D02*
X0351500Y0070500D01*
X0361500Y0070500D02*
X0361500Y0077100D01*
X0371500Y0077100D02*
X0371500Y0070500D01*
D15*
X0046500Y0014800D03*
X0161500Y0014800D03*
X0361500Y0014800D03*
D16*
X0221500Y0133800D03*
X0221500Y0143800D03*
X0221500Y0153800D03*
X0221500Y0163800D03*
X0191500Y0163800D03*
X0191500Y0153800D03*
X0191500Y0143800D03*
X0191500Y0133800D03*
X0136500Y0133800D03*
X0136500Y0143800D03*
X0136500Y0153800D03*
X0136500Y0163800D03*
X0106500Y0163800D03*
X0106500Y0153800D03*
X0106500Y0143800D03*
X0106500Y0133800D03*
D17*
X0069500Y0168800D02*
X0063500Y0168800D01*
X0056500Y0185800D02*
X0056500Y0191800D01*
X0036500Y0191800D02*
X0036500Y0185800D01*
X0016500Y0185800D02*
X0016500Y0191800D01*
X0023500Y0168800D02*
X0029500Y0168800D01*
X0076500Y0185800D02*
X0076500Y0191800D01*
X0198500Y0203800D02*
X0204500Y0203800D01*
X0204500Y0213800D02*
X0198500Y0213800D01*
X0261500Y0216800D02*
X0261500Y0210800D01*
X0271500Y0210800D02*
X0271500Y0216800D01*
X0281500Y0216800D02*
X0281500Y0210800D01*
X0291500Y0210800D02*
X0291500Y0216800D01*
X0301500Y0216800D02*
X0301500Y0210800D01*
X0311500Y0210800D02*
X0311500Y0216800D01*
X0321500Y0216800D02*
X0321500Y0210800D01*
X0331500Y0210800D02*
X0331500Y0216800D01*
X0341500Y0216800D02*
X0341500Y0210800D01*
X0351500Y0210800D02*
X0351500Y0216800D01*
X0361500Y0216800D02*
X0361500Y0210800D01*
X0371500Y0210800D02*
X0371500Y0216800D01*
X0381500Y0216800D02*
X0381500Y0210800D01*
X0391500Y0210800D02*
X0391500Y0216800D01*
X0391500Y0230800D02*
X0391500Y0236800D01*
X0381500Y0236800D02*
X0381500Y0230800D01*
X0371500Y0230800D02*
X0371500Y0236800D01*
X0361500Y0236800D02*
X0361500Y0230800D01*
X0351500Y0230800D02*
X0351500Y0236800D01*
X0341500Y0236800D02*
X0341500Y0230800D01*
X0331500Y0230800D02*
X0331500Y0236800D01*
X0321500Y0236800D02*
X0321500Y0230800D01*
X0311500Y0230800D02*
X0311500Y0236800D01*
X0301500Y0236800D02*
X0301500Y0230800D01*
X0291500Y0230800D02*
X0291500Y0236800D01*
X0281500Y0236800D02*
X0281500Y0230800D01*
X0281500Y0196800D02*
X0281500Y0190800D01*
X0291500Y0190800D02*
X0291500Y0196800D01*
X0301500Y0196800D02*
X0301500Y0190800D01*
X0311500Y0190800D02*
X0311500Y0196800D01*
X0321500Y0196800D02*
X0321500Y0190800D01*
X0331500Y0190800D02*
X0331500Y0196800D01*
X0341500Y0196800D02*
X0341500Y0190800D01*
X0351500Y0190800D02*
X0351500Y0196800D01*
X0361500Y0196800D02*
X0361500Y0190800D01*
X0371500Y0190800D02*
X0371500Y0196800D01*
X0381500Y0196800D02*
X0381500Y0190800D01*
X0391500Y0190800D02*
X0391500Y0196800D01*
X0381500Y0176800D02*
X0381500Y0170800D01*
X0371500Y0170800D02*
X0371500Y0176800D01*
X0361500Y0176800D02*
X0361500Y0170800D01*
X0351500Y0170800D02*
X0351500Y0176800D01*
X0341500Y0176800D02*
X0341500Y0170800D01*
X0331500Y0170800D02*
X0331500Y0176800D01*
X0321500Y0176800D02*
X0321500Y0170800D01*
X0311500Y0170800D02*
X0311500Y0176800D01*
X0271500Y0190800D02*
X0271500Y0196800D01*
X0261500Y0196800D02*
X0261500Y0190800D01*
D18*
X0261500Y0051769D02*
X0261500Y0045831D01*
X0271500Y0045831D02*
X0271500Y0051769D01*
X0251500Y0051769D02*
X0251500Y0045831D01*
M02*
