G75*
%MOIN*%
%OFA0B0*%
%FSLAX25Y25*%
%IPPOS*%
%LPD*%
%AMOC8*
5,1,8,0,0,1.08239X$1,22.5*
%
%ADD10C,0.01200*%
%ADD11C,0.00600*%
%ADD12C,0.00200*%
%ADD13R,0.03000X0.02500*%
%ADD14R,0.05000X0.11000*%
%ADD15R,0.02400X0.03400*%
%ADD16R,0.03400X0.02400*%
%ADD17C,0.01000*%
D10*
X0050300Y0111300D02*
X0050300Y0113800D01*
X0050300Y0116300D01*
X0052800Y0116300D02*
X0052800Y0113800D01*
X0052800Y0111300D01*
X0079000Y0132500D02*
X0081500Y0132500D01*
X0084000Y0132500D01*
X0084000Y0135000D02*
X0081500Y0135000D01*
X0079000Y0135000D01*
X0199000Y0070100D02*
X0201500Y0070100D01*
X0204000Y0070100D01*
X0204000Y0067600D02*
X0201500Y0067600D01*
X0199000Y0067600D01*
X0295300Y0121300D02*
X0295300Y0123800D01*
X0295300Y0126300D01*
X0297800Y0126300D02*
X0297800Y0123800D01*
X0297800Y0121300D01*
X0309000Y0080100D02*
X0311500Y0080100D01*
X0314000Y0080100D01*
X0314000Y0077600D02*
X0311500Y0077600D01*
X0309000Y0077600D01*
X0267800Y0161300D02*
X0267800Y0163800D01*
X0267800Y0166300D01*
X0265300Y0166300D02*
X0265300Y0163800D01*
X0265300Y0161300D01*
D11*
X0026000Y0008800D02*
X0026000Y0001300D01*
X0067000Y0001300D01*
X0067000Y0008800D01*
X0063500Y0008800D01*
X0063500Y0014800D01*
X0067000Y0014800D01*
X0067000Y0063800D01*
X0026000Y0063800D01*
X0026000Y0014800D01*
X0029500Y0014800D01*
X0029500Y0008800D01*
X0026000Y0008800D01*
X0039400Y0014800D02*
X0039402Y0014974D01*
X0039409Y0015148D01*
X0039419Y0015322D01*
X0039434Y0015496D01*
X0039453Y0015669D01*
X0039477Y0015842D01*
X0039505Y0016014D01*
X0039536Y0016185D01*
X0039573Y0016356D01*
X0039613Y0016525D01*
X0039657Y0016694D01*
X0039706Y0016861D01*
X0039758Y0017027D01*
X0039815Y0017192D01*
X0039876Y0017355D01*
X0039940Y0017517D01*
X0040009Y0017677D01*
X0040082Y0017836D01*
X0040158Y0017992D01*
X0040238Y0018147D01*
X0040322Y0018300D01*
X0040410Y0018450D01*
X0040502Y0018598D01*
X0040597Y0018745D01*
X0040695Y0018888D01*
X0040797Y0019029D01*
X0040903Y0019168D01*
X0041012Y0019304D01*
X0041124Y0019438D01*
X0041239Y0019568D01*
X0041358Y0019696D01*
X0041480Y0019820D01*
X0041604Y0019942D01*
X0041732Y0020061D01*
X0041862Y0020176D01*
X0041996Y0020288D01*
X0042132Y0020397D01*
X0042271Y0020503D01*
X0042412Y0020605D01*
X0042555Y0020703D01*
X0042702Y0020798D01*
X0042850Y0020890D01*
X0043000Y0020978D01*
X0043153Y0021062D01*
X0043308Y0021142D01*
X0043464Y0021218D01*
X0043623Y0021291D01*
X0043783Y0021360D01*
X0043945Y0021424D01*
X0044108Y0021485D01*
X0044273Y0021542D01*
X0044439Y0021594D01*
X0044606Y0021643D01*
X0044775Y0021687D01*
X0044944Y0021727D01*
X0045115Y0021764D01*
X0045286Y0021795D01*
X0045458Y0021823D01*
X0045631Y0021847D01*
X0045804Y0021866D01*
X0045978Y0021881D01*
X0046152Y0021891D01*
X0046326Y0021898D01*
X0046500Y0021900D01*
X0046674Y0021898D01*
X0046848Y0021891D01*
X0047022Y0021881D01*
X0047196Y0021866D01*
X0047369Y0021847D01*
X0047542Y0021823D01*
X0047714Y0021795D01*
X0047885Y0021764D01*
X0048056Y0021727D01*
X0048225Y0021687D01*
X0048394Y0021643D01*
X0048561Y0021594D01*
X0048727Y0021542D01*
X0048892Y0021485D01*
X0049055Y0021424D01*
X0049217Y0021360D01*
X0049377Y0021291D01*
X0049536Y0021218D01*
X0049692Y0021142D01*
X0049847Y0021062D01*
X0050000Y0020978D01*
X0050150Y0020890D01*
X0050298Y0020798D01*
X0050445Y0020703D01*
X0050588Y0020605D01*
X0050729Y0020503D01*
X0050868Y0020397D01*
X0051004Y0020288D01*
X0051138Y0020176D01*
X0051268Y0020061D01*
X0051396Y0019942D01*
X0051520Y0019820D01*
X0051642Y0019696D01*
X0051761Y0019568D01*
X0051876Y0019438D01*
X0051988Y0019304D01*
X0052097Y0019168D01*
X0052203Y0019029D01*
X0052305Y0018888D01*
X0052403Y0018745D01*
X0052498Y0018598D01*
X0052590Y0018450D01*
X0052678Y0018300D01*
X0052762Y0018147D01*
X0052842Y0017992D01*
X0052918Y0017836D01*
X0052991Y0017677D01*
X0053060Y0017517D01*
X0053124Y0017355D01*
X0053185Y0017192D01*
X0053242Y0017027D01*
X0053294Y0016861D01*
X0053343Y0016694D01*
X0053387Y0016525D01*
X0053427Y0016356D01*
X0053464Y0016185D01*
X0053495Y0016014D01*
X0053523Y0015842D01*
X0053547Y0015669D01*
X0053566Y0015496D01*
X0053581Y0015322D01*
X0053591Y0015148D01*
X0053598Y0014974D01*
X0053600Y0014800D01*
X0053598Y0014626D01*
X0053591Y0014452D01*
X0053581Y0014278D01*
X0053566Y0014104D01*
X0053547Y0013931D01*
X0053523Y0013758D01*
X0053495Y0013586D01*
X0053464Y0013415D01*
X0053427Y0013244D01*
X0053387Y0013075D01*
X0053343Y0012906D01*
X0053294Y0012739D01*
X0053242Y0012573D01*
X0053185Y0012408D01*
X0053124Y0012245D01*
X0053060Y0012083D01*
X0052991Y0011923D01*
X0052918Y0011764D01*
X0052842Y0011608D01*
X0052762Y0011453D01*
X0052678Y0011300D01*
X0052590Y0011150D01*
X0052498Y0011002D01*
X0052403Y0010855D01*
X0052305Y0010712D01*
X0052203Y0010571D01*
X0052097Y0010432D01*
X0051988Y0010296D01*
X0051876Y0010162D01*
X0051761Y0010032D01*
X0051642Y0009904D01*
X0051520Y0009780D01*
X0051396Y0009658D01*
X0051268Y0009539D01*
X0051138Y0009424D01*
X0051004Y0009312D01*
X0050868Y0009203D01*
X0050729Y0009097D01*
X0050588Y0008995D01*
X0050445Y0008897D01*
X0050298Y0008802D01*
X0050150Y0008710D01*
X0050000Y0008622D01*
X0049847Y0008538D01*
X0049692Y0008458D01*
X0049536Y0008382D01*
X0049377Y0008309D01*
X0049217Y0008240D01*
X0049055Y0008176D01*
X0048892Y0008115D01*
X0048727Y0008058D01*
X0048561Y0008006D01*
X0048394Y0007957D01*
X0048225Y0007913D01*
X0048056Y0007873D01*
X0047885Y0007836D01*
X0047714Y0007805D01*
X0047542Y0007777D01*
X0047369Y0007753D01*
X0047196Y0007734D01*
X0047022Y0007719D01*
X0046848Y0007709D01*
X0046674Y0007702D01*
X0046500Y0007700D01*
X0046326Y0007702D01*
X0046152Y0007709D01*
X0045978Y0007719D01*
X0045804Y0007734D01*
X0045631Y0007753D01*
X0045458Y0007777D01*
X0045286Y0007805D01*
X0045115Y0007836D01*
X0044944Y0007873D01*
X0044775Y0007913D01*
X0044606Y0007957D01*
X0044439Y0008006D01*
X0044273Y0008058D01*
X0044108Y0008115D01*
X0043945Y0008176D01*
X0043783Y0008240D01*
X0043623Y0008309D01*
X0043464Y0008382D01*
X0043308Y0008458D01*
X0043153Y0008538D01*
X0043000Y0008622D01*
X0042850Y0008710D01*
X0042702Y0008802D01*
X0042555Y0008897D01*
X0042412Y0008995D01*
X0042271Y0009097D01*
X0042132Y0009203D01*
X0041996Y0009312D01*
X0041862Y0009424D01*
X0041732Y0009539D01*
X0041604Y0009658D01*
X0041480Y0009780D01*
X0041358Y0009904D01*
X0041239Y0010032D01*
X0041124Y0010162D01*
X0041012Y0010296D01*
X0040903Y0010432D01*
X0040797Y0010571D01*
X0040695Y0010712D01*
X0040597Y0010855D01*
X0040502Y0011002D01*
X0040410Y0011150D01*
X0040322Y0011300D01*
X0040238Y0011453D01*
X0040158Y0011608D01*
X0040082Y0011764D01*
X0040009Y0011923D01*
X0039940Y0012083D01*
X0039876Y0012245D01*
X0039815Y0012408D01*
X0039758Y0012573D01*
X0039706Y0012739D01*
X0039657Y0012906D01*
X0039613Y0013075D01*
X0039573Y0013244D01*
X0039536Y0013415D01*
X0039505Y0013586D01*
X0039477Y0013758D01*
X0039453Y0013931D01*
X0039434Y0014104D01*
X0039419Y0014278D01*
X0039409Y0014452D01*
X0039402Y0014626D01*
X0039400Y0014800D01*
X0098000Y0081300D02*
X0105000Y0081300D01*
X0105060Y0081302D01*
X0105121Y0081307D01*
X0105180Y0081316D01*
X0105239Y0081329D01*
X0105298Y0081345D01*
X0105355Y0081365D01*
X0105410Y0081388D01*
X0105465Y0081415D01*
X0105517Y0081444D01*
X0105568Y0081477D01*
X0105617Y0081513D01*
X0105663Y0081551D01*
X0105707Y0081593D01*
X0105749Y0081637D01*
X0105787Y0081683D01*
X0105823Y0081732D01*
X0105856Y0081783D01*
X0105885Y0081835D01*
X0105912Y0081890D01*
X0105935Y0081945D01*
X0105955Y0082002D01*
X0105971Y0082061D01*
X0105984Y0082120D01*
X0105993Y0082179D01*
X0105998Y0082240D01*
X0106000Y0082300D01*
X0106000Y0083800D01*
X0105500Y0084300D01*
X0105500Y0103300D01*
X0106000Y0103800D01*
X0106000Y0105300D01*
X0105998Y0105360D01*
X0105993Y0105421D01*
X0105984Y0105480D01*
X0105971Y0105539D01*
X0105955Y0105598D01*
X0105935Y0105655D01*
X0105912Y0105710D01*
X0105885Y0105765D01*
X0105856Y0105817D01*
X0105823Y0105868D01*
X0105787Y0105917D01*
X0105749Y0105963D01*
X0105707Y0106007D01*
X0105663Y0106049D01*
X0105617Y0106087D01*
X0105568Y0106123D01*
X0105517Y0106156D01*
X0105465Y0106185D01*
X0105410Y0106212D01*
X0105355Y0106235D01*
X0105298Y0106255D01*
X0105239Y0106271D01*
X0105180Y0106284D01*
X0105121Y0106293D01*
X0105060Y0106298D01*
X0105000Y0106300D01*
X0098000Y0106300D01*
X0097940Y0106298D01*
X0097879Y0106293D01*
X0097820Y0106284D01*
X0097761Y0106271D01*
X0097702Y0106255D01*
X0097645Y0106235D01*
X0097590Y0106212D01*
X0097535Y0106185D01*
X0097483Y0106156D01*
X0097432Y0106123D01*
X0097383Y0106087D01*
X0097337Y0106049D01*
X0097293Y0106007D01*
X0097251Y0105963D01*
X0097213Y0105917D01*
X0097177Y0105868D01*
X0097144Y0105817D01*
X0097115Y0105765D01*
X0097088Y0105710D01*
X0097065Y0105655D01*
X0097045Y0105598D01*
X0097029Y0105539D01*
X0097016Y0105480D01*
X0097007Y0105421D01*
X0097002Y0105360D01*
X0097000Y0105300D01*
X0097000Y0103800D01*
X0097500Y0103300D01*
X0097500Y0084300D01*
X0097000Y0083800D01*
X0097000Y0082300D01*
X0097002Y0082240D01*
X0097007Y0082179D01*
X0097016Y0082120D01*
X0097029Y0082061D01*
X0097045Y0082002D01*
X0097065Y0081945D01*
X0097088Y0081890D01*
X0097115Y0081835D01*
X0097144Y0081783D01*
X0097177Y0081732D01*
X0097213Y0081683D01*
X0097251Y0081637D01*
X0097293Y0081593D01*
X0097337Y0081551D01*
X0097383Y0081513D01*
X0097432Y0081477D01*
X0097483Y0081444D01*
X0097535Y0081415D01*
X0097590Y0081388D01*
X0097645Y0081365D01*
X0097702Y0081345D01*
X0097761Y0081329D01*
X0097820Y0081316D01*
X0097879Y0081307D01*
X0097940Y0081302D01*
X0098000Y0081300D01*
X0064000Y0095300D02*
X0064000Y0102300D01*
X0063998Y0102360D01*
X0063993Y0102421D01*
X0063984Y0102480D01*
X0063971Y0102539D01*
X0063955Y0102598D01*
X0063935Y0102655D01*
X0063912Y0102710D01*
X0063885Y0102765D01*
X0063856Y0102817D01*
X0063823Y0102868D01*
X0063787Y0102917D01*
X0063749Y0102963D01*
X0063707Y0103007D01*
X0063663Y0103049D01*
X0063617Y0103087D01*
X0063568Y0103123D01*
X0063517Y0103156D01*
X0063465Y0103185D01*
X0063410Y0103212D01*
X0063355Y0103235D01*
X0063298Y0103255D01*
X0063239Y0103271D01*
X0063180Y0103284D01*
X0063121Y0103293D01*
X0063060Y0103298D01*
X0063000Y0103300D01*
X0061500Y0103300D01*
X0061000Y0102800D01*
X0042000Y0102800D01*
X0041500Y0103300D01*
X0040000Y0103300D01*
X0039940Y0103298D01*
X0039879Y0103293D01*
X0039820Y0103284D01*
X0039761Y0103271D01*
X0039702Y0103255D01*
X0039645Y0103235D01*
X0039590Y0103212D01*
X0039535Y0103185D01*
X0039483Y0103156D01*
X0039432Y0103123D01*
X0039383Y0103087D01*
X0039337Y0103049D01*
X0039293Y0103007D01*
X0039251Y0102963D01*
X0039213Y0102917D01*
X0039177Y0102868D01*
X0039144Y0102817D01*
X0039115Y0102765D01*
X0039088Y0102710D01*
X0039065Y0102655D01*
X0039045Y0102598D01*
X0039029Y0102539D01*
X0039016Y0102480D01*
X0039007Y0102421D01*
X0039002Y0102360D01*
X0039000Y0102300D01*
X0039000Y0095300D01*
X0039002Y0095240D01*
X0039007Y0095179D01*
X0039016Y0095120D01*
X0039029Y0095061D01*
X0039045Y0095002D01*
X0039065Y0094945D01*
X0039088Y0094890D01*
X0039115Y0094835D01*
X0039144Y0094783D01*
X0039177Y0094732D01*
X0039213Y0094683D01*
X0039251Y0094637D01*
X0039293Y0094593D01*
X0039337Y0094551D01*
X0039383Y0094513D01*
X0039432Y0094477D01*
X0039483Y0094444D01*
X0039535Y0094415D01*
X0039590Y0094388D01*
X0039645Y0094365D01*
X0039702Y0094345D01*
X0039761Y0094329D01*
X0039820Y0094316D01*
X0039879Y0094307D01*
X0039940Y0094302D01*
X0040000Y0094300D01*
X0041500Y0094300D01*
X0042000Y0094800D01*
X0061000Y0094800D01*
X0061500Y0094300D01*
X0063000Y0094300D01*
X0063060Y0094302D01*
X0063121Y0094307D01*
X0063180Y0094316D01*
X0063239Y0094329D01*
X0063298Y0094345D01*
X0063355Y0094365D01*
X0063410Y0094388D01*
X0063465Y0094415D01*
X0063517Y0094444D01*
X0063568Y0094477D01*
X0063617Y0094513D01*
X0063663Y0094551D01*
X0063707Y0094593D01*
X0063749Y0094637D01*
X0063787Y0094683D01*
X0063823Y0094732D01*
X0063856Y0094783D01*
X0063885Y0094835D01*
X0063912Y0094890D01*
X0063935Y0094945D01*
X0063955Y0095002D01*
X0063971Y0095061D01*
X0063984Y0095120D01*
X0063993Y0095179D01*
X0063998Y0095240D01*
X0064000Y0095300D01*
X0065000Y0104800D02*
X0038000Y0104800D01*
X0037940Y0104802D01*
X0037879Y0104807D01*
X0037820Y0104816D01*
X0037761Y0104829D01*
X0037702Y0104845D01*
X0037645Y0104865D01*
X0037590Y0104888D01*
X0037535Y0104915D01*
X0037483Y0104944D01*
X0037432Y0104977D01*
X0037383Y0105013D01*
X0037337Y0105051D01*
X0037293Y0105093D01*
X0037251Y0105137D01*
X0037213Y0105183D01*
X0037177Y0105232D01*
X0037144Y0105283D01*
X0037115Y0105335D01*
X0037088Y0105390D01*
X0037065Y0105445D01*
X0037045Y0105502D01*
X0037029Y0105561D01*
X0037016Y0105620D01*
X0037007Y0105679D01*
X0037002Y0105740D01*
X0037000Y0105800D01*
X0037000Y0121800D01*
X0037002Y0121860D01*
X0037007Y0121921D01*
X0037016Y0121980D01*
X0037029Y0122039D01*
X0037045Y0122098D01*
X0037065Y0122155D01*
X0037088Y0122210D01*
X0037115Y0122265D01*
X0037144Y0122317D01*
X0037177Y0122368D01*
X0037213Y0122417D01*
X0037251Y0122463D01*
X0037293Y0122507D01*
X0037337Y0122549D01*
X0037383Y0122587D01*
X0037432Y0122623D01*
X0037483Y0122656D01*
X0037535Y0122685D01*
X0037590Y0122712D01*
X0037645Y0122735D01*
X0037702Y0122755D01*
X0037761Y0122771D01*
X0037820Y0122784D01*
X0037879Y0122793D01*
X0037940Y0122798D01*
X0038000Y0122800D01*
X0065000Y0122800D01*
X0065060Y0122798D01*
X0065121Y0122793D01*
X0065180Y0122784D01*
X0065239Y0122771D01*
X0065298Y0122755D01*
X0065355Y0122735D01*
X0065410Y0122712D01*
X0065465Y0122685D01*
X0065517Y0122656D01*
X0065568Y0122623D01*
X0065617Y0122587D01*
X0065663Y0122549D01*
X0065707Y0122507D01*
X0065749Y0122463D01*
X0065787Y0122417D01*
X0065823Y0122368D01*
X0065856Y0122317D01*
X0065885Y0122265D01*
X0065912Y0122210D01*
X0065935Y0122155D01*
X0065955Y0122098D01*
X0065971Y0122039D01*
X0065984Y0121980D01*
X0065993Y0121921D01*
X0065998Y0121860D01*
X0066000Y0121800D01*
X0066000Y0105800D01*
X0065998Y0105740D01*
X0065993Y0105679D01*
X0065984Y0105620D01*
X0065971Y0105561D01*
X0065955Y0105502D01*
X0065935Y0105445D01*
X0065912Y0105390D01*
X0065885Y0105335D01*
X0065856Y0105283D01*
X0065823Y0105232D01*
X0065787Y0105183D01*
X0065749Y0105137D01*
X0065707Y0105093D01*
X0065663Y0105051D01*
X0065617Y0105013D01*
X0065568Y0104977D01*
X0065517Y0104944D01*
X0065465Y0104915D01*
X0065410Y0104888D01*
X0065355Y0104865D01*
X0065298Y0104845D01*
X0065239Y0104829D01*
X0065180Y0104816D01*
X0065121Y0104807D01*
X0065060Y0104802D01*
X0065000Y0104800D01*
X0057500Y0113800D02*
X0052800Y0113800D01*
X0050300Y0113800D02*
X0045500Y0113800D01*
X0072500Y0120300D02*
X0072500Y0147300D01*
X0072502Y0147360D01*
X0072507Y0147421D01*
X0072516Y0147480D01*
X0072529Y0147539D01*
X0072545Y0147598D01*
X0072565Y0147655D01*
X0072588Y0147710D01*
X0072615Y0147765D01*
X0072644Y0147817D01*
X0072677Y0147868D01*
X0072713Y0147917D01*
X0072751Y0147963D01*
X0072793Y0148007D01*
X0072837Y0148049D01*
X0072883Y0148087D01*
X0072932Y0148123D01*
X0072983Y0148156D01*
X0073035Y0148185D01*
X0073090Y0148212D01*
X0073145Y0148235D01*
X0073202Y0148255D01*
X0073261Y0148271D01*
X0073320Y0148284D01*
X0073379Y0148293D01*
X0073440Y0148298D01*
X0073500Y0148300D01*
X0089500Y0148300D01*
X0089560Y0148298D01*
X0089621Y0148293D01*
X0089680Y0148284D01*
X0089739Y0148271D01*
X0089798Y0148255D01*
X0089855Y0148235D01*
X0089910Y0148212D01*
X0089965Y0148185D01*
X0090017Y0148156D01*
X0090068Y0148123D01*
X0090117Y0148087D01*
X0090163Y0148049D01*
X0090207Y0148007D01*
X0090249Y0147963D01*
X0090287Y0147917D01*
X0090323Y0147868D01*
X0090356Y0147817D01*
X0090385Y0147765D01*
X0090412Y0147710D01*
X0090435Y0147655D01*
X0090455Y0147598D01*
X0090471Y0147539D01*
X0090484Y0147480D01*
X0090493Y0147421D01*
X0090498Y0147360D01*
X0090500Y0147300D01*
X0090500Y0120300D01*
X0090498Y0120240D01*
X0090493Y0120179D01*
X0090484Y0120120D01*
X0090471Y0120061D01*
X0090455Y0120002D01*
X0090435Y0119945D01*
X0090412Y0119890D01*
X0090385Y0119835D01*
X0090356Y0119783D01*
X0090323Y0119732D01*
X0090287Y0119683D01*
X0090249Y0119637D01*
X0090207Y0119593D01*
X0090163Y0119551D01*
X0090117Y0119513D01*
X0090068Y0119477D01*
X0090017Y0119444D01*
X0089965Y0119415D01*
X0089910Y0119388D01*
X0089855Y0119365D01*
X0089798Y0119345D01*
X0089739Y0119329D01*
X0089680Y0119316D01*
X0089621Y0119307D01*
X0089560Y0119302D01*
X0089500Y0119300D01*
X0073500Y0119300D01*
X0073440Y0119302D01*
X0073379Y0119307D01*
X0073320Y0119316D01*
X0073261Y0119329D01*
X0073202Y0119345D01*
X0073145Y0119365D01*
X0073090Y0119388D01*
X0073035Y0119415D01*
X0072983Y0119444D01*
X0072932Y0119477D01*
X0072883Y0119513D01*
X0072837Y0119551D01*
X0072793Y0119593D01*
X0072751Y0119637D01*
X0072713Y0119683D01*
X0072677Y0119732D01*
X0072644Y0119783D01*
X0072615Y0119835D01*
X0072588Y0119890D01*
X0072565Y0119945D01*
X0072545Y0120002D01*
X0072529Y0120061D01*
X0072516Y0120120D01*
X0072507Y0120179D01*
X0072502Y0120240D01*
X0072500Y0120300D01*
X0081500Y0127800D02*
X0081500Y0132500D01*
X0081500Y0135000D02*
X0081500Y0139800D01*
X0110000Y0128800D02*
X0117500Y0128800D01*
X0117502Y0128926D01*
X0117508Y0129051D01*
X0117518Y0129176D01*
X0117532Y0129301D01*
X0117549Y0129426D01*
X0117571Y0129550D01*
X0117596Y0129673D01*
X0117626Y0129795D01*
X0117659Y0129916D01*
X0117696Y0130036D01*
X0117736Y0130155D01*
X0117781Y0130272D01*
X0117829Y0130389D01*
X0117881Y0130503D01*
X0117936Y0130616D01*
X0117995Y0130727D01*
X0118057Y0130836D01*
X0118123Y0130943D01*
X0118192Y0131048D01*
X0118264Y0131151D01*
X0118339Y0131252D01*
X0118418Y0131350D01*
X0118500Y0131445D01*
X0118584Y0131538D01*
X0118672Y0131628D01*
X0118762Y0131716D01*
X0118855Y0131800D01*
X0118950Y0131882D01*
X0119048Y0131961D01*
X0119149Y0132036D01*
X0119252Y0132108D01*
X0119357Y0132177D01*
X0119464Y0132243D01*
X0119573Y0132305D01*
X0119684Y0132364D01*
X0119797Y0132419D01*
X0119911Y0132471D01*
X0120028Y0132519D01*
X0120145Y0132564D01*
X0120264Y0132604D01*
X0120384Y0132641D01*
X0120505Y0132674D01*
X0120627Y0132704D01*
X0120750Y0132729D01*
X0120874Y0132751D01*
X0120999Y0132768D01*
X0121124Y0132782D01*
X0121249Y0132792D01*
X0121374Y0132798D01*
X0121500Y0132800D01*
X0121626Y0132798D01*
X0121751Y0132792D01*
X0121876Y0132782D01*
X0122001Y0132768D01*
X0122126Y0132751D01*
X0122250Y0132729D01*
X0122373Y0132704D01*
X0122495Y0132674D01*
X0122616Y0132641D01*
X0122736Y0132604D01*
X0122855Y0132564D01*
X0122972Y0132519D01*
X0123089Y0132471D01*
X0123203Y0132419D01*
X0123316Y0132364D01*
X0123427Y0132305D01*
X0123536Y0132243D01*
X0123643Y0132177D01*
X0123748Y0132108D01*
X0123851Y0132036D01*
X0123952Y0131961D01*
X0124050Y0131882D01*
X0124145Y0131800D01*
X0124238Y0131716D01*
X0124328Y0131628D01*
X0124416Y0131538D01*
X0124500Y0131445D01*
X0124582Y0131350D01*
X0124661Y0131252D01*
X0124736Y0131151D01*
X0124808Y0131048D01*
X0124877Y0130943D01*
X0124943Y0130836D01*
X0125005Y0130727D01*
X0125064Y0130616D01*
X0125119Y0130503D01*
X0125171Y0130389D01*
X0125219Y0130272D01*
X0125264Y0130155D01*
X0125304Y0130036D01*
X0125341Y0129916D01*
X0125374Y0129795D01*
X0125404Y0129673D01*
X0125429Y0129550D01*
X0125451Y0129426D01*
X0125468Y0129301D01*
X0125482Y0129176D01*
X0125492Y0129051D01*
X0125498Y0128926D01*
X0125500Y0128800D01*
X0133000Y0128800D01*
X0133000Y0168800D01*
X0110000Y0168800D01*
X0110000Y0128800D01*
X0121500Y0103800D02*
X0121503Y0104045D01*
X0121512Y0104291D01*
X0121527Y0104536D01*
X0121548Y0104780D01*
X0121575Y0105024D01*
X0121608Y0105267D01*
X0121647Y0105510D01*
X0121692Y0105751D01*
X0121743Y0105991D01*
X0121800Y0106230D01*
X0121862Y0106467D01*
X0121931Y0106703D01*
X0122005Y0106937D01*
X0122085Y0107169D01*
X0122170Y0107399D01*
X0122261Y0107627D01*
X0122358Y0107852D01*
X0122460Y0108076D01*
X0122568Y0108296D01*
X0122681Y0108514D01*
X0122799Y0108729D01*
X0122923Y0108941D01*
X0123051Y0109150D01*
X0123185Y0109356D01*
X0123324Y0109558D01*
X0123468Y0109757D01*
X0123617Y0109952D01*
X0123770Y0110144D01*
X0123928Y0110332D01*
X0124090Y0110516D01*
X0124258Y0110695D01*
X0124429Y0110871D01*
X0124605Y0111042D01*
X0124784Y0111210D01*
X0124968Y0111372D01*
X0125156Y0111530D01*
X0125348Y0111683D01*
X0125543Y0111832D01*
X0125742Y0111976D01*
X0125944Y0112115D01*
X0126150Y0112249D01*
X0126359Y0112377D01*
X0126571Y0112501D01*
X0126786Y0112619D01*
X0127004Y0112732D01*
X0127224Y0112840D01*
X0127448Y0112942D01*
X0127673Y0113039D01*
X0127901Y0113130D01*
X0128131Y0113215D01*
X0128363Y0113295D01*
X0128597Y0113369D01*
X0128833Y0113438D01*
X0129070Y0113500D01*
X0129309Y0113557D01*
X0129549Y0113608D01*
X0129790Y0113653D01*
X0130033Y0113692D01*
X0130276Y0113725D01*
X0130520Y0113752D01*
X0130764Y0113773D01*
X0131009Y0113788D01*
X0131255Y0113797D01*
X0131500Y0113800D01*
X0131745Y0113797D01*
X0131991Y0113788D01*
X0132236Y0113773D01*
X0132480Y0113752D01*
X0132724Y0113725D01*
X0132967Y0113692D01*
X0133210Y0113653D01*
X0133451Y0113608D01*
X0133691Y0113557D01*
X0133930Y0113500D01*
X0134167Y0113438D01*
X0134403Y0113369D01*
X0134637Y0113295D01*
X0134869Y0113215D01*
X0135099Y0113130D01*
X0135327Y0113039D01*
X0135552Y0112942D01*
X0135776Y0112840D01*
X0135996Y0112732D01*
X0136214Y0112619D01*
X0136429Y0112501D01*
X0136641Y0112377D01*
X0136850Y0112249D01*
X0137056Y0112115D01*
X0137258Y0111976D01*
X0137457Y0111832D01*
X0137652Y0111683D01*
X0137844Y0111530D01*
X0138032Y0111372D01*
X0138216Y0111210D01*
X0138395Y0111042D01*
X0138571Y0110871D01*
X0138742Y0110695D01*
X0138910Y0110516D01*
X0139072Y0110332D01*
X0139230Y0110144D01*
X0139383Y0109952D01*
X0139532Y0109757D01*
X0139676Y0109558D01*
X0139815Y0109356D01*
X0139949Y0109150D01*
X0140077Y0108941D01*
X0140201Y0108729D01*
X0140319Y0108514D01*
X0140432Y0108296D01*
X0140540Y0108076D01*
X0140642Y0107852D01*
X0140739Y0107627D01*
X0140830Y0107399D01*
X0140915Y0107169D01*
X0140995Y0106937D01*
X0141069Y0106703D01*
X0141138Y0106467D01*
X0141200Y0106230D01*
X0141257Y0105991D01*
X0141308Y0105751D01*
X0141353Y0105510D01*
X0141392Y0105267D01*
X0141425Y0105024D01*
X0141452Y0104780D01*
X0141473Y0104536D01*
X0141488Y0104291D01*
X0141497Y0104045D01*
X0141500Y0103800D01*
X0141497Y0103555D01*
X0141488Y0103309D01*
X0141473Y0103064D01*
X0141452Y0102820D01*
X0141425Y0102576D01*
X0141392Y0102333D01*
X0141353Y0102090D01*
X0141308Y0101849D01*
X0141257Y0101609D01*
X0141200Y0101370D01*
X0141138Y0101133D01*
X0141069Y0100897D01*
X0140995Y0100663D01*
X0140915Y0100431D01*
X0140830Y0100201D01*
X0140739Y0099973D01*
X0140642Y0099748D01*
X0140540Y0099524D01*
X0140432Y0099304D01*
X0140319Y0099086D01*
X0140201Y0098871D01*
X0140077Y0098659D01*
X0139949Y0098450D01*
X0139815Y0098244D01*
X0139676Y0098042D01*
X0139532Y0097843D01*
X0139383Y0097648D01*
X0139230Y0097456D01*
X0139072Y0097268D01*
X0138910Y0097084D01*
X0138742Y0096905D01*
X0138571Y0096729D01*
X0138395Y0096558D01*
X0138216Y0096390D01*
X0138032Y0096228D01*
X0137844Y0096070D01*
X0137652Y0095917D01*
X0137457Y0095768D01*
X0137258Y0095624D01*
X0137056Y0095485D01*
X0136850Y0095351D01*
X0136641Y0095223D01*
X0136429Y0095099D01*
X0136214Y0094981D01*
X0135996Y0094868D01*
X0135776Y0094760D01*
X0135552Y0094658D01*
X0135327Y0094561D01*
X0135099Y0094470D01*
X0134869Y0094385D01*
X0134637Y0094305D01*
X0134403Y0094231D01*
X0134167Y0094162D01*
X0133930Y0094100D01*
X0133691Y0094043D01*
X0133451Y0093992D01*
X0133210Y0093947D01*
X0132967Y0093908D01*
X0132724Y0093875D01*
X0132480Y0093848D01*
X0132236Y0093827D01*
X0131991Y0093812D01*
X0131745Y0093803D01*
X0131500Y0093800D01*
X0131255Y0093803D01*
X0131009Y0093812D01*
X0130764Y0093827D01*
X0130520Y0093848D01*
X0130276Y0093875D01*
X0130033Y0093908D01*
X0129790Y0093947D01*
X0129549Y0093992D01*
X0129309Y0094043D01*
X0129070Y0094100D01*
X0128833Y0094162D01*
X0128597Y0094231D01*
X0128363Y0094305D01*
X0128131Y0094385D01*
X0127901Y0094470D01*
X0127673Y0094561D01*
X0127448Y0094658D01*
X0127224Y0094760D01*
X0127004Y0094868D01*
X0126786Y0094981D01*
X0126571Y0095099D01*
X0126359Y0095223D01*
X0126150Y0095351D01*
X0125944Y0095485D01*
X0125742Y0095624D01*
X0125543Y0095768D01*
X0125348Y0095917D01*
X0125156Y0096070D01*
X0124968Y0096228D01*
X0124784Y0096390D01*
X0124605Y0096558D01*
X0124429Y0096729D01*
X0124258Y0096905D01*
X0124090Y0097084D01*
X0123928Y0097268D01*
X0123770Y0097456D01*
X0123617Y0097648D01*
X0123468Y0097843D01*
X0123324Y0098042D01*
X0123185Y0098244D01*
X0123051Y0098450D01*
X0122923Y0098659D01*
X0122799Y0098871D01*
X0122681Y0099086D01*
X0122568Y0099304D01*
X0122460Y0099524D01*
X0122358Y0099748D01*
X0122261Y0099973D01*
X0122170Y0100201D01*
X0122085Y0100431D01*
X0122005Y0100663D01*
X0121931Y0100897D01*
X0121862Y0101133D01*
X0121800Y0101370D01*
X0121743Y0101609D01*
X0121692Y0101849D01*
X0121647Y0102090D01*
X0121608Y0102333D01*
X0121575Y0102576D01*
X0121548Y0102820D01*
X0121527Y0103064D01*
X0121512Y0103309D01*
X0121503Y0103555D01*
X0121500Y0103800D01*
X0136000Y0098800D02*
X0137000Y0098800D01*
X0137000Y0097800D01*
X0137000Y0098800D02*
X0137000Y0099800D01*
X0137000Y0098800D02*
X0138000Y0098800D01*
X0167000Y0093800D02*
X0167000Y0092300D01*
X0167002Y0092240D01*
X0167007Y0092179D01*
X0167016Y0092120D01*
X0167029Y0092061D01*
X0167045Y0092002D01*
X0167065Y0091945D01*
X0167088Y0091890D01*
X0167115Y0091835D01*
X0167144Y0091783D01*
X0167177Y0091732D01*
X0167213Y0091683D01*
X0167251Y0091637D01*
X0167293Y0091593D01*
X0167337Y0091551D01*
X0167383Y0091513D01*
X0167432Y0091477D01*
X0167483Y0091444D01*
X0167535Y0091415D01*
X0167590Y0091388D01*
X0167645Y0091365D01*
X0167702Y0091345D01*
X0167761Y0091329D01*
X0167820Y0091316D01*
X0167879Y0091307D01*
X0167940Y0091302D01*
X0168000Y0091300D01*
X0175000Y0091300D01*
X0175060Y0091302D01*
X0175121Y0091307D01*
X0175180Y0091316D01*
X0175239Y0091329D01*
X0175298Y0091345D01*
X0175355Y0091365D01*
X0175410Y0091388D01*
X0175465Y0091415D01*
X0175517Y0091444D01*
X0175568Y0091477D01*
X0175617Y0091513D01*
X0175663Y0091551D01*
X0175707Y0091593D01*
X0175749Y0091637D01*
X0175787Y0091683D01*
X0175823Y0091732D01*
X0175856Y0091783D01*
X0175885Y0091835D01*
X0175912Y0091890D01*
X0175935Y0091945D01*
X0175955Y0092002D01*
X0175971Y0092061D01*
X0175984Y0092120D01*
X0175993Y0092179D01*
X0175998Y0092240D01*
X0176000Y0092300D01*
X0176000Y0093800D01*
X0175500Y0094300D01*
X0175500Y0113300D01*
X0176000Y0113800D01*
X0176000Y0115300D01*
X0175998Y0115360D01*
X0175993Y0115421D01*
X0175984Y0115480D01*
X0175971Y0115539D01*
X0175955Y0115598D01*
X0175935Y0115655D01*
X0175912Y0115710D01*
X0175885Y0115765D01*
X0175856Y0115817D01*
X0175823Y0115868D01*
X0175787Y0115917D01*
X0175749Y0115963D01*
X0175707Y0116007D01*
X0175663Y0116049D01*
X0175617Y0116087D01*
X0175568Y0116123D01*
X0175517Y0116156D01*
X0175465Y0116185D01*
X0175410Y0116212D01*
X0175355Y0116235D01*
X0175298Y0116255D01*
X0175239Y0116271D01*
X0175180Y0116284D01*
X0175121Y0116293D01*
X0175060Y0116298D01*
X0175000Y0116300D01*
X0168000Y0116300D01*
X0167940Y0116298D01*
X0167879Y0116293D01*
X0167820Y0116284D01*
X0167761Y0116271D01*
X0167702Y0116255D01*
X0167645Y0116235D01*
X0167590Y0116212D01*
X0167535Y0116185D01*
X0167483Y0116156D01*
X0167432Y0116123D01*
X0167383Y0116087D01*
X0167337Y0116049D01*
X0167293Y0116007D01*
X0167251Y0115963D01*
X0167213Y0115917D01*
X0167177Y0115868D01*
X0167144Y0115817D01*
X0167115Y0115765D01*
X0167088Y0115710D01*
X0167065Y0115655D01*
X0167045Y0115598D01*
X0167029Y0115539D01*
X0167016Y0115480D01*
X0167007Y0115421D01*
X0167002Y0115360D01*
X0167000Y0115300D01*
X0167000Y0113800D01*
X0167500Y0113300D01*
X0167500Y0094300D01*
X0167000Y0093800D01*
X0177000Y0093800D02*
X0177000Y0092300D01*
X0177002Y0092240D01*
X0177007Y0092179D01*
X0177016Y0092120D01*
X0177029Y0092061D01*
X0177045Y0092002D01*
X0177065Y0091945D01*
X0177088Y0091890D01*
X0177115Y0091835D01*
X0177144Y0091783D01*
X0177177Y0091732D01*
X0177213Y0091683D01*
X0177251Y0091637D01*
X0177293Y0091593D01*
X0177337Y0091551D01*
X0177383Y0091513D01*
X0177432Y0091477D01*
X0177483Y0091444D01*
X0177535Y0091415D01*
X0177590Y0091388D01*
X0177645Y0091365D01*
X0177702Y0091345D01*
X0177761Y0091329D01*
X0177820Y0091316D01*
X0177879Y0091307D01*
X0177940Y0091302D01*
X0178000Y0091300D01*
X0185000Y0091300D01*
X0185060Y0091302D01*
X0185121Y0091307D01*
X0185180Y0091316D01*
X0185239Y0091329D01*
X0185298Y0091345D01*
X0185355Y0091365D01*
X0185410Y0091388D01*
X0185465Y0091415D01*
X0185517Y0091444D01*
X0185568Y0091477D01*
X0185617Y0091513D01*
X0185663Y0091551D01*
X0185707Y0091593D01*
X0185749Y0091637D01*
X0185787Y0091683D01*
X0185823Y0091732D01*
X0185856Y0091783D01*
X0185885Y0091835D01*
X0185912Y0091890D01*
X0185935Y0091945D01*
X0185955Y0092002D01*
X0185971Y0092061D01*
X0185984Y0092120D01*
X0185993Y0092179D01*
X0185998Y0092240D01*
X0186000Y0092300D01*
X0186000Y0093800D01*
X0185500Y0094300D01*
X0185500Y0113300D01*
X0186000Y0113800D01*
X0186000Y0115300D01*
X0185998Y0115360D01*
X0185993Y0115421D01*
X0185984Y0115480D01*
X0185971Y0115539D01*
X0185955Y0115598D01*
X0185935Y0115655D01*
X0185912Y0115710D01*
X0185885Y0115765D01*
X0185856Y0115817D01*
X0185823Y0115868D01*
X0185787Y0115917D01*
X0185749Y0115963D01*
X0185707Y0116007D01*
X0185663Y0116049D01*
X0185617Y0116087D01*
X0185568Y0116123D01*
X0185517Y0116156D01*
X0185465Y0116185D01*
X0185410Y0116212D01*
X0185355Y0116235D01*
X0185298Y0116255D01*
X0185239Y0116271D01*
X0185180Y0116284D01*
X0185121Y0116293D01*
X0185060Y0116298D01*
X0185000Y0116300D01*
X0178000Y0116300D01*
X0177940Y0116298D01*
X0177879Y0116293D01*
X0177820Y0116284D01*
X0177761Y0116271D01*
X0177702Y0116255D01*
X0177645Y0116235D01*
X0177590Y0116212D01*
X0177535Y0116185D01*
X0177483Y0116156D01*
X0177432Y0116123D01*
X0177383Y0116087D01*
X0177337Y0116049D01*
X0177293Y0116007D01*
X0177251Y0115963D01*
X0177213Y0115917D01*
X0177177Y0115868D01*
X0177144Y0115817D01*
X0177115Y0115765D01*
X0177088Y0115710D01*
X0177065Y0115655D01*
X0177045Y0115598D01*
X0177029Y0115539D01*
X0177016Y0115480D01*
X0177007Y0115421D01*
X0177002Y0115360D01*
X0177000Y0115300D01*
X0177000Y0113800D01*
X0177500Y0113300D01*
X0177500Y0094300D01*
X0177000Y0093800D01*
X0192500Y0082300D02*
X0192500Y0055300D01*
X0192502Y0055240D01*
X0192507Y0055179D01*
X0192516Y0055120D01*
X0192529Y0055061D01*
X0192545Y0055002D01*
X0192565Y0054945D01*
X0192588Y0054890D01*
X0192615Y0054835D01*
X0192644Y0054783D01*
X0192677Y0054732D01*
X0192713Y0054683D01*
X0192751Y0054637D01*
X0192793Y0054593D01*
X0192837Y0054551D01*
X0192883Y0054513D01*
X0192932Y0054477D01*
X0192983Y0054444D01*
X0193035Y0054415D01*
X0193090Y0054388D01*
X0193145Y0054365D01*
X0193202Y0054345D01*
X0193261Y0054329D01*
X0193320Y0054316D01*
X0193379Y0054307D01*
X0193440Y0054302D01*
X0193500Y0054300D01*
X0209500Y0054300D01*
X0209560Y0054302D01*
X0209621Y0054307D01*
X0209680Y0054316D01*
X0209739Y0054329D01*
X0209798Y0054345D01*
X0209855Y0054365D01*
X0209910Y0054388D01*
X0209965Y0054415D01*
X0210017Y0054444D01*
X0210068Y0054477D01*
X0210117Y0054513D01*
X0210163Y0054551D01*
X0210207Y0054593D01*
X0210249Y0054637D01*
X0210287Y0054683D01*
X0210323Y0054732D01*
X0210356Y0054783D01*
X0210385Y0054835D01*
X0210412Y0054890D01*
X0210435Y0054945D01*
X0210455Y0055002D01*
X0210471Y0055061D01*
X0210484Y0055120D01*
X0210493Y0055179D01*
X0210498Y0055240D01*
X0210500Y0055300D01*
X0210500Y0082300D01*
X0210498Y0082360D01*
X0210493Y0082421D01*
X0210484Y0082480D01*
X0210471Y0082539D01*
X0210455Y0082598D01*
X0210435Y0082655D01*
X0210412Y0082710D01*
X0210385Y0082765D01*
X0210356Y0082817D01*
X0210323Y0082868D01*
X0210287Y0082917D01*
X0210249Y0082963D01*
X0210207Y0083007D01*
X0210163Y0083049D01*
X0210117Y0083087D01*
X0210068Y0083123D01*
X0210017Y0083156D01*
X0209965Y0083185D01*
X0209910Y0083212D01*
X0209855Y0083235D01*
X0209798Y0083255D01*
X0209739Y0083271D01*
X0209680Y0083284D01*
X0209621Y0083293D01*
X0209560Y0083298D01*
X0209500Y0083300D01*
X0193500Y0083300D01*
X0193440Y0083298D01*
X0193379Y0083293D01*
X0193320Y0083284D01*
X0193261Y0083271D01*
X0193202Y0083255D01*
X0193145Y0083235D01*
X0193090Y0083212D01*
X0193035Y0083185D01*
X0192983Y0083156D01*
X0192932Y0083123D01*
X0192883Y0083087D01*
X0192837Y0083049D01*
X0192793Y0083007D01*
X0192751Y0082963D01*
X0192713Y0082917D01*
X0192677Y0082868D01*
X0192644Y0082817D01*
X0192615Y0082765D01*
X0192588Y0082710D01*
X0192565Y0082655D01*
X0192545Y0082598D01*
X0192529Y0082539D01*
X0192516Y0082480D01*
X0192507Y0082421D01*
X0192502Y0082360D01*
X0192500Y0082300D01*
X0201500Y0074800D02*
X0201500Y0070100D01*
X0201500Y0067600D02*
X0201500Y0062800D01*
X0182000Y0063800D02*
X0182000Y0014800D01*
X0178500Y0014800D01*
X0178500Y0008800D01*
X0182000Y0008800D01*
X0182000Y0001300D01*
X0141000Y0001300D01*
X0141000Y0008800D01*
X0144500Y0008800D01*
X0144500Y0014800D01*
X0141000Y0014800D01*
X0141000Y0063800D01*
X0182000Y0063800D01*
X0154400Y0014800D02*
X0154402Y0014974D01*
X0154409Y0015148D01*
X0154419Y0015322D01*
X0154434Y0015496D01*
X0154453Y0015669D01*
X0154477Y0015842D01*
X0154505Y0016014D01*
X0154536Y0016185D01*
X0154573Y0016356D01*
X0154613Y0016525D01*
X0154657Y0016694D01*
X0154706Y0016861D01*
X0154758Y0017027D01*
X0154815Y0017192D01*
X0154876Y0017355D01*
X0154940Y0017517D01*
X0155009Y0017677D01*
X0155082Y0017836D01*
X0155158Y0017992D01*
X0155238Y0018147D01*
X0155322Y0018300D01*
X0155410Y0018450D01*
X0155502Y0018598D01*
X0155597Y0018745D01*
X0155695Y0018888D01*
X0155797Y0019029D01*
X0155903Y0019168D01*
X0156012Y0019304D01*
X0156124Y0019438D01*
X0156239Y0019568D01*
X0156358Y0019696D01*
X0156480Y0019820D01*
X0156604Y0019942D01*
X0156732Y0020061D01*
X0156862Y0020176D01*
X0156996Y0020288D01*
X0157132Y0020397D01*
X0157271Y0020503D01*
X0157412Y0020605D01*
X0157555Y0020703D01*
X0157702Y0020798D01*
X0157850Y0020890D01*
X0158000Y0020978D01*
X0158153Y0021062D01*
X0158308Y0021142D01*
X0158464Y0021218D01*
X0158623Y0021291D01*
X0158783Y0021360D01*
X0158945Y0021424D01*
X0159108Y0021485D01*
X0159273Y0021542D01*
X0159439Y0021594D01*
X0159606Y0021643D01*
X0159775Y0021687D01*
X0159944Y0021727D01*
X0160115Y0021764D01*
X0160286Y0021795D01*
X0160458Y0021823D01*
X0160631Y0021847D01*
X0160804Y0021866D01*
X0160978Y0021881D01*
X0161152Y0021891D01*
X0161326Y0021898D01*
X0161500Y0021900D01*
X0161674Y0021898D01*
X0161848Y0021891D01*
X0162022Y0021881D01*
X0162196Y0021866D01*
X0162369Y0021847D01*
X0162542Y0021823D01*
X0162714Y0021795D01*
X0162885Y0021764D01*
X0163056Y0021727D01*
X0163225Y0021687D01*
X0163394Y0021643D01*
X0163561Y0021594D01*
X0163727Y0021542D01*
X0163892Y0021485D01*
X0164055Y0021424D01*
X0164217Y0021360D01*
X0164377Y0021291D01*
X0164536Y0021218D01*
X0164692Y0021142D01*
X0164847Y0021062D01*
X0165000Y0020978D01*
X0165150Y0020890D01*
X0165298Y0020798D01*
X0165445Y0020703D01*
X0165588Y0020605D01*
X0165729Y0020503D01*
X0165868Y0020397D01*
X0166004Y0020288D01*
X0166138Y0020176D01*
X0166268Y0020061D01*
X0166396Y0019942D01*
X0166520Y0019820D01*
X0166642Y0019696D01*
X0166761Y0019568D01*
X0166876Y0019438D01*
X0166988Y0019304D01*
X0167097Y0019168D01*
X0167203Y0019029D01*
X0167305Y0018888D01*
X0167403Y0018745D01*
X0167498Y0018598D01*
X0167590Y0018450D01*
X0167678Y0018300D01*
X0167762Y0018147D01*
X0167842Y0017992D01*
X0167918Y0017836D01*
X0167991Y0017677D01*
X0168060Y0017517D01*
X0168124Y0017355D01*
X0168185Y0017192D01*
X0168242Y0017027D01*
X0168294Y0016861D01*
X0168343Y0016694D01*
X0168387Y0016525D01*
X0168427Y0016356D01*
X0168464Y0016185D01*
X0168495Y0016014D01*
X0168523Y0015842D01*
X0168547Y0015669D01*
X0168566Y0015496D01*
X0168581Y0015322D01*
X0168591Y0015148D01*
X0168598Y0014974D01*
X0168600Y0014800D01*
X0168598Y0014626D01*
X0168591Y0014452D01*
X0168581Y0014278D01*
X0168566Y0014104D01*
X0168547Y0013931D01*
X0168523Y0013758D01*
X0168495Y0013586D01*
X0168464Y0013415D01*
X0168427Y0013244D01*
X0168387Y0013075D01*
X0168343Y0012906D01*
X0168294Y0012739D01*
X0168242Y0012573D01*
X0168185Y0012408D01*
X0168124Y0012245D01*
X0168060Y0012083D01*
X0167991Y0011923D01*
X0167918Y0011764D01*
X0167842Y0011608D01*
X0167762Y0011453D01*
X0167678Y0011300D01*
X0167590Y0011150D01*
X0167498Y0011002D01*
X0167403Y0010855D01*
X0167305Y0010712D01*
X0167203Y0010571D01*
X0167097Y0010432D01*
X0166988Y0010296D01*
X0166876Y0010162D01*
X0166761Y0010032D01*
X0166642Y0009904D01*
X0166520Y0009780D01*
X0166396Y0009658D01*
X0166268Y0009539D01*
X0166138Y0009424D01*
X0166004Y0009312D01*
X0165868Y0009203D01*
X0165729Y0009097D01*
X0165588Y0008995D01*
X0165445Y0008897D01*
X0165298Y0008802D01*
X0165150Y0008710D01*
X0165000Y0008622D01*
X0164847Y0008538D01*
X0164692Y0008458D01*
X0164536Y0008382D01*
X0164377Y0008309D01*
X0164217Y0008240D01*
X0164055Y0008176D01*
X0163892Y0008115D01*
X0163727Y0008058D01*
X0163561Y0008006D01*
X0163394Y0007957D01*
X0163225Y0007913D01*
X0163056Y0007873D01*
X0162885Y0007836D01*
X0162714Y0007805D01*
X0162542Y0007777D01*
X0162369Y0007753D01*
X0162196Y0007734D01*
X0162022Y0007719D01*
X0161848Y0007709D01*
X0161674Y0007702D01*
X0161500Y0007700D01*
X0161326Y0007702D01*
X0161152Y0007709D01*
X0160978Y0007719D01*
X0160804Y0007734D01*
X0160631Y0007753D01*
X0160458Y0007777D01*
X0160286Y0007805D01*
X0160115Y0007836D01*
X0159944Y0007873D01*
X0159775Y0007913D01*
X0159606Y0007957D01*
X0159439Y0008006D01*
X0159273Y0008058D01*
X0159108Y0008115D01*
X0158945Y0008176D01*
X0158783Y0008240D01*
X0158623Y0008309D01*
X0158464Y0008382D01*
X0158308Y0008458D01*
X0158153Y0008538D01*
X0158000Y0008622D01*
X0157850Y0008710D01*
X0157702Y0008802D01*
X0157555Y0008897D01*
X0157412Y0008995D01*
X0157271Y0009097D01*
X0157132Y0009203D01*
X0156996Y0009312D01*
X0156862Y0009424D01*
X0156732Y0009539D01*
X0156604Y0009658D01*
X0156480Y0009780D01*
X0156358Y0009904D01*
X0156239Y0010032D01*
X0156124Y0010162D01*
X0156012Y0010296D01*
X0155903Y0010432D01*
X0155797Y0010571D01*
X0155695Y0010712D01*
X0155597Y0010855D01*
X0155502Y0011002D01*
X0155410Y0011150D01*
X0155322Y0011300D01*
X0155238Y0011453D01*
X0155158Y0011608D01*
X0155082Y0011764D01*
X0155009Y0011923D01*
X0154940Y0012083D01*
X0154876Y0012245D01*
X0154815Y0012408D01*
X0154758Y0012573D01*
X0154706Y0012739D01*
X0154657Y0012906D01*
X0154613Y0013075D01*
X0154573Y0013244D01*
X0154536Y0013415D01*
X0154505Y0013586D01*
X0154477Y0013758D01*
X0154453Y0013931D01*
X0154434Y0014104D01*
X0154419Y0014278D01*
X0154409Y0014452D01*
X0154402Y0014626D01*
X0154400Y0014800D01*
X0302500Y0065300D02*
X0302500Y0092300D01*
X0302502Y0092360D01*
X0302507Y0092421D01*
X0302516Y0092480D01*
X0302529Y0092539D01*
X0302545Y0092598D01*
X0302565Y0092655D01*
X0302588Y0092710D01*
X0302615Y0092765D01*
X0302644Y0092817D01*
X0302677Y0092868D01*
X0302713Y0092917D01*
X0302751Y0092963D01*
X0302793Y0093007D01*
X0302837Y0093049D01*
X0302883Y0093087D01*
X0302932Y0093123D01*
X0302983Y0093156D01*
X0303035Y0093185D01*
X0303090Y0093212D01*
X0303145Y0093235D01*
X0303202Y0093255D01*
X0303261Y0093271D01*
X0303320Y0093284D01*
X0303379Y0093293D01*
X0303440Y0093298D01*
X0303500Y0093300D01*
X0319500Y0093300D01*
X0319560Y0093298D01*
X0319621Y0093293D01*
X0319680Y0093284D01*
X0319739Y0093271D01*
X0319798Y0093255D01*
X0319855Y0093235D01*
X0319910Y0093212D01*
X0319965Y0093185D01*
X0320017Y0093156D01*
X0320068Y0093123D01*
X0320117Y0093087D01*
X0320163Y0093049D01*
X0320207Y0093007D01*
X0320249Y0092963D01*
X0320287Y0092917D01*
X0320323Y0092868D01*
X0320356Y0092817D01*
X0320385Y0092765D01*
X0320412Y0092710D01*
X0320435Y0092655D01*
X0320455Y0092598D01*
X0320471Y0092539D01*
X0320484Y0092480D01*
X0320493Y0092421D01*
X0320498Y0092360D01*
X0320500Y0092300D01*
X0320500Y0065300D01*
X0320498Y0065240D01*
X0320493Y0065179D01*
X0320484Y0065120D01*
X0320471Y0065061D01*
X0320455Y0065002D01*
X0320435Y0064945D01*
X0320412Y0064890D01*
X0320385Y0064835D01*
X0320356Y0064783D01*
X0320323Y0064732D01*
X0320287Y0064683D01*
X0320249Y0064637D01*
X0320207Y0064593D01*
X0320163Y0064551D01*
X0320117Y0064513D01*
X0320068Y0064477D01*
X0320017Y0064444D01*
X0319965Y0064415D01*
X0319910Y0064388D01*
X0319855Y0064365D01*
X0319798Y0064345D01*
X0319739Y0064329D01*
X0319680Y0064316D01*
X0319621Y0064307D01*
X0319560Y0064302D01*
X0319500Y0064300D01*
X0303500Y0064300D01*
X0303440Y0064302D01*
X0303379Y0064307D01*
X0303320Y0064316D01*
X0303261Y0064329D01*
X0303202Y0064345D01*
X0303145Y0064365D01*
X0303090Y0064388D01*
X0303035Y0064415D01*
X0302983Y0064444D01*
X0302932Y0064477D01*
X0302883Y0064513D01*
X0302837Y0064551D01*
X0302793Y0064593D01*
X0302751Y0064637D01*
X0302713Y0064683D01*
X0302677Y0064732D01*
X0302644Y0064783D01*
X0302615Y0064835D01*
X0302588Y0064890D01*
X0302565Y0064945D01*
X0302545Y0065002D01*
X0302529Y0065061D01*
X0302516Y0065120D01*
X0302507Y0065179D01*
X0302502Y0065240D01*
X0302500Y0065300D01*
X0311500Y0072800D02*
X0311500Y0077600D01*
X0311500Y0080100D02*
X0311500Y0084800D01*
X0341000Y0063800D02*
X0341000Y0014800D01*
X0344500Y0014800D01*
X0344500Y0008800D01*
X0341000Y0008800D01*
X0341000Y0001300D01*
X0382000Y0001300D01*
X0382000Y0008800D01*
X0378500Y0008800D01*
X0378500Y0014800D01*
X0382000Y0014800D01*
X0382000Y0063800D01*
X0341000Y0063800D01*
X0345000Y0089300D02*
X0346500Y0089300D01*
X0347000Y0089800D01*
X0366000Y0089800D01*
X0366500Y0089300D01*
X0368000Y0089300D01*
X0368060Y0089302D01*
X0368121Y0089307D01*
X0368180Y0089316D01*
X0368239Y0089329D01*
X0368298Y0089345D01*
X0368355Y0089365D01*
X0368410Y0089388D01*
X0368465Y0089415D01*
X0368517Y0089444D01*
X0368568Y0089477D01*
X0368617Y0089513D01*
X0368663Y0089551D01*
X0368707Y0089593D01*
X0368749Y0089637D01*
X0368787Y0089683D01*
X0368823Y0089732D01*
X0368856Y0089783D01*
X0368885Y0089835D01*
X0368912Y0089890D01*
X0368935Y0089945D01*
X0368955Y0090002D01*
X0368971Y0090061D01*
X0368984Y0090120D01*
X0368993Y0090179D01*
X0368998Y0090240D01*
X0369000Y0090300D01*
X0369000Y0097300D01*
X0368998Y0097360D01*
X0368993Y0097421D01*
X0368984Y0097480D01*
X0368971Y0097539D01*
X0368955Y0097598D01*
X0368935Y0097655D01*
X0368912Y0097710D01*
X0368885Y0097765D01*
X0368856Y0097817D01*
X0368823Y0097868D01*
X0368787Y0097917D01*
X0368749Y0097963D01*
X0368707Y0098007D01*
X0368663Y0098049D01*
X0368617Y0098087D01*
X0368568Y0098123D01*
X0368517Y0098156D01*
X0368465Y0098185D01*
X0368410Y0098212D01*
X0368355Y0098235D01*
X0368298Y0098255D01*
X0368239Y0098271D01*
X0368180Y0098284D01*
X0368121Y0098293D01*
X0368060Y0098298D01*
X0368000Y0098300D01*
X0366500Y0098300D01*
X0366000Y0097800D01*
X0347000Y0097800D01*
X0346500Y0098300D01*
X0345000Y0098300D01*
X0345000Y0099300D02*
X0346500Y0099300D01*
X0347000Y0099800D01*
X0366000Y0099800D01*
X0366500Y0099300D01*
X0368000Y0099300D01*
X0368060Y0099302D01*
X0368121Y0099307D01*
X0368180Y0099316D01*
X0368239Y0099329D01*
X0368298Y0099345D01*
X0368355Y0099365D01*
X0368410Y0099388D01*
X0368465Y0099415D01*
X0368517Y0099444D01*
X0368568Y0099477D01*
X0368617Y0099513D01*
X0368663Y0099551D01*
X0368707Y0099593D01*
X0368749Y0099637D01*
X0368787Y0099683D01*
X0368823Y0099732D01*
X0368856Y0099783D01*
X0368885Y0099835D01*
X0368912Y0099890D01*
X0368935Y0099945D01*
X0368955Y0100002D01*
X0368971Y0100061D01*
X0368984Y0100120D01*
X0368993Y0100179D01*
X0368998Y0100240D01*
X0369000Y0100300D01*
X0369000Y0107300D01*
X0368998Y0107360D01*
X0368993Y0107421D01*
X0368984Y0107480D01*
X0368971Y0107539D01*
X0368955Y0107598D01*
X0368935Y0107655D01*
X0368912Y0107710D01*
X0368885Y0107765D01*
X0368856Y0107817D01*
X0368823Y0107868D01*
X0368787Y0107917D01*
X0368749Y0107963D01*
X0368707Y0108007D01*
X0368663Y0108049D01*
X0368617Y0108087D01*
X0368568Y0108123D01*
X0368517Y0108156D01*
X0368465Y0108185D01*
X0368410Y0108212D01*
X0368355Y0108235D01*
X0368298Y0108255D01*
X0368239Y0108271D01*
X0368180Y0108284D01*
X0368121Y0108293D01*
X0368060Y0108298D01*
X0368000Y0108300D01*
X0366500Y0108300D01*
X0366000Y0107800D01*
X0347000Y0107800D01*
X0346500Y0108300D01*
X0345000Y0108300D01*
X0344940Y0108298D01*
X0344879Y0108293D01*
X0344820Y0108284D01*
X0344761Y0108271D01*
X0344702Y0108255D01*
X0344645Y0108235D01*
X0344590Y0108212D01*
X0344535Y0108185D01*
X0344483Y0108156D01*
X0344432Y0108123D01*
X0344383Y0108087D01*
X0344337Y0108049D01*
X0344293Y0108007D01*
X0344251Y0107963D01*
X0344213Y0107917D01*
X0344177Y0107868D01*
X0344144Y0107817D01*
X0344115Y0107765D01*
X0344088Y0107710D01*
X0344065Y0107655D01*
X0344045Y0107598D01*
X0344029Y0107539D01*
X0344016Y0107480D01*
X0344007Y0107421D01*
X0344002Y0107360D01*
X0344000Y0107300D01*
X0344000Y0100300D01*
X0344002Y0100240D01*
X0344007Y0100179D01*
X0344016Y0100120D01*
X0344029Y0100061D01*
X0344045Y0100002D01*
X0344065Y0099945D01*
X0344088Y0099890D01*
X0344115Y0099835D01*
X0344144Y0099783D01*
X0344177Y0099732D01*
X0344213Y0099683D01*
X0344251Y0099637D01*
X0344293Y0099593D01*
X0344337Y0099551D01*
X0344383Y0099513D01*
X0344432Y0099477D01*
X0344483Y0099444D01*
X0344535Y0099415D01*
X0344590Y0099388D01*
X0344645Y0099365D01*
X0344702Y0099345D01*
X0344761Y0099329D01*
X0344820Y0099316D01*
X0344879Y0099307D01*
X0344940Y0099302D01*
X0345000Y0099300D01*
X0345000Y0098300D02*
X0344940Y0098298D01*
X0344879Y0098293D01*
X0344820Y0098284D01*
X0344761Y0098271D01*
X0344702Y0098255D01*
X0344645Y0098235D01*
X0344590Y0098212D01*
X0344535Y0098185D01*
X0344483Y0098156D01*
X0344432Y0098123D01*
X0344383Y0098087D01*
X0344337Y0098049D01*
X0344293Y0098007D01*
X0344251Y0097963D01*
X0344213Y0097917D01*
X0344177Y0097868D01*
X0344144Y0097817D01*
X0344115Y0097765D01*
X0344088Y0097710D01*
X0344065Y0097655D01*
X0344045Y0097598D01*
X0344029Y0097539D01*
X0344016Y0097480D01*
X0344007Y0097421D01*
X0344002Y0097360D01*
X0344000Y0097300D01*
X0344000Y0090300D01*
X0344002Y0090240D01*
X0344007Y0090179D01*
X0344016Y0090120D01*
X0344029Y0090061D01*
X0344045Y0090002D01*
X0344065Y0089945D01*
X0344088Y0089890D01*
X0344115Y0089835D01*
X0344144Y0089783D01*
X0344177Y0089732D01*
X0344213Y0089683D01*
X0344251Y0089637D01*
X0344293Y0089593D01*
X0344337Y0089551D01*
X0344383Y0089513D01*
X0344432Y0089477D01*
X0344483Y0089444D01*
X0344535Y0089415D01*
X0344590Y0089388D01*
X0344645Y0089365D01*
X0344702Y0089345D01*
X0344761Y0089329D01*
X0344820Y0089316D01*
X0344879Y0089307D01*
X0344940Y0089302D01*
X0345000Y0089300D01*
X0311000Y0115800D02*
X0311000Y0131800D01*
X0310998Y0131860D01*
X0310993Y0131921D01*
X0310984Y0131980D01*
X0310971Y0132039D01*
X0310955Y0132098D01*
X0310935Y0132155D01*
X0310912Y0132210D01*
X0310885Y0132265D01*
X0310856Y0132317D01*
X0310823Y0132368D01*
X0310787Y0132417D01*
X0310749Y0132463D01*
X0310707Y0132507D01*
X0310663Y0132549D01*
X0310617Y0132587D01*
X0310568Y0132623D01*
X0310517Y0132656D01*
X0310465Y0132685D01*
X0310410Y0132712D01*
X0310355Y0132735D01*
X0310298Y0132755D01*
X0310239Y0132771D01*
X0310180Y0132784D01*
X0310121Y0132793D01*
X0310060Y0132798D01*
X0310000Y0132800D01*
X0283000Y0132800D01*
X0282940Y0132798D01*
X0282879Y0132793D01*
X0282820Y0132784D01*
X0282761Y0132771D01*
X0282702Y0132755D01*
X0282645Y0132735D01*
X0282590Y0132712D01*
X0282535Y0132685D01*
X0282483Y0132656D01*
X0282432Y0132623D01*
X0282383Y0132587D01*
X0282337Y0132549D01*
X0282293Y0132507D01*
X0282251Y0132463D01*
X0282213Y0132417D01*
X0282177Y0132368D01*
X0282144Y0132317D01*
X0282115Y0132265D01*
X0282088Y0132210D01*
X0282065Y0132155D01*
X0282045Y0132098D01*
X0282029Y0132039D01*
X0282016Y0131980D01*
X0282007Y0131921D01*
X0282002Y0131860D01*
X0282000Y0131800D01*
X0282000Y0115800D01*
X0282002Y0115740D01*
X0282007Y0115679D01*
X0282016Y0115620D01*
X0282029Y0115561D01*
X0282045Y0115502D01*
X0282065Y0115445D01*
X0282088Y0115390D01*
X0282115Y0115335D01*
X0282144Y0115283D01*
X0282177Y0115232D01*
X0282213Y0115183D01*
X0282251Y0115137D01*
X0282293Y0115093D01*
X0282337Y0115051D01*
X0282383Y0115013D01*
X0282432Y0114977D01*
X0282483Y0114944D01*
X0282535Y0114915D01*
X0282590Y0114888D01*
X0282645Y0114865D01*
X0282702Y0114845D01*
X0282761Y0114829D01*
X0282820Y0114816D01*
X0282879Y0114807D01*
X0282940Y0114802D01*
X0283000Y0114800D01*
X0310000Y0114800D01*
X0310060Y0114802D01*
X0310121Y0114807D01*
X0310180Y0114816D01*
X0310239Y0114829D01*
X0310298Y0114845D01*
X0310355Y0114865D01*
X0310410Y0114888D01*
X0310465Y0114915D01*
X0310517Y0114944D01*
X0310568Y0114977D01*
X0310617Y0115013D01*
X0310663Y0115051D01*
X0310707Y0115093D01*
X0310749Y0115137D01*
X0310787Y0115183D01*
X0310823Y0115232D01*
X0310856Y0115283D01*
X0310885Y0115335D01*
X0310912Y0115390D01*
X0310935Y0115445D01*
X0310955Y0115502D01*
X0310971Y0115561D01*
X0310984Y0115620D01*
X0310993Y0115679D01*
X0310998Y0115740D01*
X0311000Y0115800D01*
X0302500Y0123800D02*
X0297800Y0123800D01*
X0295300Y0123800D02*
X0290500Y0123800D01*
X0246000Y0132300D02*
X0246000Y0133800D01*
X0245500Y0134300D01*
X0245500Y0153300D01*
X0246000Y0153800D01*
X0246000Y0155300D01*
X0245998Y0155360D01*
X0245993Y0155421D01*
X0245984Y0155480D01*
X0245971Y0155539D01*
X0245955Y0155598D01*
X0245935Y0155655D01*
X0245912Y0155710D01*
X0245885Y0155765D01*
X0245856Y0155817D01*
X0245823Y0155868D01*
X0245787Y0155917D01*
X0245749Y0155963D01*
X0245707Y0156007D01*
X0245663Y0156049D01*
X0245617Y0156087D01*
X0245568Y0156123D01*
X0245517Y0156156D01*
X0245465Y0156185D01*
X0245410Y0156212D01*
X0245355Y0156235D01*
X0245298Y0156255D01*
X0245239Y0156271D01*
X0245180Y0156284D01*
X0245121Y0156293D01*
X0245060Y0156298D01*
X0245000Y0156300D01*
X0238000Y0156300D01*
X0237940Y0156298D01*
X0237879Y0156293D01*
X0237820Y0156284D01*
X0237761Y0156271D01*
X0237702Y0156255D01*
X0237645Y0156235D01*
X0237590Y0156212D01*
X0237535Y0156185D01*
X0237483Y0156156D01*
X0237432Y0156123D01*
X0237383Y0156087D01*
X0237337Y0156049D01*
X0237293Y0156007D01*
X0237251Y0155963D01*
X0237213Y0155917D01*
X0237177Y0155868D01*
X0237144Y0155817D01*
X0237115Y0155765D01*
X0237088Y0155710D01*
X0237065Y0155655D01*
X0237045Y0155598D01*
X0237029Y0155539D01*
X0237016Y0155480D01*
X0237007Y0155421D01*
X0237002Y0155360D01*
X0237000Y0155300D01*
X0237000Y0153800D01*
X0237500Y0153300D01*
X0237500Y0134300D01*
X0237000Y0133800D01*
X0237000Y0132300D01*
X0237002Y0132240D01*
X0237007Y0132179D01*
X0237016Y0132120D01*
X0237029Y0132061D01*
X0237045Y0132002D01*
X0237065Y0131945D01*
X0237088Y0131890D01*
X0237115Y0131835D01*
X0237144Y0131783D01*
X0237177Y0131732D01*
X0237213Y0131683D01*
X0237251Y0131637D01*
X0237293Y0131593D01*
X0237337Y0131551D01*
X0237383Y0131513D01*
X0237432Y0131477D01*
X0237483Y0131444D01*
X0237535Y0131415D01*
X0237590Y0131388D01*
X0237645Y0131365D01*
X0237702Y0131345D01*
X0237761Y0131329D01*
X0237820Y0131316D01*
X0237879Y0131307D01*
X0237940Y0131302D01*
X0238000Y0131300D01*
X0245000Y0131300D01*
X0245060Y0131302D01*
X0245121Y0131307D01*
X0245180Y0131316D01*
X0245239Y0131329D01*
X0245298Y0131345D01*
X0245355Y0131365D01*
X0245410Y0131388D01*
X0245465Y0131415D01*
X0245517Y0131444D01*
X0245568Y0131477D01*
X0245617Y0131513D01*
X0245663Y0131551D01*
X0245707Y0131593D01*
X0245749Y0131637D01*
X0245787Y0131683D01*
X0245823Y0131732D01*
X0245856Y0131783D01*
X0245885Y0131835D01*
X0245912Y0131890D01*
X0245935Y0131945D01*
X0245955Y0132002D01*
X0245971Y0132061D01*
X0245984Y0132120D01*
X0245993Y0132179D01*
X0245998Y0132240D01*
X0246000Y0132300D01*
X0218000Y0128800D02*
X0210500Y0128800D01*
X0210498Y0128926D01*
X0210492Y0129051D01*
X0210482Y0129176D01*
X0210468Y0129301D01*
X0210451Y0129426D01*
X0210429Y0129550D01*
X0210404Y0129673D01*
X0210374Y0129795D01*
X0210341Y0129916D01*
X0210304Y0130036D01*
X0210264Y0130155D01*
X0210219Y0130272D01*
X0210171Y0130389D01*
X0210119Y0130503D01*
X0210064Y0130616D01*
X0210005Y0130727D01*
X0209943Y0130836D01*
X0209877Y0130943D01*
X0209808Y0131048D01*
X0209736Y0131151D01*
X0209661Y0131252D01*
X0209582Y0131350D01*
X0209500Y0131445D01*
X0209416Y0131538D01*
X0209328Y0131628D01*
X0209238Y0131716D01*
X0209145Y0131800D01*
X0209050Y0131882D01*
X0208952Y0131961D01*
X0208851Y0132036D01*
X0208748Y0132108D01*
X0208643Y0132177D01*
X0208536Y0132243D01*
X0208427Y0132305D01*
X0208316Y0132364D01*
X0208203Y0132419D01*
X0208089Y0132471D01*
X0207972Y0132519D01*
X0207855Y0132564D01*
X0207736Y0132604D01*
X0207616Y0132641D01*
X0207495Y0132674D01*
X0207373Y0132704D01*
X0207250Y0132729D01*
X0207126Y0132751D01*
X0207001Y0132768D01*
X0206876Y0132782D01*
X0206751Y0132792D01*
X0206626Y0132798D01*
X0206500Y0132800D01*
X0206374Y0132798D01*
X0206249Y0132792D01*
X0206124Y0132782D01*
X0205999Y0132768D01*
X0205874Y0132751D01*
X0205750Y0132729D01*
X0205627Y0132704D01*
X0205505Y0132674D01*
X0205384Y0132641D01*
X0205264Y0132604D01*
X0205145Y0132564D01*
X0205028Y0132519D01*
X0204911Y0132471D01*
X0204797Y0132419D01*
X0204684Y0132364D01*
X0204573Y0132305D01*
X0204464Y0132243D01*
X0204357Y0132177D01*
X0204252Y0132108D01*
X0204149Y0132036D01*
X0204048Y0131961D01*
X0203950Y0131882D01*
X0203855Y0131800D01*
X0203762Y0131716D01*
X0203672Y0131628D01*
X0203584Y0131538D01*
X0203500Y0131445D01*
X0203418Y0131350D01*
X0203339Y0131252D01*
X0203264Y0131151D01*
X0203192Y0131048D01*
X0203123Y0130943D01*
X0203057Y0130836D01*
X0202995Y0130727D01*
X0202936Y0130616D01*
X0202881Y0130503D01*
X0202829Y0130389D01*
X0202781Y0130272D01*
X0202736Y0130155D01*
X0202696Y0130036D01*
X0202659Y0129916D01*
X0202626Y0129795D01*
X0202596Y0129673D01*
X0202571Y0129550D01*
X0202549Y0129426D01*
X0202532Y0129301D01*
X0202518Y0129176D01*
X0202508Y0129051D01*
X0202502Y0128926D01*
X0202500Y0128800D01*
X0195000Y0128800D01*
X0195000Y0168800D01*
X0218000Y0168800D01*
X0218000Y0128800D01*
X0252000Y0155800D02*
X0252000Y0171800D01*
X0252002Y0171860D01*
X0252007Y0171921D01*
X0252016Y0171980D01*
X0252029Y0172039D01*
X0252045Y0172098D01*
X0252065Y0172155D01*
X0252088Y0172210D01*
X0252115Y0172265D01*
X0252144Y0172317D01*
X0252177Y0172368D01*
X0252213Y0172417D01*
X0252251Y0172463D01*
X0252293Y0172507D01*
X0252337Y0172549D01*
X0252383Y0172587D01*
X0252432Y0172623D01*
X0252483Y0172656D01*
X0252535Y0172685D01*
X0252590Y0172712D01*
X0252645Y0172735D01*
X0252702Y0172755D01*
X0252761Y0172771D01*
X0252820Y0172784D01*
X0252879Y0172793D01*
X0252940Y0172798D01*
X0253000Y0172800D01*
X0280000Y0172800D01*
X0280060Y0172798D01*
X0280121Y0172793D01*
X0280180Y0172784D01*
X0280239Y0172771D01*
X0280298Y0172755D01*
X0280355Y0172735D01*
X0280410Y0172712D01*
X0280465Y0172685D01*
X0280517Y0172656D01*
X0280568Y0172623D01*
X0280617Y0172587D01*
X0280663Y0172549D01*
X0280707Y0172507D01*
X0280749Y0172463D01*
X0280787Y0172417D01*
X0280823Y0172368D01*
X0280856Y0172317D01*
X0280885Y0172265D01*
X0280912Y0172210D01*
X0280935Y0172155D01*
X0280955Y0172098D01*
X0280971Y0172039D01*
X0280984Y0171980D01*
X0280993Y0171921D01*
X0280998Y0171860D01*
X0281000Y0171800D01*
X0281000Y0155800D01*
X0280998Y0155740D01*
X0280993Y0155679D01*
X0280984Y0155620D01*
X0280971Y0155561D01*
X0280955Y0155502D01*
X0280935Y0155445D01*
X0280912Y0155390D01*
X0280885Y0155335D01*
X0280856Y0155283D01*
X0280823Y0155232D01*
X0280787Y0155183D01*
X0280749Y0155137D01*
X0280707Y0155093D01*
X0280663Y0155051D01*
X0280617Y0155013D01*
X0280568Y0154977D01*
X0280517Y0154944D01*
X0280465Y0154915D01*
X0280410Y0154888D01*
X0280355Y0154865D01*
X0280298Y0154845D01*
X0280239Y0154829D01*
X0280180Y0154816D01*
X0280121Y0154807D01*
X0280060Y0154802D01*
X0280000Y0154800D01*
X0253000Y0154800D01*
X0252940Y0154802D01*
X0252879Y0154807D01*
X0252820Y0154816D01*
X0252761Y0154829D01*
X0252702Y0154845D01*
X0252645Y0154865D01*
X0252590Y0154888D01*
X0252535Y0154915D01*
X0252483Y0154944D01*
X0252432Y0154977D01*
X0252383Y0155013D01*
X0252337Y0155051D01*
X0252293Y0155093D01*
X0252251Y0155137D01*
X0252213Y0155183D01*
X0252177Y0155232D01*
X0252144Y0155283D01*
X0252115Y0155335D01*
X0252088Y0155390D01*
X0252065Y0155445D01*
X0252045Y0155502D01*
X0252029Y0155561D01*
X0252016Y0155620D01*
X0252007Y0155679D01*
X0252002Y0155740D01*
X0252000Y0155800D01*
X0260500Y0163800D02*
X0265300Y0163800D01*
X0267800Y0163800D02*
X0272500Y0163800D01*
X0231500Y0183800D02*
X0231503Y0184045D01*
X0231512Y0184291D01*
X0231527Y0184536D01*
X0231548Y0184780D01*
X0231575Y0185024D01*
X0231608Y0185267D01*
X0231647Y0185510D01*
X0231692Y0185751D01*
X0231743Y0185991D01*
X0231800Y0186230D01*
X0231862Y0186467D01*
X0231931Y0186703D01*
X0232005Y0186937D01*
X0232085Y0187169D01*
X0232170Y0187399D01*
X0232261Y0187627D01*
X0232358Y0187852D01*
X0232460Y0188076D01*
X0232568Y0188296D01*
X0232681Y0188514D01*
X0232799Y0188729D01*
X0232923Y0188941D01*
X0233051Y0189150D01*
X0233185Y0189356D01*
X0233324Y0189558D01*
X0233468Y0189757D01*
X0233617Y0189952D01*
X0233770Y0190144D01*
X0233928Y0190332D01*
X0234090Y0190516D01*
X0234258Y0190695D01*
X0234429Y0190871D01*
X0234605Y0191042D01*
X0234784Y0191210D01*
X0234968Y0191372D01*
X0235156Y0191530D01*
X0235348Y0191683D01*
X0235543Y0191832D01*
X0235742Y0191976D01*
X0235944Y0192115D01*
X0236150Y0192249D01*
X0236359Y0192377D01*
X0236571Y0192501D01*
X0236786Y0192619D01*
X0237004Y0192732D01*
X0237224Y0192840D01*
X0237448Y0192942D01*
X0237673Y0193039D01*
X0237901Y0193130D01*
X0238131Y0193215D01*
X0238363Y0193295D01*
X0238597Y0193369D01*
X0238833Y0193438D01*
X0239070Y0193500D01*
X0239309Y0193557D01*
X0239549Y0193608D01*
X0239790Y0193653D01*
X0240033Y0193692D01*
X0240276Y0193725D01*
X0240520Y0193752D01*
X0240764Y0193773D01*
X0241009Y0193788D01*
X0241255Y0193797D01*
X0241500Y0193800D01*
X0241745Y0193797D01*
X0241991Y0193788D01*
X0242236Y0193773D01*
X0242480Y0193752D01*
X0242724Y0193725D01*
X0242967Y0193692D01*
X0243210Y0193653D01*
X0243451Y0193608D01*
X0243691Y0193557D01*
X0243930Y0193500D01*
X0244167Y0193438D01*
X0244403Y0193369D01*
X0244637Y0193295D01*
X0244869Y0193215D01*
X0245099Y0193130D01*
X0245327Y0193039D01*
X0245552Y0192942D01*
X0245776Y0192840D01*
X0245996Y0192732D01*
X0246214Y0192619D01*
X0246429Y0192501D01*
X0246641Y0192377D01*
X0246850Y0192249D01*
X0247056Y0192115D01*
X0247258Y0191976D01*
X0247457Y0191832D01*
X0247652Y0191683D01*
X0247844Y0191530D01*
X0248032Y0191372D01*
X0248216Y0191210D01*
X0248395Y0191042D01*
X0248571Y0190871D01*
X0248742Y0190695D01*
X0248910Y0190516D01*
X0249072Y0190332D01*
X0249230Y0190144D01*
X0249383Y0189952D01*
X0249532Y0189757D01*
X0249676Y0189558D01*
X0249815Y0189356D01*
X0249949Y0189150D01*
X0250077Y0188941D01*
X0250201Y0188729D01*
X0250319Y0188514D01*
X0250432Y0188296D01*
X0250540Y0188076D01*
X0250642Y0187852D01*
X0250739Y0187627D01*
X0250830Y0187399D01*
X0250915Y0187169D01*
X0250995Y0186937D01*
X0251069Y0186703D01*
X0251138Y0186467D01*
X0251200Y0186230D01*
X0251257Y0185991D01*
X0251308Y0185751D01*
X0251353Y0185510D01*
X0251392Y0185267D01*
X0251425Y0185024D01*
X0251452Y0184780D01*
X0251473Y0184536D01*
X0251488Y0184291D01*
X0251497Y0184045D01*
X0251500Y0183800D01*
X0251497Y0183555D01*
X0251488Y0183309D01*
X0251473Y0183064D01*
X0251452Y0182820D01*
X0251425Y0182576D01*
X0251392Y0182333D01*
X0251353Y0182090D01*
X0251308Y0181849D01*
X0251257Y0181609D01*
X0251200Y0181370D01*
X0251138Y0181133D01*
X0251069Y0180897D01*
X0250995Y0180663D01*
X0250915Y0180431D01*
X0250830Y0180201D01*
X0250739Y0179973D01*
X0250642Y0179748D01*
X0250540Y0179524D01*
X0250432Y0179304D01*
X0250319Y0179086D01*
X0250201Y0178871D01*
X0250077Y0178659D01*
X0249949Y0178450D01*
X0249815Y0178244D01*
X0249676Y0178042D01*
X0249532Y0177843D01*
X0249383Y0177648D01*
X0249230Y0177456D01*
X0249072Y0177268D01*
X0248910Y0177084D01*
X0248742Y0176905D01*
X0248571Y0176729D01*
X0248395Y0176558D01*
X0248216Y0176390D01*
X0248032Y0176228D01*
X0247844Y0176070D01*
X0247652Y0175917D01*
X0247457Y0175768D01*
X0247258Y0175624D01*
X0247056Y0175485D01*
X0246850Y0175351D01*
X0246641Y0175223D01*
X0246429Y0175099D01*
X0246214Y0174981D01*
X0245996Y0174868D01*
X0245776Y0174760D01*
X0245552Y0174658D01*
X0245327Y0174561D01*
X0245099Y0174470D01*
X0244869Y0174385D01*
X0244637Y0174305D01*
X0244403Y0174231D01*
X0244167Y0174162D01*
X0243930Y0174100D01*
X0243691Y0174043D01*
X0243451Y0173992D01*
X0243210Y0173947D01*
X0242967Y0173908D01*
X0242724Y0173875D01*
X0242480Y0173848D01*
X0242236Y0173827D01*
X0241991Y0173812D01*
X0241745Y0173803D01*
X0241500Y0173800D01*
X0241255Y0173803D01*
X0241009Y0173812D01*
X0240764Y0173827D01*
X0240520Y0173848D01*
X0240276Y0173875D01*
X0240033Y0173908D01*
X0239790Y0173947D01*
X0239549Y0173992D01*
X0239309Y0174043D01*
X0239070Y0174100D01*
X0238833Y0174162D01*
X0238597Y0174231D01*
X0238363Y0174305D01*
X0238131Y0174385D01*
X0237901Y0174470D01*
X0237673Y0174561D01*
X0237448Y0174658D01*
X0237224Y0174760D01*
X0237004Y0174868D01*
X0236786Y0174981D01*
X0236571Y0175099D01*
X0236359Y0175223D01*
X0236150Y0175351D01*
X0235944Y0175485D01*
X0235742Y0175624D01*
X0235543Y0175768D01*
X0235348Y0175917D01*
X0235156Y0176070D01*
X0234968Y0176228D01*
X0234784Y0176390D01*
X0234605Y0176558D01*
X0234429Y0176729D01*
X0234258Y0176905D01*
X0234090Y0177084D01*
X0233928Y0177268D01*
X0233770Y0177456D01*
X0233617Y0177648D01*
X0233468Y0177843D01*
X0233324Y0178042D01*
X0233185Y0178244D01*
X0233051Y0178450D01*
X0232923Y0178659D01*
X0232799Y0178871D01*
X0232681Y0179086D01*
X0232568Y0179304D01*
X0232460Y0179524D01*
X0232358Y0179748D01*
X0232261Y0179973D01*
X0232170Y0180201D01*
X0232085Y0180431D01*
X0232005Y0180663D01*
X0231931Y0180897D01*
X0231862Y0181133D01*
X0231800Y0181370D01*
X0231743Y0181609D01*
X0231692Y0181849D01*
X0231647Y0182090D01*
X0231608Y0182333D01*
X0231575Y0182576D01*
X0231548Y0182820D01*
X0231527Y0183064D01*
X0231512Y0183309D01*
X0231503Y0183555D01*
X0231500Y0183800D01*
X0219000Y0182300D02*
X0219000Y0175300D01*
X0218998Y0175240D01*
X0218993Y0175179D01*
X0218984Y0175120D01*
X0218971Y0175061D01*
X0218955Y0175002D01*
X0218935Y0174945D01*
X0218912Y0174890D01*
X0218885Y0174835D01*
X0218856Y0174783D01*
X0218823Y0174732D01*
X0218787Y0174683D01*
X0218749Y0174637D01*
X0218707Y0174593D01*
X0218663Y0174551D01*
X0218617Y0174513D01*
X0218568Y0174477D01*
X0218517Y0174444D01*
X0218465Y0174415D01*
X0218410Y0174388D01*
X0218355Y0174365D01*
X0218298Y0174345D01*
X0218239Y0174329D01*
X0218180Y0174316D01*
X0218121Y0174307D01*
X0218060Y0174302D01*
X0218000Y0174300D01*
X0216500Y0174300D01*
X0216000Y0174800D01*
X0197000Y0174800D01*
X0196500Y0174300D01*
X0195000Y0174300D01*
X0194940Y0174302D01*
X0194879Y0174307D01*
X0194820Y0174316D01*
X0194761Y0174329D01*
X0194702Y0174345D01*
X0194645Y0174365D01*
X0194590Y0174388D01*
X0194535Y0174415D01*
X0194483Y0174444D01*
X0194432Y0174477D01*
X0194383Y0174513D01*
X0194337Y0174551D01*
X0194293Y0174593D01*
X0194251Y0174637D01*
X0194213Y0174683D01*
X0194177Y0174732D01*
X0194144Y0174783D01*
X0194115Y0174835D01*
X0194088Y0174890D01*
X0194065Y0174945D01*
X0194045Y0175002D01*
X0194029Y0175061D01*
X0194016Y0175120D01*
X0194007Y0175179D01*
X0194002Y0175240D01*
X0194000Y0175300D01*
X0194000Y0182300D01*
X0194002Y0182360D01*
X0194007Y0182421D01*
X0194016Y0182480D01*
X0194029Y0182539D01*
X0194045Y0182598D01*
X0194065Y0182655D01*
X0194088Y0182710D01*
X0194115Y0182765D01*
X0194144Y0182817D01*
X0194177Y0182868D01*
X0194213Y0182917D01*
X0194251Y0182963D01*
X0194293Y0183007D01*
X0194337Y0183049D01*
X0194383Y0183087D01*
X0194432Y0183123D01*
X0194483Y0183156D01*
X0194535Y0183185D01*
X0194590Y0183212D01*
X0194645Y0183235D01*
X0194702Y0183255D01*
X0194761Y0183271D01*
X0194820Y0183284D01*
X0194879Y0183293D01*
X0194940Y0183298D01*
X0195000Y0183300D01*
X0196500Y0183300D01*
X0197000Y0182800D01*
X0216000Y0182800D01*
X0216500Y0183300D01*
X0218000Y0183300D01*
X0218060Y0183298D01*
X0218121Y0183293D01*
X0218180Y0183284D01*
X0218239Y0183271D01*
X0218298Y0183255D01*
X0218355Y0183235D01*
X0218410Y0183212D01*
X0218465Y0183185D01*
X0218517Y0183156D01*
X0218568Y0183123D01*
X0218617Y0183087D01*
X0218663Y0183049D01*
X0218707Y0183007D01*
X0218749Y0182963D01*
X0218787Y0182917D01*
X0218823Y0182868D01*
X0218856Y0182817D01*
X0218885Y0182765D01*
X0218912Y0182710D01*
X0218935Y0182655D01*
X0218955Y0182598D01*
X0218971Y0182539D01*
X0218984Y0182480D01*
X0218993Y0182421D01*
X0218998Y0182360D01*
X0219000Y0182300D01*
X0204000Y0198800D02*
X0199000Y0198800D01*
X0196500Y0201300D01*
X0196500Y0206300D01*
X0199000Y0208800D01*
X0196500Y0211300D01*
X0196500Y0216300D01*
X0199000Y0218800D01*
X0204000Y0218800D01*
X0206500Y0216300D01*
X0206500Y0211300D01*
X0204000Y0208800D01*
X0206500Y0206300D01*
X0206500Y0201300D01*
X0204000Y0198800D01*
X0204000Y0208800D02*
X0199000Y0208800D01*
X0181000Y0195300D02*
X0181000Y0193800D01*
X0180500Y0193300D01*
X0180500Y0174300D01*
X0181000Y0173800D01*
X0181000Y0172300D01*
X0180998Y0172240D01*
X0180993Y0172179D01*
X0180984Y0172120D01*
X0180971Y0172061D01*
X0180955Y0172002D01*
X0180935Y0171945D01*
X0180912Y0171890D01*
X0180885Y0171835D01*
X0180856Y0171783D01*
X0180823Y0171732D01*
X0180787Y0171683D01*
X0180749Y0171637D01*
X0180707Y0171593D01*
X0180663Y0171551D01*
X0180617Y0171513D01*
X0180568Y0171477D01*
X0180517Y0171444D01*
X0180465Y0171415D01*
X0180410Y0171388D01*
X0180355Y0171365D01*
X0180298Y0171345D01*
X0180239Y0171329D01*
X0180180Y0171316D01*
X0180121Y0171307D01*
X0180060Y0171302D01*
X0180000Y0171300D01*
X0173000Y0171300D01*
X0172940Y0171302D01*
X0172879Y0171307D01*
X0172820Y0171316D01*
X0172761Y0171329D01*
X0172702Y0171345D01*
X0172645Y0171365D01*
X0172590Y0171388D01*
X0172535Y0171415D01*
X0172483Y0171444D01*
X0172432Y0171477D01*
X0172383Y0171513D01*
X0172337Y0171551D01*
X0172293Y0171593D01*
X0172251Y0171637D01*
X0172213Y0171683D01*
X0172177Y0171732D01*
X0172144Y0171783D01*
X0172115Y0171835D01*
X0172088Y0171890D01*
X0172065Y0171945D01*
X0172045Y0172002D01*
X0172029Y0172061D01*
X0172016Y0172120D01*
X0172007Y0172179D01*
X0172002Y0172240D01*
X0172000Y0172300D01*
X0172000Y0173800D01*
X0172500Y0174300D01*
X0172500Y0193300D01*
X0172000Y0193800D01*
X0172000Y0195300D01*
X0172002Y0195360D01*
X0172007Y0195421D01*
X0172016Y0195480D01*
X0172029Y0195539D01*
X0172045Y0195598D01*
X0172065Y0195655D01*
X0172088Y0195710D01*
X0172115Y0195765D01*
X0172144Y0195817D01*
X0172177Y0195868D01*
X0172213Y0195917D01*
X0172251Y0195963D01*
X0172293Y0196007D01*
X0172337Y0196049D01*
X0172383Y0196087D01*
X0172432Y0196123D01*
X0172483Y0196156D01*
X0172535Y0196185D01*
X0172590Y0196212D01*
X0172645Y0196235D01*
X0172702Y0196255D01*
X0172761Y0196271D01*
X0172820Y0196284D01*
X0172879Y0196293D01*
X0172940Y0196298D01*
X0173000Y0196300D01*
X0180000Y0196300D01*
X0180060Y0196298D01*
X0180121Y0196293D01*
X0180180Y0196284D01*
X0180239Y0196271D01*
X0180298Y0196255D01*
X0180355Y0196235D01*
X0180410Y0196212D01*
X0180465Y0196185D01*
X0180517Y0196156D01*
X0180568Y0196123D01*
X0180617Y0196087D01*
X0180663Y0196049D01*
X0180707Y0196007D01*
X0180749Y0195963D01*
X0180787Y0195917D01*
X0180823Y0195868D01*
X0180856Y0195817D01*
X0180885Y0195765D01*
X0180912Y0195710D01*
X0180935Y0195655D01*
X0180955Y0195598D01*
X0180971Y0195539D01*
X0180984Y0195480D01*
X0180993Y0195421D01*
X0180998Y0195360D01*
X0181000Y0195300D01*
X0168000Y0209300D02*
X0166500Y0209300D01*
X0166000Y0209800D01*
X0147000Y0209800D01*
X0146500Y0209300D01*
X0145000Y0209300D01*
X0144940Y0209302D01*
X0144879Y0209307D01*
X0144820Y0209316D01*
X0144761Y0209329D01*
X0144702Y0209345D01*
X0144645Y0209365D01*
X0144590Y0209388D01*
X0144535Y0209415D01*
X0144483Y0209444D01*
X0144432Y0209477D01*
X0144383Y0209513D01*
X0144337Y0209551D01*
X0144293Y0209593D01*
X0144251Y0209637D01*
X0144213Y0209683D01*
X0144177Y0209732D01*
X0144144Y0209783D01*
X0144115Y0209835D01*
X0144088Y0209890D01*
X0144065Y0209945D01*
X0144045Y0210002D01*
X0144029Y0210061D01*
X0144016Y0210120D01*
X0144007Y0210179D01*
X0144002Y0210240D01*
X0144000Y0210300D01*
X0144000Y0217300D01*
X0144002Y0217360D01*
X0144007Y0217421D01*
X0144016Y0217480D01*
X0144029Y0217539D01*
X0144045Y0217598D01*
X0144065Y0217655D01*
X0144088Y0217710D01*
X0144115Y0217765D01*
X0144144Y0217817D01*
X0144177Y0217868D01*
X0144213Y0217917D01*
X0144251Y0217963D01*
X0144293Y0218007D01*
X0144337Y0218049D01*
X0144383Y0218087D01*
X0144432Y0218123D01*
X0144483Y0218156D01*
X0144535Y0218185D01*
X0144590Y0218212D01*
X0144645Y0218235D01*
X0144702Y0218255D01*
X0144761Y0218271D01*
X0144820Y0218284D01*
X0144879Y0218293D01*
X0144940Y0218298D01*
X0145000Y0218300D01*
X0146500Y0218300D01*
X0147000Y0217800D01*
X0166000Y0217800D01*
X0166500Y0218300D01*
X0168000Y0218300D01*
X0168060Y0218298D01*
X0168121Y0218293D01*
X0168180Y0218284D01*
X0168239Y0218271D01*
X0168298Y0218255D01*
X0168355Y0218235D01*
X0168410Y0218212D01*
X0168465Y0218185D01*
X0168517Y0218156D01*
X0168568Y0218123D01*
X0168617Y0218087D01*
X0168663Y0218049D01*
X0168707Y0218007D01*
X0168749Y0217963D01*
X0168787Y0217917D01*
X0168823Y0217868D01*
X0168856Y0217817D01*
X0168885Y0217765D01*
X0168912Y0217710D01*
X0168935Y0217655D01*
X0168955Y0217598D01*
X0168971Y0217539D01*
X0168984Y0217480D01*
X0168993Y0217421D01*
X0168998Y0217360D01*
X0169000Y0217300D01*
X0169000Y0210300D01*
X0168998Y0210240D01*
X0168993Y0210179D01*
X0168984Y0210120D01*
X0168971Y0210061D01*
X0168955Y0210002D01*
X0168935Y0209945D01*
X0168912Y0209890D01*
X0168885Y0209835D01*
X0168856Y0209783D01*
X0168823Y0209732D01*
X0168787Y0209683D01*
X0168749Y0209637D01*
X0168707Y0209593D01*
X0168663Y0209551D01*
X0168617Y0209513D01*
X0168568Y0209477D01*
X0168517Y0209444D01*
X0168465Y0209415D01*
X0168410Y0209388D01*
X0168355Y0209365D01*
X0168298Y0209345D01*
X0168239Y0209329D01*
X0168180Y0209316D01*
X0168121Y0209307D01*
X0168060Y0209302D01*
X0168000Y0209300D01*
X0187000Y0227800D02*
X0187000Y0228800D01*
X0186000Y0228800D01*
X0187000Y0228800D02*
X0187000Y0229800D01*
X0187000Y0228800D02*
X0188000Y0228800D01*
X0171500Y0233800D02*
X0171503Y0234045D01*
X0171512Y0234291D01*
X0171527Y0234536D01*
X0171548Y0234780D01*
X0171575Y0235024D01*
X0171608Y0235267D01*
X0171647Y0235510D01*
X0171692Y0235751D01*
X0171743Y0235991D01*
X0171800Y0236230D01*
X0171862Y0236467D01*
X0171931Y0236703D01*
X0172005Y0236937D01*
X0172085Y0237169D01*
X0172170Y0237399D01*
X0172261Y0237627D01*
X0172358Y0237852D01*
X0172460Y0238076D01*
X0172568Y0238296D01*
X0172681Y0238514D01*
X0172799Y0238729D01*
X0172923Y0238941D01*
X0173051Y0239150D01*
X0173185Y0239356D01*
X0173324Y0239558D01*
X0173468Y0239757D01*
X0173617Y0239952D01*
X0173770Y0240144D01*
X0173928Y0240332D01*
X0174090Y0240516D01*
X0174258Y0240695D01*
X0174429Y0240871D01*
X0174605Y0241042D01*
X0174784Y0241210D01*
X0174968Y0241372D01*
X0175156Y0241530D01*
X0175348Y0241683D01*
X0175543Y0241832D01*
X0175742Y0241976D01*
X0175944Y0242115D01*
X0176150Y0242249D01*
X0176359Y0242377D01*
X0176571Y0242501D01*
X0176786Y0242619D01*
X0177004Y0242732D01*
X0177224Y0242840D01*
X0177448Y0242942D01*
X0177673Y0243039D01*
X0177901Y0243130D01*
X0178131Y0243215D01*
X0178363Y0243295D01*
X0178597Y0243369D01*
X0178833Y0243438D01*
X0179070Y0243500D01*
X0179309Y0243557D01*
X0179549Y0243608D01*
X0179790Y0243653D01*
X0180033Y0243692D01*
X0180276Y0243725D01*
X0180520Y0243752D01*
X0180764Y0243773D01*
X0181009Y0243788D01*
X0181255Y0243797D01*
X0181500Y0243800D01*
X0181745Y0243797D01*
X0181991Y0243788D01*
X0182236Y0243773D01*
X0182480Y0243752D01*
X0182724Y0243725D01*
X0182967Y0243692D01*
X0183210Y0243653D01*
X0183451Y0243608D01*
X0183691Y0243557D01*
X0183930Y0243500D01*
X0184167Y0243438D01*
X0184403Y0243369D01*
X0184637Y0243295D01*
X0184869Y0243215D01*
X0185099Y0243130D01*
X0185327Y0243039D01*
X0185552Y0242942D01*
X0185776Y0242840D01*
X0185996Y0242732D01*
X0186214Y0242619D01*
X0186429Y0242501D01*
X0186641Y0242377D01*
X0186850Y0242249D01*
X0187056Y0242115D01*
X0187258Y0241976D01*
X0187457Y0241832D01*
X0187652Y0241683D01*
X0187844Y0241530D01*
X0188032Y0241372D01*
X0188216Y0241210D01*
X0188395Y0241042D01*
X0188571Y0240871D01*
X0188742Y0240695D01*
X0188910Y0240516D01*
X0189072Y0240332D01*
X0189230Y0240144D01*
X0189383Y0239952D01*
X0189532Y0239757D01*
X0189676Y0239558D01*
X0189815Y0239356D01*
X0189949Y0239150D01*
X0190077Y0238941D01*
X0190201Y0238729D01*
X0190319Y0238514D01*
X0190432Y0238296D01*
X0190540Y0238076D01*
X0190642Y0237852D01*
X0190739Y0237627D01*
X0190830Y0237399D01*
X0190915Y0237169D01*
X0190995Y0236937D01*
X0191069Y0236703D01*
X0191138Y0236467D01*
X0191200Y0236230D01*
X0191257Y0235991D01*
X0191308Y0235751D01*
X0191353Y0235510D01*
X0191392Y0235267D01*
X0191425Y0235024D01*
X0191452Y0234780D01*
X0191473Y0234536D01*
X0191488Y0234291D01*
X0191497Y0234045D01*
X0191500Y0233800D01*
X0191497Y0233555D01*
X0191488Y0233309D01*
X0191473Y0233064D01*
X0191452Y0232820D01*
X0191425Y0232576D01*
X0191392Y0232333D01*
X0191353Y0232090D01*
X0191308Y0231849D01*
X0191257Y0231609D01*
X0191200Y0231370D01*
X0191138Y0231133D01*
X0191069Y0230897D01*
X0190995Y0230663D01*
X0190915Y0230431D01*
X0190830Y0230201D01*
X0190739Y0229973D01*
X0190642Y0229748D01*
X0190540Y0229524D01*
X0190432Y0229304D01*
X0190319Y0229086D01*
X0190201Y0228871D01*
X0190077Y0228659D01*
X0189949Y0228450D01*
X0189815Y0228244D01*
X0189676Y0228042D01*
X0189532Y0227843D01*
X0189383Y0227648D01*
X0189230Y0227456D01*
X0189072Y0227268D01*
X0188910Y0227084D01*
X0188742Y0226905D01*
X0188571Y0226729D01*
X0188395Y0226558D01*
X0188216Y0226390D01*
X0188032Y0226228D01*
X0187844Y0226070D01*
X0187652Y0225917D01*
X0187457Y0225768D01*
X0187258Y0225624D01*
X0187056Y0225485D01*
X0186850Y0225351D01*
X0186641Y0225223D01*
X0186429Y0225099D01*
X0186214Y0224981D01*
X0185996Y0224868D01*
X0185776Y0224760D01*
X0185552Y0224658D01*
X0185327Y0224561D01*
X0185099Y0224470D01*
X0184869Y0224385D01*
X0184637Y0224305D01*
X0184403Y0224231D01*
X0184167Y0224162D01*
X0183930Y0224100D01*
X0183691Y0224043D01*
X0183451Y0223992D01*
X0183210Y0223947D01*
X0182967Y0223908D01*
X0182724Y0223875D01*
X0182480Y0223848D01*
X0182236Y0223827D01*
X0181991Y0223812D01*
X0181745Y0223803D01*
X0181500Y0223800D01*
X0181255Y0223803D01*
X0181009Y0223812D01*
X0180764Y0223827D01*
X0180520Y0223848D01*
X0180276Y0223875D01*
X0180033Y0223908D01*
X0179790Y0223947D01*
X0179549Y0223992D01*
X0179309Y0224043D01*
X0179070Y0224100D01*
X0178833Y0224162D01*
X0178597Y0224231D01*
X0178363Y0224305D01*
X0178131Y0224385D01*
X0177901Y0224470D01*
X0177673Y0224561D01*
X0177448Y0224658D01*
X0177224Y0224760D01*
X0177004Y0224868D01*
X0176786Y0224981D01*
X0176571Y0225099D01*
X0176359Y0225223D01*
X0176150Y0225351D01*
X0175944Y0225485D01*
X0175742Y0225624D01*
X0175543Y0225768D01*
X0175348Y0225917D01*
X0175156Y0226070D01*
X0174968Y0226228D01*
X0174784Y0226390D01*
X0174605Y0226558D01*
X0174429Y0226729D01*
X0174258Y0226905D01*
X0174090Y0227084D01*
X0173928Y0227268D01*
X0173770Y0227456D01*
X0173617Y0227648D01*
X0173468Y0227843D01*
X0173324Y0228042D01*
X0173185Y0228244D01*
X0173051Y0228450D01*
X0172923Y0228659D01*
X0172799Y0228871D01*
X0172681Y0229086D01*
X0172568Y0229304D01*
X0172460Y0229524D01*
X0172358Y0229748D01*
X0172261Y0229973D01*
X0172170Y0230201D01*
X0172085Y0230431D01*
X0172005Y0230663D01*
X0171931Y0230897D01*
X0171862Y0231133D01*
X0171800Y0231370D01*
X0171743Y0231609D01*
X0171692Y0231849D01*
X0171647Y0232090D01*
X0171608Y0232333D01*
X0171575Y0232576D01*
X0171548Y0232820D01*
X0171527Y0233064D01*
X0171512Y0233309D01*
X0171503Y0233555D01*
X0171500Y0233800D01*
X0219000Y0230300D02*
X0219000Y0237300D01*
X0219002Y0237360D01*
X0219007Y0237421D01*
X0219016Y0237480D01*
X0219029Y0237539D01*
X0219045Y0237598D01*
X0219065Y0237655D01*
X0219088Y0237710D01*
X0219115Y0237765D01*
X0219144Y0237817D01*
X0219177Y0237868D01*
X0219213Y0237917D01*
X0219251Y0237963D01*
X0219293Y0238007D01*
X0219337Y0238049D01*
X0219383Y0238087D01*
X0219432Y0238123D01*
X0219483Y0238156D01*
X0219535Y0238185D01*
X0219590Y0238212D01*
X0219645Y0238235D01*
X0219702Y0238255D01*
X0219761Y0238271D01*
X0219820Y0238284D01*
X0219879Y0238293D01*
X0219940Y0238298D01*
X0220000Y0238300D01*
X0221500Y0238300D01*
X0222000Y0237800D01*
X0241000Y0237800D01*
X0241500Y0238300D01*
X0243000Y0238300D01*
X0243060Y0238298D01*
X0243121Y0238293D01*
X0243180Y0238284D01*
X0243239Y0238271D01*
X0243298Y0238255D01*
X0243355Y0238235D01*
X0243410Y0238212D01*
X0243465Y0238185D01*
X0243517Y0238156D01*
X0243568Y0238123D01*
X0243617Y0238087D01*
X0243663Y0238049D01*
X0243707Y0238007D01*
X0243749Y0237963D01*
X0243787Y0237917D01*
X0243823Y0237868D01*
X0243856Y0237817D01*
X0243885Y0237765D01*
X0243912Y0237710D01*
X0243935Y0237655D01*
X0243955Y0237598D01*
X0243971Y0237539D01*
X0243984Y0237480D01*
X0243993Y0237421D01*
X0243998Y0237360D01*
X0244000Y0237300D01*
X0244000Y0230300D01*
X0243998Y0230240D01*
X0243993Y0230179D01*
X0243984Y0230120D01*
X0243971Y0230061D01*
X0243955Y0230002D01*
X0243935Y0229945D01*
X0243912Y0229890D01*
X0243885Y0229835D01*
X0243856Y0229783D01*
X0243823Y0229732D01*
X0243787Y0229683D01*
X0243749Y0229637D01*
X0243707Y0229593D01*
X0243663Y0229551D01*
X0243617Y0229513D01*
X0243568Y0229477D01*
X0243517Y0229444D01*
X0243465Y0229415D01*
X0243410Y0229388D01*
X0243355Y0229365D01*
X0243298Y0229345D01*
X0243239Y0229329D01*
X0243180Y0229316D01*
X0243121Y0229307D01*
X0243060Y0229302D01*
X0243000Y0229300D01*
X0241500Y0229300D01*
X0241000Y0229800D01*
X0222000Y0229800D01*
X0221500Y0229300D01*
X0220000Y0229300D01*
X0219940Y0229302D01*
X0219879Y0229307D01*
X0219820Y0229316D01*
X0219761Y0229329D01*
X0219702Y0229345D01*
X0219645Y0229365D01*
X0219590Y0229388D01*
X0219535Y0229415D01*
X0219483Y0229444D01*
X0219432Y0229477D01*
X0219383Y0229513D01*
X0219337Y0229551D01*
X0219293Y0229593D01*
X0219251Y0229637D01*
X0219213Y0229683D01*
X0219177Y0229732D01*
X0219144Y0229783D01*
X0219115Y0229835D01*
X0219088Y0229890D01*
X0219065Y0229945D01*
X0219045Y0230002D01*
X0219029Y0230061D01*
X0219016Y0230120D01*
X0219007Y0230179D01*
X0219002Y0230240D01*
X0219000Y0230300D01*
X0256500Y0216300D02*
X0256500Y0211300D01*
X0259000Y0208800D01*
X0264000Y0208800D01*
X0266500Y0211300D01*
X0266500Y0216300D01*
X0264000Y0218800D01*
X0259000Y0218800D01*
X0256500Y0216300D01*
X0266500Y0216300D02*
X0269000Y0218800D01*
X0274000Y0218800D01*
X0276500Y0216300D01*
X0279000Y0218800D01*
X0284000Y0218800D01*
X0286500Y0216300D01*
X0289000Y0218800D01*
X0294000Y0218800D01*
X0296500Y0216300D01*
X0299000Y0218800D01*
X0304000Y0218800D01*
X0306500Y0216300D01*
X0309000Y0218800D01*
X0314000Y0218800D01*
X0316500Y0216300D01*
X0319000Y0218800D01*
X0324000Y0218800D01*
X0326500Y0216300D01*
X0329000Y0218800D01*
X0334000Y0218800D01*
X0336500Y0216300D01*
X0339000Y0218800D01*
X0344000Y0218800D01*
X0346500Y0216300D01*
X0349000Y0218800D01*
X0354000Y0218800D01*
X0356500Y0216300D01*
X0359000Y0218800D01*
X0364000Y0218800D01*
X0366500Y0216300D01*
X0369000Y0218800D01*
X0374000Y0218800D01*
X0376500Y0216300D01*
X0379000Y0218800D01*
X0384000Y0218800D01*
X0386500Y0216300D01*
X0389000Y0218800D01*
X0394000Y0218800D01*
X0396500Y0216300D01*
X0396500Y0211300D01*
X0394000Y0208800D01*
X0389000Y0208800D01*
X0386500Y0211300D01*
X0384000Y0208800D01*
X0379000Y0208800D01*
X0376500Y0211300D01*
X0376500Y0216300D01*
X0376500Y0211300D02*
X0374000Y0208800D01*
X0369000Y0208800D01*
X0366500Y0211300D01*
X0364000Y0208800D01*
X0359000Y0208800D01*
X0356500Y0211300D01*
X0354000Y0208800D01*
X0349000Y0208800D01*
X0346500Y0211300D01*
X0346500Y0216300D01*
X0346500Y0211300D02*
X0344000Y0208800D01*
X0339000Y0208800D01*
X0336500Y0211300D01*
X0334000Y0208800D01*
X0329000Y0208800D01*
X0326500Y0211300D01*
X0324000Y0208800D01*
X0319000Y0208800D01*
X0316500Y0211300D01*
X0316500Y0216300D01*
X0316500Y0211300D02*
X0314000Y0208800D01*
X0309000Y0208800D01*
X0306500Y0211300D01*
X0304000Y0208800D01*
X0299000Y0208800D01*
X0296500Y0211300D01*
X0294000Y0208800D01*
X0289000Y0208800D01*
X0286500Y0211300D01*
X0286500Y0216300D01*
X0286500Y0211300D02*
X0284000Y0208800D01*
X0279000Y0208800D01*
X0276500Y0211300D01*
X0274000Y0208800D01*
X0269000Y0208800D01*
X0266500Y0211300D01*
X0276500Y0211300D02*
X0276500Y0216300D01*
X0279000Y0228800D02*
X0284000Y0228800D01*
X0286500Y0231300D01*
X0289000Y0228800D01*
X0294000Y0228800D01*
X0296500Y0231300D01*
X0296500Y0236300D01*
X0294000Y0238800D01*
X0289000Y0238800D01*
X0286500Y0236300D01*
X0286500Y0231300D01*
X0286500Y0236300D02*
X0284000Y0238800D01*
X0279000Y0238800D01*
X0276500Y0236300D01*
X0276500Y0231300D01*
X0279000Y0228800D01*
X0296500Y0231300D02*
X0299000Y0228800D01*
X0304000Y0228800D01*
X0306500Y0231300D01*
X0309000Y0228800D01*
X0314000Y0228800D01*
X0316500Y0231300D01*
X0319000Y0228800D01*
X0324000Y0228800D01*
X0326500Y0231300D01*
X0326500Y0236300D01*
X0324000Y0238800D01*
X0319000Y0238800D01*
X0316500Y0236300D01*
X0316500Y0231300D01*
X0316500Y0236300D02*
X0314000Y0238800D01*
X0309000Y0238800D01*
X0306500Y0236300D01*
X0306500Y0231300D01*
X0306500Y0236300D02*
X0304000Y0238800D01*
X0299000Y0238800D01*
X0296500Y0236300D01*
X0296500Y0216300D02*
X0296500Y0211300D01*
X0306500Y0211300D02*
X0306500Y0216300D01*
X0326500Y0216300D02*
X0326500Y0211300D01*
X0336500Y0211300D02*
X0336500Y0216300D01*
X0334000Y0228800D02*
X0329000Y0228800D01*
X0326500Y0231300D01*
X0334000Y0228800D02*
X0336500Y0231300D01*
X0339000Y0228800D01*
X0344000Y0228800D01*
X0346500Y0231300D01*
X0349000Y0228800D01*
X0354000Y0228800D01*
X0356500Y0231300D01*
X0356500Y0236300D01*
X0354000Y0238800D01*
X0349000Y0238800D01*
X0346500Y0236300D01*
X0346500Y0231300D01*
X0346500Y0236300D02*
X0344000Y0238800D01*
X0339000Y0238800D01*
X0336500Y0236300D01*
X0336500Y0231300D01*
X0336500Y0236300D02*
X0334000Y0238800D01*
X0329000Y0238800D01*
X0326500Y0236300D01*
X0356500Y0236300D02*
X0359000Y0238800D01*
X0364000Y0238800D01*
X0366500Y0236300D01*
X0369000Y0238800D01*
X0374000Y0238800D01*
X0376500Y0236300D01*
X0379000Y0238800D01*
X0384000Y0238800D01*
X0386500Y0236300D01*
X0389000Y0238800D01*
X0394000Y0238800D01*
X0396500Y0236300D01*
X0396500Y0231300D01*
X0394000Y0228800D01*
X0389000Y0228800D01*
X0386500Y0231300D01*
X0384000Y0228800D01*
X0379000Y0228800D01*
X0376500Y0231300D01*
X0374000Y0228800D01*
X0369000Y0228800D01*
X0366500Y0231300D01*
X0364000Y0228800D01*
X0359000Y0228800D01*
X0356500Y0231300D01*
X0366500Y0231300D02*
X0366500Y0236300D01*
X0376500Y0236300D02*
X0376500Y0231300D01*
X0386500Y0231300D02*
X0386500Y0236300D01*
X0386500Y0216300D02*
X0386500Y0211300D01*
X0384000Y0198800D02*
X0379000Y0198800D01*
X0376500Y0196300D01*
X0376500Y0191300D01*
X0379000Y0188800D01*
X0384000Y0188800D01*
X0386500Y0191300D01*
X0389000Y0188800D01*
X0394000Y0188800D01*
X0396500Y0191300D01*
X0396500Y0196300D01*
X0394000Y0198800D01*
X0389000Y0198800D01*
X0386500Y0196300D01*
X0386500Y0191300D01*
X0386500Y0196300D02*
X0384000Y0198800D01*
X0376500Y0196300D02*
X0374000Y0198800D01*
X0369000Y0198800D01*
X0366500Y0196300D01*
X0366500Y0191300D01*
X0364000Y0188800D01*
X0359000Y0188800D01*
X0356500Y0191300D01*
X0354000Y0188800D01*
X0349000Y0188800D01*
X0346500Y0191300D01*
X0344000Y0188800D01*
X0339000Y0188800D01*
X0336500Y0191300D01*
X0334000Y0188800D01*
X0329000Y0188800D01*
X0326500Y0191300D01*
X0324000Y0188800D01*
X0319000Y0188800D01*
X0316500Y0191300D01*
X0314000Y0188800D01*
X0309000Y0188800D01*
X0306500Y0191300D01*
X0304000Y0188800D01*
X0299000Y0188800D01*
X0296500Y0191300D01*
X0294000Y0188800D01*
X0289000Y0188800D01*
X0286500Y0191300D01*
X0284000Y0188800D01*
X0279000Y0188800D01*
X0276500Y0191300D01*
X0274000Y0188800D01*
X0269000Y0188800D01*
X0266500Y0191300D01*
X0264000Y0188800D01*
X0259000Y0188800D01*
X0256500Y0191300D01*
X0256500Y0196300D01*
X0259000Y0198800D01*
X0264000Y0198800D01*
X0266500Y0196300D01*
X0269000Y0198800D01*
X0274000Y0198800D01*
X0276500Y0196300D01*
X0276500Y0191300D01*
X0276500Y0196300D02*
X0279000Y0198800D01*
X0284000Y0198800D01*
X0286500Y0196300D01*
X0289000Y0198800D01*
X0294000Y0198800D01*
X0296500Y0196300D01*
X0299000Y0198800D01*
X0304000Y0198800D01*
X0306500Y0196300D01*
X0306500Y0191300D01*
X0306500Y0196300D02*
X0309000Y0198800D01*
X0314000Y0198800D01*
X0316500Y0196300D01*
X0319000Y0198800D01*
X0324000Y0198800D01*
X0326500Y0196300D01*
X0329000Y0198800D01*
X0334000Y0198800D01*
X0336500Y0196300D01*
X0336500Y0191300D01*
X0336500Y0196300D02*
X0339000Y0198800D01*
X0344000Y0198800D01*
X0346500Y0196300D01*
X0349000Y0198800D01*
X0354000Y0198800D01*
X0356500Y0196300D01*
X0359000Y0198800D01*
X0364000Y0198800D01*
X0366500Y0196300D01*
X0366500Y0191300D02*
X0369000Y0188800D01*
X0374000Y0188800D01*
X0376500Y0191300D01*
X0374000Y0178800D02*
X0369000Y0178800D01*
X0366500Y0176300D01*
X0366500Y0171300D01*
X0369000Y0168800D01*
X0374000Y0168800D01*
X0376500Y0171300D01*
X0379000Y0168800D01*
X0384000Y0168800D01*
X0386500Y0171300D01*
X0386500Y0176300D01*
X0384000Y0178800D01*
X0379000Y0178800D01*
X0376500Y0176300D01*
X0376500Y0171300D01*
X0376500Y0176300D02*
X0374000Y0178800D01*
X0366500Y0176300D02*
X0364000Y0178800D01*
X0359000Y0178800D01*
X0356500Y0176300D01*
X0356500Y0171300D01*
X0354000Y0168800D01*
X0349000Y0168800D01*
X0346500Y0171300D01*
X0344000Y0168800D01*
X0339000Y0168800D01*
X0336500Y0171300D01*
X0334000Y0168800D01*
X0329000Y0168800D01*
X0326500Y0171300D01*
X0324000Y0168800D01*
X0319000Y0168800D01*
X0316500Y0171300D01*
X0314000Y0168800D01*
X0309000Y0168800D01*
X0306500Y0171300D01*
X0306500Y0176300D01*
X0309000Y0178800D01*
X0314000Y0178800D01*
X0316500Y0176300D01*
X0319000Y0178800D01*
X0324000Y0178800D01*
X0326500Y0176300D01*
X0326500Y0171300D01*
X0326500Y0176300D02*
X0329000Y0178800D01*
X0334000Y0178800D01*
X0336500Y0176300D01*
X0339000Y0178800D01*
X0344000Y0178800D01*
X0346500Y0176300D01*
X0349000Y0178800D01*
X0354000Y0178800D01*
X0356500Y0176300D01*
X0356500Y0171300D02*
X0359000Y0168800D01*
X0364000Y0168800D01*
X0366500Y0171300D01*
X0346500Y0171300D02*
X0346500Y0176300D01*
X0336500Y0176300D02*
X0336500Y0171300D01*
X0316500Y0171300D02*
X0316500Y0176300D01*
X0316500Y0191300D02*
X0316500Y0196300D01*
X0326500Y0196300D02*
X0326500Y0191300D01*
X0346500Y0191300D02*
X0346500Y0196300D01*
X0356500Y0196300D02*
X0356500Y0191300D01*
X0356500Y0211300D02*
X0356500Y0216300D01*
X0366500Y0216300D02*
X0366500Y0211300D01*
X0296500Y0196300D02*
X0296500Y0191300D01*
X0286500Y0191300D02*
X0286500Y0196300D01*
X0266500Y0196300D02*
X0266500Y0191300D01*
X0247500Y0189300D02*
X0246500Y0189300D01*
X0246500Y0188300D01*
X0246500Y0189300D02*
X0245500Y0189300D01*
X0246500Y0189300D02*
X0246500Y0190300D01*
X0156000Y0150300D02*
X0156000Y0148800D01*
X0155500Y0148300D01*
X0155500Y0129300D01*
X0156000Y0128800D01*
X0156000Y0127300D01*
X0155998Y0127240D01*
X0155993Y0127179D01*
X0155984Y0127120D01*
X0155971Y0127061D01*
X0155955Y0127002D01*
X0155935Y0126945D01*
X0155912Y0126890D01*
X0155885Y0126835D01*
X0155856Y0126783D01*
X0155823Y0126732D01*
X0155787Y0126683D01*
X0155749Y0126637D01*
X0155707Y0126593D01*
X0155663Y0126551D01*
X0155617Y0126513D01*
X0155568Y0126477D01*
X0155517Y0126444D01*
X0155465Y0126415D01*
X0155410Y0126388D01*
X0155355Y0126365D01*
X0155298Y0126345D01*
X0155239Y0126329D01*
X0155180Y0126316D01*
X0155121Y0126307D01*
X0155060Y0126302D01*
X0155000Y0126300D01*
X0148000Y0126300D01*
X0147940Y0126302D01*
X0147879Y0126307D01*
X0147820Y0126316D01*
X0147761Y0126329D01*
X0147702Y0126345D01*
X0147645Y0126365D01*
X0147590Y0126388D01*
X0147535Y0126415D01*
X0147483Y0126444D01*
X0147432Y0126477D01*
X0147383Y0126513D01*
X0147337Y0126551D01*
X0147293Y0126593D01*
X0147251Y0126637D01*
X0147213Y0126683D01*
X0147177Y0126732D01*
X0147144Y0126783D01*
X0147115Y0126835D01*
X0147088Y0126890D01*
X0147065Y0126945D01*
X0147045Y0127002D01*
X0147029Y0127061D01*
X0147016Y0127120D01*
X0147007Y0127179D01*
X0147002Y0127240D01*
X0147000Y0127300D01*
X0147000Y0128800D01*
X0147500Y0129300D01*
X0147500Y0148300D01*
X0147000Y0148800D01*
X0147000Y0150300D01*
X0147002Y0150360D01*
X0147007Y0150421D01*
X0147016Y0150480D01*
X0147029Y0150539D01*
X0147045Y0150598D01*
X0147065Y0150655D01*
X0147088Y0150710D01*
X0147115Y0150765D01*
X0147144Y0150817D01*
X0147177Y0150868D01*
X0147213Y0150917D01*
X0147251Y0150963D01*
X0147293Y0151007D01*
X0147337Y0151049D01*
X0147383Y0151087D01*
X0147432Y0151123D01*
X0147483Y0151156D01*
X0147535Y0151185D01*
X0147590Y0151212D01*
X0147645Y0151235D01*
X0147702Y0151255D01*
X0147761Y0151271D01*
X0147820Y0151284D01*
X0147879Y0151293D01*
X0147940Y0151298D01*
X0148000Y0151300D01*
X0155000Y0151300D01*
X0155060Y0151298D01*
X0155121Y0151293D01*
X0155180Y0151284D01*
X0155239Y0151271D01*
X0155298Y0151255D01*
X0155355Y0151235D01*
X0155410Y0151212D01*
X0155465Y0151185D01*
X0155517Y0151156D01*
X0155568Y0151123D01*
X0155617Y0151087D01*
X0155663Y0151049D01*
X0155707Y0151007D01*
X0155749Y0150963D01*
X0155787Y0150917D01*
X0155823Y0150868D01*
X0155856Y0150817D01*
X0155885Y0150765D01*
X0155912Y0150710D01*
X0155935Y0150655D01*
X0155955Y0150598D01*
X0155971Y0150539D01*
X0155984Y0150480D01*
X0155993Y0150421D01*
X0155998Y0150360D01*
X0156000Y0150300D01*
X0142000Y0182800D02*
X0142000Y0183800D01*
X0141000Y0183800D01*
X0142000Y0183800D02*
X0142000Y0184800D01*
X0142000Y0183800D02*
X0143000Y0183800D01*
X0126500Y0188800D02*
X0126503Y0189045D01*
X0126512Y0189291D01*
X0126527Y0189536D01*
X0126548Y0189780D01*
X0126575Y0190024D01*
X0126608Y0190267D01*
X0126647Y0190510D01*
X0126692Y0190751D01*
X0126743Y0190991D01*
X0126800Y0191230D01*
X0126862Y0191467D01*
X0126931Y0191703D01*
X0127005Y0191937D01*
X0127085Y0192169D01*
X0127170Y0192399D01*
X0127261Y0192627D01*
X0127358Y0192852D01*
X0127460Y0193076D01*
X0127568Y0193296D01*
X0127681Y0193514D01*
X0127799Y0193729D01*
X0127923Y0193941D01*
X0128051Y0194150D01*
X0128185Y0194356D01*
X0128324Y0194558D01*
X0128468Y0194757D01*
X0128617Y0194952D01*
X0128770Y0195144D01*
X0128928Y0195332D01*
X0129090Y0195516D01*
X0129258Y0195695D01*
X0129429Y0195871D01*
X0129605Y0196042D01*
X0129784Y0196210D01*
X0129968Y0196372D01*
X0130156Y0196530D01*
X0130348Y0196683D01*
X0130543Y0196832D01*
X0130742Y0196976D01*
X0130944Y0197115D01*
X0131150Y0197249D01*
X0131359Y0197377D01*
X0131571Y0197501D01*
X0131786Y0197619D01*
X0132004Y0197732D01*
X0132224Y0197840D01*
X0132448Y0197942D01*
X0132673Y0198039D01*
X0132901Y0198130D01*
X0133131Y0198215D01*
X0133363Y0198295D01*
X0133597Y0198369D01*
X0133833Y0198438D01*
X0134070Y0198500D01*
X0134309Y0198557D01*
X0134549Y0198608D01*
X0134790Y0198653D01*
X0135033Y0198692D01*
X0135276Y0198725D01*
X0135520Y0198752D01*
X0135764Y0198773D01*
X0136009Y0198788D01*
X0136255Y0198797D01*
X0136500Y0198800D01*
X0136745Y0198797D01*
X0136991Y0198788D01*
X0137236Y0198773D01*
X0137480Y0198752D01*
X0137724Y0198725D01*
X0137967Y0198692D01*
X0138210Y0198653D01*
X0138451Y0198608D01*
X0138691Y0198557D01*
X0138930Y0198500D01*
X0139167Y0198438D01*
X0139403Y0198369D01*
X0139637Y0198295D01*
X0139869Y0198215D01*
X0140099Y0198130D01*
X0140327Y0198039D01*
X0140552Y0197942D01*
X0140776Y0197840D01*
X0140996Y0197732D01*
X0141214Y0197619D01*
X0141429Y0197501D01*
X0141641Y0197377D01*
X0141850Y0197249D01*
X0142056Y0197115D01*
X0142258Y0196976D01*
X0142457Y0196832D01*
X0142652Y0196683D01*
X0142844Y0196530D01*
X0143032Y0196372D01*
X0143216Y0196210D01*
X0143395Y0196042D01*
X0143571Y0195871D01*
X0143742Y0195695D01*
X0143910Y0195516D01*
X0144072Y0195332D01*
X0144230Y0195144D01*
X0144383Y0194952D01*
X0144532Y0194757D01*
X0144676Y0194558D01*
X0144815Y0194356D01*
X0144949Y0194150D01*
X0145077Y0193941D01*
X0145201Y0193729D01*
X0145319Y0193514D01*
X0145432Y0193296D01*
X0145540Y0193076D01*
X0145642Y0192852D01*
X0145739Y0192627D01*
X0145830Y0192399D01*
X0145915Y0192169D01*
X0145995Y0191937D01*
X0146069Y0191703D01*
X0146138Y0191467D01*
X0146200Y0191230D01*
X0146257Y0190991D01*
X0146308Y0190751D01*
X0146353Y0190510D01*
X0146392Y0190267D01*
X0146425Y0190024D01*
X0146452Y0189780D01*
X0146473Y0189536D01*
X0146488Y0189291D01*
X0146497Y0189045D01*
X0146500Y0188800D01*
X0146497Y0188555D01*
X0146488Y0188309D01*
X0146473Y0188064D01*
X0146452Y0187820D01*
X0146425Y0187576D01*
X0146392Y0187333D01*
X0146353Y0187090D01*
X0146308Y0186849D01*
X0146257Y0186609D01*
X0146200Y0186370D01*
X0146138Y0186133D01*
X0146069Y0185897D01*
X0145995Y0185663D01*
X0145915Y0185431D01*
X0145830Y0185201D01*
X0145739Y0184973D01*
X0145642Y0184748D01*
X0145540Y0184524D01*
X0145432Y0184304D01*
X0145319Y0184086D01*
X0145201Y0183871D01*
X0145077Y0183659D01*
X0144949Y0183450D01*
X0144815Y0183244D01*
X0144676Y0183042D01*
X0144532Y0182843D01*
X0144383Y0182648D01*
X0144230Y0182456D01*
X0144072Y0182268D01*
X0143910Y0182084D01*
X0143742Y0181905D01*
X0143571Y0181729D01*
X0143395Y0181558D01*
X0143216Y0181390D01*
X0143032Y0181228D01*
X0142844Y0181070D01*
X0142652Y0180917D01*
X0142457Y0180768D01*
X0142258Y0180624D01*
X0142056Y0180485D01*
X0141850Y0180351D01*
X0141641Y0180223D01*
X0141429Y0180099D01*
X0141214Y0179981D01*
X0140996Y0179868D01*
X0140776Y0179760D01*
X0140552Y0179658D01*
X0140327Y0179561D01*
X0140099Y0179470D01*
X0139869Y0179385D01*
X0139637Y0179305D01*
X0139403Y0179231D01*
X0139167Y0179162D01*
X0138930Y0179100D01*
X0138691Y0179043D01*
X0138451Y0178992D01*
X0138210Y0178947D01*
X0137967Y0178908D01*
X0137724Y0178875D01*
X0137480Y0178848D01*
X0137236Y0178827D01*
X0136991Y0178812D01*
X0136745Y0178803D01*
X0136500Y0178800D01*
X0136255Y0178803D01*
X0136009Y0178812D01*
X0135764Y0178827D01*
X0135520Y0178848D01*
X0135276Y0178875D01*
X0135033Y0178908D01*
X0134790Y0178947D01*
X0134549Y0178992D01*
X0134309Y0179043D01*
X0134070Y0179100D01*
X0133833Y0179162D01*
X0133597Y0179231D01*
X0133363Y0179305D01*
X0133131Y0179385D01*
X0132901Y0179470D01*
X0132673Y0179561D01*
X0132448Y0179658D01*
X0132224Y0179760D01*
X0132004Y0179868D01*
X0131786Y0179981D01*
X0131571Y0180099D01*
X0131359Y0180223D01*
X0131150Y0180351D01*
X0130944Y0180485D01*
X0130742Y0180624D01*
X0130543Y0180768D01*
X0130348Y0180917D01*
X0130156Y0181070D01*
X0129968Y0181228D01*
X0129784Y0181390D01*
X0129605Y0181558D01*
X0129429Y0181729D01*
X0129258Y0181905D01*
X0129090Y0182084D01*
X0128928Y0182268D01*
X0128770Y0182456D01*
X0128617Y0182648D01*
X0128468Y0182843D01*
X0128324Y0183042D01*
X0128185Y0183244D01*
X0128051Y0183450D01*
X0127923Y0183659D01*
X0127799Y0183871D01*
X0127681Y0184086D01*
X0127568Y0184304D01*
X0127460Y0184524D01*
X0127358Y0184748D01*
X0127261Y0184973D01*
X0127170Y0185201D01*
X0127085Y0185431D01*
X0127005Y0185663D01*
X0126931Y0185897D01*
X0126862Y0186133D01*
X0126800Y0186370D01*
X0126743Y0186609D01*
X0126692Y0186849D01*
X0126647Y0187090D01*
X0126608Y0187333D01*
X0126575Y0187576D01*
X0126548Y0187820D01*
X0126527Y0188064D01*
X0126512Y0188309D01*
X0126503Y0188555D01*
X0126500Y0188800D01*
X0091500Y0188800D02*
X0091503Y0189045D01*
X0091512Y0189291D01*
X0091527Y0189536D01*
X0091548Y0189780D01*
X0091575Y0190024D01*
X0091608Y0190267D01*
X0091647Y0190510D01*
X0091692Y0190751D01*
X0091743Y0190991D01*
X0091800Y0191230D01*
X0091862Y0191467D01*
X0091931Y0191703D01*
X0092005Y0191937D01*
X0092085Y0192169D01*
X0092170Y0192399D01*
X0092261Y0192627D01*
X0092358Y0192852D01*
X0092460Y0193076D01*
X0092568Y0193296D01*
X0092681Y0193514D01*
X0092799Y0193729D01*
X0092923Y0193941D01*
X0093051Y0194150D01*
X0093185Y0194356D01*
X0093324Y0194558D01*
X0093468Y0194757D01*
X0093617Y0194952D01*
X0093770Y0195144D01*
X0093928Y0195332D01*
X0094090Y0195516D01*
X0094258Y0195695D01*
X0094429Y0195871D01*
X0094605Y0196042D01*
X0094784Y0196210D01*
X0094968Y0196372D01*
X0095156Y0196530D01*
X0095348Y0196683D01*
X0095543Y0196832D01*
X0095742Y0196976D01*
X0095944Y0197115D01*
X0096150Y0197249D01*
X0096359Y0197377D01*
X0096571Y0197501D01*
X0096786Y0197619D01*
X0097004Y0197732D01*
X0097224Y0197840D01*
X0097448Y0197942D01*
X0097673Y0198039D01*
X0097901Y0198130D01*
X0098131Y0198215D01*
X0098363Y0198295D01*
X0098597Y0198369D01*
X0098833Y0198438D01*
X0099070Y0198500D01*
X0099309Y0198557D01*
X0099549Y0198608D01*
X0099790Y0198653D01*
X0100033Y0198692D01*
X0100276Y0198725D01*
X0100520Y0198752D01*
X0100764Y0198773D01*
X0101009Y0198788D01*
X0101255Y0198797D01*
X0101500Y0198800D01*
X0101745Y0198797D01*
X0101991Y0198788D01*
X0102236Y0198773D01*
X0102480Y0198752D01*
X0102724Y0198725D01*
X0102967Y0198692D01*
X0103210Y0198653D01*
X0103451Y0198608D01*
X0103691Y0198557D01*
X0103930Y0198500D01*
X0104167Y0198438D01*
X0104403Y0198369D01*
X0104637Y0198295D01*
X0104869Y0198215D01*
X0105099Y0198130D01*
X0105327Y0198039D01*
X0105552Y0197942D01*
X0105776Y0197840D01*
X0105996Y0197732D01*
X0106214Y0197619D01*
X0106429Y0197501D01*
X0106641Y0197377D01*
X0106850Y0197249D01*
X0107056Y0197115D01*
X0107258Y0196976D01*
X0107457Y0196832D01*
X0107652Y0196683D01*
X0107844Y0196530D01*
X0108032Y0196372D01*
X0108216Y0196210D01*
X0108395Y0196042D01*
X0108571Y0195871D01*
X0108742Y0195695D01*
X0108910Y0195516D01*
X0109072Y0195332D01*
X0109230Y0195144D01*
X0109383Y0194952D01*
X0109532Y0194757D01*
X0109676Y0194558D01*
X0109815Y0194356D01*
X0109949Y0194150D01*
X0110077Y0193941D01*
X0110201Y0193729D01*
X0110319Y0193514D01*
X0110432Y0193296D01*
X0110540Y0193076D01*
X0110642Y0192852D01*
X0110739Y0192627D01*
X0110830Y0192399D01*
X0110915Y0192169D01*
X0110995Y0191937D01*
X0111069Y0191703D01*
X0111138Y0191467D01*
X0111200Y0191230D01*
X0111257Y0190991D01*
X0111308Y0190751D01*
X0111353Y0190510D01*
X0111392Y0190267D01*
X0111425Y0190024D01*
X0111452Y0189780D01*
X0111473Y0189536D01*
X0111488Y0189291D01*
X0111497Y0189045D01*
X0111500Y0188800D01*
X0111497Y0188555D01*
X0111488Y0188309D01*
X0111473Y0188064D01*
X0111452Y0187820D01*
X0111425Y0187576D01*
X0111392Y0187333D01*
X0111353Y0187090D01*
X0111308Y0186849D01*
X0111257Y0186609D01*
X0111200Y0186370D01*
X0111138Y0186133D01*
X0111069Y0185897D01*
X0110995Y0185663D01*
X0110915Y0185431D01*
X0110830Y0185201D01*
X0110739Y0184973D01*
X0110642Y0184748D01*
X0110540Y0184524D01*
X0110432Y0184304D01*
X0110319Y0184086D01*
X0110201Y0183871D01*
X0110077Y0183659D01*
X0109949Y0183450D01*
X0109815Y0183244D01*
X0109676Y0183042D01*
X0109532Y0182843D01*
X0109383Y0182648D01*
X0109230Y0182456D01*
X0109072Y0182268D01*
X0108910Y0182084D01*
X0108742Y0181905D01*
X0108571Y0181729D01*
X0108395Y0181558D01*
X0108216Y0181390D01*
X0108032Y0181228D01*
X0107844Y0181070D01*
X0107652Y0180917D01*
X0107457Y0180768D01*
X0107258Y0180624D01*
X0107056Y0180485D01*
X0106850Y0180351D01*
X0106641Y0180223D01*
X0106429Y0180099D01*
X0106214Y0179981D01*
X0105996Y0179868D01*
X0105776Y0179760D01*
X0105552Y0179658D01*
X0105327Y0179561D01*
X0105099Y0179470D01*
X0104869Y0179385D01*
X0104637Y0179305D01*
X0104403Y0179231D01*
X0104167Y0179162D01*
X0103930Y0179100D01*
X0103691Y0179043D01*
X0103451Y0178992D01*
X0103210Y0178947D01*
X0102967Y0178908D01*
X0102724Y0178875D01*
X0102480Y0178848D01*
X0102236Y0178827D01*
X0101991Y0178812D01*
X0101745Y0178803D01*
X0101500Y0178800D01*
X0101255Y0178803D01*
X0101009Y0178812D01*
X0100764Y0178827D01*
X0100520Y0178848D01*
X0100276Y0178875D01*
X0100033Y0178908D01*
X0099790Y0178947D01*
X0099549Y0178992D01*
X0099309Y0179043D01*
X0099070Y0179100D01*
X0098833Y0179162D01*
X0098597Y0179231D01*
X0098363Y0179305D01*
X0098131Y0179385D01*
X0097901Y0179470D01*
X0097673Y0179561D01*
X0097448Y0179658D01*
X0097224Y0179760D01*
X0097004Y0179868D01*
X0096786Y0179981D01*
X0096571Y0180099D01*
X0096359Y0180223D01*
X0096150Y0180351D01*
X0095944Y0180485D01*
X0095742Y0180624D01*
X0095543Y0180768D01*
X0095348Y0180917D01*
X0095156Y0181070D01*
X0094968Y0181228D01*
X0094784Y0181390D01*
X0094605Y0181558D01*
X0094429Y0181729D01*
X0094258Y0181905D01*
X0094090Y0182084D01*
X0093928Y0182268D01*
X0093770Y0182456D01*
X0093617Y0182648D01*
X0093468Y0182843D01*
X0093324Y0183042D01*
X0093185Y0183244D01*
X0093051Y0183450D01*
X0092923Y0183659D01*
X0092799Y0183871D01*
X0092681Y0184086D01*
X0092568Y0184304D01*
X0092460Y0184524D01*
X0092358Y0184748D01*
X0092261Y0184973D01*
X0092170Y0185201D01*
X0092085Y0185431D01*
X0092005Y0185663D01*
X0091931Y0185897D01*
X0091862Y0186133D01*
X0091800Y0186370D01*
X0091743Y0186609D01*
X0091692Y0186849D01*
X0091647Y0187090D01*
X0091608Y0187333D01*
X0091575Y0187576D01*
X0091548Y0187820D01*
X0091527Y0188064D01*
X0091512Y0188309D01*
X0091503Y0188555D01*
X0091500Y0188800D01*
X0096500Y0184300D02*
X0096500Y0183300D01*
X0095500Y0183300D01*
X0096500Y0183300D02*
X0097500Y0183300D01*
X0096500Y0183300D02*
X0096500Y0182300D01*
X0081500Y0184800D02*
X0081500Y0165300D01*
X0081498Y0165224D01*
X0081492Y0165148D01*
X0081483Y0165073D01*
X0081469Y0164998D01*
X0081452Y0164924D01*
X0081431Y0164851D01*
X0081407Y0164779D01*
X0081378Y0164708D01*
X0081347Y0164639D01*
X0081312Y0164572D01*
X0081273Y0164507D01*
X0081231Y0164443D01*
X0081186Y0164382D01*
X0081138Y0164323D01*
X0081087Y0164267D01*
X0081033Y0164213D01*
X0080977Y0164162D01*
X0080918Y0164114D01*
X0080857Y0164069D01*
X0080793Y0164027D01*
X0080728Y0163988D01*
X0080661Y0163953D01*
X0080592Y0163922D01*
X0080521Y0163893D01*
X0080449Y0163869D01*
X0080376Y0163848D01*
X0080302Y0163831D01*
X0080227Y0163817D01*
X0080152Y0163808D01*
X0080076Y0163802D01*
X0080000Y0163800D01*
X0070000Y0163800D01*
X0063000Y0163800D02*
X0053000Y0163800D01*
X0052924Y0163802D01*
X0052848Y0163808D01*
X0052773Y0163817D01*
X0052698Y0163831D01*
X0052624Y0163848D01*
X0052551Y0163869D01*
X0052479Y0163893D01*
X0052408Y0163922D01*
X0052339Y0163953D01*
X0052272Y0163988D01*
X0052207Y0164027D01*
X0052143Y0164069D01*
X0052082Y0164114D01*
X0052023Y0164162D01*
X0051967Y0164213D01*
X0051913Y0164267D01*
X0051862Y0164323D01*
X0051814Y0164382D01*
X0051769Y0164443D01*
X0051727Y0164507D01*
X0051688Y0164572D01*
X0051653Y0164639D01*
X0051622Y0164708D01*
X0051593Y0164779D01*
X0051569Y0164851D01*
X0051548Y0164924D01*
X0051531Y0164998D01*
X0051517Y0165073D01*
X0051508Y0165148D01*
X0051502Y0165224D01*
X0051500Y0165300D01*
X0051500Y0184800D01*
X0061000Y0184300D02*
X0063000Y0182300D01*
X0065500Y0182300D02*
X0067500Y0182300D01*
X0067500Y0179800D01*
X0070000Y0179800D01*
X0070000Y0177800D01*
X0067500Y0177800D01*
X0067500Y0175300D01*
X0065500Y0175300D01*
X0065500Y0177800D01*
X0063000Y0177800D01*
X0063000Y0179800D01*
X0065500Y0179800D01*
X0065500Y0182300D01*
X0070000Y0182300D02*
X0072000Y0184300D01*
X0072000Y0178800D02*
X0074000Y0178800D01*
X0070500Y0174800D02*
X0071500Y0173800D01*
X0062500Y0174800D02*
X0061500Y0173800D01*
X0061000Y0178800D02*
X0059000Y0178800D01*
X0041500Y0184800D02*
X0041500Y0165300D01*
X0041498Y0165224D01*
X0041492Y0165148D01*
X0041483Y0165073D01*
X0041469Y0164998D01*
X0041452Y0164924D01*
X0041431Y0164851D01*
X0041407Y0164779D01*
X0041378Y0164708D01*
X0041347Y0164639D01*
X0041312Y0164572D01*
X0041273Y0164507D01*
X0041231Y0164443D01*
X0041186Y0164382D01*
X0041138Y0164323D01*
X0041087Y0164267D01*
X0041033Y0164213D01*
X0040977Y0164162D01*
X0040918Y0164114D01*
X0040857Y0164069D01*
X0040793Y0164027D01*
X0040728Y0163988D01*
X0040661Y0163953D01*
X0040592Y0163922D01*
X0040521Y0163893D01*
X0040449Y0163869D01*
X0040376Y0163848D01*
X0040302Y0163831D01*
X0040227Y0163817D01*
X0040152Y0163808D01*
X0040076Y0163802D01*
X0040000Y0163800D01*
X0030000Y0163800D01*
X0023000Y0163800D02*
X0013000Y0163800D01*
X0012924Y0163802D01*
X0012848Y0163808D01*
X0012773Y0163817D01*
X0012698Y0163831D01*
X0012624Y0163848D01*
X0012551Y0163869D01*
X0012479Y0163893D01*
X0012408Y0163922D01*
X0012339Y0163953D01*
X0012272Y0163988D01*
X0012207Y0164027D01*
X0012143Y0164069D01*
X0012082Y0164114D01*
X0012023Y0164162D01*
X0011967Y0164213D01*
X0011913Y0164267D01*
X0011862Y0164323D01*
X0011814Y0164382D01*
X0011769Y0164443D01*
X0011727Y0164507D01*
X0011688Y0164572D01*
X0011653Y0164639D01*
X0011622Y0164708D01*
X0011593Y0164779D01*
X0011569Y0164851D01*
X0011548Y0164924D01*
X0011531Y0164998D01*
X0011517Y0165073D01*
X0011508Y0165148D01*
X0011502Y0165224D01*
X0011500Y0165300D01*
X0011500Y0184800D01*
X0019000Y0178800D02*
X0021000Y0178800D01*
X0023000Y0179800D02*
X0025500Y0179800D01*
X0025500Y0182300D01*
X0027500Y0182300D01*
X0027500Y0179800D01*
X0030000Y0179800D01*
X0030000Y0177800D01*
X0027500Y0177800D01*
X0027500Y0175300D01*
X0025500Y0175300D01*
X0025500Y0177800D01*
X0023000Y0177800D01*
X0023000Y0179800D01*
X0023000Y0182300D02*
X0021000Y0184300D01*
X0030000Y0182300D02*
X0032000Y0184300D01*
X0032000Y0178800D02*
X0034000Y0178800D01*
X0030500Y0174800D02*
X0031500Y0173800D01*
X0022500Y0174800D02*
X0021500Y0173800D01*
X0011500Y0192300D02*
X0011502Y0192376D01*
X0011508Y0192452D01*
X0011517Y0192527D01*
X0011531Y0192602D01*
X0011548Y0192676D01*
X0011569Y0192749D01*
X0011593Y0192821D01*
X0011622Y0192892D01*
X0011653Y0192961D01*
X0011688Y0193028D01*
X0011727Y0193093D01*
X0011769Y0193157D01*
X0011814Y0193218D01*
X0011862Y0193277D01*
X0011913Y0193333D01*
X0011967Y0193387D01*
X0012023Y0193438D01*
X0012082Y0193486D01*
X0012143Y0193531D01*
X0012207Y0193573D01*
X0012272Y0193612D01*
X0012339Y0193647D01*
X0012408Y0193678D01*
X0012479Y0193707D01*
X0012551Y0193731D01*
X0012624Y0193752D01*
X0012698Y0193769D01*
X0012773Y0193783D01*
X0012848Y0193792D01*
X0012924Y0193798D01*
X0013000Y0193800D01*
X0020000Y0193800D02*
X0033000Y0193800D01*
X0040000Y0193800D02*
X0040076Y0193798D01*
X0040152Y0193792D01*
X0040227Y0193783D01*
X0040302Y0193769D01*
X0040376Y0193752D01*
X0040449Y0193731D01*
X0040521Y0193707D01*
X0040592Y0193678D01*
X0040661Y0193647D01*
X0040728Y0193612D01*
X0040793Y0193573D01*
X0040857Y0193531D01*
X0040918Y0193486D01*
X0040977Y0193438D01*
X0041033Y0193387D01*
X0041087Y0193333D01*
X0041138Y0193277D01*
X0041186Y0193218D01*
X0041231Y0193157D01*
X0041273Y0193093D01*
X0041312Y0193028D01*
X0041347Y0192961D01*
X0041378Y0192892D01*
X0041407Y0192821D01*
X0041431Y0192749D01*
X0041452Y0192676D01*
X0041469Y0192602D01*
X0041483Y0192527D01*
X0041492Y0192452D01*
X0041498Y0192376D01*
X0041500Y0192300D01*
X0051500Y0192300D02*
X0051502Y0192376D01*
X0051508Y0192452D01*
X0051517Y0192527D01*
X0051531Y0192602D01*
X0051548Y0192676D01*
X0051569Y0192749D01*
X0051593Y0192821D01*
X0051622Y0192892D01*
X0051653Y0192961D01*
X0051688Y0193028D01*
X0051727Y0193093D01*
X0051769Y0193157D01*
X0051814Y0193218D01*
X0051862Y0193277D01*
X0051913Y0193333D01*
X0051967Y0193387D01*
X0052023Y0193438D01*
X0052082Y0193486D01*
X0052143Y0193531D01*
X0052207Y0193573D01*
X0052272Y0193612D01*
X0052339Y0193647D01*
X0052408Y0193678D01*
X0052479Y0193707D01*
X0052551Y0193731D01*
X0052624Y0193752D01*
X0052698Y0193769D01*
X0052773Y0193783D01*
X0052848Y0193792D01*
X0052924Y0193798D01*
X0053000Y0193800D01*
X0060000Y0193800D02*
X0073000Y0193800D01*
X0080000Y0193800D02*
X0080076Y0193798D01*
X0080152Y0193792D01*
X0080227Y0193783D01*
X0080302Y0193769D01*
X0080376Y0193752D01*
X0080449Y0193731D01*
X0080521Y0193707D01*
X0080592Y0193678D01*
X0080661Y0193647D01*
X0080728Y0193612D01*
X0080793Y0193573D01*
X0080857Y0193531D01*
X0080918Y0193486D01*
X0080977Y0193438D01*
X0081033Y0193387D01*
X0081087Y0193333D01*
X0081138Y0193277D01*
X0081186Y0193218D01*
X0081231Y0193157D01*
X0081273Y0193093D01*
X0081312Y0193028D01*
X0081347Y0192961D01*
X0081378Y0192892D01*
X0081407Y0192821D01*
X0081431Y0192749D01*
X0081452Y0192676D01*
X0081469Y0192602D01*
X0081483Y0192527D01*
X0081492Y0192452D01*
X0081498Y0192376D01*
X0081500Y0192300D01*
X0354400Y0014800D02*
X0354402Y0014974D01*
X0354409Y0015148D01*
X0354419Y0015322D01*
X0354434Y0015496D01*
X0354453Y0015669D01*
X0354477Y0015842D01*
X0354505Y0016014D01*
X0354536Y0016185D01*
X0354573Y0016356D01*
X0354613Y0016525D01*
X0354657Y0016694D01*
X0354706Y0016861D01*
X0354758Y0017027D01*
X0354815Y0017192D01*
X0354876Y0017355D01*
X0354940Y0017517D01*
X0355009Y0017677D01*
X0355082Y0017836D01*
X0355158Y0017992D01*
X0355238Y0018147D01*
X0355322Y0018300D01*
X0355410Y0018450D01*
X0355502Y0018598D01*
X0355597Y0018745D01*
X0355695Y0018888D01*
X0355797Y0019029D01*
X0355903Y0019168D01*
X0356012Y0019304D01*
X0356124Y0019438D01*
X0356239Y0019568D01*
X0356358Y0019696D01*
X0356480Y0019820D01*
X0356604Y0019942D01*
X0356732Y0020061D01*
X0356862Y0020176D01*
X0356996Y0020288D01*
X0357132Y0020397D01*
X0357271Y0020503D01*
X0357412Y0020605D01*
X0357555Y0020703D01*
X0357702Y0020798D01*
X0357850Y0020890D01*
X0358000Y0020978D01*
X0358153Y0021062D01*
X0358308Y0021142D01*
X0358464Y0021218D01*
X0358623Y0021291D01*
X0358783Y0021360D01*
X0358945Y0021424D01*
X0359108Y0021485D01*
X0359273Y0021542D01*
X0359439Y0021594D01*
X0359606Y0021643D01*
X0359775Y0021687D01*
X0359944Y0021727D01*
X0360115Y0021764D01*
X0360286Y0021795D01*
X0360458Y0021823D01*
X0360631Y0021847D01*
X0360804Y0021866D01*
X0360978Y0021881D01*
X0361152Y0021891D01*
X0361326Y0021898D01*
X0361500Y0021900D01*
X0361674Y0021898D01*
X0361848Y0021891D01*
X0362022Y0021881D01*
X0362196Y0021866D01*
X0362369Y0021847D01*
X0362542Y0021823D01*
X0362714Y0021795D01*
X0362885Y0021764D01*
X0363056Y0021727D01*
X0363225Y0021687D01*
X0363394Y0021643D01*
X0363561Y0021594D01*
X0363727Y0021542D01*
X0363892Y0021485D01*
X0364055Y0021424D01*
X0364217Y0021360D01*
X0364377Y0021291D01*
X0364536Y0021218D01*
X0364692Y0021142D01*
X0364847Y0021062D01*
X0365000Y0020978D01*
X0365150Y0020890D01*
X0365298Y0020798D01*
X0365445Y0020703D01*
X0365588Y0020605D01*
X0365729Y0020503D01*
X0365868Y0020397D01*
X0366004Y0020288D01*
X0366138Y0020176D01*
X0366268Y0020061D01*
X0366396Y0019942D01*
X0366520Y0019820D01*
X0366642Y0019696D01*
X0366761Y0019568D01*
X0366876Y0019438D01*
X0366988Y0019304D01*
X0367097Y0019168D01*
X0367203Y0019029D01*
X0367305Y0018888D01*
X0367403Y0018745D01*
X0367498Y0018598D01*
X0367590Y0018450D01*
X0367678Y0018300D01*
X0367762Y0018147D01*
X0367842Y0017992D01*
X0367918Y0017836D01*
X0367991Y0017677D01*
X0368060Y0017517D01*
X0368124Y0017355D01*
X0368185Y0017192D01*
X0368242Y0017027D01*
X0368294Y0016861D01*
X0368343Y0016694D01*
X0368387Y0016525D01*
X0368427Y0016356D01*
X0368464Y0016185D01*
X0368495Y0016014D01*
X0368523Y0015842D01*
X0368547Y0015669D01*
X0368566Y0015496D01*
X0368581Y0015322D01*
X0368591Y0015148D01*
X0368598Y0014974D01*
X0368600Y0014800D01*
X0368598Y0014626D01*
X0368591Y0014452D01*
X0368581Y0014278D01*
X0368566Y0014104D01*
X0368547Y0013931D01*
X0368523Y0013758D01*
X0368495Y0013586D01*
X0368464Y0013415D01*
X0368427Y0013244D01*
X0368387Y0013075D01*
X0368343Y0012906D01*
X0368294Y0012739D01*
X0368242Y0012573D01*
X0368185Y0012408D01*
X0368124Y0012245D01*
X0368060Y0012083D01*
X0367991Y0011923D01*
X0367918Y0011764D01*
X0367842Y0011608D01*
X0367762Y0011453D01*
X0367678Y0011300D01*
X0367590Y0011150D01*
X0367498Y0011002D01*
X0367403Y0010855D01*
X0367305Y0010712D01*
X0367203Y0010571D01*
X0367097Y0010432D01*
X0366988Y0010296D01*
X0366876Y0010162D01*
X0366761Y0010032D01*
X0366642Y0009904D01*
X0366520Y0009780D01*
X0366396Y0009658D01*
X0366268Y0009539D01*
X0366138Y0009424D01*
X0366004Y0009312D01*
X0365868Y0009203D01*
X0365729Y0009097D01*
X0365588Y0008995D01*
X0365445Y0008897D01*
X0365298Y0008802D01*
X0365150Y0008710D01*
X0365000Y0008622D01*
X0364847Y0008538D01*
X0364692Y0008458D01*
X0364536Y0008382D01*
X0364377Y0008309D01*
X0364217Y0008240D01*
X0364055Y0008176D01*
X0363892Y0008115D01*
X0363727Y0008058D01*
X0363561Y0008006D01*
X0363394Y0007957D01*
X0363225Y0007913D01*
X0363056Y0007873D01*
X0362885Y0007836D01*
X0362714Y0007805D01*
X0362542Y0007777D01*
X0362369Y0007753D01*
X0362196Y0007734D01*
X0362022Y0007719D01*
X0361848Y0007709D01*
X0361674Y0007702D01*
X0361500Y0007700D01*
X0361326Y0007702D01*
X0361152Y0007709D01*
X0360978Y0007719D01*
X0360804Y0007734D01*
X0360631Y0007753D01*
X0360458Y0007777D01*
X0360286Y0007805D01*
X0360115Y0007836D01*
X0359944Y0007873D01*
X0359775Y0007913D01*
X0359606Y0007957D01*
X0359439Y0008006D01*
X0359273Y0008058D01*
X0359108Y0008115D01*
X0358945Y0008176D01*
X0358783Y0008240D01*
X0358623Y0008309D01*
X0358464Y0008382D01*
X0358308Y0008458D01*
X0358153Y0008538D01*
X0358000Y0008622D01*
X0357850Y0008710D01*
X0357702Y0008802D01*
X0357555Y0008897D01*
X0357412Y0008995D01*
X0357271Y0009097D01*
X0357132Y0009203D01*
X0356996Y0009312D01*
X0356862Y0009424D01*
X0356732Y0009539D01*
X0356604Y0009658D01*
X0356480Y0009780D01*
X0356358Y0009904D01*
X0356239Y0010032D01*
X0356124Y0010162D01*
X0356012Y0010296D01*
X0355903Y0010432D01*
X0355797Y0010571D01*
X0355695Y0010712D01*
X0355597Y0010855D01*
X0355502Y0011002D01*
X0355410Y0011150D01*
X0355322Y0011300D01*
X0355238Y0011453D01*
X0355158Y0011608D01*
X0355082Y0011764D01*
X0355009Y0011923D01*
X0354940Y0012083D01*
X0354876Y0012245D01*
X0354815Y0012408D01*
X0354758Y0012573D01*
X0354706Y0012739D01*
X0354657Y0012906D01*
X0354613Y0013075D01*
X0354573Y0013244D01*
X0354536Y0013415D01*
X0354505Y0013586D01*
X0354477Y0013758D01*
X0354453Y0013931D01*
X0354434Y0014104D01*
X0354419Y0014278D01*
X0354409Y0014452D01*
X0354402Y0014626D01*
X0354400Y0014800D01*
D12*
X0343500Y0028800D02*
X0379500Y0028800D01*
X0379500Y0061300D01*
X0343500Y0061300D01*
X0343500Y0028800D01*
X0179500Y0028800D02*
X0179500Y0061300D01*
X0143500Y0061300D01*
X0143500Y0028800D01*
X0179500Y0028800D01*
X0064500Y0028800D02*
X0064500Y0061300D01*
X0028500Y0061300D01*
X0028500Y0028800D01*
X0064500Y0028800D01*
D13*
X0056500Y0076050D03*
X0046500Y0076050D03*
X0036500Y0076050D03*
X0151500Y0076050D03*
X0161500Y0076050D03*
X0171500Y0076050D03*
X0351500Y0076050D03*
X0361500Y0076050D03*
X0371500Y0076050D03*
D14*
X0371500Y0069300D03*
X0361500Y0069300D03*
X0351500Y0069300D03*
X0171500Y0069300D03*
X0161500Y0069300D03*
X0151500Y0069300D03*
X0056500Y0069300D03*
X0046500Y0069300D03*
X0036500Y0069300D03*
D15*
X0101500Y0079600D03*
X0101500Y0108000D03*
X0151500Y0124600D03*
X0171500Y0118000D03*
X0181500Y0118000D03*
X0181500Y0089600D03*
X0171500Y0089600D03*
X0241500Y0129600D03*
X0241500Y0158000D03*
X0176500Y0169600D03*
X0151500Y0153000D03*
X0176500Y0198000D03*
D16*
X0170700Y0213800D03*
X0142300Y0213800D03*
X0192300Y0178800D03*
X0220700Y0178800D03*
X0217300Y0233800D03*
X0245700Y0233800D03*
X0342300Y0103800D03*
X0342300Y0093800D03*
X0370700Y0093800D03*
X0370700Y0103800D03*
X0065700Y0098800D03*
X0037300Y0098800D03*
D17*
X0246500Y0061300D02*
X0246500Y0043800D01*
X0276500Y0043800D01*
X0276500Y0036300D01*
X0246500Y0036300D01*
X0246500Y0043800D01*
X0246500Y0061300D02*
X0276500Y0061300D01*
X0276500Y0043800D01*
M02*
