%
M48
M72
T01C0.02000
T02C0.03200
T03C0.03937
T04C0.04000
T05C0.04400
T06C0.13000
%
T01
X36500Y73800
X46500Y73800
X56500Y73800
X71500Y98800
X61500Y113800
X41500Y113800
X31500Y98800
X81500Y123800
X81500Y123800
X101500Y113800
X126500Y103800
X136500Y103800
X151500Y118800
X171500Y123800
X181500Y123800
X191500Y133800
X191500Y143800
X191500Y153800
X191500Y163800
X176500Y163800
X186500Y178800
X221500Y163800
X221500Y163800
X221500Y153800
X221500Y143800
X221500Y133800
X241500Y123800
X286500Y123800
X306500Y123800
X336500Y103800
X336500Y93800
X311500Y88800
X311500Y68800
X311500Y68800
X351500Y73800
X361500Y73800
X371500Y73800
X376500Y93800
X376500Y103800
X276500Y163800
X256500Y163800
X241500Y163800
X241500Y163800
X241500Y178800
X241500Y188800
X226500Y178800
X201500Y203800
X201500Y213800
X176500Y213800
X176500Y203800
X141500Y188800
X131500Y188800
X101500Y183800
X101500Y193800
X76500Y188800
X56500Y188800
X36500Y188800
X16500Y188800
X26500Y168800
X66500Y168800
X81500Y143800
X81500Y143800
X106500Y143800
X106500Y153800
X106500Y163800
X136500Y163800
X151500Y158800
X136500Y153800
X136500Y143800
X136500Y133800
X106500Y133800
X171500Y83800
X181500Y83800
X171500Y73800
X161500Y73800
X151500Y73800
X101500Y73800
X201500Y78800
X201500Y58800
X251500Y48800
X261500Y48800
X271500Y48800
X311500Y173800
X321500Y173800
X331500Y173800
X341500Y173800
X351500Y173800
X361500Y173800
X371500Y173800
X381500Y173800
X381500Y193800
X391500Y193800
X371500Y193800
X361500Y193800
X351500Y193800
X341500Y193800
X331500Y193800
X321500Y193800
X311500Y193800
X301500Y193800
X291500Y193800
X281500Y193800
X271500Y193800
X261500Y193800
X261500Y213800
X271500Y213800
X281500Y213800
X291500Y213800
X301500Y213800
X311500Y213800
X321500Y213800
X331500Y213800
X341500Y213800
X351500Y213800
X361500Y213800
X371500Y213800
X381500Y213800
X391500Y213800
X391500Y233800
X381500Y233800
X371500Y233800
X361500Y233800
X351500Y233800
X341500Y233800
X331500Y233800
X321500Y233800
X311500Y233800
X301500Y233800
X291500Y233800
X281500Y233800
X251500Y233800
X211500Y233800
X186500Y233800
X176500Y233800
X136500Y213800
X61500Y228800
T02
X101500Y193800
X101500Y183800
X131500Y188800
X141500Y188800
X176500Y203800
X176500Y213800
X176500Y233800
X186500Y233800
X211500Y233800
X251500Y233800
X241500Y188800
X241500Y178800
X226500Y178800
X221500Y163800
X221500Y153800
X221500Y143800
X221500Y133800
X241500Y123800
X286500Y123800
X306500Y123800
X336500Y103800
X336500Y93800
X311500Y88800
X311500Y68800
X376500Y93800
X376500Y103800
X276500Y163800
X256500Y163800
X241500Y163800
X191500Y163800
X191500Y153800
X191500Y143800
X191500Y133800
X181500Y123800
X171500Y123800
X151500Y118800
X136500Y103800
X126500Y103800
X101500Y113800
X81500Y123800
X61500Y113800
X41500Y113800
X31500Y98800
X71500Y98800
X101500Y73800
X171500Y83800
X181500Y83800
X201500Y78800
X201500Y58800
X136500Y133800
X136500Y143800
X136500Y153800
X151500Y158800
X136500Y163800
X106500Y163800
X106500Y153800
X106500Y143800
X106500Y133800
X81500Y143800
X176500Y163800
X186500Y178800
X136500Y213800
T03
X251500Y48800
X261500Y48800
X271500Y48800
T04
X311500Y173800
X321500Y173800
X331500Y173800
X341500Y173800
X351500Y173800
X361500Y173800
X371500Y173800
X381500Y173800
X381500Y193800
X391500Y193800
X371500Y193800
X361500Y193800
X351500Y193800
X341500Y193800
X331500Y193800
X321500Y193800
X311500Y193800
X301500Y193800
X291500Y193800
X281500Y193800
X271500Y193800
X261500Y193800
X261500Y213800
X271500Y213800
X281500Y213800
X291500Y213800
X301500Y213800
X311500Y213800
X321500Y213800
X331500Y213800
X341500Y213800
X351500Y213800
X361500Y213800
X371500Y213800
X381500Y213800
X391500Y213800
X391500Y233800
X381500Y233800
X371500Y233800
X361500Y233800
X351500Y233800
X341500Y233800
X331500Y233800
X321500Y233800
X311500Y233800
X301500Y233800
X291500Y233800
X281500Y233800
X201500Y213800
X201500Y203800
X76500Y188800
X56500Y188800
X36500Y188800
X16500Y188800
X26500Y168800
X66500Y168800
T05
X56500Y73800
X46500Y73800
X36500Y73800
X151500Y73800
X161500Y73800
X171500Y73800
X351500Y73800
X361500Y73800
X371500Y73800
T06
X46500Y14800
X161500Y14800
X361500Y14800
M30
