G75*
%MOIN*%
%OFA0B0*%
%FSLAX25Y25*%
%IPPOS*%
%LPD*%
%AMOC8*
5,1,8,0,0,1.08239X$1,22.5*
%
%ADD10C,0.00000*%
%ADD11R,0.06299X0.07087*%
%ADD12R,0.08800X0.04800*%
%ADD13R,0.08661X0.14173*%
%ADD14C,0.05600*%
%ADD15C,0.06400*%
%ADD16R,0.12598X0.07087*%
%ADD17C,0.05600*%
%ADD18C,0.07124*%
%ADD19OC8,0.05600*%
%ADD20C,0.05550*%
%ADD21C,0.01600*%
%ADD22C,0.04362*%
D10*
X0001800Y0001800D02*
X0001800Y0186761D01*
X0288001Y0186761D01*
X0288001Y0001800D01*
X0001800Y0001800D01*
D11*
X0208788Y0034300D03*
X0219812Y0034300D03*
X0218788Y0081800D03*
X0229812Y0081800D03*
D12*
X0234000Y0068400D03*
X0234000Y0059300D03*
X0234000Y0050200D03*
D13*
X0209599Y0059300D03*
D14*
X0096800Y0064300D03*
X0096800Y0074300D03*
X0096800Y0084300D03*
X0096800Y0094300D03*
X0096800Y0116800D03*
X0096800Y0126800D03*
X0096800Y0136800D03*
X0096800Y0146800D03*
X0066800Y0146800D03*
X0066800Y0136800D03*
X0066800Y0126800D03*
X0066800Y0116800D03*
X0066800Y0094300D03*
X0066800Y0084300D03*
X0066800Y0074300D03*
X0066800Y0064300D03*
D15*
X0113600Y0116800D02*
X0120000Y0116800D01*
X0134300Y0116100D02*
X0134300Y0122500D01*
X0144300Y0122500D02*
X0144300Y0116100D01*
X0154300Y0116100D02*
X0154300Y0122500D01*
X0164300Y0122500D02*
X0164300Y0116100D01*
X0174300Y0116100D02*
X0174300Y0122500D01*
X0184300Y0122500D02*
X0184300Y0116100D01*
X0194300Y0116100D02*
X0194300Y0122500D01*
X0204300Y0122500D02*
X0204300Y0116100D01*
X0214300Y0116100D02*
X0214300Y0122500D01*
X0224300Y0122500D02*
X0224300Y0116100D01*
X0234300Y0116100D02*
X0234300Y0122500D01*
X0244300Y0122500D02*
X0244300Y0116100D01*
X0254300Y0116100D02*
X0254300Y0122500D01*
X0264300Y0122500D02*
X0264300Y0116100D01*
X0254300Y0107500D02*
X0254300Y0101100D01*
X0244300Y0101100D02*
X0244300Y0107500D01*
X0234300Y0107500D02*
X0234300Y0101100D01*
X0224300Y0101100D02*
X0224300Y0107500D01*
X0214300Y0107500D02*
X0214300Y0101100D01*
X0204300Y0101100D02*
X0204300Y0107500D01*
X0194300Y0107500D02*
X0194300Y0101100D01*
X0184300Y0101100D02*
X0184300Y0107500D01*
X0184300Y0136100D02*
X0184300Y0142500D01*
X0194300Y0142500D02*
X0194300Y0136100D01*
X0204300Y0136100D02*
X0204300Y0142500D01*
X0214300Y0142500D02*
X0214300Y0136100D01*
X0224300Y0136100D02*
X0224300Y0142500D01*
X0234300Y0142500D02*
X0234300Y0136100D01*
X0244300Y0136100D02*
X0244300Y0142500D01*
X0254300Y0142500D02*
X0254300Y0136100D01*
X0264300Y0136100D02*
X0264300Y0142500D01*
X0264300Y0151100D02*
X0264300Y0157500D01*
X0254300Y0157500D02*
X0254300Y0151100D01*
X0244300Y0151100D02*
X0244300Y0157500D01*
X0234300Y0157500D02*
X0234300Y0151100D01*
X0224300Y0151100D02*
X0224300Y0157500D01*
X0214300Y0157500D02*
X0214300Y0151100D01*
X0204300Y0151100D02*
X0204300Y0157500D01*
X0194300Y0157500D02*
X0194300Y0151100D01*
X0184300Y0151100D02*
X0184300Y0157500D01*
X0174300Y0157500D02*
X0174300Y0151100D01*
X0164300Y0151100D02*
X0164300Y0157500D01*
X0154300Y0157500D02*
X0154300Y0151100D01*
X0154300Y0142500D02*
X0154300Y0136100D01*
X0164300Y0136100D02*
X0164300Y0142500D01*
X0174300Y0142500D02*
X0174300Y0136100D01*
X0144300Y0136100D02*
X0144300Y0142500D01*
X0134300Y0142500D02*
X0134300Y0136100D01*
X0120000Y0126800D02*
X0113600Y0126800D01*
D16*
X0181800Y0080324D03*
X0181800Y0058276D03*
X0259300Y0055776D03*
X0259300Y0042824D03*
X0259300Y0020776D03*
X0259300Y0077824D03*
D17*
X0046800Y0094000D02*
X0046800Y0099600D01*
X0036800Y0099600D02*
X0036800Y0094000D01*
X0026800Y0094000D02*
X0026800Y0099600D01*
X0024300Y0136500D02*
X0024300Y0142100D01*
X0034300Y0142100D02*
X0034300Y0136500D01*
X0044300Y0136500D02*
X0044300Y0142100D01*
D18*
X0114300Y0032862D02*
X0114300Y0025738D01*
X0124300Y0025738D02*
X0124300Y0032862D01*
X0134300Y0032862D02*
X0134300Y0025738D01*
D19*
X0044300Y0016800D03*
X0034300Y0016800D03*
D20*
X0061200Y0021800D03*
X0079300Y0021800D03*
X0097400Y0021800D03*
X0097400Y0044300D03*
X0079300Y0044300D03*
X0061200Y0044300D03*
D21*
X0066375Y0044263D02*
X0074125Y0044263D01*
X0074125Y0043271D02*
X0074913Y0041369D01*
X0076369Y0039913D01*
X0078271Y0039125D01*
X0080329Y0039125D01*
X0082231Y0039913D01*
X0083687Y0041369D01*
X0084475Y0043271D01*
X0084475Y0045329D01*
X0083687Y0047231D01*
X0082231Y0048687D01*
X0080329Y0049475D01*
X0078271Y0049475D01*
X0076369Y0048687D01*
X0074913Y0047231D01*
X0074125Y0045329D01*
X0074125Y0043271D01*
X0074376Y0042664D02*
X0066124Y0042664D01*
X0066375Y0043271D02*
X0065587Y0041369D01*
X0064131Y0039913D01*
X0062229Y0039125D01*
X0060171Y0039125D01*
X0058269Y0039913D01*
X0056813Y0041369D01*
X0056025Y0043271D01*
X0056025Y0045329D01*
X0056813Y0047231D01*
X0058269Y0048687D01*
X0060171Y0049475D01*
X0062229Y0049475D01*
X0064131Y0048687D01*
X0065587Y0047231D01*
X0066375Y0045329D01*
X0066375Y0043271D01*
X0065284Y0041066D02*
X0075216Y0041066D01*
X0077445Y0039467D02*
X0063055Y0039467D01*
X0059345Y0039467D02*
X0004200Y0039467D01*
X0004200Y0037869D02*
X0110875Y0037869D01*
X0110923Y0037917D02*
X0109245Y0036240D01*
X0108338Y0034048D01*
X0108338Y0024552D01*
X0109245Y0022360D01*
X0110923Y0020683D01*
X0113114Y0019776D01*
X0115486Y0019776D01*
X0117677Y0020683D01*
X0119355Y0022360D01*
X0119645Y0023062D01*
X0119714Y0022927D01*
X0120210Y0022245D01*
X0120807Y0021648D01*
X0121490Y0021152D01*
X0122242Y0020768D01*
X0123044Y0020508D01*
X0123878Y0020376D01*
X0123919Y0020376D01*
X0123919Y0028919D01*
X0124681Y0028919D01*
X0124681Y0020376D01*
X0124722Y0020376D01*
X0125556Y0020508D01*
X0126358Y0020768D01*
X0127110Y0021152D01*
X0127793Y0021648D01*
X0128390Y0022245D01*
X0128886Y0022927D01*
X0128955Y0023062D01*
X0129245Y0022360D01*
X0130923Y0020683D01*
X0133114Y0019776D01*
X0135486Y0019776D01*
X0137677Y0020683D01*
X0139355Y0022360D01*
X0140262Y0024552D01*
X0140262Y0034048D01*
X0139355Y0036240D01*
X0137677Y0037917D01*
X0135486Y0038824D01*
X0133114Y0038824D01*
X0130923Y0037917D01*
X0129245Y0036240D01*
X0128955Y0035538D01*
X0128886Y0035673D01*
X0128390Y0036355D01*
X0127793Y0036952D01*
X0127110Y0037448D01*
X0126358Y0037832D01*
X0125556Y0038092D01*
X0124722Y0038224D01*
X0124681Y0038224D01*
X0124681Y0029681D01*
X0123919Y0029681D01*
X0123919Y0038224D01*
X0123878Y0038224D01*
X0123044Y0038092D01*
X0122242Y0037832D01*
X0121490Y0037448D01*
X0120807Y0036952D01*
X0120210Y0036355D01*
X0119714Y0035673D01*
X0119645Y0035538D01*
X0119355Y0036240D01*
X0117677Y0037917D01*
X0115486Y0038824D01*
X0113114Y0038824D01*
X0110923Y0037917D01*
X0109276Y0036270D02*
X0004200Y0036270D01*
X0004200Y0034672D02*
X0108596Y0034672D01*
X0108338Y0033073D02*
X0004200Y0033073D01*
X0004200Y0031475D02*
X0108338Y0031475D01*
X0108338Y0029876D02*
X0004200Y0029876D01*
X0004200Y0028278D02*
X0108338Y0028278D01*
X0108338Y0026679D02*
X0099143Y0026679D01*
X0098429Y0026975D02*
X0100331Y0026187D01*
X0101787Y0024731D01*
X0102575Y0022829D01*
X0102575Y0020771D01*
X0101787Y0018869D01*
X0100331Y0017413D01*
X0098429Y0016625D01*
X0096371Y0016625D01*
X0094469Y0017413D01*
X0093013Y0018869D01*
X0092225Y0020771D01*
X0092225Y0022829D01*
X0093013Y0024731D01*
X0094469Y0026187D01*
X0096371Y0026975D01*
X0098429Y0026975D01*
X0095657Y0026679D02*
X0081043Y0026679D01*
X0080329Y0026975D02*
X0078271Y0026975D01*
X0076369Y0026187D01*
X0074913Y0024731D01*
X0074125Y0022829D01*
X0074125Y0020771D01*
X0074913Y0018869D01*
X0076369Y0017413D01*
X0078271Y0016625D01*
X0080329Y0016625D01*
X0082231Y0017413D01*
X0083687Y0018869D01*
X0084475Y0020771D01*
X0084475Y0022829D01*
X0083687Y0024731D01*
X0082231Y0026187D01*
X0080329Y0026975D01*
X0077557Y0026679D02*
X0062943Y0026679D01*
X0062229Y0026975D02*
X0060171Y0026975D01*
X0058269Y0026187D01*
X0056813Y0024731D01*
X0056025Y0022829D01*
X0056025Y0020771D01*
X0056813Y0018869D01*
X0058269Y0017413D01*
X0060171Y0016625D01*
X0062229Y0016625D01*
X0064131Y0017413D01*
X0065587Y0018869D01*
X0066375Y0020771D01*
X0066375Y0022829D01*
X0065587Y0024731D01*
X0064131Y0026187D01*
X0062229Y0026975D01*
X0059457Y0026679D02*
X0004200Y0026679D01*
X0004200Y0025081D02*
X0057162Y0025081D01*
X0056296Y0023482D02*
X0004200Y0023482D01*
X0004200Y0021884D02*
X0042030Y0021884D01*
X0042146Y0022000D02*
X0039100Y0018954D01*
X0039100Y0014646D01*
X0042146Y0011600D01*
X0046454Y0011600D01*
X0049500Y0014646D01*
X0049500Y0018954D01*
X0046454Y0022000D01*
X0042146Y0022000D01*
X0040431Y0020285D02*
X0037320Y0020285D01*
X0036205Y0021400D02*
X0034300Y0021400D01*
X0034300Y0016800D01*
X0038900Y0016800D01*
X0038900Y0018705D01*
X0036205Y0021400D01*
X0034300Y0021400D02*
X0032395Y0021400D01*
X0029700Y0018705D01*
X0029700Y0016800D01*
X0034300Y0016800D01*
X0034300Y0016800D01*
X0034300Y0016800D01*
X0038900Y0016800D01*
X0038900Y0014895D01*
X0036205Y0012200D01*
X0034300Y0012200D01*
X0034300Y0016800D01*
X0034300Y0016800D01*
X0034300Y0016800D01*
X0034300Y0021400D01*
X0034300Y0020285D02*
X0034300Y0020285D01*
X0034300Y0018687D02*
X0034300Y0018687D01*
X0034300Y0017088D02*
X0034300Y0017088D01*
X0034300Y0016800D02*
X0029700Y0016800D01*
X0029700Y0014895D01*
X0032395Y0012200D01*
X0034300Y0012200D01*
X0034300Y0016800D01*
X0034300Y0015490D02*
X0034300Y0015490D01*
X0034300Y0013891D02*
X0034300Y0013891D01*
X0034300Y0012293D02*
X0034300Y0012293D01*
X0036298Y0012293D02*
X0041454Y0012293D01*
X0039855Y0013891D02*
X0037896Y0013891D01*
X0038900Y0015490D02*
X0039100Y0015490D01*
X0039100Y0017088D02*
X0038900Y0017088D01*
X0038900Y0018687D02*
X0039100Y0018687D01*
X0046570Y0021884D02*
X0056025Y0021884D01*
X0056226Y0020285D02*
X0048169Y0020285D01*
X0049500Y0018687D02*
X0056995Y0018687D01*
X0059053Y0017088D02*
X0049500Y0017088D01*
X0049500Y0015490D02*
X0200964Y0015490D01*
X0202563Y0017088D02*
X0099547Y0017088D01*
X0101605Y0018687D02*
X0204161Y0018687D01*
X0205588Y0020114D02*
X0197975Y0012500D01*
X0082579Y0012500D01*
X0081895Y0013184D01*
X0080211Y0013881D01*
X0078389Y0013881D01*
X0076705Y0013184D01*
X0075416Y0011895D01*
X0074719Y0010211D01*
X0074719Y0008389D01*
X0075416Y0006705D01*
X0076705Y0005416D01*
X0078389Y0004719D01*
X0080211Y0004719D01*
X0081895Y0005416D01*
X0082579Y0006100D01*
X0199937Y0006100D01*
X0201113Y0006587D01*
X0202013Y0007487D01*
X0202013Y0007487D01*
X0211501Y0016976D01*
X0211988Y0018152D01*
X0211988Y0028357D01*
X0212415Y0028357D01*
X0213297Y0028722D01*
X0213972Y0029397D01*
X0214338Y0030279D01*
X0214338Y0038321D01*
X0213972Y0039203D01*
X0213297Y0039878D01*
X0212415Y0040243D01*
X0211988Y0040243D01*
X0211988Y0049813D01*
X0214407Y0049813D01*
X0215289Y0050179D01*
X0215965Y0050854D01*
X0216330Y0051736D01*
X0216330Y0066100D01*
X0227200Y0066100D01*
X0227200Y0065523D01*
X0227565Y0064641D01*
X0228241Y0063965D01*
X0228519Y0063850D01*
X0228241Y0063735D01*
X0227565Y0063059D01*
X0227200Y0062177D01*
X0227200Y0056423D01*
X0227565Y0055541D01*
X0228241Y0054865D01*
X0228519Y0054750D01*
X0228241Y0054635D01*
X0227565Y0053959D01*
X0227200Y0053077D01*
X0227200Y0047323D01*
X0227565Y0046441D01*
X0228241Y0045765D01*
X0229123Y0045400D01*
X0234359Y0045400D01*
X0239379Y0040542D01*
X0239811Y0040111D01*
X0239836Y0040100D01*
X0239856Y0040081D01*
X0240423Y0039857D01*
X0240987Y0039624D01*
X0241014Y0039624D01*
X0241040Y0039614D01*
X0241650Y0039624D01*
X0250601Y0039624D01*
X0250601Y0038803D01*
X0250966Y0037921D01*
X0251641Y0037246D01*
X0252523Y0036880D01*
X0266077Y0036880D01*
X0266959Y0037246D01*
X0267634Y0037921D01*
X0267999Y0038803D01*
X0267999Y0046844D01*
X0267634Y0047726D01*
X0266959Y0048402D01*
X0266077Y0048767D01*
X0262500Y0048767D01*
X0262500Y0049833D01*
X0266077Y0049833D01*
X0266959Y0050198D01*
X0267634Y0050874D01*
X0267999Y0051756D01*
X0267999Y0059797D01*
X0267634Y0060679D01*
X0266959Y0061354D01*
X0266077Y0061720D01*
X0252523Y0061720D01*
X0251641Y0061354D01*
X0250966Y0060679D01*
X0250601Y0059797D01*
X0250601Y0051756D01*
X0250966Y0050874D01*
X0251641Y0050198D01*
X0252523Y0049833D01*
X0256100Y0049833D01*
X0256100Y0048767D01*
X0252523Y0048767D01*
X0251641Y0048402D01*
X0250966Y0047726D01*
X0250601Y0046844D01*
X0250601Y0046024D01*
X0242918Y0046024D01*
X0240800Y0048073D01*
X0240800Y0053077D01*
X0240435Y0053959D01*
X0239759Y0054635D01*
X0239481Y0054750D01*
X0239759Y0054865D01*
X0240435Y0055541D01*
X0240800Y0056423D01*
X0240800Y0062177D01*
X0240435Y0063059D01*
X0239759Y0063735D01*
X0239481Y0063850D01*
X0239759Y0063965D01*
X0240435Y0064641D01*
X0240800Y0065523D01*
X0240800Y0069696D01*
X0247035Y0074624D01*
X0250601Y0074624D01*
X0250601Y0073803D01*
X0250966Y0072921D01*
X0251641Y0072246D01*
X0252523Y0071880D01*
X0266077Y0071880D01*
X0266959Y0072246D01*
X0267634Y0072921D01*
X0267999Y0073803D01*
X0267999Y0081844D01*
X0267634Y0082726D01*
X0266959Y0083402D01*
X0266077Y0083767D01*
X0252523Y0083767D01*
X0251641Y0083402D01*
X0250966Y0082726D01*
X0250601Y0081844D01*
X0250601Y0081024D01*
X0246110Y0081024D01*
X0245664Y0081076D01*
X0245479Y0081024D01*
X0245287Y0081024D01*
X0244872Y0080851D01*
X0244439Y0080729D01*
X0244288Y0080610D01*
X0244111Y0080536D01*
X0243793Y0080218D01*
X0234913Y0073200D01*
X0233012Y0073200D01*
X0233012Y0075857D01*
X0233439Y0075857D01*
X0234321Y0076222D01*
X0234996Y0076897D01*
X0235361Y0077779D01*
X0235361Y0085821D01*
X0234996Y0086703D01*
X0234321Y0087378D01*
X0233439Y0087743D01*
X0226185Y0087743D01*
X0225303Y0087378D01*
X0224628Y0086703D01*
X0224262Y0085821D01*
X0224262Y0077779D01*
X0224628Y0076897D01*
X0225303Y0076222D01*
X0226185Y0075857D01*
X0226612Y0075857D01*
X0226612Y0072500D01*
X0101683Y0072500D01*
X0102000Y0073266D01*
X0102000Y0075334D01*
X0101208Y0077246D01*
X0099746Y0078708D01*
X0098317Y0079300D01*
X0099746Y0079892D01*
X0101208Y0081354D01*
X0102000Y0083266D01*
X0102000Y0085334D01*
X0101208Y0087246D01*
X0099746Y0088708D01*
X0098317Y0089300D01*
X0099746Y0089892D01*
X0101208Y0091354D01*
X0102000Y0093266D01*
X0102000Y0095334D01*
X0101208Y0097246D01*
X0099746Y0098708D01*
X0097834Y0099500D01*
X0095766Y0099500D01*
X0093854Y0098708D01*
X0092392Y0097246D01*
X0091600Y0095334D01*
X0091600Y0093266D01*
X0092392Y0091354D01*
X0093854Y0089892D01*
X0095283Y0089300D01*
X0093854Y0088708D01*
X0092392Y0087246D01*
X0091600Y0085334D01*
X0091600Y0083266D01*
X0092392Y0081354D01*
X0093854Y0079892D01*
X0095283Y0079300D01*
X0093854Y0078708D01*
X0092392Y0077246D01*
X0091600Y0075334D01*
X0091600Y0073266D01*
X0091917Y0072500D01*
X0071683Y0072500D01*
X0072000Y0073266D01*
X0072000Y0075334D01*
X0071208Y0077246D01*
X0069746Y0078708D01*
X0068317Y0079300D01*
X0069746Y0079892D01*
X0071208Y0081354D01*
X0072000Y0083266D01*
X0072000Y0085334D01*
X0071208Y0087246D01*
X0069746Y0088708D01*
X0068317Y0089300D01*
X0069746Y0089892D01*
X0071208Y0091354D01*
X0072000Y0093266D01*
X0072000Y0095334D01*
X0071208Y0097246D01*
X0069746Y0098708D01*
X0067834Y0099500D01*
X0065766Y0099500D01*
X0063854Y0098708D01*
X0062392Y0097246D01*
X0061600Y0095334D01*
X0061600Y0093266D01*
X0062392Y0091354D01*
X0063854Y0089892D01*
X0065283Y0089300D01*
X0063854Y0088708D01*
X0062392Y0087246D01*
X0061600Y0085334D01*
X0061600Y0083266D01*
X0062392Y0081354D01*
X0063854Y0079892D01*
X0065283Y0079300D01*
X0063854Y0078708D01*
X0062392Y0077246D01*
X0061600Y0075334D01*
X0061600Y0073266D01*
X0061917Y0072500D01*
X0058663Y0072500D01*
X0057487Y0072013D01*
X0054356Y0068881D01*
X0053389Y0068881D01*
X0051705Y0068184D01*
X0050416Y0066895D01*
X0049719Y0065211D01*
X0049719Y0063389D01*
X0050416Y0061705D01*
X0051705Y0060416D01*
X0053389Y0059719D01*
X0055211Y0059719D01*
X0056895Y0060416D01*
X0058184Y0061705D01*
X0058881Y0063389D01*
X0058881Y0064356D01*
X0060625Y0066100D01*
X0061917Y0066100D01*
X0061600Y0065334D01*
X0061600Y0063266D01*
X0062392Y0061354D01*
X0063854Y0059892D01*
X0065766Y0059100D01*
X0067834Y0059100D01*
X0069746Y0059892D01*
X0071208Y0061354D01*
X0072000Y0063266D01*
X0072000Y0065334D01*
X0071683Y0066100D01*
X0091917Y0066100D01*
X0091600Y0065334D01*
X0091600Y0063266D01*
X0092392Y0061354D01*
X0093854Y0059892D01*
X0095766Y0059100D01*
X0097834Y0059100D01*
X0099746Y0059892D01*
X0101208Y0061354D01*
X0102000Y0063266D01*
X0102000Y0065334D01*
X0101683Y0066100D01*
X0202869Y0066100D01*
X0202869Y0051736D01*
X0203234Y0050854D01*
X0203909Y0050179D01*
X0204791Y0049813D01*
X0205588Y0049813D01*
X0205588Y0040243D01*
X0205161Y0040243D01*
X0204279Y0039878D01*
X0203604Y0039203D01*
X0203239Y0038321D01*
X0203239Y0030279D01*
X0203604Y0029397D01*
X0204279Y0028722D01*
X0205161Y0028357D01*
X0205588Y0028357D01*
X0205588Y0020114D01*
X0205588Y0020285D02*
X0136716Y0020285D01*
X0138878Y0021884D02*
X0205588Y0021884D01*
X0205588Y0023482D02*
X0139819Y0023482D01*
X0140262Y0025081D02*
X0205588Y0025081D01*
X0205588Y0026679D02*
X0140262Y0026679D01*
X0140262Y0028278D02*
X0205588Y0028278D01*
X0203406Y0029876D02*
X0140262Y0029876D01*
X0140262Y0031475D02*
X0203239Y0031475D01*
X0203239Y0033073D02*
X0140262Y0033073D01*
X0140004Y0034672D02*
X0203239Y0034672D01*
X0203239Y0036270D02*
X0139324Y0036270D01*
X0137725Y0037869D02*
X0203239Y0037869D01*
X0203868Y0039467D02*
X0099255Y0039467D01*
X0098429Y0039125D02*
X0100331Y0039913D01*
X0101787Y0041369D01*
X0102575Y0043271D01*
X0102575Y0045329D01*
X0101787Y0047231D01*
X0100331Y0048687D01*
X0098429Y0049475D01*
X0096371Y0049475D01*
X0094469Y0048687D01*
X0093013Y0047231D01*
X0092225Y0045329D01*
X0092225Y0043271D01*
X0093013Y0041369D01*
X0094469Y0039913D01*
X0096371Y0039125D01*
X0098429Y0039125D01*
X0095545Y0039467D02*
X0081155Y0039467D01*
X0083384Y0041066D02*
X0093316Y0041066D01*
X0092476Y0042664D02*
X0084224Y0042664D01*
X0084475Y0044263D02*
X0092225Y0044263D01*
X0092446Y0045861D02*
X0084254Y0045861D01*
X0083458Y0047460D02*
X0093242Y0047460D01*
X0095365Y0049058D02*
X0081335Y0049058D01*
X0077265Y0049058D02*
X0063235Y0049058D01*
X0065358Y0047460D02*
X0075142Y0047460D01*
X0074346Y0045861D02*
X0066154Y0045861D01*
X0059165Y0049058D02*
X0004200Y0049058D01*
X0004200Y0047460D02*
X0057042Y0047460D01*
X0056246Y0045861D02*
X0004200Y0045861D01*
X0004200Y0044263D02*
X0056025Y0044263D01*
X0056276Y0042664D02*
X0004200Y0042664D01*
X0004200Y0041066D02*
X0057116Y0041066D01*
X0049613Y0051100D02*
X0049297Y0051037D01*
X0048983Y0051100D01*
X0048663Y0051100D01*
X0048365Y0051224D01*
X0048048Y0051287D01*
X0047783Y0051465D01*
X0047487Y0051587D01*
X0047259Y0051816D01*
X0046991Y0051995D01*
X0046813Y0052261D01*
X0046587Y0052487D01*
X0046464Y0052786D01*
X0041813Y0059761D01*
X0041587Y0059987D01*
X0041464Y0060286D01*
X0041284Y0060555D01*
X0041222Y0060868D01*
X0041100Y0061163D01*
X0041100Y0061487D01*
X0041037Y0061803D01*
X0041100Y0062117D01*
X0041100Y0072437D01*
X0041587Y0073613D01*
X0042219Y0074244D01*
X0042219Y0075211D01*
X0042916Y0076895D01*
X0044205Y0078184D01*
X0045889Y0078881D01*
X0046856Y0078881D01*
X0051100Y0083125D01*
X0051100Y0090946D01*
X0049746Y0089592D01*
X0047834Y0088800D01*
X0045766Y0088800D01*
X0043854Y0089592D01*
X0042392Y0091054D01*
X0041600Y0092966D01*
X0041600Y0100634D01*
X0042392Y0102546D01*
X0043854Y0104008D01*
X0045766Y0104800D01*
X0047834Y0104800D01*
X0049746Y0104008D01*
X0051164Y0102590D01*
X0051587Y0103613D01*
X0052487Y0104513D01*
X0057487Y0109513D01*
X0058663Y0110000D01*
X0083521Y0110000D01*
X0084205Y0110684D01*
X0085889Y0111381D01*
X0087711Y0111381D01*
X0089395Y0110684D01*
X0090684Y0109395D01*
X0091381Y0107711D01*
X0091381Y0105889D01*
X0090684Y0104205D01*
X0089395Y0102916D01*
X0087711Y0102219D01*
X0085889Y0102219D01*
X0084205Y0102916D01*
X0083521Y0103600D01*
X0060625Y0103600D01*
X0057500Y0100475D01*
X0057500Y0081163D01*
X0057013Y0079987D01*
X0051381Y0074356D01*
X0051381Y0073389D01*
X0050684Y0071705D01*
X0049395Y0070416D01*
X0047711Y0069719D01*
X0047500Y0069719D01*
X0047500Y0062769D01*
X0051013Y0057500D01*
X0173101Y0057500D01*
X0173101Y0062297D01*
X0173466Y0063179D01*
X0174141Y0063854D01*
X0175023Y0064220D01*
X0188577Y0064220D01*
X0189459Y0063854D01*
X0190134Y0063179D01*
X0190499Y0062297D01*
X0190499Y0054256D01*
X0190134Y0053374D01*
X0189459Y0052698D01*
X0188577Y0052333D01*
X0181859Y0052333D01*
X0181817Y0052292D01*
X0181670Y0052058D01*
X0181372Y0051846D01*
X0181113Y0051587D01*
X0180857Y0051481D01*
X0180632Y0051322D01*
X0180275Y0051240D01*
X0179937Y0051100D01*
X0179660Y0051100D01*
X0179391Y0051039D01*
X0179030Y0051100D01*
X0049613Y0051100D01*
X0046817Y0052255D02*
X0004200Y0052255D01*
X0004200Y0050657D02*
X0203431Y0050657D01*
X0202869Y0052255D02*
X0181794Y0052255D01*
X0179300Y0054300D02*
X0181800Y0058276D01*
X0179300Y0054300D02*
X0049300Y0054300D01*
X0044300Y0061800D01*
X0044300Y0071800D01*
X0046800Y0074300D01*
X0054300Y0081800D01*
X0054300Y0101800D01*
X0059300Y0106800D01*
X0086800Y0106800D01*
X0091016Y0105006D02*
X0178700Y0105006D01*
X0178700Y0103408D02*
X0089886Y0103408D01*
X0091381Y0106605D02*
X0178700Y0106605D01*
X0178700Y0108203D02*
X0091177Y0108203D01*
X0090277Y0109802D02*
X0179192Y0109802D01*
X0179553Y0110672D02*
X0178700Y0108614D01*
X0178700Y0099986D01*
X0179553Y0097928D01*
X0181128Y0096353D01*
X0183186Y0095500D01*
X0185414Y0095500D01*
X0187472Y0096353D01*
X0189047Y0097928D01*
X0189300Y0098538D01*
X0189553Y0097928D01*
X0191128Y0096353D01*
X0193186Y0095500D01*
X0195414Y0095500D01*
X0197472Y0096353D01*
X0199047Y0097928D01*
X0199300Y0098538D01*
X0199553Y0097928D01*
X0201128Y0096353D01*
X0203186Y0095500D01*
X0205414Y0095500D01*
X0207472Y0096353D01*
X0209047Y0097928D01*
X0209300Y0098538D01*
X0209553Y0097928D01*
X0211128Y0096353D01*
X0213186Y0095500D01*
X0215414Y0095500D01*
X0217472Y0096353D01*
X0219047Y0097928D01*
X0219300Y0098538D01*
X0219553Y0097928D01*
X0221128Y0096353D01*
X0223186Y0095500D01*
X0225414Y0095500D01*
X0227472Y0096353D01*
X0229047Y0097928D01*
X0229300Y0098538D01*
X0229553Y0097928D01*
X0231128Y0096353D01*
X0233186Y0095500D01*
X0235414Y0095500D01*
X0237472Y0096353D01*
X0239047Y0097928D01*
X0239300Y0098538D01*
X0239553Y0097928D01*
X0241128Y0096353D01*
X0243186Y0095500D01*
X0245414Y0095500D01*
X0247472Y0096353D01*
X0249047Y0097928D01*
X0249300Y0098538D01*
X0249553Y0097928D01*
X0251128Y0096353D01*
X0253186Y0095500D01*
X0255414Y0095500D01*
X0257472Y0096353D01*
X0259047Y0097928D01*
X0259900Y0099986D01*
X0259900Y0108614D01*
X0259047Y0110672D01*
X0257920Y0111800D01*
X0259047Y0112928D01*
X0259622Y0114316D01*
X0259666Y0114181D01*
X0260024Y0113479D01*
X0260486Y0112843D01*
X0261043Y0112286D01*
X0261679Y0111824D01*
X0262381Y0111466D01*
X0263129Y0111223D01*
X0263906Y0111100D01*
X0264100Y0111100D01*
X0264100Y0119100D01*
X0264500Y0119100D01*
X0264500Y0119500D01*
X0269300Y0119500D01*
X0269300Y0122894D01*
X0269177Y0123671D01*
X0268934Y0124419D01*
X0268576Y0125121D01*
X0268114Y0125757D01*
X0267557Y0126314D01*
X0266921Y0126776D01*
X0266219Y0127134D01*
X0265471Y0127377D01*
X0264694Y0127500D01*
X0264500Y0127500D01*
X0264500Y0119500D01*
X0264100Y0119500D01*
X0264100Y0127500D01*
X0263906Y0127500D01*
X0263129Y0127377D01*
X0262381Y0127134D01*
X0261679Y0126776D01*
X0261043Y0126314D01*
X0260486Y0125757D01*
X0260024Y0125121D01*
X0259666Y0124419D01*
X0259622Y0124284D01*
X0259047Y0125672D01*
X0257472Y0127247D01*
X0255414Y0128100D01*
X0253186Y0128100D01*
X0251128Y0127247D01*
X0249553Y0125672D01*
X0249300Y0125062D01*
X0249047Y0125672D01*
X0247472Y0127247D01*
X0245414Y0128100D01*
X0243186Y0128100D01*
X0241128Y0127247D01*
X0239553Y0125672D01*
X0239300Y0125062D01*
X0239047Y0125672D01*
X0237472Y0127247D01*
X0235414Y0128100D01*
X0233186Y0128100D01*
X0231128Y0127247D01*
X0229553Y0125672D01*
X0229300Y0125062D01*
X0229047Y0125672D01*
X0227472Y0127247D01*
X0225414Y0128100D01*
X0223186Y0128100D01*
X0221128Y0127247D01*
X0219553Y0125672D01*
X0219300Y0125062D01*
X0219047Y0125672D01*
X0217472Y0127247D01*
X0215414Y0128100D01*
X0213186Y0128100D01*
X0211128Y0127247D01*
X0209553Y0125672D01*
X0209300Y0125062D01*
X0209047Y0125672D01*
X0207472Y0127247D01*
X0205414Y0128100D01*
X0203186Y0128100D01*
X0201128Y0127247D01*
X0199553Y0125672D01*
X0199300Y0125062D01*
X0199047Y0125672D01*
X0197472Y0127247D01*
X0195414Y0128100D01*
X0193186Y0128100D01*
X0191128Y0127247D01*
X0189553Y0125672D01*
X0189300Y0125062D01*
X0189047Y0125672D01*
X0187472Y0127247D01*
X0185414Y0128100D01*
X0183186Y0128100D01*
X0181128Y0127247D01*
X0179553Y0125672D01*
X0178978Y0124284D01*
X0178934Y0124419D01*
X0178576Y0125121D01*
X0178114Y0125757D01*
X0177557Y0126314D01*
X0176921Y0126776D01*
X0176219Y0127134D01*
X0175471Y0127377D01*
X0174694Y0127500D01*
X0174500Y0127500D01*
X0174500Y0119500D01*
X0174100Y0119500D01*
X0174100Y0127500D01*
X0173906Y0127500D01*
X0173129Y0127377D01*
X0172381Y0127134D01*
X0171679Y0126776D01*
X0171043Y0126314D01*
X0170486Y0125757D01*
X0170024Y0125121D01*
X0169666Y0124419D01*
X0169622Y0124284D01*
X0169047Y0125672D01*
X0167472Y0127247D01*
X0165414Y0128100D01*
X0163186Y0128100D01*
X0161128Y0127247D01*
X0159553Y0125672D01*
X0159300Y0125062D01*
X0159047Y0125672D01*
X0157472Y0127247D01*
X0155414Y0128100D01*
X0153186Y0128100D01*
X0151128Y0127247D01*
X0149553Y0125672D01*
X0148978Y0124284D01*
X0148934Y0124419D01*
X0148576Y0125121D01*
X0148114Y0125757D01*
X0147557Y0126314D01*
X0146921Y0126776D01*
X0146219Y0127134D01*
X0145471Y0127377D01*
X0144694Y0127500D01*
X0144500Y0127500D01*
X0144500Y0119500D01*
X0144100Y0119500D01*
X0144100Y0127500D01*
X0143906Y0127500D01*
X0143129Y0127377D01*
X0142381Y0127134D01*
X0141679Y0126776D01*
X0141043Y0126314D01*
X0140486Y0125757D01*
X0140024Y0125121D01*
X0139666Y0124419D01*
X0139622Y0124284D01*
X0139047Y0125672D01*
X0137472Y0127247D01*
X0135414Y0128100D01*
X0133186Y0128100D01*
X0131128Y0127247D01*
X0129553Y0125672D01*
X0128700Y0123614D01*
X0128700Y0114986D01*
X0129553Y0112928D01*
X0131128Y0111353D01*
X0133186Y0110500D01*
X0135414Y0110500D01*
X0137472Y0111353D01*
X0139047Y0112928D01*
X0139622Y0114316D01*
X0139666Y0114181D01*
X0140024Y0113479D01*
X0140486Y0112843D01*
X0141043Y0112286D01*
X0141679Y0111824D01*
X0142381Y0111466D01*
X0143129Y0111223D01*
X0143906Y0111100D01*
X0144100Y0111100D01*
X0144100Y0119100D01*
X0144500Y0119100D01*
X0144500Y0111100D01*
X0144694Y0111100D01*
X0145471Y0111223D01*
X0146219Y0111466D01*
X0146921Y0111824D01*
X0147557Y0112286D01*
X0148114Y0112843D01*
X0148576Y0113479D01*
X0148934Y0114181D01*
X0148978Y0114316D01*
X0149553Y0112928D01*
X0151128Y0111353D01*
X0153186Y0110500D01*
X0155414Y0110500D01*
X0157472Y0111353D01*
X0159047Y0112928D01*
X0159300Y0113538D01*
X0159553Y0112928D01*
X0161128Y0111353D01*
X0163186Y0110500D01*
X0165414Y0110500D01*
X0167472Y0111353D01*
X0169047Y0112928D01*
X0169622Y0114316D01*
X0169666Y0114181D01*
X0170024Y0113479D01*
X0170486Y0112843D01*
X0171043Y0112286D01*
X0171679Y0111824D01*
X0172381Y0111466D01*
X0173129Y0111223D01*
X0173906Y0111100D01*
X0174100Y0111100D01*
X0174100Y0119100D01*
X0174500Y0119100D01*
X0174500Y0111100D01*
X0174694Y0111100D01*
X0175471Y0111223D01*
X0176219Y0111466D01*
X0176921Y0111824D01*
X0177557Y0112286D01*
X0178114Y0112843D01*
X0178576Y0113479D01*
X0178934Y0114181D01*
X0178978Y0114316D01*
X0179553Y0112928D01*
X0180680Y0111800D01*
X0179553Y0110672D01*
X0180281Y0111400D02*
X0176016Y0111400D01*
X0174500Y0111400D02*
X0174100Y0111400D01*
X0172584Y0111400D02*
X0167520Y0111400D01*
X0169077Y0112999D02*
X0170373Y0112999D01*
X0174100Y0112999D02*
X0174500Y0112999D01*
X0174500Y0114597D02*
X0174100Y0114597D01*
X0174100Y0116196D02*
X0174500Y0116196D01*
X0174500Y0117794D02*
X0174100Y0117794D01*
X0174100Y0120991D02*
X0174500Y0120991D01*
X0174500Y0122590D02*
X0174100Y0122590D01*
X0174100Y0124188D02*
X0174500Y0124188D01*
X0174500Y0125787D02*
X0174100Y0125787D01*
X0174100Y0127385D02*
X0174500Y0127385D01*
X0175417Y0127385D02*
X0181461Y0127385D01*
X0179667Y0125787D02*
X0178084Y0125787D01*
X0173183Y0127385D02*
X0167139Y0127385D01*
X0168933Y0125787D02*
X0170516Y0125787D01*
X0172987Y0130582D02*
X0165613Y0130582D01*
X0165414Y0130500D02*
X0167472Y0131353D01*
X0169047Y0132928D01*
X0169300Y0133538D01*
X0169553Y0132928D01*
X0171128Y0131353D01*
X0173186Y0130500D01*
X0175414Y0130500D01*
X0177472Y0131353D01*
X0179047Y0132928D01*
X0179300Y0133538D01*
X0179553Y0132928D01*
X0181128Y0131353D01*
X0183186Y0130500D01*
X0185414Y0130500D01*
X0187472Y0131353D01*
X0189047Y0132928D01*
X0189300Y0133538D01*
X0189553Y0132928D01*
X0191128Y0131353D01*
X0193186Y0130500D01*
X0195414Y0130500D01*
X0197472Y0131353D01*
X0199047Y0132928D01*
X0199300Y0133538D01*
X0199553Y0132928D01*
X0201128Y0131353D01*
X0203186Y0130500D01*
X0205414Y0130500D01*
X0207472Y0131353D01*
X0209047Y0132928D01*
X0209300Y0133538D01*
X0209553Y0132928D01*
X0211128Y0131353D01*
X0213186Y0130500D01*
X0215414Y0130500D01*
X0217472Y0131353D01*
X0219047Y0132928D01*
X0219300Y0133538D01*
X0219553Y0132928D01*
X0221128Y0131353D01*
X0223186Y0130500D01*
X0225414Y0130500D01*
X0227472Y0131353D01*
X0229047Y0132928D01*
X0229300Y0133538D01*
X0229553Y0132928D01*
X0231128Y0131353D01*
X0233186Y0130500D01*
X0235414Y0130500D01*
X0237472Y0131353D01*
X0239047Y0132928D01*
X0239300Y0133538D01*
X0239553Y0132928D01*
X0241128Y0131353D01*
X0243186Y0130500D01*
X0245414Y0130500D01*
X0247472Y0131353D01*
X0249047Y0132928D01*
X0249300Y0133538D01*
X0249553Y0132928D01*
X0251128Y0131353D01*
X0253186Y0130500D01*
X0255414Y0130500D01*
X0257472Y0131353D01*
X0259047Y0132928D01*
X0259300Y0133538D01*
X0259553Y0132928D01*
X0261128Y0131353D01*
X0263186Y0130500D01*
X0265414Y0130500D01*
X0267472Y0131353D01*
X0269047Y0132928D01*
X0269900Y0134986D01*
X0269900Y0143614D01*
X0269047Y0145672D01*
X0267920Y0146800D01*
X0269047Y0147928D01*
X0269900Y0149986D01*
X0269900Y0158614D01*
X0269047Y0160672D01*
X0267472Y0162247D01*
X0265414Y0163100D01*
X0263186Y0163100D01*
X0261128Y0162247D01*
X0259553Y0160672D01*
X0259300Y0160062D01*
X0259047Y0160672D01*
X0257472Y0162247D01*
X0255414Y0163100D01*
X0253186Y0163100D01*
X0251128Y0162247D01*
X0249553Y0160672D01*
X0249300Y0160062D01*
X0249047Y0160672D01*
X0247472Y0162247D01*
X0245414Y0163100D01*
X0243186Y0163100D01*
X0241128Y0162247D01*
X0239553Y0160672D01*
X0239300Y0160062D01*
X0239047Y0160672D01*
X0237472Y0162247D01*
X0235414Y0163100D01*
X0233186Y0163100D01*
X0231128Y0162247D01*
X0229553Y0160672D01*
X0229300Y0160062D01*
X0229047Y0160672D01*
X0227472Y0162247D01*
X0225414Y0163100D01*
X0223186Y0163100D01*
X0221128Y0162247D01*
X0219553Y0160672D01*
X0219300Y0160062D01*
X0219047Y0160672D01*
X0217472Y0162247D01*
X0215414Y0163100D01*
X0213186Y0163100D01*
X0211128Y0162247D01*
X0209553Y0160672D01*
X0209300Y0160062D01*
X0209047Y0160672D01*
X0207472Y0162247D01*
X0205414Y0163100D01*
X0203186Y0163100D01*
X0201128Y0162247D01*
X0199553Y0160672D01*
X0199300Y0160062D01*
X0199047Y0160672D01*
X0197472Y0162247D01*
X0195414Y0163100D01*
X0193186Y0163100D01*
X0191128Y0162247D01*
X0189553Y0160672D01*
X0189300Y0160062D01*
X0189047Y0160672D01*
X0187472Y0162247D01*
X0185414Y0163100D01*
X0183186Y0163100D01*
X0181128Y0162247D01*
X0179553Y0160672D01*
X0179300Y0160062D01*
X0179047Y0160672D01*
X0177472Y0162247D01*
X0175414Y0163100D01*
X0173186Y0163100D01*
X0171128Y0162247D01*
X0169553Y0160672D01*
X0169300Y0160062D01*
X0169047Y0160672D01*
X0167472Y0162247D01*
X0165414Y0163100D01*
X0163186Y0163100D01*
X0161128Y0162247D01*
X0159553Y0160672D01*
X0159300Y0160062D01*
X0159047Y0160672D01*
X0157472Y0162247D01*
X0155414Y0163100D01*
X0153186Y0163100D01*
X0151128Y0162247D01*
X0149553Y0160672D01*
X0148700Y0158614D01*
X0148700Y0149986D01*
X0149553Y0147928D01*
X0150680Y0146800D01*
X0149553Y0145672D01*
X0149300Y0145062D01*
X0149047Y0145672D01*
X0147472Y0147247D01*
X0145414Y0148100D01*
X0143186Y0148100D01*
X0141128Y0147247D01*
X0139553Y0145672D01*
X0139300Y0145062D01*
X0139047Y0145672D01*
X0137472Y0147247D01*
X0135414Y0148100D01*
X0133186Y0148100D01*
X0131128Y0147247D01*
X0129553Y0145672D01*
X0128700Y0143614D01*
X0128700Y0134986D01*
X0129553Y0132928D01*
X0131128Y0131353D01*
X0133186Y0130500D01*
X0135414Y0130500D01*
X0137472Y0131353D01*
X0139047Y0132928D01*
X0139300Y0133538D01*
X0139553Y0132928D01*
X0141128Y0131353D01*
X0143186Y0130500D01*
X0145414Y0130500D01*
X0147472Y0131353D01*
X0149047Y0132928D01*
X0149300Y0133538D01*
X0149553Y0132928D01*
X0151128Y0131353D01*
X0153186Y0130500D01*
X0155414Y0130500D01*
X0157472Y0131353D01*
X0159047Y0132928D01*
X0159300Y0133538D01*
X0159553Y0132928D01*
X0161128Y0131353D01*
X0163186Y0130500D01*
X0165414Y0130500D01*
X0162987Y0130582D02*
X0155613Y0130582D01*
X0152987Y0130582D02*
X0145613Y0130582D01*
X0142987Y0130582D02*
X0135613Y0130582D01*
X0132987Y0130582D02*
X0124137Y0130582D01*
X0124747Y0129972D02*
X0123172Y0131547D01*
X0121114Y0132400D01*
X0112486Y0132400D01*
X0110428Y0131547D01*
X0108853Y0129972D01*
X0108000Y0127914D01*
X0108000Y0125686D01*
X0108853Y0123628D01*
X0110428Y0122053D01*
X0111816Y0121478D01*
X0111681Y0121434D01*
X0110979Y0121076D01*
X0110343Y0120614D01*
X0109786Y0120057D01*
X0109324Y0119421D01*
X0108966Y0118719D01*
X0108723Y0117971D01*
X0108600Y0117194D01*
X0108600Y0117000D01*
X0116600Y0117000D01*
X0116600Y0116600D01*
X0117000Y0116600D01*
X0117000Y0117000D01*
X0125000Y0117000D01*
X0125000Y0117194D01*
X0124877Y0117971D01*
X0124634Y0118719D01*
X0124276Y0119421D01*
X0123814Y0120057D01*
X0123257Y0120614D01*
X0122621Y0121076D01*
X0121919Y0121434D01*
X0121784Y0121478D01*
X0123172Y0122053D01*
X0124747Y0123628D01*
X0125600Y0125686D01*
X0125600Y0127914D01*
X0124747Y0129972D01*
X0125157Y0128984D02*
X0271100Y0128984D01*
X0271100Y0130582D02*
X0265613Y0130582D01*
X0262987Y0130582D02*
X0255613Y0130582D01*
X0252987Y0130582D02*
X0245613Y0130582D01*
X0242987Y0130582D02*
X0235613Y0130582D01*
X0232987Y0130582D02*
X0225613Y0130582D01*
X0222987Y0130582D02*
X0215613Y0130582D01*
X0212987Y0130582D02*
X0205613Y0130582D01*
X0202987Y0130582D02*
X0195613Y0130582D01*
X0192987Y0130582D02*
X0185613Y0130582D01*
X0182987Y0130582D02*
X0175613Y0130582D01*
X0178300Y0132181D02*
X0180299Y0132181D01*
X0188300Y0132181D02*
X0190299Y0132181D01*
X0191461Y0127385D02*
X0187139Y0127385D01*
X0188933Y0125787D02*
X0189667Y0125787D01*
X0197139Y0127385D02*
X0201461Y0127385D01*
X0199667Y0125787D02*
X0198933Y0125787D01*
X0207139Y0127385D02*
X0211461Y0127385D01*
X0209667Y0125787D02*
X0208933Y0125787D01*
X0217139Y0127385D02*
X0221461Y0127385D01*
X0219667Y0125787D02*
X0218933Y0125787D01*
X0227139Y0127385D02*
X0231461Y0127385D01*
X0229667Y0125787D02*
X0228933Y0125787D01*
X0237139Y0127385D02*
X0241461Y0127385D01*
X0239667Y0125787D02*
X0238933Y0125787D01*
X0247139Y0127385D02*
X0251461Y0127385D01*
X0249667Y0125787D02*
X0248933Y0125787D01*
X0257139Y0127385D02*
X0263183Y0127385D01*
X0264100Y0127385D02*
X0264500Y0127385D01*
X0265417Y0127385D02*
X0271100Y0127385D01*
X0271100Y0125787D02*
X0268084Y0125787D01*
X0269009Y0124188D02*
X0271100Y0124188D01*
X0271100Y0122590D02*
X0269300Y0122590D01*
X0269300Y0120991D02*
X0271100Y0120991D01*
X0271100Y0119393D02*
X0264500Y0119393D01*
X0264500Y0119100D02*
X0269300Y0119100D01*
X0269300Y0115706D01*
X0269177Y0114929D01*
X0268934Y0114181D01*
X0268576Y0113479D01*
X0268114Y0112843D01*
X0267557Y0112286D01*
X0266921Y0111824D01*
X0266219Y0111466D01*
X0265471Y0111223D01*
X0264694Y0111100D01*
X0264500Y0111100D01*
X0264500Y0119100D01*
X0264500Y0117794D02*
X0264100Y0117794D01*
X0264100Y0116196D02*
X0264500Y0116196D01*
X0264500Y0114597D02*
X0264100Y0114597D01*
X0264100Y0112999D02*
X0264500Y0112999D01*
X0264500Y0111400D02*
X0264100Y0111400D01*
X0262584Y0111400D02*
X0258319Y0111400D01*
X0259077Y0112999D02*
X0260373Y0112999D01*
X0259408Y0109802D02*
X0271100Y0109802D01*
X0271100Y0111400D02*
X0266016Y0111400D01*
X0268227Y0112999D02*
X0271100Y0112999D01*
X0271100Y0114597D02*
X0269069Y0114597D01*
X0269300Y0116196D02*
X0271100Y0116196D01*
X0271100Y0117794D02*
X0269300Y0117794D01*
X0264500Y0120991D02*
X0264100Y0120991D01*
X0264100Y0122590D02*
X0264500Y0122590D01*
X0264500Y0124188D02*
X0264100Y0124188D01*
X0264100Y0125787D02*
X0264500Y0125787D01*
X0260516Y0125787D02*
X0258933Y0125787D01*
X0258300Y0132181D02*
X0260299Y0132181D01*
X0268300Y0132181D02*
X0271100Y0132181D01*
X0271100Y0133779D02*
X0269400Y0133779D01*
X0269900Y0135378D02*
X0271100Y0135378D01*
X0271100Y0136976D02*
X0269900Y0136976D01*
X0269900Y0138575D02*
X0271100Y0138575D01*
X0271100Y0140173D02*
X0269900Y0140173D01*
X0269900Y0141772D02*
X0271100Y0141772D01*
X0271100Y0143370D02*
X0269900Y0143370D01*
X0269339Y0144969D02*
X0271100Y0144969D01*
X0271100Y0146568D02*
X0268152Y0146568D01*
X0269146Y0148166D02*
X0271100Y0148166D01*
X0271100Y0149765D02*
X0269808Y0149765D01*
X0269900Y0151363D02*
X0271100Y0151363D01*
X0271100Y0152962D02*
X0269900Y0152962D01*
X0269900Y0154560D02*
X0271100Y0154560D01*
X0271100Y0156159D02*
X0269900Y0156159D01*
X0269900Y0157757D02*
X0271100Y0157757D01*
X0271100Y0159356D02*
X0269593Y0159356D01*
X0268765Y0160954D02*
X0271100Y0160954D01*
X0271100Y0162553D02*
X0266735Y0162553D01*
X0271100Y0164151D02*
X0057500Y0164151D01*
X0057500Y0162553D02*
X0151865Y0162553D01*
X0149835Y0160954D02*
X0057500Y0160954D01*
X0057500Y0159356D02*
X0149007Y0159356D01*
X0148700Y0157757D02*
X0057500Y0157757D01*
X0057500Y0156159D02*
X0148700Y0156159D01*
X0148700Y0154560D02*
X0057500Y0154560D01*
X0057500Y0152962D02*
X0148700Y0152962D01*
X0148700Y0151363D02*
X0099372Y0151363D01*
X0099746Y0151208D02*
X0097834Y0152000D01*
X0095766Y0152000D01*
X0093854Y0151208D01*
X0092392Y0149746D01*
X0091600Y0147834D01*
X0091600Y0145766D01*
X0092392Y0143854D01*
X0093854Y0142392D01*
X0095283Y0141800D01*
X0093854Y0141208D01*
X0092392Y0139746D01*
X0091600Y0137834D01*
X0091600Y0135766D01*
X0092392Y0133854D01*
X0093854Y0132392D01*
X0095283Y0131800D01*
X0093854Y0131208D01*
X0092392Y0129746D01*
X0091600Y0127834D01*
X0091600Y0125766D01*
X0092392Y0123854D01*
X0093854Y0122392D01*
X0095283Y0121800D01*
X0093854Y0121208D01*
X0092392Y0119746D01*
X0091600Y0117834D01*
X0091600Y0115766D01*
X0092392Y0113854D01*
X0093854Y0112392D01*
X0095766Y0111600D01*
X0097834Y0111600D01*
X0099746Y0112392D01*
X0101208Y0113854D01*
X0102000Y0115766D01*
X0102000Y0117834D01*
X0101208Y0119746D01*
X0099746Y0121208D01*
X0098317Y0121800D01*
X0099746Y0122392D01*
X0101208Y0123854D01*
X0102000Y0125766D01*
X0102000Y0127834D01*
X0101208Y0129746D01*
X0099746Y0131208D01*
X0098317Y0131800D01*
X0099746Y0132392D01*
X0101208Y0133854D01*
X0102000Y0135766D01*
X0102000Y0137834D01*
X0101208Y0139746D01*
X0099746Y0141208D01*
X0098317Y0141800D01*
X0099746Y0142392D01*
X0101208Y0143854D01*
X0102000Y0145766D01*
X0102000Y0147834D01*
X0101208Y0149746D01*
X0099746Y0151208D01*
X0101189Y0149765D02*
X0148792Y0149765D01*
X0149454Y0148166D02*
X0101863Y0148166D01*
X0102000Y0146568D02*
X0130448Y0146568D01*
X0129261Y0144969D02*
X0101670Y0144969D01*
X0100724Y0143370D02*
X0128700Y0143370D01*
X0128700Y0141772D02*
X0098385Y0141772D01*
X0100780Y0140173D02*
X0128700Y0140173D01*
X0128700Y0138575D02*
X0101693Y0138575D01*
X0102000Y0136976D02*
X0128700Y0136976D01*
X0128700Y0135378D02*
X0101839Y0135378D01*
X0101133Y0133779D02*
X0129200Y0133779D01*
X0130299Y0132181D02*
X0121643Y0132181D01*
X0125600Y0127385D02*
X0131461Y0127385D01*
X0129667Y0125787D02*
X0125600Y0125787D01*
X0124980Y0124188D02*
X0128938Y0124188D01*
X0128700Y0122590D02*
X0123709Y0122590D01*
X0122738Y0120991D02*
X0128700Y0120991D01*
X0128700Y0119393D02*
X0124291Y0119393D01*
X0124905Y0117794D02*
X0128700Y0117794D01*
X0128700Y0116196D02*
X0124967Y0116196D01*
X0125000Y0116406D02*
X0124877Y0115629D01*
X0124634Y0114881D01*
X0124276Y0114179D01*
X0123814Y0113543D01*
X0123257Y0112986D01*
X0122621Y0112524D01*
X0121919Y0112166D01*
X0121171Y0111923D01*
X0120394Y0111800D01*
X0117000Y0111800D01*
X0117000Y0116600D01*
X0125000Y0116600D01*
X0125000Y0116406D01*
X0124489Y0114597D02*
X0128861Y0114597D01*
X0129523Y0112999D02*
X0123270Y0112999D01*
X0117000Y0112999D02*
X0116600Y0112999D01*
X0116600Y0111800D02*
X0116600Y0116600D01*
X0108600Y0116600D01*
X0108600Y0116406D01*
X0108723Y0115629D01*
X0108966Y0114881D01*
X0109324Y0114179D01*
X0109786Y0113543D01*
X0110343Y0112986D01*
X0110979Y0112524D01*
X0111681Y0112166D01*
X0112429Y0111923D01*
X0113206Y0111800D01*
X0116600Y0111800D01*
X0116600Y0114597D02*
X0117000Y0114597D01*
X0117000Y0116196D02*
X0116600Y0116196D01*
X0110330Y0112999D02*
X0100353Y0112999D01*
X0101516Y0114597D02*
X0109111Y0114597D01*
X0108633Y0116196D02*
X0102000Y0116196D01*
X0102000Y0117794D02*
X0108695Y0117794D01*
X0109309Y0119393D02*
X0101354Y0119393D01*
X0099963Y0120991D02*
X0110862Y0120991D01*
X0109891Y0122590D02*
X0099944Y0122590D01*
X0101347Y0124188D02*
X0108620Y0124188D01*
X0108000Y0125787D02*
X0102000Y0125787D01*
X0102000Y0127385D02*
X0108000Y0127385D01*
X0108443Y0128984D02*
X0101524Y0128984D01*
X0100372Y0130582D02*
X0109463Y0130582D01*
X0111957Y0132181D02*
X0099237Y0132181D01*
X0094363Y0132181D02*
X0069237Y0132181D01*
X0069746Y0132392D02*
X0071208Y0133854D01*
X0072000Y0135766D01*
X0072000Y0137834D01*
X0071208Y0139746D01*
X0069746Y0141208D01*
X0068317Y0141800D01*
X0069746Y0142392D01*
X0071208Y0143854D01*
X0072000Y0145766D01*
X0072000Y0147834D01*
X0071208Y0149746D01*
X0069746Y0151208D01*
X0067834Y0152000D01*
X0065766Y0152000D01*
X0063854Y0151208D01*
X0062392Y0149746D01*
X0061600Y0147834D01*
X0061600Y0145766D01*
X0062392Y0143854D01*
X0063854Y0142392D01*
X0065283Y0141800D01*
X0063854Y0141208D01*
X0062392Y0139746D01*
X0061600Y0137834D01*
X0061600Y0135766D01*
X0062392Y0133854D01*
X0063854Y0132392D01*
X0065283Y0131800D01*
X0063854Y0131208D01*
X0062392Y0129746D01*
X0061600Y0127834D01*
X0061600Y0125766D01*
X0062392Y0123854D01*
X0063854Y0122392D01*
X0065283Y0121800D01*
X0063854Y0121208D01*
X0062392Y0119746D01*
X0061600Y0117834D01*
X0061600Y0115766D01*
X0062392Y0113854D01*
X0063854Y0112392D01*
X0065766Y0111600D01*
X0067834Y0111600D01*
X0069746Y0112392D01*
X0071208Y0113854D01*
X0072000Y0115766D01*
X0072000Y0117834D01*
X0071208Y0119746D01*
X0069746Y0121208D01*
X0068317Y0121800D01*
X0069746Y0122392D01*
X0071208Y0123854D01*
X0072000Y0125766D01*
X0072000Y0127834D01*
X0071208Y0129746D01*
X0069746Y0131208D01*
X0068317Y0131800D01*
X0069746Y0132392D01*
X0070372Y0130582D02*
X0093228Y0130582D01*
X0092076Y0128984D02*
X0071524Y0128984D01*
X0072000Y0127385D02*
X0091600Y0127385D01*
X0091600Y0125787D02*
X0072000Y0125787D01*
X0071347Y0124188D02*
X0092253Y0124188D01*
X0093656Y0122590D02*
X0069944Y0122590D01*
X0069963Y0120991D02*
X0093637Y0120991D01*
X0092246Y0119393D02*
X0071354Y0119393D01*
X0072000Y0117794D02*
X0091600Y0117794D01*
X0091600Y0116196D02*
X0072000Y0116196D01*
X0071516Y0114597D02*
X0092084Y0114597D01*
X0093247Y0112999D02*
X0070353Y0112999D01*
X0063247Y0112999D02*
X0004200Y0112999D01*
X0004200Y0114597D02*
X0062084Y0114597D01*
X0061600Y0116196D02*
X0004200Y0116196D01*
X0004200Y0117794D02*
X0061600Y0117794D01*
X0062246Y0119393D02*
X0004200Y0119393D01*
X0004200Y0120991D02*
X0063637Y0120991D01*
X0063656Y0122590D02*
X0004200Y0122590D01*
X0004200Y0124188D02*
X0062253Y0124188D01*
X0061600Y0125787D02*
X0004200Y0125787D01*
X0004200Y0127385D02*
X0061600Y0127385D01*
X0062076Y0128984D02*
X0004200Y0128984D01*
X0004200Y0130582D02*
X0063228Y0130582D01*
X0064363Y0132181D02*
X0047335Y0132181D01*
X0047246Y0132092D02*
X0048708Y0133554D01*
X0049500Y0135466D01*
X0049500Y0143134D01*
X0048708Y0145046D01*
X0047246Y0146508D01*
X0045334Y0147300D01*
X0043266Y0147300D01*
X0041354Y0146508D01*
X0039892Y0145046D01*
X0039100Y0143134D01*
X0039100Y0135466D01*
X0039892Y0133554D01*
X0041354Y0132092D01*
X0043266Y0131300D01*
X0045334Y0131300D01*
X0047246Y0132092D01*
X0048802Y0133779D02*
X0053342Y0133779D01*
X0052916Y0134205D02*
X0054205Y0132916D01*
X0055889Y0132219D01*
X0057711Y0132219D01*
X0059395Y0132916D01*
X0060684Y0134205D01*
X0061381Y0135889D01*
X0061381Y0137711D01*
X0060684Y0139395D01*
X0059395Y0140684D01*
X0057711Y0141381D01*
X0057500Y0141381D01*
X0057500Y0167975D01*
X0058125Y0168600D01*
X0267975Y0168600D01*
X0271100Y0165475D01*
X0271100Y0095625D01*
X0270475Y0095000D01*
X0192640Y0095000D01*
X0191464Y0094513D01*
X0183218Y0086267D01*
X0175023Y0086267D01*
X0174141Y0085902D01*
X0173466Y0085226D01*
X0173101Y0084344D01*
X0173101Y0076303D01*
X0173466Y0075421D01*
X0174141Y0074746D01*
X0175023Y0074380D01*
X0188577Y0074380D01*
X0189459Y0074746D01*
X0190134Y0075421D01*
X0190499Y0076303D01*
X0190499Y0084344D01*
X0190454Y0084453D01*
X0194602Y0088600D01*
X0272437Y0088600D01*
X0273613Y0089087D01*
X0274513Y0089987D01*
X0274513Y0089987D01*
X0276113Y0091587D01*
X0277013Y0092487D01*
X0277500Y0093663D01*
X0277500Y0167437D01*
X0277013Y0168613D01*
X0272013Y0173613D01*
X0271113Y0174513D01*
X0269937Y0175000D01*
X0056163Y0175000D01*
X0054987Y0174513D01*
X0052487Y0172013D01*
X0051587Y0171113D01*
X0051100Y0169937D01*
X0051100Y0138663D01*
X0051587Y0137487D01*
X0052219Y0136856D01*
X0052219Y0135889D01*
X0052916Y0134205D01*
X0052430Y0135378D02*
X0049464Y0135378D01*
X0049500Y0136976D02*
X0052098Y0136976D01*
X0051137Y0138575D02*
X0049500Y0138575D01*
X0049500Y0140173D02*
X0051100Y0140173D01*
X0051100Y0141772D02*
X0049500Y0141772D01*
X0049402Y0143370D02*
X0051100Y0143370D01*
X0051100Y0144969D02*
X0048740Y0144969D01*
X0047103Y0146568D02*
X0051100Y0146568D01*
X0051100Y0148166D02*
X0004200Y0148166D01*
X0004200Y0146568D02*
X0021497Y0146568D01*
X0021354Y0146508D02*
X0019892Y0145046D01*
X0019100Y0143134D01*
X0019100Y0135466D01*
X0019892Y0133554D01*
X0021354Y0132092D01*
X0023266Y0131300D01*
X0025334Y0131300D01*
X0027246Y0132092D01*
X0028708Y0133554D01*
X0029500Y0135466D01*
X0029500Y0143134D01*
X0028708Y0145046D01*
X0027246Y0146508D01*
X0025334Y0147300D01*
X0023266Y0147300D01*
X0021354Y0146508D01*
X0019860Y0144969D02*
X0004200Y0144969D01*
X0004200Y0143370D02*
X0019198Y0143370D01*
X0019100Y0141772D02*
X0004200Y0141772D01*
X0004200Y0140173D02*
X0019100Y0140173D01*
X0019100Y0138575D02*
X0004200Y0138575D01*
X0004200Y0136976D02*
X0019100Y0136976D01*
X0019136Y0135378D02*
X0004200Y0135378D01*
X0004200Y0133779D02*
X0019798Y0133779D01*
X0021265Y0132181D02*
X0004200Y0132181D01*
X0027335Y0132181D02*
X0032707Y0132181D01*
X0032534Y0132237D02*
X0033223Y0132013D01*
X0033938Y0131900D01*
X0034300Y0131900D01*
X0034662Y0131900D01*
X0035377Y0132013D01*
X0036066Y0132237D01*
X0036711Y0132566D01*
X0037297Y0132991D01*
X0037809Y0133503D01*
X0038234Y0134089D01*
X0038563Y0134734D01*
X0038787Y0135423D01*
X0038900Y0136138D01*
X0038900Y0139300D01*
X0038900Y0142462D01*
X0038787Y0143177D01*
X0038563Y0143866D01*
X0038234Y0144511D01*
X0037809Y0145097D01*
X0037297Y0145609D01*
X0036711Y0146034D01*
X0036066Y0146363D01*
X0035377Y0146587D01*
X0034662Y0146700D01*
X0034300Y0146700D01*
X0034300Y0139300D01*
X0038900Y0139300D01*
X0034300Y0139300D01*
X0034300Y0139300D01*
X0034300Y0139300D01*
X0034300Y0131900D01*
X0034300Y0139300D01*
X0034300Y0139300D01*
X0034300Y0139300D01*
X0029700Y0139300D01*
X0029700Y0142462D01*
X0029813Y0143177D01*
X0030037Y0143866D01*
X0030366Y0144511D01*
X0030791Y0145097D01*
X0031303Y0145609D01*
X0031889Y0146034D01*
X0032534Y0146363D01*
X0033223Y0146587D01*
X0033938Y0146700D01*
X0034300Y0146700D01*
X0034300Y0139300D01*
X0029700Y0139300D01*
X0029700Y0136138D01*
X0029813Y0135423D01*
X0030037Y0134734D01*
X0030366Y0134089D01*
X0030791Y0133503D01*
X0031303Y0132991D01*
X0031889Y0132566D01*
X0032534Y0132237D01*
X0034300Y0132181D02*
X0034300Y0132181D01*
X0035893Y0132181D02*
X0041265Y0132181D01*
X0039798Y0133779D02*
X0038009Y0133779D01*
X0038772Y0135378D02*
X0039136Y0135378D01*
X0039100Y0136976D02*
X0038900Y0136976D01*
X0038900Y0138575D02*
X0039100Y0138575D01*
X0039100Y0140173D02*
X0038900Y0140173D01*
X0038900Y0141772D02*
X0039100Y0141772D01*
X0039198Y0143370D02*
X0038724Y0143370D01*
X0037901Y0144969D02*
X0039860Y0144969D01*
X0041497Y0146568D02*
X0035436Y0146568D01*
X0034300Y0146568D02*
X0034300Y0146568D01*
X0033164Y0146568D02*
X0027103Y0146568D01*
X0028740Y0144969D02*
X0030699Y0144969D01*
X0029876Y0143370D02*
X0029402Y0143370D01*
X0029500Y0141772D02*
X0029700Y0141772D01*
X0029700Y0140173D02*
X0029500Y0140173D01*
X0029500Y0138575D02*
X0029700Y0138575D01*
X0029700Y0136976D02*
X0029500Y0136976D01*
X0029464Y0135378D02*
X0029828Y0135378D01*
X0030591Y0133779D02*
X0028802Y0133779D01*
X0034300Y0133779D02*
X0034300Y0133779D01*
X0034300Y0135378D02*
X0034300Y0135378D01*
X0034300Y0136976D02*
X0034300Y0136976D01*
X0034300Y0138575D02*
X0034300Y0138575D01*
X0034300Y0140173D02*
X0034300Y0140173D01*
X0034300Y0141772D02*
X0034300Y0141772D01*
X0034300Y0143370D02*
X0034300Y0143370D01*
X0034300Y0144969D02*
X0034300Y0144969D01*
X0051100Y0149765D02*
X0004200Y0149765D01*
X0004200Y0151363D02*
X0051100Y0151363D01*
X0051100Y0152962D02*
X0004200Y0152962D01*
X0004200Y0154560D02*
X0051100Y0154560D01*
X0051100Y0156159D02*
X0004200Y0156159D01*
X0004200Y0157757D02*
X0051100Y0157757D01*
X0051100Y0159356D02*
X0004200Y0159356D01*
X0004200Y0160954D02*
X0051100Y0160954D01*
X0051100Y0162553D02*
X0004200Y0162553D01*
X0004200Y0164151D02*
X0051100Y0164151D01*
X0051100Y0165750D02*
X0004200Y0165750D01*
X0004200Y0167348D02*
X0051100Y0167348D01*
X0051100Y0168947D02*
X0004200Y0168947D01*
X0004200Y0170545D02*
X0051352Y0170545D01*
X0052618Y0172144D02*
X0004200Y0172144D01*
X0004200Y0173742D02*
X0054217Y0173742D01*
X0056800Y0171800D02*
X0054300Y0169300D01*
X0054300Y0139300D01*
X0056800Y0136800D01*
X0061023Y0138575D02*
X0061907Y0138575D01*
X0061600Y0136976D02*
X0061381Y0136976D01*
X0061169Y0135378D02*
X0061761Y0135378D01*
X0062467Y0133779D02*
X0060258Y0133779D01*
X0059905Y0140173D02*
X0062820Y0140173D01*
X0065215Y0141772D02*
X0057500Y0141772D01*
X0057500Y0143370D02*
X0062876Y0143370D01*
X0061930Y0144969D02*
X0057500Y0144969D01*
X0057500Y0146568D02*
X0061600Y0146568D01*
X0061737Y0148166D02*
X0057500Y0148166D01*
X0057500Y0149765D02*
X0062411Y0149765D01*
X0064228Y0151363D02*
X0057500Y0151363D01*
X0069372Y0151363D02*
X0094228Y0151363D01*
X0092411Y0149765D02*
X0071189Y0149765D01*
X0071863Y0148166D02*
X0091737Y0148166D01*
X0091600Y0146568D02*
X0072000Y0146568D01*
X0071670Y0144969D02*
X0091930Y0144969D01*
X0092876Y0143370D02*
X0070724Y0143370D01*
X0068385Y0141772D02*
X0095215Y0141772D01*
X0092820Y0140173D02*
X0070780Y0140173D01*
X0071693Y0138575D02*
X0091907Y0138575D01*
X0091600Y0136976D02*
X0072000Y0136976D01*
X0071839Y0135378D02*
X0091761Y0135378D01*
X0092467Y0133779D02*
X0071133Y0133779D01*
X0058185Y0109802D02*
X0004200Y0109802D01*
X0004200Y0111400D02*
X0131080Y0111400D01*
X0137520Y0111400D02*
X0142584Y0111400D01*
X0144100Y0111400D02*
X0144500Y0111400D01*
X0146016Y0111400D02*
X0151080Y0111400D01*
X0149523Y0112999D02*
X0148227Y0112999D01*
X0144500Y0112999D02*
X0144100Y0112999D01*
X0144100Y0114597D02*
X0144500Y0114597D01*
X0144500Y0116196D02*
X0144100Y0116196D01*
X0144100Y0117794D02*
X0144500Y0117794D01*
X0144500Y0120991D02*
X0144100Y0120991D01*
X0144100Y0122590D02*
X0144500Y0122590D01*
X0144500Y0124188D02*
X0144100Y0124188D01*
X0144100Y0125787D02*
X0144500Y0125787D01*
X0144500Y0127385D02*
X0144100Y0127385D01*
X0143183Y0127385D02*
X0137139Y0127385D01*
X0138933Y0125787D02*
X0140516Y0125787D01*
X0145417Y0127385D02*
X0151461Y0127385D01*
X0149667Y0125787D02*
X0148084Y0125787D01*
X0157139Y0127385D02*
X0161461Y0127385D01*
X0159667Y0125787D02*
X0158933Y0125787D01*
X0158300Y0132181D02*
X0160299Y0132181D01*
X0168300Y0132181D02*
X0170299Y0132181D01*
X0150299Y0132181D02*
X0148300Y0132181D01*
X0140299Y0132181D02*
X0138300Y0132181D01*
X0138152Y0146568D02*
X0140448Y0146568D01*
X0148152Y0146568D02*
X0150448Y0146568D01*
X0158765Y0160954D02*
X0159835Y0160954D01*
X0161865Y0162553D02*
X0156735Y0162553D01*
X0166735Y0162553D02*
X0171865Y0162553D01*
X0169835Y0160954D02*
X0168765Y0160954D01*
X0176735Y0162553D02*
X0181865Y0162553D01*
X0179835Y0160954D02*
X0178765Y0160954D01*
X0186735Y0162553D02*
X0191865Y0162553D01*
X0189835Y0160954D02*
X0188765Y0160954D01*
X0196735Y0162553D02*
X0201865Y0162553D01*
X0199835Y0160954D02*
X0198765Y0160954D01*
X0206735Y0162553D02*
X0211865Y0162553D01*
X0209835Y0160954D02*
X0208765Y0160954D01*
X0216735Y0162553D02*
X0221865Y0162553D01*
X0219835Y0160954D02*
X0218765Y0160954D01*
X0226735Y0162553D02*
X0231865Y0162553D01*
X0229835Y0160954D02*
X0228765Y0160954D01*
X0236735Y0162553D02*
X0241865Y0162553D01*
X0239835Y0160954D02*
X0238765Y0160954D01*
X0246735Y0162553D02*
X0251865Y0162553D01*
X0249835Y0160954D02*
X0248765Y0160954D01*
X0256735Y0162553D02*
X0261865Y0162553D01*
X0259835Y0160954D02*
X0258765Y0160954D01*
X0269226Y0167348D02*
X0057500Y0167348D01*
X0057500Y0165750D02*
X0270825Y0165750D01*
X0274300Y0166800D02*
X0269300Y0171800D01*
X0056800Y0171800D01*
X0004200Y0175341D02*
X0285601Y0175341D01*
X0285601Y0176939D02*
X0004200Y0176939D01*
X0004200Y0178538D02*
X0285601Y0178538D01*
X0285601Y0180136D02*
X0004200Y0180136D01*
X0004200Y0181735D02*
X0285601Y0181735D01*
X0285601Y0183333D02*
X0004200Y0183333D01*
X0004200Y0184361D02*
X0285601Y0184361D01*
X0285601Y0004200D01*
X0004200Y0004200D01*
X0004200Y0184361D01*
X0004200Y0108203D02*
X0056178Y0108203D01*
X0054579Y0106605D02*
X0004200Y0106605D01*
X0004200Y0105006D02*
X0052981Y0105006D01*
X0051502Y0103408D02*
X0050346Y0103408D01*
X0057500Y0100211D02*
X0178700Y0100211D01*
X0178700Y0101809D02*
X0058835Y0101809D01*
X0060433Y0103408D02*
X0083714Y0103408D01*
X0092296Y0097014D02*
X0071304Y0097014D01*
X0071967Y0095415D02*
X0091633Y0095415D01*
X0091600Y0093817D02*
X0072000Y0093817D01*
X0071566Y0092218D02*
X0092034Y0092218D01*
X0093126Y0090620D02*
X0070474Y0090620D01*
X0068991Y0089021D02*
X0094610Y0089021D01*
X0092569Y0087423D02*
X0071031Y0087423D01*
X0071797Y0085824D02*
X0091803Y0085824D01*
X0091600Y0084226D02*
X0072000Y0084226D01*
X0071735Y0082627D02*
X0091865Y0082627D01*
X0092718Y0081029D02*
X0070882Y0081029D01*
X0068631Y0079430D02*
X0094969Y0079430D01*
X0092978Y0077832D02*
X0070622Y0077832D01*
X0071628Y0076233D02*
X0091972Y0076233D01*
X0091600Y0074634D02*
X0072000Y0074634D01*
X0071905Y0073036D02*
X0091695Y0073036D01*
X0100622Y0077832D02*
X0173101Y0077832D01*
X0173101Y0079430D02*
X0098631Y0079430D01*
X0100882Y0081029D02*
X0173101Y0081029D01*
X0173101Y0082627D02*
X0101735Y0082627D01*
X0102000Y0084226D02*
X0173101Y0084226D01*
X0174064Y0085824D02*
X0101797Y0085824D01*
X0101031Y0087423D02*
X0184373Y0087423D01*
X0185972Y0089021D02*
X0098990Y0089021D01*
X0100474Y0090620D02*
X0187571Y0090620D01*
X0189169Y0092218D02*
X0101566Y0092218D01*
X0102000Y0093817D02*
X0190768Y0093817D01*
X0193276Y0091800D02*
X0181800Y0080324D01*
X0190499Y0081029D02*
X0218013Y0081029D01*
X0218013Y0081025D02*
X0213839Y0081025D01*
X0213839Y0078020D01*
X0213961Y0077562D01*
X0214198Y0077151D01*
X0214533Y0076816D01*
X0214944Y0076579D01*
X0215402Y0076457D01*
X0218013Y0076457D01*
X0218013Y0081025D01*
X0218013Y0082575D01*
X0213839Y0082575D01*
X0213839Y0085580D01*
X0213961Y0086038D01*
X0214198Y0086449D01*
X0214533Y0086784D01*
X0214944Y0087021D01*
X0215402Y0087143D01*
X0218013Y0087143D01*
X0218013Y0082575D01*
X0219563Y0082575D01*
X0219563Y0087143D01*
X0222175Y0087143D01*
X0222633Y0087021D01*
X0223043Y0086784D01*
X0223378Y0086449D01*
X0223615Y0086038D01*
X0223738Y0085580D01*
X0223738Y0082575D01*
X0219563Y0082575D01*
X0219563Y0081025D01*
X0219563Y0076457D01*
X0222175Y0076457D01*
X0222633Y0076579D01*
X0223043Y0076816D01*
X0223378Y0077151D01*
X0223615Y0077562D01*
X0223738Y0078020D01*
X0223738Y0081025D01*
X0219563Y0081025D01*
X0218013Y0081025D01*
X0219563Y0081029D02*
X0224262Y0081029D01*
X0224262Y0082627D02*
X0223738Y0082627D01*
X0223738Y0084226D02*
X0224262Y0084226D01*
X0224264Y0085824D02*
X0223672Y0085824D01*
X0225411Y0087423D02*
X0193424Y0087423D01*
X0191826Y0085824D02*
X0213904Y0085824D01*
X0213839Y0084226D02*
X0190499Y0084226D01*
X0190499Y0082627D02*
X0213839Y0082627D01*
X0213839Y0079430D02*
X0190499Y0079430D01*
X0190499Y0077832D02*
X0213889Y0077832D01*
X0218013Y0077832D02*
X0219563Y0077832D01*
X0219563Y0079430D02*
X0218013Y0079430D01*
X0218013Y0082627D02*
X0219563Y0082627D01*
X0219563Y0084226D02*
X0218013Y0084226D01*
X0218013Y0085824D02*
X0219563Y0085824D01*
X0223738Y0079430D02*
X0224262Y0079430D01*
X0224262Y0077832D02*
X0223687Y0077832D01*
X0225292Y0076233D02*
X0190470Y0076233D01*
X0189190Y0074634D02*
X0226612Y0074634D01*
X0226612Y0073036D02*
X0101905Y0073036D01*
X0102000Y0074634D02*
X0174410Y0074634D01*
X0173130Y0076233D02*
X0101628Y0076233D01*
X0102000Y0065043D02*
X0202869Y0065043D01*
X0202869Y0063445D02*
X0189868Y0063445D01*
X0190499Y0061846D02*
X0202869Y0061846D01*
X0202869Y0060248D02*
X0190499Y0060248D01*
X0190499Y0058649D02*
X0202869Y0058649D01*
X0202869Y0057051D02*
X0190499Y0057051D01*
X0190499Y0055452D02*
X0202869Y0055452D01*
X0202869Y0053854D02*
X0190333Y0053854D01*
X0205588Y0049058D02*
X0099435Y0049058D01*
X0101558Y0047460D02*
X0205588Y0047460D01*
X0205588Y0045861D02*
X0102354Y0045861D01*
X0102575Y0044263D02*
X0205588Y0044263D01*
X0205588Y0042664D02*
X0102324Y0042664D01*
X0101484Y0041066D02*
X0205588Y0041066D01*
X0211988Y0041066D02*
X0238838Y0041066D01*
X0237186Y0042664D02*
X0211988Y0042664D01*
X0211988Y0044263D02*
X0235534Y0044263D01*
X0241434Y0047460D02*
X0250856Y0047460D01*
X0251183Y0050657D02*
X0240800Y0050657D01*
X0240800Y0052255D02*
X0250601Y0052255D01*
X0250601Y0053854D02*
X0240478Y0053854D01*
X0240346Y0055452D02*
X0250601Y0055452D01*
X0250601Y0057051D02*
X0240800Y0057051D01*
X0240800Y0058649D02*
X0250601Y0058649D01*
X0250788Y0060248D02*
X0240800Y0060248D01*
X0240800Y0061846D02*
X0285601Y0061846D01*
X0285601Y0060248D02*
X0267812Y0060248D01*
X0267999Y0058649D02*
X0285601Y0058649D01*
X0285601Y0057051D02*
X0267999Y0057051D01*
X0267999Y0055452D02*
X0285601Y0055452D01*
X0285601Y0053854D02*
X0267999Y0053854D01*
X0267999Y0052255D02*
X0285601Y0052255D01*
X0285601Y0050657D02*
X0267417Y0050657D01*
X0267744Y0047460D02*
X0285601Y0047460D01*
X0285601Y0049058D02*
X0262500Y0049058D01*
X0267999Y0045861D02*
X0285601Y0045861D01*
X0285601Y0044263D02*
X0267999Y0044263D01*
X0267999Y0042664D02*
X0285601Y0042664D01*
X0285601Y0041066D02*
X0267999Y0041066D01*
X0267999Y0039467D02*
X0285601Y0039467D01*
X0285601Y0037869D02*
X0267582Y0037869D01*
X0259300Y0042824D02*
X0241624Y0042824D01*
X0234000Y0050200D01*
X0227200Y0050657D02*
X0215767Y0050657D01*
X0216330Y0052255D02*
X0227200Y0052255D01*
X0227522Y0053854D02*
X0216330Y0053854D01*
X0216330Y0055452D02*
X0227654Y0055452D01*
X0227200Y0057051D02*
X0216330Y0057051D01*
X0216330Y0058649D02*
X0227200Y0058649D01*
X0227200Y0060248D02*
X0216330Y0060248D01*
X0216330Y0061846D02*
X0227200Y0061846D01*
X0227951Y0063445D02*
X0216330Y0063445D01*
X0216330Y0065043D02*
X0227398Y0065043D01*
X0229812Y0068788D02*
X0231800Y0066800D01*
X0232400Y0066800D01*
X0234000Y0068400D01*
X0233100Y0069300D01*
X0059300Y0069300D01*
X0054300Y0064300D01*
X0050312Y0066642D02*
X0047500Y0066642D01*
X0047500Y0068240D02*
X0051842Y0068240D01*
X0050416Y0071437D02*
X0056912Y0071437D01*
X0055313Y0069839D02*
X0048001Y0069839D01*
X0051235Y0073036D02*
X0061695Y0073036D01*
X0061600Y0074634D02*
X0051660Y0074634D01*
X0053258Y0076233D02*
X0061972Y0076233D01*
X0062978Y0077832D02*
X0054857Y0077832D01*
X0056456Y0079430D02*
X0064969Y0079430D01*
X0062718Y0081029D02*
X0057444Y0081029D01*
X0057500Y0082627D02*
X0061865Y0082627D01*
X0061600Y0084226D02*
X0057500Y0084226D01*
X0057500Y0085824D02*
X0061803Y0085824D01*
X0062569Y0087423D02*
X0057500Y0087423D01*
X0057500Y0089021D02*
X0064609Y0089021D01*
X0063126Y0090620D02*
X0057500Y0090620D01*
X0057500Y0092218D02*
X0062034Y0092218D01*
X0061600Y0093817D02*
X0057500Y0093817D01*
X0057500Y0095415D02*
X0061633Y0095415D01*
X0062296Y0097014D02*
X0057500Y0097014D01*
X0057500Y0098612D02*
X0063758Y0098612D01*
X0069842Y0098612D02*
X0093758Y0098612D01*
X0099842Y0098612D02*
X0179269Y0098612D01*
X0180467Y0097014D02*
X0101304Y0097014D01*
X0101967Y0095415D02*
X0270890Y0095415D01*
X0271100Y0097014D02*
X0258133Y0097014D01*
X0259331Y0098612D02*
X0271100Y0098612D01*
X0271100Y0100211D02*
X0259900Y0100211D01*
X0259900Y0101809D02*
X0271100Y0101809D01*
X0271100Y0103408D02*
X0259900Y0103408D01*
X0259900Y0105006D02*
X0271100Y0105006D01*
X0271100Y0106605D02*
X0259900Y0106605D01*
X0259900Y0108203D02*
X0271100Y0108203D01*
X0277500Y0108203D02*
X0285601Y0108203D01*
X0285601Y0106605D02*
X0277500Y0106605D01*
X0277500Y0105006D02*
X0285601Y0105006D01*
X0285601Y0103408D02*
X0277500Y0103408D01*
X0277500Y0101809D02*
X0285601Y0101809D01*
X0285601Y0100211D02*
X0277500Y0100211D01*
X0277500Y0098612D02*
X0285601Y0098612D01*
X0285601Y0097014D02*
X0277500Y0097014D01*
X0277500Y0095415D02*
X0285601Y0095415D01*
X0285601Y0093817D02*
X0277500Y0093817D01*
X0276744Y0092218D02*
X0285601Y0092218D01*
X0285601Y0090620D02*
X0275145Y0090620D01*
X0273453Y0089021D02*
X0285601Y0089021D01*
X0285601Y0087423D02*
X0234213Y0087423D01*
X0235360Y0085824D02*
X0285601Y0085824D01*
X0285601Y0084226D02*
X0235361Y0084226D01*
X0235361Y0082627D02*
X0250925Y0082627D01*
X0250601Y0081029D02*
X0246068Y0081029D01*
X0245496Y0081029D02*
X0235361Y0081029D01*
X0235361Y0079430D02*
X0242795Y0079430D01*
X0240773Y0077832D02*
X0235361Y0077832D01*
X0234332Y0076233D02*
X0238750Y0076233D01*
X0236728Y0074634D02*
X0233012Y0074634D01*
X0240981Y0069839D02*
X0285601Y0069839D01*
X0285601Y0071437D02*
X0243004Y0071437D01*
X0245027Y0073036D02*
X0250918Y0073036D01*
X0245924Y0077824D02*
X0234000Y0068400D01*
X0229812Y0068788D02*
X0229812Y0081800D01*
X0245924Y0077824D02*
X0259300Y0077824D01*
X0267675Y0082627D02*
X0285601Y0082627D01*
X0285601Y0081029D02*
X0267999Y0081029D01*
X0267999Y0079430D02*
X0285601Y0079430D01*
X0285601Y0077832D02*
X0267999Y0077832D01*
X0267999Y0076233D02*
X0285601Y0076233D01*
X0285601Y0074634D02*
X0267999Y0074634D01*
X0267682Y0073036D02*
X0285601Y0073036D01*
X0285601Y0068240D02*
X0240800Y0068240D01*
X0240800Y0066642D02*
X0285601Y0066642D01*
X0285601Y0065043D02*
X0240602Y0065043D01*
X0240049Y0063445D02*
X0285601Y0063445D01*
X0259300Y0055776D02*
X0259300Y0042824D01*
X0250601Y0039467D02*
X0223749Y0039467D01*
X0223656Y0039521D02*
X0223198Y0039643D01*
X0220587Y0039643D01*
X0220587Y0035075D01*
X0224761Y0035075D01*
X0224761Y0038080D01*
X0224639Y0038538D01*
X0224402Y0038949D01*
X0224067Y0039284D01*
X0223656Y0039521D01*
X0224761Y0037869D02*
X0251018Y0037869D01*
X0256100Y0049058D02*
X0240800Y0049058D01*
X0228145Y0045861D02*
X0211988Y0045861D01*
X0211988Y0047460D02*
X0227200Y0047460D01*
X0227200Y0049058D02*
X0211988Y0049058D01*
X0215967Y0039521D02*
X0216425Y0039643D01*
X0219037Y0039643D01*
X0219037Y0035075D01*
X0220587Y0035075D01*
X0220587Y0033525D01*
X0224761Y0033525D01*
X0224761Y0030520D01*
X0224639Y0030062D01*
X0224402Y0029651D01*
X0224067Y0029316D01*
X0223656Y0029079D01*
X0223198Y0028957D01*
X0220587Y0028957D01*
X0220587Y0033525D01*
X0219037Y0033525D01*
X0219037Y0028957D01*
X0216425Y0028957D01*
X0215967Y0029079D01*
X0215557Y0029316D01*
X0215222Y0029651D01*
X0214985Y0030062D01*
X0214862Y0030520D01*
X0214862Y0033525D01*
X0219037Y0033525D01*
X0219037Y0035075D01*
X0214862Y0035075D01*
X0214862Y0038080D01*
X0214985Y0038538D01*
X0215222Y0038949D01*
X0215557Y0039284D01*
X0215967Y0039521D01*
X0215875Y0039467D02*
X0213708Y0039467D01*
X0214338Y0037869D02*
X0214862Y0037869D01*
X0214862Y0036270D02*
X0214338Y0036270D01*
X0214338Y0034672D02*
X0219037Y0034672D01*
X0220587Y0034672D02*
X0285601Y0034672D01*
X0285601Y0036270D02*
X0224761Y0036270D01*
X0224761Y0033073D02*
X0285601Y0033073D01*
X0285601Y0031475D02*
X0224761Y0031475D01*
X0224532Y0029876D02*
X0285601Y0029876D01*
X0285601Y0028278D02*
X0211988Y0028278D01*
X0211988Y0026679D02*
X0285601Y0026679D01*
X0285601Y0025081D02*
X0267238Y0025081D01*
X0267277Y0025014D02*
X0267040Y0025425D01*
X0266704Y0025760D01*
X0266294Y0025997D01*
X0265836Y0026120D01*
X0260100Y0026120D01*
X0260100Y0021576D01*
X0267399Y0021576D01*
X0267399Y0024557D01*
X0267277Y0025014D01*
X0267399Y0023482D02*
X0285601Y0023482D01*
X0285601Y0021884D02*
X0267399Y0021884D01*
X0267399Y0019976D02*
X0267399Y0016996D01*
X0267277Y0016538D01*
X0267040Y0016128D01*
X0266704Y0015793D01*
X0266294Y0015556D01*
X0265836Y0015433D01*
X0260100Y0015433D01*
X0260100Y0019976D01*
X0258500Y0019976D01*
X0258500Y0015433D01*
X0252764Y0015433D01*
X0252306Y0015556D01*
X0251896Y0015793D01*
X0251560Y0016128D01*
X0251323Y0016538D01*
X0251201Y0016996D01*
X0251201Y0019976D01*
X0258500Y0019976D01*
X0258500Y0021576D01*
X0251201Y0021576D01*
X0251201Y0024557D01*
X0251323Y0025014D01*
X0251560Y0025425D01*
X0251896Y0025760D01*
X0252306Y0025997D01*
X0252764Y0026120D01*
X0258500Y0026120D01*
X0258500Y0021576D01*
X0260100Y0021576D01*
X0260100Y0019976D01*
X0267399Y0019976D01*
X0267399Y0018687D02*
X0285601Y0018687D01*
X0285601Y0020285D02*
X0260100Y0020285D01*
X0260100Y0018687D02*
X0258500Y0018687D01*
X0258500Y0020285D02*
X0211988Y0020285D01*
X0211988Y0018687D02*
X0251201Y0018687D01*
X0251201Y0017088D02*
X0211548Y0017088D01*
X0210015Y0015490D02*
X0252553Y0015490D01*
X0258500Y0015490D02*
X0260100Y0015490D01*
X0260100Y0017088D02*
X0258500Y0017088D01*
X0258500Y0021884D02*
X0260100Y0021884D01*
X0260100Y0023482D02*
X0258500Y0023482D01*
X0258500Y0025081D02*
X0260100Y0025081D01*
X0251362Y0025081D02*
X0211988Y0025081D01*
X0211988Y0023482D02*
X0251201Y0023482D01*
X0251201Y0021884D02*
X0211988Y0021884D01*
X0208788Y0018788D02*
X0199300Y0009300D01*
X0079300Y0009300D01*
X0076223Y0005899D02*
X0004200Y0005899D01*
X0004200Y0007497D02*
X0075088Y0007497D01*
X0074719Y0009096D02*
X0004200Y0009096D01*
X0004200Y0010694D02*
X0074919Y0010694D01*
X0075814Y0012293D02*
X0047146Y0012293D01*
X0048745Y0013891D02*
X0199366Y0013891D01*
X0205220Y0010694D02*
X0285601Y0010694D01*
X0285601Y0009096D02*
X0203621Y0009096D01*
X0202022Y0007497D02*
X0285601Y0007497D01*
X0285601Y0005899D02*
X0082377Y0005899D01*
X0081447Y0017088D02*
X0095253Y0017088D01*
X0093195Y0018687D02*
X0083505Y0018687D01*
X0084274Y0020285D02*
X0092426Y0020285D01*
X0092225Y0021884D02*
X0084475Y0021884D01*
X0084204Y0023482D02*
X0092496Y0023482D01*
X0093362Y0025081D02*
X0083338Y0025081D01*
X0075262Y0025081D02*
X0065238Y0025081D01*
X0066104Y0023482D02*
X0074396Y0023482D01*
X0074125Y0021884D02*
X0066375Y0021884D01*
X0066174Y0020285D02*
X0074326Y0020285D01*
X0075095Y0018687D02*
X0065405Y0018687D01*
X0063347Y0017088D02*
X0077153Y0017088D01*
X0101438Y0025081D02*
X0108338Y0025081D01*
X0108781Y0023482D02*
X0102304Y0023482D01*
X0102575Y0021884D02*
X0109722Y0021884D01*
X0111884Y0020285D02*
X0102374Y0020285D01*
X0116716Y0020285D02*
X0131884Y0020285D01*
X0129722Y0021884D02*
X0128029Y0021884D01*
X0124681Y0021884D02*
X0123919Y0021884D01*
X0123919Y0023482D02*
X0124681Y0023482D01*
X0124681Y0025081D02*
X0123919Y0025081D01*
X0123919Y0026679D02*
X0124681Y0026679D01*
X0124681Y0028278D02*
X0123919Y0028278D01*
X0123919Y0029876D02*
X0124681Y0029876D01*
X0124681Y0031475D02*
X0123919Y0031475D01*
X0123919Y0033073D02*
X0124681Y0033073D01*
X0124681Y0034672D02*
X0123919Y0034672D01*
X0123919Y0036270D02*
X0124681Y0036270D01*
X0124681Y0037869D02*
X0123919Y0037869D01*
X0122356Y0037869D02*
X0117725Y0037869D01*
X0119324Y0036270D02*
X0120148Y0036270D01*
X0126244Y0037869D02*
X0130875Y0037869D01*
X0129276Y0036270D02*
X0128452Y0036270D01*
X0120571Y0021884D02*
X0118878Y0021884D01*
X0100102Y0060248D02*
X0173101Y0060248D01*
X0173101Y0061846D02*
X0101412Y0061846D01*
X0102000Y0063445D02*
X0173732Y0063445D01*
X0173101Y0058649D02*
X0050246Y0058649D01*
X0049181Y0060248D02*
X0052112Y0060248D01*
X0050358Y0061846D02*
X0048115Y0061846D01*
X0047500Y0063445D02*
X0049719Y0063445D01*
X0049719Y0065043D02*
X0047500Y0065043D01*
X0041100Y0065043D02*
X0004200Y0065043D01*
X0004200Y0063445D02*
X0041100Y0063445D01*
X0041046Y0061846D02*
X0004200Y0061846D01*
X0004200Y0060248D02*
X0041479Y0060248D01*
X0042554Y0058649D02*
X0004200Y0058649D01*
X0004200Y0057051D02*
X0043620Y0057051D01*
X0044686Y0055452D02*
X0004200Y0055452D01*
X0004200Y0053854D02*
X0045752Y0053854D01*
X0056488Y0060248D02*
X0063498Y0060248D01*
X0062188Y0061846D02*
X0058242Y0061846D01*
X0058881Y0063445D02*
X0061600Y0063445D01*
X0061600Y0065043D02*
X0059569Y0065043D01*
X0070102Y0060248D02*
X0093498Y0060248D01*
X0092188Y0061846D02*
X0071412Y0061846D01*
X0072000Y0063445D02*
X0091600Y0063445D01*
X0091600Y0065043D02*
X0072000Y0065043D01*
X0049003Y0081029D02*
X0004200Y0081029D01*
X0004200Y0082627D02*
X0050602Y0082627D01*
X0051100Y0084226D02*
X0004200Y0084226D01*
X0004200Y0085824D02*
X0051100Y0085824D01*
X0051100Y0087423D02*
X0004200Y0087423D01*
X0004200Y0089021D02*
X0025232Y0089021D01*
X0025766Y0088800D02*
X0027834Y0088800D01*
X0029746Y0089592D01*
X0031208Y0091054D01*
X0032000Y0092966D01*
X0032000Y0100634D01*
X0031208Y0102546D01*
X0029746Y0104008D01*
X0027834Y0104800D01*
X0025766Y0104800D01*
X0023854Y0104008D01*
X0022392Y0102546D01*
X0021600Y0100634D01*
X0021600Y0092966D01*
X0022392Y0091054D01*
X0023854Y0089592D01*
X0025766Y0088800D01*
X0028368Y0089021D02*
X0045232Y0089021D01*
X0042826Y0090620D02*
X0039925Y0090620D01*
X0039797Y0090491D02*
X0040309Y0091003D01*
X0040734Y0091589D01*
X0041063Y0092234D01*
X0041287Y0092923D01*
X0041400Y0093638D01*
X0041400Y0096800D01*
X0041400Y0099962D01*
X0041287Y0100677D01*
X0041063Y0101366D01*
X0040734Y0102011D01*
X0040309Y0102597D01*
X0039797Y0103109D01*
X0039211Y0103534D01*
X0038566Y0103863D01*
X0037877Y0104087D01*
X0037162Y0104200D01*
X0036800Y0104200D01*
X0036800Y0096800D01*
X0041400Y0096800D01*
X0036800Y0096800D01*
X0036800Y0096800D01*
X0036800Y0096800D01*
X0036800Y0089400D01*
X0037162Y0089400D01*
X0037877Y0089513D01*
X0038566Y0089737D01*
X0039211Y0090066D01*
X0039797Y0090491D01*
X0041055Y0092218D02*
X0041910Y0092218D01*
X0041600Y0093817D02*
X0041400Y0093817D01*
X0041400Y0095415D02*
X0041600Y0095415D01*
X0041600Y0097014D02*
X0041400Y0097014D01*
X0041400Y0098612D02*
X0041600Y0098612D01*
X0041600Y0100211D02*
X0041361Y0100211D01*
X0040837Y0101809D02*
X0042087Y0101809D01*
X0043254Y0103408D02*
X0039385Y0103408D01*
X0036800Y0103408D02*
X0036800Y0103408D01*
X0036800Y0104200D02*
X0036438Y0104200D01*
X0035723Y0104087D01*
X0035034Y0103863D01*
X0034389Y0103534D01*
X0033803Y0103109D01*
X0033291Y0102597D01*
X0032866Y0102011D01*
X0032537Y0101366D01*
X0032313Y0100677D01*
X0032200Y0099962D01*
X0032200Y0096800D01*
X0036800Y0096800D01*
X0036800Y0096800D01*
X0036800Y0096800D01*
X0036800Y0104200D01*
X0034215Y0103408D02*
X0030346Y0103408D01*
X0031513Y0101809D02*
X0032763Y0101809D01*
X0032239Y0100211D02*
X0032000Y0100211D01*
X0032000Y0098612D02*
X0032200Y0098612D01*
X0032200Y0097014D02*
X0032000Y0097014D01*
X0032200Y0096800D02*
X0032200Y0093638D01*
X0032313Y0092923D01*
X0032537Y0092234D01*
X0032866Y0091589D01*
X0033291Y0091003D01*
X0033803Y0090491D01*
X0034389Y0090066D01*
X0035034Y0089737D01*
X0035723Y0089513D01*
X0036438Y0089400D01*
X0036800Y0089400D01*
X0036800Y0096800D01*
X0032200Y0096800D01*
X0032200Y0095415D02*
X0032000Y0095415D01*
X0032000Y0093817D02*
X0032200Y0093817D01*
X0032545Y0092218D02*
X0031690Y0092218D01*
X0030774Y0090620D02*
X0033675Y0090620D01*
X0036800Y0090620D02*
X0036800Y0090620D01*
X0036800Y0092218D02*
X0036800Y0092218D01*
X0036800Y0093817D02*
X0036800Y0093817D01*
X0036800Y0095415D02*
X0036800Y0095415D01*
X0036800Y0097014D02*
X0036800Y0097014D01*
X0036800Y0098612D02*
X0036800Y0098612D01*
X0036800Y0100211D02*
X0036800Y0100211D01*
X0036800Y0101809D02*
X0036800Y0101809D01*
X0023254Y0103408D02*
X0004200Y0103408D01*
X0004200Y0101809D02*
X0022087Y0101809D01*
X0021600Y0100211D02*
X0004200Y0100211D01*
X0004200Y0098612D02*
X0021600Y0098612D01*
X0021600Y0097014D02*
X0004200Y0097014D01*
X0004200Y0095415D02*
X0021600Y0095415D01*
X0021600Y0093817D02*
X0004200Y0093817D01*
X0004200Y0092218D02*
X0021910Y0092218D01*
X0022826Y0090620D02*
X0004200Y0090620D01*
X0004200Y0079430D02*
X0047405Y0079430D01*
X0043853Y0077832D02*
X0004200Y0077832D01*
X0004200Y0076233D02*
X0042642Y0076233D01*
X0042219Y0074634D02*
X0004200Y0074634D01*
X0004200Y0073036D02*
X0041348Y0073036D01*
X0041100Y0071437D02*
X0004200Y0071437D01*
X0004200Y0069839D02*
X0041100Y0069839D01*
X0041100Y0068240D02*
X0004200Y0068240D01*
X0004200Y0066642D02*
X0041100Y0066642D01*
X0048368Y0089021D02*
X0051100Y0089021D01*
X0051100Y0090620D02*
X0050774Y0090620D01*
X0139077Y0112999D02*
X0140373Y0112999D01*
X0157520Y0111400D02*
X0161080Y0111400D01*
X0159523Y0112999D02*
X0159077Y0112999D01*
X0178227Y0112999D02*
X0179523Y0112999D01*
X0188133Y0097014D02*
X0190467Y0097014D01*
X0193276Y0091800D02*
X0271800Y0091800D01*
X0274300Y0094300D01*
X0274300Y0166800D01*
X0276679Y0168947D02*
X0285601Y0168947D01*
X0285601Y0170545D02*
X0275080Y0170545D01*
X0273482Y0172144D02*
X0285601Y0172144D01*
X0285601Y0173742D02*
X0271883Y0173742D01*
X0277500Y0167348D02*
X0285601Y0167348D01*
X0285601Y0165750D02*
X0277500Y0165750D01*
X0277500Y0164151D02*
X0285601Y0164151D01*
X0285601Y0162553D02*
X0277500Y0162553D01*
X0277500Y0160954D02*
X0285601Y0160954D01*
X0285601Y0159356D02*
X0277500Y0159356D01*
X0277500Y0157757D02*
X0285601Y0157757D01*
X0285601Y0156159D02*
X0277500Y0156159D01*
X0277500Y0154560D02*
X0285601Y0154560D01*
X0285601Y0152962D02*
X0277500Y0152962D01*
X0277500Y0151363D02*
X0285601Y0151363D01*
X0285601Y0149765D02*
X0277500Y0149765D01*
X0277500Y0148166D02*
X0285601Y0148166D01*
X0285601Y0146568D02*
X0277500Y0146568D01*
X0277500Y0144969D02*
X0285601Y0144969D01*
X0285601Y0143370D02*
X0277500Y0143370D01*
X0277500Y0141772D02*
X0285601Y0141772D01*
X0285601Y0140173D02*
X0277500Y0140173D01*
X0277500Y0138575D02*
X0285601Y0138575D01*
X0285601Y0136976D02*
X0277500Y0136976D01*
X0277500Y0135378D02*
X0285601Y0135378D01*
X0285601Y0133779D02*
X0277500Y0133779D01*
X0277500Y0132181D02*
X0285601Y0132181D01*
X0285601Y0130582D02*
X0277500Y0130582D01*
X0277500Y0128984D02*
X0285601Y0128984D01*
X0285601Y0127385D02*
X0277500Y0127385D01*
X0277500Y0125787D02*
X0285601Y0125787D01*
X0285601Y0124188D02*
X0277500Y0124188D01*
X0277500Y0122590D02*
X0285601Y0122590D01*
X0285601Y0120991D02*
X0277500Y0120991D01*
X0277500Y0119393D02*
X0285601Y0119393D01*
X0285601Y0117794D02*
X0277500Y0117794D01*
X0277500Y0116196D02*
X0285601Y0116196D01*
X0285601Y0114597D02*
X0277500Y0114597D01*
X0277500Y0112999D02*
X0285601Y0112999D01*
X0285601Y0111400D02*
X0277500Y0111400D01*
X0277500Y0109802D02*
X0285601Y0109802D01*
X0250467Y0097014D02*
X0248133Y0097014D01*
X0240467Y0097014D02*
X0238133Y0097014D01*
X0230467Y0097014D02*
X0228133Y0097014D01*
X0220467Y0097014D02*
X0218133Y0097014D01*
X0210467Y0097014D02*
X0208133Y0097014D01*
X0200467Y0097014D02*
X0198133Y0097014D01*
X0198300Y0132181D02*
X0200299Y0132181D01*
X0208300Y0132181D02*
X0210299Y0132181D01*
X0218300Y0132181D02*
X0220299Y0132181D01*
X0228300Y0132181D02*
X0230299Y0132181D01*
X0238300Y0132181D02*
X0240299Y0132181D01*
X0248300Y0132181D02*
X0250299Y0132181D01*
X0209599Y0059300D02*
X0208788Y0059300D01*
X0208788Y0034300D01*
X0208788Y0018788D01*
X0208417Y0013891D02*
X0285601Y0013891D01*
X0285601Y0012293D02*
X0206818Y0012293D01*
X0214171Y0029876D02*
X0215092Y0029876D01*
X0214862Y0031475D02*
X0214338Y0031475D01*
X0214338Y0033073D02*
X0214862Y0033073D01*
X0219037Y0033073D02*
X0220587Y0033073D01*
X0220587Y0031475D02*
X0219037Y0031475D01*
X0219037Y0029876D02*
X0220587Y0029876D01*
X0220587Y0036270D02*
X0219037Y0036270D01*
X0219037Y0037869D02*
X0220587Y0037869D01*
X0220587Y0039467D02*
X0219037Y0039467D01*
X0266047Y0015490D02*
X0285601Y0015490D01*
X0285601Y0017088D02*
X0267399Y0017088D01*
X0285601Y0004300D02*
X0004200Y0004300D01*
X0004200Y0012293D02*
X0032302Y0012293D01*
X0030704Y0013891D02*
X0004200Y0013891D01*
X0004200Y0015490D02*
X0029700Y0015490D01*
X0029700Y0017088D02*
X0004200Y0017088D01*
X0004200Y0018687D02*
X0029700Y0018687D01*
X0031280Y0020285D02*
X0004200Y0020285D01*
D22*
X0016800Y0034300D03*
X0024300Y0034300D03*
X0024300Y0041800D03*
X0016800Y0041800D03*
X0016800Y0049300D03*
X0024300Y0049300D03*
X0024300Y0056800D03*
X0016800Y0056800D03*
X0046800Y0074300D03*
X0054300Y0064300D03*
X0086800Y0106800D03*
X0046800Y0109300D03*
X0056800Y0136800D03*
X0079300Y0009300D03*
M02*
