%
M48
M72
T01C0.02362
T02C0.03150
T03C0.03200
T04C0.04000
T05C0.04724
%
T01
X16800Y34300
X24300Y34300
X24300Y41800
X16800Y41800
X16800Y49300
X24300Y49300
X24300Y56800
X16800Y56800
X46800Y74300
X54300Y64300
X86800Y106800
X46800Y109300
X56800Y136800
X79300Y9300
T02
X79300Y21800
X61200Y21800
X61200Y44300
X79300Y44300
X97400Y44300
X97400Y21800
T03
X34300Y16800
X44300Y16800
X66800Y64300
X66800Y74300
X66800Y84300
X66800Y94300
X46800Y96800
X36800Y96800
X26800Y96800
X66800Y116800
X66800Y126800
X66800Y136800
X66800Y146800
X44300Y139300
X34300Y139300
X24300Y139300
X96800Y136800
X96800Y126800
X96800Y116800
X96800Y94300
X96800Y84300
X96800Y74300
X96800Y64300
X96800Y146800
T04
X116800Y126800
X116800Y116800
X134300Y119300
X144300Y119300
X154300Y119300
X164300Y119300
X174300Y119300
X184300Y119300
X194300Y119300
X204300Y119300
X214300Y119300
X224300Y119300
X234300Y119300
X244300Y119300
X254300Y119300
X264300Y119300
X254300Y104300
X244300Y104300
X234300Y104300
X224300Y104300
X214300Y104300
X204300Y104300
X194300Y104300
X184300Y104300
X184300Y139300
X194300Y139300
X204300Y139300
X214300Y139300
X224300Y139300
X234300Y139300
X244300Y139300
X254300Y139300
X264300Y139300
X264300Y154300
X254300Y154300
X244300Y154300
X234300Y154300
X224300Y154300
X214300Y154300
X204300Y154300
X194300Y154300
X184300Y154300
X174300Y154300
X164300Y154300
X154300Y154300
X154300Y139300
X164300Y139300
X174300Y139300
X144300Y139300
X134300Y139300
T05
X134300Y29300
X124300Y29300
X114300Y29300
M30
