G75*
%MOIN*%
%OFA0B0*%
%FSLAX25Y25*%
%IPPOS*%
%LPD*%
%AMOC8*
5,1,8,0,0,1.08239X$1,22.5*
%
%ADD10R,0.07099X0.07887*%
%ADD11R,0.09600X0.05600*%
%ADD12R,0.09461X0.14973*%
%ADD13C,0.06400*%
%ADD14C,0.07200*%
%ADD15R,0.13398X0.07887*%
%ADD16C,0.06400*%
%ADD17C,0.07924*%
%ADD18OC8,0.06400*%
%ADD19C,0.06350*%
D10*
X0208788Y0034300D03*
X0219812Y0034300D03*
X0218788Y0081800D03*
X0229812Y0081800D03*
D11*
X0234000Y0068400D03*
X0234000Y0059300D03*
X0234000Y0050200D03*
D12*
X0209599Y0059300D03*
D13*
X0096800Y0064300D03*
X0096800Y0074300D03*
X0096800Y0084300D03*
X0096800Y0094300D03*
X0096800Y0116800D03*
X0096800Y0126800D03*
X0096800Y0136800D03*
X0096800Y0146800D03*
X0066800Y0146800D03*
X0066800Y0136800D03*
X0066800Y0126800D03*
X0066800Y0116800D03*
X0066800Y0094300D03*
X0066800Y0084300D03*
X0066800Y0074300D03*
X0066800Y0064300D03*
D14*
X0113600Y0116800D02*
X0120000Y0116800D01*
X0134300Y0116100D02*
X0134300Y0122500D01*
X0144300Y0122500D02*
X0144300Y0116100D01*
X0154300Y0116100D02*
X0154300Y0122500D01*
X0164300Y0122500D02*
X0164300Y0116100D01*
X0174300Y0116100D02*
X0174300Y0122500D01*
X0184300Y0122500D02*
X0184300Y0116100D01*
X0194300Y0116100D02*
X0194300Y0122500D01*
X0204300Y0122500D02*
X0204300Y0116100D01*
X0214300Y0116100D02*
X0214300Y0122500D01*
X0224300Y0122500D02*
X0224300Y0116100D01*
X0234300Y0116100D02*
X0234300Y0122500D01*
X0244300Y0122500D02*
X0244300Y0116100D01*
X0254300Y0116100D02*
X0254300Y0122500D01*
X0264300Y0122500D02*
X0264300Y0116100D01*
X0254300Y0107500D02*
X0254300Y0101100D01*
X0244300Y0101100D02*
X0244300Y0107500D01*
X0234300Y0107500D02*
X0234300Y0101100D01*
X0224300Y0101100D02*
X0224300Y0107500D01*
X0214300Y0107500D02*
X0214300Y0101100D01*
X0204300Y0101100D02*
X0204300Y0107500D01*
X0194300Y0107500D02*
X0194300Y0101100D01*
X0184300Y0101100D02*
X0184300Y0107500D01*
X0184300Y0136100D02*
X0184300Y0142500D01*
X0194300Y0142500D02*
X0194300Y0136100D01*
X0204300Y0136100D02*
X0204300Y0142500D01*
X0214300Y0142500D02*
X0214300Y0136100D01*
X0224300Y0136100D02*
X0224300Y0142500D01*
X0234300Y0142500D02*
X0234300Y0136100D01*
X0244300Y0136100D02*
X0244300Y0142500D01*
X0254300Y0142500D02*
X0254300Y0136100D01*
X0264300Y0136100D02*
X0264300Y0142500D01*
X0264300Y0151100D02*
X0264300Y0157500D01*
X0254300Y0157500D02*
X0254300Y0151100D01*
X0244300Y0151100D02*
X0244300Y0157500D01*
X0234300Y0157500D02*
X0234300Y0151100D01*
X0224300Y0151100D02*
X0224300Y0157500D01*
X0214300Y0157500D02*
X0214300Y0151100D01*
X0204300Y0151100D02*
X0204300Y0157500D01*
X0194300Y0157500D02*
X0194300Y0151100D01*
X0184300Y0151100D02*
X0184300Y0157500D01*
X0174300Y0157500D02*
X0174300Y0151100D01*
X0164300Y0151100D02*
X0164300Y0157500D01*
X0154300Y0157500D02*
X0154300Y0151100D01*
X0154300Y0142500D02*
X0154300Y0136100D01*
X0164300Y0136100D02*
X0164300Y0142500D01*
X0174300Y0142500D02*
X0174300Y0136100D01*
X0144300Y0136100D02*
X0144300Y0142500D01*
X0134300Y0142500D02*
X0134300Y0136100D01*
X0120000Y0126800D02*
X0113600Y0126800D01*
D15*
X0181800Y0080324D03*
X0181800Y0058276D03*
X0259300Y0055776D03*
X0259300Y0042824D03*
X0259300Y0020776D03*
X0259300Y0077824D03*
D16*
X0046800Y0094000D02*
X0046800Y0099600D01*
X0036800Y0099600D02*
X0036800Y0094000D01*
X0026800Y0094000D02*
X0026800Y0099600D01*
X0024300Y0136500D02*
X0024300Y0142100D01*
X0034300Y0142100D02*
X0034300Y0136500D01*
X0044300Y0136500D02*
X0044300Y0142100D01*
D17*
X0114300Y0032862D02*
X0114300Y0025738D01*
X0124300Y0025738D02*
X0124300Y0032862D01*
X0134300Y0032862D02*
X0134300Y0025738D01*
D18*
X0034300Y0016800D03*
X0044300Y0016800D03*
D19*
X0061200Y0021800D03*
X0079300Y0021800D03*
X0097400Y0021800D03*
X0097400Y0044300D03*
X0079300Y0044300D03*
X0061200Y0044300D03*
M02*
