G75*
%MOIN*%
%OFA0B0*%
%FSLAX25Y25*%
%IPPOS*%
%LPD*%
%AMOC8*
5,1,8,0,0,1.08239X$1,22.5*
%
%ADD10R,0.07087X0.06299*%
%ADD11R,0.06299X0.07087*%
%ADD12R,0.08800X0.04800*%
%ADD13R,0.08661X0.14173*%
%ADD14C,0.05600*%
%ADD15C,0.06400*%
%ADD16R,0.07087X0.12598*%
%ADD17C,0.05600*%
%ADD18R,0.12598X0.07087*%
%ADD19C,0.07124*%
%ADD20OC8,0.05600*%
%ADD21C,0.05550*%
%ADD22C,0.01600*%
%ADD23C,0.04362*%
D10*
X0114300Y0083788D03*
X0114300Y0094812D03*
X0169300Y0091288D03*
X0169300Y0102312D03*
X0219300Y0084812D03*
X0219300Y0073788D03*
X0274300Y0052312D03*
X0274300Y0041288D03*
X0154300Y0041288D03*
X0154300Y0052312D03*
D11*
X0181288Y0089300D03*
X0192312Y0089300D03*
X0072312Y0159300D03*
X0061288Y0159300D03*
X0078788Y0171800D03*
X0089812Y0171800D03*
X0034812Y0079300D03*
X0023788Y0079300D03*
D12*
X0206500Y0070900D03*
X0206500Y0061800D03*
X0206500Y0052700D03*
X0234600Y0067700D03*
X0234600Y0076800D03*
X0234600Y0085900D03*
D13*
X0259001Y0076800D03*
X0182099Y0061800D03*
D14*
X0096800Y0064300D03*
X0096800Y0074300D03*
X0096800Y0084300D03*
X0096800Y0094300D03*
X0096800Y0116800D03*
X0096800Y0126800D03*
X0096800Y0136800D03*
X0096800Y0146800D03*
X0066800Y0146800D03*
X0066800Y0136800D03*
X0066800Y0126800D03*
X0066800Y0116800D03*
X0066800Y0094300D03*
X0066800Y0084300D03*
X0066800Y0074300D03*
X0066800Y0064300D03*
D15*
X0113600Y0116800D02*
X0120000Y0116800D01*
X0134300Y0116100D02*
X0134300Y0122500D01*
X0144300Y0122500D02*
X0144300Y0116100D01*
X0154300Y0116100D02*
X0154300Y0122500D01*
X0164300Y0122500D02*
X0164300Y0116100D01*
X0174300Y0116100D02*
X0174300Y0122500D01*
X0184300Y0122500D02*
X0184300Y0116100D01*
X0194300Y0116100D02*
X0194300Y0122500D01*
X0204300Y0122500D02*
X0204300Y0116100D01*
X0214300Y0116100D02*
X0214300Y0122500D01*
X0224300Y0122500D02*
X0224300Y0116100D01*
X0234300Y0116100D02*
X0234300Y0122500D01*
X0244300Y0122500D02*
X0244300Y0116100D01*
X0254300Y0116100D02*
X0254300Y0122500D01*
X0264300Y0122500D02*
X0264300Y0116100D01*
X0254300Y0107500D02*
X0254300Y0101100D01*
X0244300Y0101100D02*
X0244300Y0107500D01*
X0234300Y0107500D02*
X0234300Y0101100D01*
X0224300Y0101100D02*
X0224300Y0107500D01*
X0214300Y0107500D02*
X0214300Y0101100D01*
X0204300Y0101100D02*
X0204300Y0107500D01*
X0194300Y0107500D02*
X0194300Y0101100D01*
X0184300Y0101100D02*
X0184300Y0107500D01*
X0184300Y0136100D02*
X0184300Y0142500D01*
X0194300Y0142500D02*
X0194300Y0136100D01*
X0204300Y0136100D02*
X0204300Y0142500D01*
X0214300Y0142500D02*
X0214300Y0136100D01*
X0224300Y0136100D02*
X0224300Y0142500D01*
X0234300Y0142500D02*
X0234300Y0136100D01*
X0244300Y0136100D02*
X0244300Y0142500D01*
X0254300Y0142500D02*
X0254300Y0136100D01*
X0264300Y0136100D02*
X0264300Y0142500D01*
X0264300Y0151100D02*
X0264300Y0157500D01*
X0254300Y0157500D02*
X0254300Y0151100D01*
X0244300Y0151100D02*
X0244300Y0157500D01*
X0234300Y0157500D02*
X0234300Y0151100D01*
X0224300Y0151100D02*
X0224300Y0157500D01*
X0214300Y0157500D02*
X0214300Y0151100D01*
X0204300Y0151100D02*
X0204300Y0157500D01*
X0194300Y0157500D02*
X0194300Y0151100D01*
X0184300Y0151100D02*
X0184300Y0157500D01*
X0174300Y0157500D02*
X0174300Y0151100D01*
X0164300Y0151100D02*
X0164300Y0157500D01*
X0154300Y0157500D02*
X0154300Y0151100D01*
X0154300Y0142500D02*
X0154300Y0136100D01*
X0164300Y0136100D02*
X0164300Y0142500D01*
X0174300Y0142500D02*
X0174300Y0136100D01*
X0144300Y0136100D02*
X0144300Y0142500D01*
X0134300Y0142500D02*
X0134300Y0136100D01*
X0120000Y0126800D02*
X0113600Y0126800D01*
D16*
X0110776Y0159300D03*
X0132824Y0159300D03*
X0037824Y0171800D03*
X0015776Y0171800D03*
X0193276Y0036800D03*
X0215324Y0036800D03*
D17*
X0046800Y0094000D02*
X0046800Y0099600D01*
X0036800Y0099600D02*
X0036800Y0094000D01*
X0026800Y0094000D02*
X0026800Y0099600D01*
X0024300Y0136500D02*
X0024300Y0142100D01*
X0034300Y0142100D02*
X0034300Y0136500D01*
X0044300Y0136500D02*
X0044300Y0142100D01*
D18*
X0134300Y0090324D03*
X0154300Y0083276D03*
X0134300Y0068276D03*
X0116800Y0067824D03*
X0116800Y0045776D03*
X0166800Y0035776D03*
X0166800Y0057824D03*
X0154300Y0105324D03*
X0239300Y0052824D03*
X0259300Y0047824D03*
X0239300Y0030776D03*
X0259300Y0025776D03*
X0041800Y0030776D03*
X0041800Y0052824D03*
D19*
X0114300Y0032862D02*
X0114300Y0025738D01*
X0124300Y0025738D02*
X0124300Y0032862D01*
X0134300Y0032862D02*
X0134300Y0025738D01*
D20*
X0044300Y0016800D03*
X0034300Y0016800D03*
D21*
X0061200Y0021800D03*
X0079300Y0021800D03*
X0097400Y0021800D03*
X0097400Y0044300D03*
X0079300Y0044300D03*
X0061200Y0044300D03*
D22*
X0004200Y0004200D02*
X0004200Y0184361D01*
X0285601Y0184361D01*
X0285601Y0004200D01*
X0004200Y0004200D01*
X0004200Y0004300D02*
X0285601Y0004300D01*
X0285601Y0005899D02*
X0082377Y0005899D01*
X0081895Y0005416D02*
X0083184Y0006705D01*
X0083881Y0008389D01*
X0083881Y0010211D01*
X0083184Y0011895D01*
X0082500Y0012579D01*
X0082500Y0017682D01*
X0083687Y0018869D01*
X0084475Y0020771D01*
X0084475Y0021795D01*
X0088887Y0012970D01*
X0089087Y0012487D01*
X0089170Y0012404D01*
X0089222Y0012300D01*
X0089618Y0011957D01*
X0089987Y0011587D01*
X0090096Y0011542D01*
X0090184Y0011466D01*
X0090680Y0011300D01*
X0091163Y0011100D01*
X0091281Y0011100D01*
X0091392Y0011063D01*
X0091914Y0011100D01*
X0141487Y0011100D01*
X0141803Y0011037D01*
X0142117Y0011100D01*
X0142437Y0011100D01*
X0142735Y0011224D01*
X0143052Y0011287D01*
X0143317Y0011465D01*
X0143613Y0011587D01*
X0143841Y0011816D01*
X0144109Y0011995D01*
X0144287Y0012261D01*
X0144513Y0012487D01*
X0144636Y0012786D01*
X0149287Y0019761D01*
X0149513Y0019987D01*
X0149636Y0020286D01*
X0149816Y0020555D01*
X0149878Y0020868D01*
X0150000Y0021163D01*
X0150000Y0021487D01*
X0150063Y0021803D01*
X0150000Y0022117D01*
X0150000Y0036497D01*
X0150062Y0036461D01*
X0150520Y0036339D01*
X0153525Y0036339D01*
X0153525Y0040513D01*
X0155075Y0040513D01*
X0155075Y0036339D01*
X0158080Y0036339D01*
X0158101Y0036344D01*
X0158101Y0031756D01*
X0158466Y0030874D01*
X0159141Y0030198D01*
X0160023Y0029833D01*
X0166150Y0029833D01*
X0171498Y0022703D01*
X0171587Y0022487D01*
X0171876Y0022198D01*
X0172122Y0021871D01*
X0172323Y0021752D01*
X0172487Y0021587D01*
X0172865Y0021431D01*
X0173217Y0021222D01*
X0173448Y0021189D01*
X0173663Y0021100D01*
X0174073Y0021100D01*
X0174478Y0021042D01*
X0174703Y0021100D01*
X0212437Y0021100D01*
X0213613Y0021587D01*
X0218613Y0026587D01*
X0219513Y0027487D01*
X0219854Y0028312D01*
X0220226Y0028466D01*
X0220902Y0029141D01*
X0221267Y0030023D01*
X0221267Y0043577D01*
X0220902Y0044459D01*
X0220226Y0045134D01*
X0219344Y0045499D01*
X0218524Y0045499D01*
X0218524Y0066413D01*
X0218036Y0067589D01*
X0216787Y0068839D01*
X0218525Y0068839D01*
X0218525Y0073013D01*
X0220075Y0073013D01*
X0220075Y0068839D01*
X0223080Y0068839D01*
X0223538Y0068961D01*
X0223949Y0069198D01*
X0224284Y0069533D01*
X0224521Y0069944D01*
X0224643Y0070402D01*
X0224643Y0073013D01*
X0220075Y0073013D01*
X0220075Y0074563D01*
X0224643Y0074563D01*
X0224643Y0077175D01*
X0224521Y0077633D01*
X0224284Y0078043D01*
X0223949Y0078378D01*
X0223538Y0078615D01*
X0223080Y0078738D01*
X0220075Y0078738D01*
X0220075Y0074563D01*
X0218525Y0074563D01*
X0218525Y0073013D01*
X0213957Y0073013D01*
X0213957Y0071669D01*
X0213613Y0072013D01*
X0213300Y0072142D01*
X0213300Y0073777D01*
X0212935Y0074659D01*
X0212259Y0075335D01*
X0211377Y0075700D01*
X0202725Y0075700D01*
X0208125Y0081100D01*
X0213392Y0081100D01*
X0213722Y0080303D01*
X0214397Y0079628D01*
X0215279Y0079262D01*
X0223321Y0079262D01*
X0224203Y0079628D01*
X0224878Y0080303D01*
X0225243Y0081185D01*
X0225243Y0081612D01*
X0228694Y0081612D01*
X0228841Y0081465D01*
X0229119Y0081350D01*
X0228841Y0081235D01*
X0228165Y0080559D01*
X0227800Y0079677D01*
X0227800Y0073923D01*
X0228165Y0073041D01*
X0228841Y0072365D01*
X0229119Y0072250D01*
X0228841Y0072135D01*
X0228165Y0071459D01*
X0227800Y0070577D01*
X0227800Y0064823D01*
X0228165Y0063941D01*
X0228841Y0063265D01*
X0229723Y0062900D01*
X0231400Y0062900D01*
X0231400Y0058160D01*
X0230966Y0057726D01*
X0230601Y0056844D01*
X0230601Y0048803D01*
X0230966Y0047921D01*
X0231641Y0047246D01*
X0232523Y0046880D01*
X0240718Y0046880D01*
X0255878Y0031720D01*
X0252523Y0031720D01*
X0251641Y0031354D01*
X0250966Y0030679D01*
X0250601Y0029797D01*
X0250601Y0021756D01*
X0250966Y0020874D01*
X0251641Y0020198D01*
X0252523Y0019833D01*
X0266077Y0019833D01*
X0266959Y0020198D01*
X0267634Y0020874D01*
X0267999Y0021756D01*
X0267999Y0029797D01*
X0267634Y0030679D01*
X0266959Y0031354D01*
X0266077Y0031720D01*
X0262500Y0031720D01*
X0262500Y0033460D01*
X0262013Y0034636D01*
X0254769Y0041880D01*
X0266077Y0041880D01*
X0266959Y0042246D01*
X0267634Y0042921D01*
X0267999Y0043803D01*
X0267999Y0049112D01*
X0268357Y0049112D01*
X0268357Y0048685D01*
X0268722Y0047803D01*
X0269397Y0047128D01*
X0270279Y0046762D01*
X0278321Y0046762D01*
X0279203Y0047128D01*
X0279878Y0047803D01*
X0280243Y0048685D01*
X0280243Y0055939D01*
X0279878Y0056821D01*
X0279203Y0057496D01*
X0278321Y0057861D01*
X0270279Y0057861D01*
X0269397Y0057496D01*
X0268722Y0056821D01*
X0268357Y0055939D01*
X0268357Y0055512D01*
X0265000Y0055512D01*
X0265000Y0067988D01*
X0265366Y0068354D01*
X0265731Y0069236D01*
X0265731Y0076206D01*
X0276113Y0086587D01*
X0277013Y0087487D01*
X0277500Y0088663D01*
X0277500Y0164937D01*
X0277013Y0166113D01*
X0274513Y0168613D01*
X0273613Y0169513D01*
X0272437Y0170000D01*
X0142640Y0170000D01*
X0141464Y0169513D01*
X0138550Y0166599D01*
X0138402Y0166959D01*
X0137726Y0167634D01*
X0136844Y0167999D01*
X0128803Y0167999D01*
X0127921Y0167634D01*
X0127246Y0166959D01*
X0126880Y0166077D01*
X0126880Y0152523D01*
X0127246Y0151641D01*
X0127921Y0150966D01*
X0128803Y0150601D01*
X0131100Y0150601D01*
X0131100Y0147220D01*
X0129553Y0145672D01*
X0128700Y0143614D01*
X0128700Y0134986D01*
X0129553Y0132928D01*
X0131128Y0131353D01*
X0133186Y0130500D01*
X0135414Y0130500D01*
X0137472Y0131353D01*
X0139047Y0132928D01*
X0139300Y0133538D01*
X0139553Y0132928D01*
X0141128Y0131353D01*
X0143186Y0130500D01*
X0145414Y0130500D01*
X0147472Y0131353D01*
X0149047Y0132928D01*
X0149300Y0133538D01*
X0149553Y0132928D01*
X0151128Y0131353D01*
X0153186Y0130500D01*
X0155414Y0130500D01*
X0157472Y0131353D01*
X0159047Y0132928D01*
X0159300Y0133538D01*
X0159553Y0132928D01*
X0161128Y0131353D01*
X0163186Y0130500D01*
X0165414Y0130500D01*
X0167472Y0131353D01*
X0169047Y0132928D01*
X0169300Y0133538D01*
X0169553Y0132928D01*
X0171128Y0131353D01*
X0173186Y0130500D01*
X0175414Y0130500D01*
X0177472Y0131353D01*
X0179047Y0132928D01*
X0179300Y0133538D01*
X0179553Y0132928D01*
X0181128Y0131353D01*
X0183186Y0130500D01*
X0185414Y0130500D01*
X0187472Y0131353D01*
X0189047Y0132928D01*
X0189300Y0133538D01*
X0189553Y0132928D01*
X0191128Y0131353D01*
X0193186Y0130500D01*
X0195414Y0130500D01*
X0197472Y0131353D01*
X0199047Y0132928D01*
X0199300Y0133538D01*
X0199553Y0132928D01*
X0201128Y0131353D01*
X0203186Y0130500D01*
X0205414Y0130500D01*
X0207472Y0131353D01*
X0209047Y0132928D01*
X0209300Y0133538D01*
X0209553Y0132928D01*
X0211128Y0131353D01*
X0213186Y0130500D01*
X0215414Y0130500D01*
X0217472Y0131353D01*
X0219047Y0132928D01*
X0219300Y0133538D01*
X0219553Y0132928D01*
X0221128Y0131353D01*
X0223186Y0130500D01*
X0225414Y0130500D01*
X0227472Y0131353D01*
X0229047Y0132928D01*
X0229300Y0133538D01*
X0229553Y0132928D01*
X0231128Y0131353D01*
X0233186Y0130500D01*
X0235414Y0130500D01*
X0237472Y0131353D01*
X0239047Y0132928D01*
X0239300Y0133538D01*
X0239553Y0132928D01*
X0241128Y0131353D01*
X0243186Y0130500D01*
X0245414Y0130500D01*
X0247472Y0131353D01*
X0249047Y0132928D01*
X0249300Y0133538D01*
X0249553Y0132928D01*
X0251128Y0131353D01*
X0253186Y0130500D01*
X0255414Y0130500D01*
X0257472Y0131353D01*
X0259047Y0132928D01*
X0259300Y0133538D01*
X0259553Y0132928D01*
X0261128Y0131353D01*
X0263186Y0130500D01*
X0265414Y0130500D01*
X0267472Y0131353D01*
X0269047Y0132928D01*
X0269900Y0134986D01*
X0269900Y0143614D01*
X0269047Y0145672D01*
X0267920Y0146800D01*
X0269047Y0147928D01*
X0269900Y0149986D01*
X0269900Y0158614D01*
X0269047Y0160672D01*
X0267472Y0162247D01*
X0265414Y0163100D01*
X0263186Y0163100D01*
X0261128Y0162247D01*
X0259553Y0160672D01*
X0259300Y0160062D01*
X0259047Y0160672D01*
X0257472Y0162247D01*
X0255414Y0163100D01*
X0253186Y0163100D01*
X0251128Y0162247D01*
X0249553Y0160672D01*
X0249300Y0160062D01*
X0249047Y0160672D01*
X0247472Y0162247D01*
X0245414Y0163100D01*
X0243186Y0163100D01*
X0241128Y0162247D01*
X0239553Y0160672D01*
X0239300Y0160062D01*
X0239047Y0160672D01*
X0237472Y0162247D01*
X0235414Y0163100D01*
X0233186Y0163100D01*
X0231128Y0162247D01*
X0229553Y0160672D01*
X0229300Y0160062D01*
X0229047Y0160672D01*
X0227472Y0162247D01*
X0225414Y0163100D01*
X0223186Y0163100D01*
X0221128Y0162247D01*
X0219553Y0160672D01*
X0219300Y0160062D01*
X0219047Y0160672D01*
X0217472Y0162247D01*
X0215414Y0163100D01*
X0213186Y0163100D01*
X0211128Y0162247D01*
X0209553Y0160672D01*
X0209300Y0160062D01*
X0209047Y0160672D01*
X0207472Y0162247D01*
X0205414Y0163100D01*
X0203186Y0163100D01*
X0201128Y0162247D01*
X0199553Y0160672D01*
X0199300Y0160062D01*
X0199047Y0160672D01*
X0197472Y0162247D01*
X0195414Y0163100D01*
X0193186Y0163100D01*
X0191128Y0162247D01*
X0189553Y0160672D01*
X0189300Y0160062D01*
X0189047Y0160672D01*
X0187472Y0162247D01*
X0185414Y0163100D01*
X0183186Y0163100D01*
X0181128Y0162247D01*
X0179553Y0160672D01*
X0179300Y0160062D01*
X0179047Y0160672D01*
X0177472Y0162247D01*
X0175414Y0163100D01*
X0173186Y0163100D01*
X0171128Y0162247D01*
X0169553Y0160672D01*
X0169300Y0160062D01*
X0169047Y0160672D01*
X0167472Y0162247D01*
X0165414Y0163100D01*
X0163186Y0163100D01*
X0161128Y0162247D01*
X0159553Y0160672D01*
X0159300Y0160062D01*
X0159047Y0160672D01*
X0157472Y0162247D01*
X0155414Y0163100D01*
X0153186Y0163100D01*
X0151128Y0162247D01*
X0149553Y0160672D01*
X0148700Y0158614D01*
X0148700Y0149986D01*
X0149553Y0147928D01*
X0150680Y0146800D01*
X0149553Y0145672D01*
X0149300Y0145062D01*
X0149047Y0145672D01*
X0147472Y0147247D01*
X0145414Y0148100D01*
X0143186Y0148100D01*
X0141128Y0147247D01*
X0139553Y0145672D01*
X0139300Y0145062D01*
X0139047Y0145672D01*
X0137500Y0147220D01*
X0137500Y0150872D01*
X0137726Y0150966D01*
X0138402Y0151641D01*
X0138767Y0152523D01*
X0138767Y0157765D01*
X0144602Y0163600D01*
X0270475Y0163600D01*
X0271100Y0162975D01*
X0271100Y0090625D01*
X0265470Y0084995D01*
X0265366Y0085246D01*
X0264691Y0085921D01*
X0263809Y0086287D01*
X0254193Y0086287D01*
X0253311Y0085921D01*
X0252635Y0085246D01*
X0252270Y0084364D01*
X0252270Y0069236D01*
X0252635Y0068354D01*
X0253311Y0067679D01*
X0254193Y0067313D01*
X0258600Y0067313D01*
X0258600Y0053767D01*
X0252523Y0053767D01*
X0251641Y0053402D01*
X0250966Y0052726D01*
X0250601Y0051844D01*
X0250601Y0046048D01*
X0247954Y0048695D01*
X0247999Y0048803D01*
X0247999Y0056844D01*
X0247634Y0057726D01*
X0246959Y0058402D01*
X0246077Y0058767D01*
X0237800Y0058767D01*
X0237800Y0062900D01*
X0239477Y0062900D01*
X0240359Y0063265D01*
X0241035Y0063941D01*
X0241400Y0064823D01*
X0241400Y0070577D01*
X0241035Y0071459D01*
X0240359Y0072135D01*
X0240081Y0072250D01*
X0240359Y0072365D01*
X0241035Y0073041D01*
X0241400Y0073923D01*
X0241400Y0079677D01*
X0241035Y0080559D01*
X0240359Y0081235D01*
X0240081Y0081350D01*
X0240359Y0081465D01*
X0241035Y0082141D01*
X0241400Y0083023D01*
X0241400Y0088777D01*
X0241035Y0089659D01*
X0240359Y0090335D01*
X0239477Y0090700D01*
X0229723Y0090700D01*
X0228841Y0090335D01*
X0228165Y0089659D01*
X0227800Y0088777D01*
X0227800Y0088012D01*
X0225243Y0088012D01*
X0225243Y0088439D01*
X0224878Y0089321D01*
X0224203Y0089996D01*
X0223321Y0090361D01*
X0215279Y0090361D01*
X0214397Y0089996D01*
X0213722Y0089321D01*
X0213357Y0088439D01*
X0213357Y0087500D01*
X0206163Y0087500D01*
X0204987Y0087013D01*
X0204087Y0086113D01*
X0204087Y0086113D01*
X0188343Y0070368D01*
X0187789Y0070921D01*
X0186907Y0071287D01*
X0177291Y0071287D01*
X0176409Y0070921D01*
X0175734Y0070246D01*
X0175369Y0069364D01*
X0175369Y0065000D01*
X0173654Y0065000D01*
X0173402Y0065060D01*
X0173023Y0065000D01*
X0172640Y0065000D01*
X0172400Y0064901D01*
X0172144Y0064860D01*
X0171818Y0064660D01*
X0171464Y0064513D01*
X0171280Y0064330D01*
X0170364Y0063767D01*
X0164961Y0063767D01*
X0149816Y0077333D01*
X0161077Y0077333D01*
X0161959Y0077698D01*
X0162634Y0078374D01*
X0162728Y0078600D01*
X0172437Y0078600D01*
X0173613Y0079087D01*
X0174513Y0079987D01*
X0177882Y0083357D01*
X0184915Y0083357D01*
X0185797Y0083722D01*
X0186472Y0084397D01*
X0186838Y0085279D01*
X0186838Y0093321D01*
X0186472Y0094203D01*
X0185797Y0094878D01*
X0184915Y0095243D01*
X0181274Y0095243D01*
X0180000Y0097227D01*
X0180000Y0097480D01*
X0181128Y0096353D01*
X0183186Y0095500D01*
X0185414Y0095500D01*
X0187472Y0096353D01*
X0189047Y0097928D01*
X0189300Y0098538D01*
X0189553Y0097928D01*
X0191128Y0096353D01*
X0193186Y0095500D01*
X0195414Y0095500D01*
X0197472Y0096353D01*
X0199047Y0097928D01*
X0199300Y0098538D01*
X0199553Y0097928D01*
X0201128Y0096353D01*
X0203186Y0095500D01*
X0205414Y0095500D01*
X0207472Y0096353D01*
X0209047Y0097928D01*
X0209300Y0098538D01*
X0209553Y0097928D01*
X0211128Y0096353D01*
X0213186Y0095500D01*
X0215414Y0095500D01*
X0217472Y0096353D01*
X0219047Y0097928D01*
X0219300Y0098538D01*
X0219553Y0097928D01*
X0221128Y0096353D01*
X0223186Y0095500D01*
X0225414Y0095500D01*
X0227472Y0096353D01*
X0229047Y0097928D01*
X0229300Y0098538D01*
X0229553Y0097928D01*
X0231128Y0096353D01*
X0233186Y0095500D01*
X0235414Y0095500D01*
X0237472Y0096353D01*
X0239047Y0097928D01*
X0239300Y0098538D01*
X0239553Y0097928D01*
X0241128Y0096353D01*
X0243186Y0095500D01*
X0245414Y0095500D01*
X0247472Y0096353D01*
X0249047Y0097928D01*
X0249300Y0098538D01*
X0249553Y0097928D01*
X0251128Y0096353D01*
X0253186Y0095500D01*
X0255414Y0095500D01*
X0257472Y0096353D01*
X0259047Y0097928D01*
X0259900Y0099986D01*
X0259900Y0108614D01*
X0259047Y0110672D01*
X0257920Y0111800D01*
X0259047Y0112928D01*
X0259622Y0114316D01*
X0259666Y0114181D01*
X0260024Y0113479D01*
X0260486Y0112843D01*
X0261043Y0112286D01*
X0261679Y0111824D01*
X0262381Y0111466D01*
X0263129Y0111223D01*
X0263906Y0111100D01*
X0264100Y0111100D01*
X0264100Y0119100D01*
X0264500Y0119100D01*
X0264500Y0119500D01*
X0264100Y0119500D01*
X0264100Y0127500D01*
X0263906Y0127500D01*
X0263129Y0127377D01*
X0262381Y0127134D01*
X0261679Y0126776D01*
X0261043Y0126314D01*
X0260486Y0125757D01*
X0260024Y0125121D01*
X0259666Y0124419D01*
X0259622Y0124284D01*
X0259047Y0125672D01*
X0257472Y0127247D01*
X0255414Y0128100D01*
X0253186Y0128100D01*
X0251128Y0127247D01*
X0249553Y0125672D01*
X0249300Y0125062D01*
X0249047Y0125672D01*
X0247472Y0127247D01*
X0245414Y0128100D01*
X0243186Y0128100D01*
X0241128Y0127247D01*
X0239553Y0125672D01*
X0239300Y0125062D01*
X0239047Y0125672D01*
X0237472Y0127247D01*
X0235414Y0128100D01*
X0233186Y0128100D01*
X0231128Y0127247D01*
X0229553Y0125672D01*
X0229300Y0125062D01*
X0229047Y0125672D01*
X0227472Y0127247D01*
X0225414Y0128100D01*
X0223186Y0128100D01*
X0221128Y0127247D01*
X0219553Y0125672D01*
X0219300Y0125062D01*
X0219047Y0125672D01*
X0217472Y0127247D01*
X0215414Y0128100D01*
X0213186Y0128100D01*
X0211128Y0127247D01*
X0209553Y0125672D01*
X0209300Y0125062D01*
X0209047Y0125672D01*
X0207472Y0127247D01*
X0205414Y0128100D01*
X0203186Y0128100D01*
X0201128Y0127247D01*
X0199553Y0125672D01*
X0199300Y0125062D01*
X0199047Y0125672D01*
X0197472Y0127247D01*
X0195414Y0128100D01*
X0193186Y0128100D01*
X0191128Y0127247D01*
X0189553Y0125672D01*
X0189300Y0125062D01*
X0189047Y0125672D01*
X0187472Y0127247D01*
X0185414Y0128100D01*
X0183186Y0128100D01*
X0181128Y0127247D01*
X0179553Y0125672D01*
X0178978Y0124284D01*
X0178934Y0124419D01*
X0178576Y0125121D01*
X0178114Y0125757D01*
X0177557Y0126314D01*
X0176921Y0126776D01*
X0176219Y0127134D01*
X0175471Y0127377D01*
X0174694Y0127500D01*
X0174500Y0127500D01*
X0174500Y0119500D01*
X0174100Y0119500D01*
X0174100Y0127500D01*
X0173906Y0127500D01*
X0173129Y0127377D01*
X0172381Y0127134D01*
X0171679Y0126776D01*
X0171043Y0126314D01*
X0170486Y0125757D01*
X0170024Y0125121D01*
X0169666Y0124419D01*
X0169622Y0124284D01*
X0169047Y0125672D01*
X0167472Y0127247D01*
X0165414Y0128100D01*
X0163186Y0128100D01*
X0161128Y0127247D01*
X0159553Y0125672D01*
X0159300Y0125062D01*
X0159047Y0125672D01*
X0157472Y0127247D01*
X0155414Y0128100D01*
X0153186Y0128100D01*
X0151128Y0127247D01*
X0149553Y0125672D01*
X0148978Y0124284D01*
X0148934Y0124419D01*
X0148576Y0125121D01*
X0148114Y0125757D01*
X0147557Y0126314D01*
X0146921Y0126776D01*
X0146219Y0127134D01*
X0145471Y0127377D01*
X0144694Y0127500D01*
X0144500Y0127500D01*
X0144500Y0119500D01*
X0144100Y0119500D01*
X0144100Y0127500D01*
X0143906Y0127500D01*
X0143129Y0127377D01*
X0142381Y0127134D01*
X0141679Y0126776D01*
X0141043Y0126314D01*
X0140486Y0125757D01*
X0140024Y0125121D01*
X0139666Y0124419D01*
X0139622Y0124284D01*
X0139047Y0125672D01*
X0137472Y0127247D01*
X0135414Y0128100D01*
X0133186Y0128100D01*
X0131128Y0127247D01*
X0129553Y0125672D01*
X0128700Y0123614D01*
X0128700Y0114986D01*
X0129553Y0112928D01*
X0131100Y0111380D01*
X0131100Y0096267D01*
X0127523Y0096267D01*
X0126641Y0095902D01*
X0125966Y0095226D01*
X0125601Y0094344D01*
X0125601Y0086303D01*
X0125966Y0085421D01*
X0126641Y0084746D01*
X0127523Y0084380D01*
X0141077Y0084380D01*
X0141959Y0084746D01*
X0142634Y0085421D01*
X0142999Y0086303D01*
X0142999Y0094344D01*
X0142634Y0095226D01*
X0141959Y0095902D01*
X0141077Y0096267D01*
X0137500Y0096267D01*
X0137500Y0102124D01*
X0145601Y0102124D01*
X0145601Y0101303D01*
X0145966Y0100421D01*
X0146641Y0099746D01*
X0147523Y0099380D01*
X0161077Y0099380D01*
X0161959Y0099746D01*
X0162634Y0100421D01*
X0162999Y0101303D01*
X0162999Y0106075D01*
X0163357Y0105718D01*
X0163357Y0098685D01*
X0163722Y0097803D01*
X0164397Y0097128D01*
X0165279Y0096762D01*
X0173321Y0096762D01*
X0173600Y0096878D01*
X0173600Y0096633D01*
X0173538Y0096347D01*
X0173585Y0096088D01*
X0173538Y0096115D01*
X0173080Y0096238D01*
X0170075Y0096238D01*
X0170075Y0092063D01*
X0174643Y0092063D01*
X0174643Y0093725D01*
X0175739Y0092019D01*
X0175739Y0089693D01*
X0174842Y0089153D01*
X0174643Y0089070D01*
X0174643Y0090513D01*
X0170075Y0090513D01*
X0170075Y0086339D01*
X0171813Y0086339D01*
X0170475Y0085000D01*
X0162999Y0085000D01*
X0162999Y0087297D01*
X0162634Y0088179D01*
X0161959Y0088854D01*
X0161077Y0089220D01*
X0147523Y0089220D01*
X0146641Y0088854D01*
X0145966Y0088179D01*
X0145601Y0087297D01*
X0145601Y0081108D01*
X0145024Y0081625D01*
X0144636Y0082013D01*
X0144552Y0082048D01*
X0144485Y0082108D01*
X0143967Y0082290D01*
X0143460Y0082500D01*
X0143369Y0082500D01*
X0143283Y0082530D01*
X0142736Y0082500D01*
X0123125Y0082500D01*
X0120243Y0085382D01*
X0120243Y0087415D01*
X0119878Y0088297D01*
X0119203Y0088972D01*
X0118321Y0089338D01*
X0110279Y0089338D01*
X0109397Y0088972D01*
X0108722Y0088297D01*
X0108405Y0087531D01*
X0108304Y0087500D01*
X0107500Y0087500D01*
X0107500Y0132437D01*
X0107013Y0133613D01*
X0106113Y0134513D01*
X0101441Y0139185D01*
X0101208Y0139746D01*
X0099746Y0141208D01*
X0098317Y0141800D01*
X0099746Y0142392D01*
X0101208Y0143854D01*
X0102000Y0145766D01*
X0102000Y0147834D01*
X0101208Y0149746D01*
X0099746Y0151208D01*
X0097834Y0152000D01*
X0095766Y0152000D01*
X0093854Y0151208D01*
X0092392Y0149746D01*
X0091600Y0147834D01*
X0091600Y0145766D01*
X0092392Y0143854D01*
X0093854Y0142392D01*
X0095283Y0141800D01*
X0093854Y0141208D01*
X0092392Y0139746D01*
X0091600Y0137834D01*
X0091600Y0135766D01*
X0092392Y0133854D01*
X0093854Y0132392D01*
X0095283Y0131800D01*
X0093854Y0131208D01*
X0092646Y0130000D01*
X0088663Y0130000D01*
X0087487Y0129513D01*
X0084987Y0127013D01*
X0084087Y0126113D01*
X0083600Y0124937D01*
X0083600Y0110079D01*
X0082916Y0109395D01*
X0082219Y0107711D01*
X0082219Y0105889D01*
X0082916Y0104205D01*
X0084205Y0102916D01*
X0085889Y0102219D01*
X0087711Y0102219D01*
X0089395Y0102916D01*
X0090684Y0104205D01*
X0091381Y0105889D01*
X0091381Y0107711D01*
X0090684Y0109395D01*
X0090000Y0110079D01*
X0090000Y0122975D01*
X0090625Y0123600D01*
X0092646Y0123600D01*
X0093854Y0122392D01*
X0095283Y0121800D01*
X0093854Y0121208D01*
X0092392Y0119746D01*
X0091600Y0117834D01*
X0091600Y0115766D01*
X0092392Y0113854D01*
X0093854Y0112392D01*
X0095766Y0111600D01*
X0097834Y0111600D01*
X0099746Y0112392D01*
X0101100Y0113746D01*
X0101100Y0097354D01*
X0099746Y0098708D01*
X0097834Y0099500D01*
X0095766Y0099500D01*
X0093854Y0098708D01*
X0092392Y0097246D01*
X0091600Y0095334D01*
X0091600Y0093266D01*
X0092392Y0091354D01*
X0093854Y0089892D01*
X0095283Y0089300D01*
X0093854Y0088708D01*
X0092392Y0087246D01*
X0091600Y0085334D01*
X0091600Y0084025D01*
X0091113Y0084513D01*
X0091113Y0084513D01*
X0089513Y0086113D01*
X0088613Y0087013D01*
X0087437Y0087500D01*
X0070954Y0087500D01*
X0069746Y0088708D01*
X0068317Y0089300D01*
X0069746Y0089892D01*
X0071208Y0091354D01*
X0072000Y0093266D01*
X0072000Y0095334D01*
X0071208Y0097246D01*
X0069746Y0098708D01*
X0067834Y0099500D01*
X0065766Y0099500D01*
X0063854Y0098708D01*
X0062392Y0097246D01*
X0061600Y0095334D01*
X0061600Y0093266D01*
X0062392Y0091354D01*
X0063854Y0089892D01*
X0065283Y0089300D01*
X0063854Y0088708D01*
X0062646Y0087500D01*
X0044784Y0087500D01*
X0044639Y0087545D01*
X0044152Y0087500D01*
X0043663Y0087500D01*
X0043523Y0087442D01*
X0043371Y0087428D01*
X0042939Y0087200D01*
X0042487Y0087013D01*
X0042380Y0086905D01*
X0038880Y0085061D01*
X0038439Y0085243D01*
X0031185Y0085243D01*
X0030303Y0084878D01*
X0030000Y0084575D01*
X0030000Y0089846D01*
X0031208Y0091054D01*
X0032000Y0092966D01*
X0032000Y0100634D01*
X0031208Y0102546D01*
X0029746Y0104008D01*
X0027834Y0104800D01*
X0025766Y0104800D01*
X0023854Y0104008D01*
X0022392Y0102546D01*
X0021600Y0100634D01*
X0021600Y0092966D01*
X0022392Y0091054D01*
X0023600Y0089846D01*
X0023600Y0085243D01*
X0020161Y0085243D01*
X0019279Y0084878D01*
X0018604Y0084203D01*
X0018239Y0083321D01*
X0018239Y0075279D01*
X0018604Y0074397D01*
X0019279Y0073722D01*
X0020161Y0073357D01*
X0027415Y0073357D01*
X0028297Y0073722D01*
X0028972Y0074397D01*
X0029300Y0075188D01*
X0029628Y0074397D01*
X0030303Y0073722D01*
X0031185Y0073357D01*
X0038439Y0073357D01*
X0039321Y0073722D01*
X0039996Y0074397D01*
X0040361Y0075279D01*
X0040361Y0078607D01*
X0045092Y0081100D01*
X0062646Y0081100D01*
X0063854Y0079892D01*
X0065283Y0079300D01*
X0063854Y0078708D01*
X0062646Y0077500D01*
X0050079Y0077500D01*
X0049395Y0078184D01*
X0047711Y0078881D01*
X0045889Y0078881D01*
X0044205Y0078184D01*
X0042916Y0076895D01*
X0042219Y0075211D01*
X0042219Y0073389D01*
X0042916Y0071705D01*
X0044205Y0070416D01*
X0045889Y0069719D01*
X0047711Y0069719D01*
X0049395Y0070416D01*
X0050079Y0071100D01*
X0062646Y0071100D01*
X0063854Y0069892D01*
X0065283Y0069300D01*
X0063854Y0068708D01*
X0062646Y0067500D01*
X0057579Y0067500D01*
X0056895Y0068184D01*
X0055211Y0068881D01*
X0053389Y0068881D01*
X0051705Y0068184D01*
X0051021Y0067500D01*
X0023125Y0067500D01*
X0015000Y0075625D01*
X0015000Y0107700D01*
X0022867Y0113600D01*
X0062646Y0113600D01*
X0063854Y0112392D01*
X0065766Y0111600D01*
X0067834Y0111600D01*
X0069746Y0112392D01*
X0071208Y0113854D01*
X0072000Y0115766D01*
X0072000Y0117834D01*
X0071208Y0119746D01*
X0069746Y0121208D01*
X0068317Y0121800D01*
X0069746Y0122392D01*
X0071208Y0123854D01*
X0072000Y0125766D01*
X0072000Y0127475D01*
X0081501Y0136976D01*
X0081988Y0138152D01*
X0081988Y0165857D01*
X0082415Y0165857D01*
X0083297Y0166222D01*
X0083972Y0166897D01*
X0084300Y0167688D01*
X0084628Y0166897D01*
X0085303Y0166222D01*
X0086185Y0165857D01*
X0090468Y0165857D01*
X0097029Y0157656D01*
X0097099Y0157487D01*
X0097424Y0157163D01*
X0097711Y0156804D01*
X0097870Y0156716D01*
X0097999Y0156587D01*
X0098423Y0156411D01*
X0098826Y0156190D01*
X0099007Y0156170D01*
X0099175Y0156100D01*
X0099635Y0156100D01*
X0100091Y0156049D01*
X0100266Y0156100D01*
X0104833Y0156100D01*
X0104833Y0152523D01*
X0105198Y0151641D01*
X0105874Y0150966D01*
X0106756Y0150601D01*
X0113600Y0150601D01*
X0113600Y0132400D01*
X0112486Y0132400D01*
X0110428Y0131547D01*
X0108853Y0129972D01*
X0108000Y0127914D01*
X0108000Y0125686D01*
X0108853Y0123628D01*
X0110428Y0122053D01*
X0111816Y0121478D01*
X0111681Y0121434D01*
X0110979Y0121076D01*
X0110343Y0120614D01*
X0109786Y0120057D01*
X0109324Y0119421D01*
X0108966Y0118719D01*
X0108723Y0117971D01*
X0108600Y0117194D01*
X0108600Y0117000D01*
X0116600Y0117000D01*
X0116600Y0116600D01*
X0117000Y0116600D01*
X0117000Y0117000D01*
X0125000Y0117000D01*
X0125000Y0117194D01*
X0124877Y0117971D01*
X0124634Y0118719D01*
X0124276Y0119421D01*
X0123814Y0120057D01*
X0123257Y0120614D01*
X0122621Y0121076D01*
X0121919Y0121434D01*
X0121784Y0121478D01*
X0123172Y0122053D01*
X0124747Y0123628D01*
X0125600Y0125686D01*
X0125600Y0127914D01*
X0124747Y0129972D01*
X0123172Y0131547D01*
X0121114Y0132400D01*
X0120000Y0132400D01*
X0120000Y0155558D01*
X0120057Y0155971D01*
X0120000Y0156188D01*
X0120000Y0156413D01*
X0119840Y0156799D01*
X0119734Y0157203D01*
X0119599Y0157382D01*
X0119513Y0157589D01*
X0119218Y0157884D01*
X0118965Y0158217D01*
X0118771Y0158330D01*
X0118613Y0158489D01*
X0118227Y0158649D01*
X0116720Y0159531D01*
X0116720Y0166077D01*
X0116354Y0166959D01*
X0115679Y0167634D01*
X0114797Y0167999D01*
X0106756Y0167999D01*
X0105874Y0167634D01*
X0105198Y0166959D01*
X0104833Y0166077D01*
X0104833Y0162500D01*
X0101350Y0162500D01*
X0095361Y0169985D01*
X0095361Y0175821D01*
X0094996Y0176703D01*
X0094321Y0177378D01*
X0093439Y0177743D01*
X0086185Y0177743D01*
X0085303Y0177378D01*
X0084628Y0176703D01*
X0084300Y0175912D01*
X0083972Y0176703D01*
X0083297Y0177378D01*
X0082415Y0177743D01*
X0075161Y0177743D01*
X0074279Y0177378D01*
X0073604Y0176703D01*
X0073239Y0175821D01*
X0073239Y0175000D01*
X0043767Y0175000D01*
X0043767Y0178577D01*
X0043402Y0179459D01*
X0042726Y0180134D01*
X0041844Y0180499D01*
X0033803Y0180499D01*
X0032921Y0180134D01*
X0032246Y0179459D01*
X0031880Y0178577D01*
X0031880Y0165023D01*
X0032246Y0164141D01*
X0032921Y0163466D01*
X0033803Y0163101D01*
X0041844Y0163101D01*
X0042726Y0163466D01*
X0043402Y0164141D01*
X0043767Y0165023D01*
X0043767Y0168600D01*
X0073239Y0168600D01*
X0073239Y0167779D01*
X0073604Y0166897D01*
X0074279Y0166222D01*
X0075161Y0165857D01*
X0075588Y0165857D01*
X0075588Y0165243D01*
X0068685Y0165243D01*
X0067803Y0164878D01*
X0067128Y0164203D01*
X0066800Y0163412D01*
X0066472Y0164203D01*
X0065797Y0164878D01*
X0064915Y0165243D01*
X0057661Y0165243D01*
X0056779Y0164878D01*
X0056104Y0164203D01*
X0055739Y0163321D01*
X0055739Y0162500D01*
X0043663Y0162500D01*
X0042487Y0162013D01*
X0041587Y0161113D01*
X0041587Y0161113D01*
X0027060Y0146585D01*
X0025334Y0147300D01*
X0023266Y0147300D01*
X0021354Y0146508D01*
X0019892Y0145046D01*
X0019100Y0143134D01*
X0019100Y0135466D01*
X0019892Y0133554D01*
X0021354Y0132092D01*
X0023266Y0131300D01*
X0025334Y0131300D01*
X0027246Y0132092D01*
X0028708Y0133554D01*
X0029500Y0135466D01*
X0029500Y0139975D01*
X0029700Y0140175D01*
X0029700Y0139300D01*
X0034300Y0139300D01*
X0034300Y0134300D01*
X0029300Y0129300D01*
X0016800Y0129300D01*
X0015776Y0130324D01*
X0015776Y0171800D01*
X0014976Y0172144D02*
X0004200Y0172144D01*
X0004200Y0173742D02*
X0010433Y0173742D01*
X0010433Y0172600D02*
X0014976Y0172600D01*
X0014976Y0171000D01*
X0010433Y0171000D01*
X0010433Y0165264D01*
X0010556Y0164806D01*
X0010793Y0164396D01*
X0011128Y0164060D01*
X0011538Y0163823D01*
X0011996Y0163701D01*
X0014976Y0163701D01*
X0014976Y0171000D01*
X0016576Y0171000D01*
X0016576Y0163701D01*
X0019557Y0163701D01*
X0020014Y0163823D01*
X0020425Y0164060D01*
X0020760Y0164396D01*
X0020997Y0164806D01*
X0021120Y0165264D01*
X0021120Y0171000D01*
X0016576Y0171000D01*
X0016576Y0172600D01*
X0014976Y0172600D01*
X0014976Y0179899D01*
X0011996Y0179899D01*
X0011538Y0179777D01*
X0011128Y0179540D01*
X0010793Y0179204D01*
X0010556Y0178794D01*
X0010433Y0178336D01*
X0010433Y0172600D01*
X0010433Y0170545D02*
X0004200Y0170545D01*
X0004200Y0168947D02*
X0010433Y0168947D01*
X0010433Y0167348D02*
X0004200Y0167348D01*
X0004200Y0165750D02*
X0010433Y0165750D01*
X0011037Y0164151D02*
X0004200Y0164151D01*
X0004200Y0162553D02*
X0055739Y0162553D01*
X0056083Y0164151D02*
X0043406Y0164151D01*
X0043767Y0165750D02*
X0075588Y0165750D01*
X0073417Y0167348D02*
X0043767Y0167348D01*
X0041429Y0160954D02*
X0004200Y0160954D01*
X0004200Y0159356D02*
X0039830Y0159356D01*
X0038232Y0157757D02*
X0004200Y0157757D01*
X0004200Y0156159D02*
X0036633Y0156159D01*
X0035035Y0154560D02*
X0004200Y0154560D01*
X0004200Y0152962D02*
X0033436Y0152962D01*
X0031838Y0151363D02*
X0004200Y0151363D01*
X0004200Y0149765D02*
X0030239Y0149765D01*
X0028641Y0148166D02*
X0004200Y0148166D01*
X0004200Y0146568D02*
X0021497Y0146568D01*
X0019860Y0144969D02*
X0004200Y0144969D01*
X0004200Y0143370D02*
X0019198Y0143370D01*
X0019100Y0141772D02*
X0004200Y0141772D01*
X0004200Y0140173D02*
X0019100Y0140173D01*
X0019100Y0138575D02*
X0004200Y0138575D01*
X0004200Y0136976D02*
X0019100Y0136976D01*
X0019136Y0135378D02*
X0004200Y0135378D01*
X0004200Y0133779D02*
X0019798Y0133779D01*
X0021265Y0132181D02*
X0004200Y0132181D01*
X0004200Y0130582D02*
X0063228Y0130582D01*
X0063854Y0131208D02*
X0062392Y0129746D01*
X0061600Y0127834D01*
X0061600Y0125766D01*
X0062392Y0123854D01*
X0063854Y0122392D01*
X0065283Y0121800D01*
X0063854Y0121208D01*
X0062646Y0120000D01*
X0022027Y0120000D01*
X0021622Y0120058D01*
X0021397Y0120000D01*
X0021163Y0120000D01*
X0020786Y0119843D01*
X0020389Y0119742D01*
X0020203Y0119602D01*
X0019987Y0119513D01*
X0019698Y0119224D01*
X0010203Y0112102D01*
X0009987Y0112013D01*
X0009698Y0111724D01*
X0009371Y0111478D01*
X0009252Y0111277D01*
X0009087Y0111113D01*
X0008931Y0110735D01*
X0008722Y0110383D01*
X0008689Y0110152D01*
X0008600Y0109937D01*
X0008600Y0109527D01*
X0008542Y0109122D01*
X0008600Y0108897D01*
X0008600Y0073663D01*
X0009087Y0072487D01*
X0019087Y0062487D01*
X0019987Y0061587D01*
X0021163Y0061100D01*
X0051021Y0061100D01*
X0051705Y0060416D01*
X0053389Y0059719D01*
X0055211Y0059719D01*
X0056895Y0060416D01*
X0057579Y0061100D01*
X0062646Y0061100D01*
X0063854Y0059892D01*
X0065766Y0059100D01*
X0067834Y0059100D01*
X0069746Y0059892D01*
X0071208Y0061354D01*
X0072000Y0063266D01*
X0072000Y0065334D01*
X0071208Y0067246D01*
X0069746Y0068708D01*
X0068317Y0069300D01*
X0069746Y0069892D01*
X0071208Y0071354D01*
X0072000Y0073266D01*
X0072000Y0075334D01*
X0071208Y0077246D01*
X0069746Y0078708D01*
X0068317Y0079300D01*
X0069746Y0079892D01*
X0070954Y0081100D01*
X0085475Y0081100D01*
X0086100Y0080475D01*
X0086100Y0062117D01*
X0086037Y0061803D01*
X0086100Y0061487D01*
X0086100Y0061163D01*
X0086222Y0060868D01*
X0086284Y0060555D01*
X0086464Y0060286D01*
X0086587Y0059987D01*
X0086813Y0059761D01*
X0091464Y0052786D01*
X0091587Y0052487D01*
X0091813Y0052261D01*
X0091991Y0051995D01*
X0092259Y0051816D01*
X0092487Y0051587D01*
X0092783Y0051465D01*
X0093048Y0051287D01*
X0093365Y0051224D01*
X0093663Y0051100D01*
X0093983Y0051100D01*
X0094297Y0051037D01*
X0094613Y0051100D01*
X0098283Y0051100D01*
X0105913Y0045708D01*
X0106352Y0045364D01*
X0106430Y0045343D01*
X0106497Y0045296D01*
X0107041Y0045173D01*
X0108101Y0044877D01*
X0108101Y0041756D01*
X0108466Y0040874D01*
X0109141Y0040198D01*
X0110023Y0039833D01*
X0123577Y0039833D01*
X0124459Y0040198D01*
X0125134Y0040874D01*
X0125499Y0041756D01*
X0125499Y0049797D01*
X0125134Y0050679D01*
X0124459Y0051354D01*
X0123577Y0051720D01*
X0110023Y0051720D01*
X0109141Y0051354D01*
X0109088Y0051301D01*
X0101370Y0056756D01*
X0101113Y0057013D01*
X0100855Y0057120D01*
X0100627Y0057281D01*
X0100272Y0057361D01*
X0099937Y0057500D01*
X0099657Y0057500D01*
X0099385Y0057562D01*
X0099027Y0057500D01*
X0096013Y0057500D01*
X0094633Y0059569D01*
X0095766Y0059100D01*
X0097834Y0059100D01*
X0099746Y0059892D01*
X0101208Y0061354D01*
X0102000Y0063266D01*
X0102000Y0065334D01*
X0101208Y0067246D01*
X0099746Y0068708D01*
X0098317Y0069300D01*
X0099746Y0069892D01*
X0100954Y0071100D01*
X0108101Y0071100D01*
X0108101Y0063803D01*
X0108466Y0062921D01*
X0109141Y0062246D01*
X0110023Y0061880D01*
X0123577Y0061880D01*
X0124459Y0062246D01*
X0125134Y0062921D01*
X0125499Y0063803D01*
X0125499Y0065076D01*
X0125601Y0065076D01*
X0125601Y0064256D01*
X0125966Y0063374D01*
X0126641Y0062698D01*
X0127523Y0062333D01*
X0141077Y0062333D01*
X0141959Y0062698D01*
X0142634Y0063374D01*
X0142999Y0064256D01*
X0142999Y0072297D01*
X0142634Y0073179D01*
X0141959Y0073854D01*
X0141077Y0074220D01*
X0127523Y0074220D01*
X0126641Y0073854D01*
X0125966Y0073179D01*
X0125601Y0072297D01*
X0125601Y0071476D01*
X0125499Y0071476D01*
X0125499Y0071844D01*
X0125134Y0072726D01*
X0124459Y0073402D01*
X0123577Y0073767D01*
X0116906Y0073767D01*
X0115683Y0075759D01*
X0115536Y0076113D01*
X0115353Y0076296D01*
X0115218Y0076517D01*
X0114907Y0076742D01*
X0114636Y0077013D01*
X0114397Y0077112D01*
X0114187Y0077264D01*
X0113814Y0077353D01*
X0113460Y0077500D01*
X0113201Y0077500D01*
X0112949Y0077560D01*
X0112570Y0077500D01*
X0100954Y0077500D01*
X0099746Y0078708D01*
X0098317Y0079300D01*
X0099746Y0079892D01*
X0100954Y0081100D01*
X0108357Y0081100D01*
X0108357Y0080161D01*
X0108722Y0079279D01*
X0109397Y0078604D01*
X0110279Y0078239D01*
X0118321Y0078239D01*
X0118331Y0078243D01*
X0119087Y0077487D01*
X0119987Y0076587D01*
X0121163Y0076100D01*
X0141600Y0076100D01*
X0158101Y0061320D01*
X0158101Y0057861D01*
X0150279Y0057861D01*
X0149397Y0057496D01*
X0148722Y0056821D01*
X0148357Y0055939D01*
X0148357Y0055220D01*
X0148300Y0055203D01*
X0148163Y0055092D01*
X0147999Y0055025D01*
X0147671Y0054696D01*
X0147309Y0054405D01*
X0147224Y0054250D01*
X0147099Y0054124D01*
X0146921Y0053695D01*
X0144212Y0048738D01*
X0144087Y0048613D01*
X0143909Y0048184D01*
X0143687Y0047776D01*
X0143668Y0047600D01*
X0143600Y0047437D01*
X0143600Y0046972D01*
X0143550Y0046510D01*
X0143600Y0046340D01*
X0143600Y0022769D01*
X0140087Y0017500D01*
X0100418Y0017500D01*
X0101787Y0018869D01*
X0102575Y0020771D01*
X0102575Y0022829D01*
X0102219Y0023689D01*
X0103633Y0026100D01*
X0108338Y0026100D01*
X0108338Y0024552D01*
X0109245Y0022360D01*
X0110923Y0020683D01*
X0113114Y0019776D01*
X0115486Y0019776D01*
X0117677Y0020683D01*
X0119355Y0022360D01*
X0119645Y0023062D01*
X0119714Y0022927D01*
X0120210Y0022245D01*
X0120807Y0021648D01*
X0121490Y0021152D01*
X0122242Y0020768D01*
X0123044Y0020508D01*
X0123878Y0020376D01*
X0123919Y0020376D01*
X0123919Y0028919D01*
X0124681Y0028919D01*
X0124681Y0020376D01*
X0124722Y0020376D01*
X0125556Y0020508D01*
X0126358Y0020768D01*
X0127110Y0021152D01*
X0127793Y0021648D01*
X0128390Y0022245D01*
X0128886Y0022927D01*
X0128955Y0023062D01*
X0129245Y0022360D01*
X0130923Y0020683D01*
X0133114Y0019776D01*
X0135486Y0019776D01*
X0137677Y0020683D01*
X0139355Y0022360D01*
X0140262Y0024552D01*
X0140262Y0034048D01*
X0139355Y0036240D01*
X0137677Y0037917D01*
X0135486Y0038824D01*
X0133114Y0038824D01*
X0130923Y0037917D01*
X0130506Y0037500D01*
X0127009Y0037500D01*
X0126358Y0037832D01*
X0125556Y0038092D01*
X0124722Y0038224D01*
X0124681Y0038224D01*
X0124681Y0037500D01*
X0123919Y0037500D01*
X0123919Y0038224D01*
X0123878Y0038224D01*
X0123044Y0038092D01*
X0122242Y0037832D01*
X0121591Y0037500D01*
X0118094Y0037500D01*
X0117677Y0037917D01*
X0115486Y0038824D01*
X0113114Y0038824D01*
X0110923Y0037917D01*
X0110506Y0037500D01*
X0103835Y0037500D01*
X0101898Y0041638D01*
X0102575Y0043271D01*
X0102575Y0045329D01*
X0101787Y0047231D01*
X0100331Y0048687D01*
X0098429Y0049475D01*
X0096371Y0049475D01*
X0094469Y0048687D01*
X0093013Y0047231D01*
X0092225Y0045329D01*
X0092225Y0043271D01*
X0093013Y0041369D01*
X0094469Y0039913D01*
X0095921Y0039311D01*
X0098871Y0033009D01*
X0099087Y0032487D01*
X0099140Y0032435D01*
X0099172Y0032367D01*
X0099588Y0031986D01*
X0099775Y0031800D01*
X0099693Y0031719D01*
X0099362Y0031468D01*
X0099247Y0031273D01*
X0099087Y0031113D01*
X0098928Y0030729D01*
X0096726Y0026975D01*
X0096371Y0026975D01*
X0094469Y0026187D01*
X0093013Y0024731D01*
X0092225Y0022829D01*
X0092225Y0020771D01*
X0092625Y0019805D01*
X0090000Y0025055D01*
X0090000Y0037437D01*
X0089513Y0038613D01*
X0084475Y0043651D01*
X0084475Y0045329D01*
X0083687Y0047231D01*
X0082231Y0048687D01*
X0080329Y0049475D01*
X0078271Y0049475D01*
X0076369Y0048687D01*
X0075182Y0047500D01*
X0073400Y0047500D01*
X0067102Y0055897D01*
X0067013Y0056113D01*
X0066724Y0056402D01*
X0066478Y0056729D01*
X0066277Y0056848D01*
X0066113Y0057013D01*
X0065735Y0057169D01*
X0065383Y0057378D01*
X0065152Y0057411D01*
X0064937Y0057500D01*
X0064527Y0057500D01*
X0064122Y0057558D01*
X0063897Y0057500D01*
X0050228Y0057500D01*
X0050134Y0057726D01*
X0049459Y0058402D01*
X0048577Y0058767D01*
X0035023Y0058767D01*
X0034141Y0058402D01*
X0033466Y0057726D01*
X0033101Y0056844D01*
X0033101Y0048803D01*
X0033466Y0047921D01*
X0034141Y0047246D01*
X0035023Y0046880D01*
X0048577Y0046880D01*
X0049459Y0047246D01*
X0050134Y0047921D01*
X0050499Y0048803D01*
X0050499Y0051100D01*
X0062700Y0051100D01*
X0068998Y0042703D01*
X0069087Y0042487D01*
X0069376Y0042198D01*
X0069622Y0041871D01*
X0069823Y0041752D01*
X0069987Y0041587D01*
X0070365Y0041431D01*
X0070717Y0041222D01*
X0070948Y0041189D01*
X0071163Y0041100D01*
X0071573Y0041100D01*
X0071978Y0041042D01*
X0072203Y0041100D01*
X0075182Y0041100D01*
X0076369Y0039913D01*
X0078271Y0039125D01*
X0079949Y0039125D01*
X0083600Y0035475D01*
X0083600Y0024819D01*
X0083600Y0024819D01*
X0082231Y0026187D01*
X0080329Y0026975D01*
X0078271Y0026975D01*
X0076369Y0026187D01*
X0074913Y0024731D01*
X0074125Y0022829D01*
X0074125Y0020771D01*
X0074913Y0018869D01*
X0076100Y0017682D01*
X0076100Y0012579D01*
X0075416Y0011895D01*
X0074719Y0010211D01*
X0074719Y0008389D01*
X0075416Y0006705D01*
X0076705Y0005416D01*
X0078389Y0004719D01*
X0080211Y0004719D01*
X0081895Y0005416D01*
X0083512Y0007497D02*
X0285601Y0007497D01*
X0285601Y0009096D02*
X0083881Y0009096D01*
X0083681Y0010694D02*
X0285601Y0010694D01*
X0285601Y0012293D02*
X0144318Y0012293D01*
X0145373Y0013891D02*
X0285601Y0013891D01*
X0285601Y0015490D02*
X0146439Y0015490D01*
X0147505Y0017088D02*
X0285601Y0017088D01*
X0285601Y0018687D02*
X0148570Y0018687D01*
X0149636Y0020285D02*
X0251555Y0020285D01*
X0250601Y0021884D02*
X0213909Y0021884D01*
X0215508Y0023482D02*
X0250601Y0023482D01*
X0250601Y0025081D02*
X0217106Y0025081D01*
X0218705Y0026679D02*
X0231286Y0026679D01*
X0231323Y0026538D02*
X0231560Y0026128D01*
X0231896Y0025793D01*
X0232306Y0025556D01*
X0232764Y0025433D01*
X0238500Y0025433D01*
X0238500Y0029976D01*
X0240100Y0029976D01*
X0240100Y0025433D01*
X0245836Y0025433D01*
X0246294Y0025556D01*
X0246704Y0025793D01*
X0247040Y0026128D01*
X0247277Y0026538D01*
X0247399Y0026996D01*
X0247399Y0029976D01*
X0240100Y0029976D01*
X0240100Y0031576D01*
X0247399Y0031576D01*
X0247399Y0034557D01*
X0247277Y0035014D01*
X0247040Y0035425D01*
X0246704Y0035760D01*
X0246294Y0035997D01*
X0245836Y0036120D01*
X0240100Y0036120D01*
X0240100Y0031576D01*
X0238500Y0031576D01*
X0238500Y0029976D01*
X0231201Y0029976D01*
X0231201Y0026996D01*
X0231323Y0026538D01*
X0231201Y0028278D02*
X0219840Y0028278D01*
X0221206Y0029876D02*
X0231201Y0029876D01*
X0231201Y0031576D02*
X0231201Y0034557D01*
X0231323Y0035014D01*
X0231560Y0035425D01*
X0231896Y0035760D01*
X0232306Y0035997D01*
X0232764Y0036120D01*
X0238500Y0036120D01*
X0238500Y0031576D01*
X0231201Y0031576D01*
X0231201Y0033073D02*
X0221267Y0033073D01*
X0221267Y0031475D02*
X0238500Y0031475D01*
X0238500Y0033073D02*
X0240100Y0033073D01*
X0240100Y0031475D02*
X0251932Y0031475D01*
X0250634Y0029876D02*
X0247399Y0029876D01*
X0247399Y0028278D02*
X0250601Y0028278D01*
X0250601Y0026679D02*
X0247314Y0026679D01*
X0240100Y0026679D02*
X0238500Y0026679D01*
X0238500Y0028278D02*
X0240100Y0028278D01*
X0240100Y0029876D02*
X0238500Y0029876D01*
X0238500Y0034672D02*
X0240100Y0034672D01*
X0247368Y0034672D02*
X0252926Y0034672D01*
X0251328Y0036270D02*
X0221267Y0036270D01*
X0221267Y0034672D02*
X0231232Y0034672D01*
X0221267Y0037869D02*
X0249729Y0037869D01*
X0248131Y0039467D02*
X0221267Y0039467D01*
X0221267Y0041066D02*
X0246532Y0041066D01*
X0244934Y0042664D02*
X0221267Y0042664D01*
X0220983Y0044263D02*
X0243335Y0044263D01*
X0241737Y0045861D02*
X0218524Y0045861D01*
X0218524Y0047460D02*
X0231427Y0047460D01*
X0230601Y0049058D02*
X0218524Y0049058D01*
X0218524Y0050657D02*
X0230601Y0050657D01*
X0230601Y0052255D02*
X0218524Y0052255D01*
X0218524Y0053854D02*
X0230601Y0053854D01*
X0230601Y0055452D02*
X0218524Y0055452D01*
X0218524Y0057051D02*
X0230686Y0057051D01*
X0231400Y0058649D02*
X0218524Y0058649D01*
X0218524Y0060248D02*
X0231400Y0060248D01*
X0231400Y0061846D02*
X0218524Y0061846D01*
X0218524Y0063445D02*
X0228661Y0063445D01*
X0227800Y0065043D02*
X0218524Y0065043D01*
X0218429Y0066642D02*
X0227800Y0066642D01*
X0227800Y0068240D02*
X0217385Y0068240D01*
X0218525Y0069839D02*
X0220075Y0069839D01*
X0220075Y0071437D02*
X0218525Y0071437D01*
X0218525Y0073036D02*
X0213300Y0073036D01*
X0212945Y0074634D02*
X0213957Y0074634D01*
X0213957Y0074563D02*
X0218525Y0074563D01*
X0218525Y0078738D01*
X0215520Y0078738D01*
X0215062Y0078615D01*
X0214651Y0078378D01*
X0214316Y0078043D01*
X0214079Y0077633D01*
X0213957Y0077175D01*
X0213957Y0074563D01*
X0213957Y0076233D02*
X0203258Y0076233D01*
X0204857Y0077832D02*
X0214194Y0077832D01*
X0214874Y0079430D02*
X0206455Y0079430D01*
X0208054Y0081029D02*
X0213421Y0081029D01*
X0218525Y0077832D02*
X0220075Y0077832D01*
X0220075Y0076233D02*
X0218525Y0076233D01*
X0218525Y0074634D02*
X0220075Y0074634D01*
X0220075Y0073036D02*
X0228170Y0073036D01*
X0228156Y0071437D02*
X0224643Y0071437D01*
X0224460Y0069839D02*
X0227800Y0069839D01*
X0227800Y0074634D02*
X0224643Y0074634D01*
X0224643Y0076233D02*
X0227800Y0076233D01*
X0227800Y0077832D02*
X0224406Y0077832D01*
X0223726Y0079430D02*
X0227800Y0079430D01*
X0228634Y0081029D02*
X0225179Y0081029D01*
X0219300Y0084812D02*
X0218788Y0084300D01*
X0206800Y0084300D01*
X0184300Y0061800D01*
X0182099Y0061800D01*
X0173276Y0061800D01*
X0166800Y0057824D01*
X0142824Y0079300D01*
X0121800Y0079300D01*
X0117312Y0083788D01*
X0114300Y0083788D01*
X0108788Y0084300D01*
X0104300Y0084300D01*
X0104300Y0131800D01*
X0099300Y0136800D01*
X0096800Y0136800D01*
X0091600Y0136976D02*
X0081501Y0136976D01*
X0081988Y0138575D02*
X0091907Y0138575D01*
X0092820Y0140173D02*
X0081988Y0140173D01*
X0081988Y0141772D02*
X0095215Y0141772D01*
X0092876Y0143370D02*
X0081988Y0143370D01*
X0081988Y0144969D02*
X0091930Y0144969D01*
X0091600Y0146568D02*
X0081988Y0146568D01*
X0081988Y0148166D02*
X0091737Y0148166D01*
X0092411Y0149765D02*
X0081988Y0149765D01*
X0081988Y0151363D02*
X0094228Y0151363D01*
X0099372Y0151363D02*
X0105477Y0151363D01*
X0104833Y0152962D02*
X0081988Y0152962D01*
X0081988Y0154560D02*
X0104833Y0154560D01*
X0099034Y0156159D02*
X0081988Y0156159D01*
X0081988Y0157757D02*
X0096948Y0157757D01*
X0095669Y0159356D02*
X0081988Y0159356D01*
X0081988Y0160954D02*
X0094391Y0160954D01*
X0093112Y0162553D02*
X0081988Y0162553D01*
X0081988Y0164151D02*
X0091833Y0164151D01*
X0090554Y0165750D02*
X0081988Y0165750D01*
X0084159Y0167348D02*
X0084441Y0167348D01*
X0089812Y0171800D02*
X0099812Y0159300D01*
X0110776Y0159300D01*
X0116800Y0155776D01*
X0116800Y0126800D01*
X0124137Y0130582D02*
X0132987Y0130582D01*
X0135613Y0130582D02*
X0142987Y0130582D01*
X0145613Y0130582D02*
X0152987Y0130582D01*
X0155613Y0130582D02*
X0162987Y0130582D01*
X0165613Y0130582D02*
X0172987Y0130582D01*
X0175613Y0130582D02*
X0182987Y0130582D01*
X0185613Y0130582D02*
X0192987Y0130582D01*
X0195613Y0130582D02*
X0202987Y0130582D01*
X0205613Y0130582D02*
X0212987Y0130582D01*
X0215613Y0130582D02*
X0222987Y0130582D01*
X0225613Y0130582D02*
X0232987Y0130582D01*
X0235613Y0130582D02*
X0242987Y0130582D01*
X0245613Y0130582D02*
X0252987Y0130582D01*
X0255613Y0130582D02*
X0262987Y0130582D01*
X0265613Y0130582D02*
X0271100Y0130582D01*
X0271100Y0128984D02*
X0125157Y0128984D01*
X0125600Y0127385D02*
X0131461Y0127385D01*
X0129667Y0125787D02*
X0125600Y0125787D01*
X0124980Y0124188D02*
X0128938Y0124188D01*
X0128700Y0122590D02*
X0123709Y0122590D01*
X0122738Y0120991D02*
X0128700Y0120991D01*
X0128700Y0119393D02*
X0124291Y0119393D01*
X0124905Y0117794D02*
X0128700Y0117794D01*
X0128700Y0116196D02*
X0124967Y0116196D01*
X0125000Y0116406D02*
X0125000Y0116600D01*
X0117000Y0116600D01*
X0117000Y0111800D01*
X0120394Y0111800D01*
X0121171Y0111923D01*
X0121919Y0112166D01*
X0122621Y0112524D01*
X0123257Y0112986D01*
X0123814Y0113543D01*
X0124276Y0114179D01*
X0124634Y0114881D01*
X0124877Y0115629D01*
X0125000Y0116406D01*
X0124489Y0114597D02*
X0128861Y0114597D01*
X0129523Y0112999D02*
X0123270Y0112999D01*
X0117000Y0112999D02*
X0116600Y0112999D01*
X0116600Y0111800D02*
X0116600Y0116600D01*
X0108600Y0116600D01*
X0108600Y0116406D01*
X0108723Y0115629D01*
X0108966Y0114881D01*
X0109324Y0114179D01*
X0109786Y0113543D01*
X0110343Y0112986D01*
X0110979Y0112524D01*
X0111681Y0112166D01*
X0112429Y0111923D01*
X0113206Y0111800D01*
X0116600Y0111800D01*
X0116600Y0114597D02*
X0117000Y0114597D01*
X0117000Y0116196D02*
X0116600Y0116196D01*
X0110330Y0112999D02*
X0107500Y0112999D01*
X0107500Y0114597D02*
X0109111Y0114597D01*
X0108633Y0116196D02*
X0107500Y0116196D01*
X0107500Y0117794D02*
X0108695Y0117794D01*
X0109309Y0119393D02*
X0107500Y0119393D01*
X0107500Y0120991D02*
X0110862Y0120991D01*
X0109891Y0122590D02*
X0107500Y0122590D01*
X0107500Y0124188D02*
X0108620Y0124188D01*
X0108000Y0125787D02*
X0107500Y0125787D01*
X0107500Y0127385D02*
X0108000Y0127385D01*
X0108443Y0128984D02*
X0107500Y0128984D01*
X0107500Y0130582D02*
X0109463Y0130582D01*
X0107500Y0132181D02*
X0111957Y0132181D01*
X0113600Y0133779D02*
X0106846Y0133779D01*
X0105248Y0135378D02*
X0113600Y0135378D01*
X0113600Y0136976D02*
X0103649Y0136976D01*
X0102051Y0138575D02*
X0113600Y0138575D01*
X0113600Y0140173D02*
X0100780Y0140173D01*
X0098385Y0141772D02*
X0113600Y0141772D01*
X0113600Y0143370D02*
X0100724Y0143370D01*
X0101670Y0144969D02*
X0113600Y0144969D01*
X0113600Y0146568D02*
X0102000Y0146568D01*
X0101863Y0148166D02*
X0113600Y0148166D01*
X0113600Y0149765D02*
X0101189Y0149765D01*
X0117019Y0159356D02*
X0126880Y0159356D01*
X0126880Y0160954D02*
X0116720Y0160954D01*
X0116720Y0162553D02*
X0126880Y0162553D01*
X0126880Y0164151D02*
X0116720Y0164151D01*
X0116720Y0165750D02*
X0126880Y0165750D01*
X0127635Y0167348D02*
X0115965Y0167348D01*
X0105588Y0167348D02*
X0097471Y0167348D01*
X0096192Y0168947D02*
X0140898Y0168947D01*
X0139299Y0167348D02*
X0138012Y0167348D01*
X0143276Y0166800D02*
X0134300Y0157824D01*
X0134300Y0139300D01*
X0144300Y0139300D01*
X0148300Y0132181D02*
X0150299Y0132181D01*
X0151461Y0127385D02*
X0145417Y0127385D01*
X0144500Y0127385D02*
X0144100Y0127385D01*
X0143183Y0127385D02*
X0137139Y0127385D01*
X0138933Y0125787D02*
X0140516Y0125787D01*
X0144100Y0125787D02*
X0144500Y0125787D01*
X0144500Y0124188D02*
X0144100Y0124188D01*
X0144100Y0122590D02*
X0144500Y0122590D01*
X0144500Y0120991D02*
X0144100Y0120991D01*
X0144100Y0119100D02*
X0144500Y0119100D01*
X0144500Y0111100D01*
X0144694Y0111100D01*
X0145471Y0111223D01*
X0146219Y0111466D01*
X0146921Y0111824D01*
X0147557Y0112286D01*
X0148114Y0112843D01*
X0148576Y0113479D01*
X0148934Y0114181D01*
X0148978Y0114316D01*
X0149553Y0112928D01*
X0151128Y0111353D01*
X0151335Y0111267D01*
X0147523Y0111267D01*
X0146641Y0110902D01*
X0145966Y0110226D01*
X0145601Y0109344D01*
X0145601Y0108524D01*
X0137500Y0108524D01*
X0137500Y0111380D01*
X0139047Y0112928D01*
X0139622Y0114316D01*
X0139666Y0114181D01*
X0140024Y0113479D01*
X0140486Y0112843D01*
X0141043Y0112286D01*
X0141679Y0111824D01*
X0142381Y0111466D01*
X0143129Y0111223D01*
X0143906Y0111100D01*
X0144100Y0111100D01*
X0144100Y0119100D01*
X0144100Y0117794D02*
X0144500Y0117794D01*
X0144500Y0116196D02*
X0144100Y0116196D01*
X0144100Y0114597D02*
X0144500Y0114597D01*
X0144500Y0112999D02*
X0144100Y0112999D01*
X0144100Y0111400D02*
X0144500Y0111400D01*
X0146016Y0111400D02*
X0151080Y0111400D01*
X0149523Y0112999D02*
X0148227Y0112999D01*
X0145790Y0109802D02*
X0137500Y0109802D01*
X0137520Y0111400D02*
X0142584Y0111400D01*
X0140373Y0112999D02*
X0139077Y0112999D01*
X0131080Y0111400D02*
X0107500Y0111400D01*
X0107500Y0109802D02*
X0131100Y0109802D01*
X0131100Y0108203D02*
X0107500Y0108203D01*
X0107500Y0106605D02*
X0131100Y0106605D01*
X0131100Y0105006D02*
X0107500Y0105006D01*
X0107500Y0103408D02*
X0131100Y0103408D01*
X0131100Y0101809D02*
X0107500Y0101809D01*
X0107500Y0100211D02*
X0131100Y0100211D01*
X0131100Y0098612D02*
X0119532Y0098612D01*
X0119521Y0098656D02*
X0119284Y0099067D01*
X0118949Y0099402D01*
X0118538Y0099639D01*
X0118080Y0099761D01*
X0115075Y0099761D01*
X0115075Y0095587D01*
X0113525Y0095587D01*
X0113525Y0099761D01*
X0110520Y0099761D01*
X0110062Y0099639D01*
X0109651Y0099402D01*
X0109316Y0099067D01*
X0109079Y0098656D01*
X0108957Y0098198D01*
X0108957Y0095587D01*
X0113525Y0095587D01*
X0113525Y0094037D01*
X0108957Y0094037D01*
X0108957Y0091425D01*
X0109079Y0090967D01*
X0109316Y0090557D01*
X0109651Y0090222D01*
X0110062Y0089985D01*
X0110520Y0089862D01*
X0113525Y0089862D01*
X0113525Y0094037D01*
X0115075Y0094037D01*
X0115075Y0095587D01*
X0119643Y0095587D01*
X0119643Y0098198D01*
X0119521Y0098656D01*
X0119643Y0097014D02*
X0131100Y0097014D01*
X0126155Y0095415D02*
X0115075Y0095415D01*
X0115075Y0094037D02*
X0119643Y0094037D01*
X0119643Y0091425D01*
X0119521Y0090967D01*
X0119284Y0090557D01*
X0118949Y0090222D01*
X0118538Y0089985D01*
X0118080Y0089862D01*
X0115075Y0089862D01*
X0115075Y0094037D01*
X0115075Y0093817D02*
X0113525Y0093817D01*
X0113525Y0095415D02*
X0107500Y0095415D01*
X0107500Y0093817D02*
X0108957Y0093817D01*
X0108957Y0092218D02*
X0107500Y0092218D01*
X0107500Y0090620D02*
X0109280Y0090620D01*
X0109515Y0089021D02*
X0107500Y0089021D01*
X0113525Y0090620D02*
X0115075Y0090620D01*
X0115075Y0092218D02*
X0113525Y0092218D01*
X0119320Y0090620D02*
X0125601Y0090620D01*
X0125601Y0092218D02*
X0119643Y0092218D01*
X0119643Y0093817D02*
X0125601Y0093817D01*
X0125601Y0089021D02*
X0119085Y0089021D01*
X0120240Y0087423D02*
X0125601Y0087423D01*
X0125799Y0085824D02*
X0120243Y0085824D01*
X0121400Y0084226D02*
X0145601Y0084226D01*
X0145601Y0085824D02*
X0142801Y0085824D01*
X0142999Y0087423D02*
X0145653Y0087423D01*
X0147044Y0089021D02*
X0142999Y0089021D01*
X0142999Y0090620D02*
X0168525Y0090620D01*
X0168525Y0090513D02*
X0168525Y0092063D01*
X0163957Y0092063D01*
X0163957Y0094675D01*
X0164079Y0095133D01*
X0164316Y0095543D01*
X0164651Y0095878D01*
X0165062Y0096115D01*
X0165520Y0096238D01*
X0168525Y0096238D01*
X0168525Y0092063D01*
X0170075Y0092063D01*
X0170075Y0090513D01*
X0168525Y0090513D01*
X0168525Y0086339D01*
X0165520Y0086339D01*
X0165062Y0086461D01*
X0164651Y0086698D01*
X0164316Y0087033D01*
X0164079Y0087444D01*
X0163957Y0087902D01*
X0163957Y0090513D01*
X0168525Y0090513D01*
X0168525Y0089021D02*
X0170075Y0089021D01*
X0170075Y0087423D02*
X0168525Y0087423D01*
X0171299Y0085824D02*
X0162999Y0085824D01*
X0162947Y0087423D02*
X0164092Y0087423D01*
X0163957Y0089021D02*
X0161556Y0089021D01*
X0163957Y0092218D02*
X0142999Y0092218D01*
X0142999Y0093817D02*
X0163957Y0093817D01*
X0164243Y0095415D02*
X0142445Y0095415D01*
X0137500Y0097014D02*
X0164672Y0097014D01*
X0163387Y0098612D02*
X0137500Y0098612D01*
X0137500Y0100211D02*
X0146176Y0100211D01*
X0145601Y0101809D02*
X0137500Y0101809D01*
X0135776Y0105324D02*
X0134300Y0106800D01*
X0134300Y0090324D01*
X0145601Y0082627D02*
X0122998Y0082627D01*
X0118743Y0077832D02*
X0100622Y0077832D01*
X0098631Y0079430D02*
X0108660Y0079430D01*
X0108357Y0081029D02*
X0100882Y0081029D01*
X0104300Y0084300D02*
X0096800Y0084300D01*
X0091600Y0084226D02*
X0091400Y0084226D01*
X0091803Y0085824D02*
X0089801Y0085824D01*
X0089513Y0086113D02*
X0089513Y0086113D01*
X0087623Y0087423D02*
X0092569Y0087423D01*
X0094610Y0089021D02*
X0068991Y0089021D01*
X0070474Y0090620D02*
X0093126Y0090620D01*
X0092034Y0092218D02*
X0071566Y0092218D01*
X0072000Y0093817D02*
X0091600Y0093817D01*
X0091633Y0095415D02*
X0071967Y0095415D01*
X0071304Y0097014D02*
X0092296Y0097014D01*
X0093758Y0098612D02*
X0069842Y0098612D01*
X0063758Y0098612D02*
X0052000Y0098612D01*
X0052000Y0097014D02*
X0062296Y0097014D01*
X0061633Y0095415D02*
X0052000Y0095415D01*
X0052000Y0093817D02*
X0061600Y0093817D01*
X0062034Y0092218D02*
X0051690Y0092218D01*
X0052000Y0092966D02*
X0051208Y0091054D01*
X0049746Y0089592D01*
X0047834Y0088800D01*
X0045766Y0088800D01*
X0043854Y0089592D01*
X0042392Y0091054D01*
X0041600Y0092966D01*
X0041600Y0100634D01*
X0042392Y0102546D01*
X0043854Y0104008D01*
X0045766Y0104800D01*
X0047834Y0104800D01*
X0049746Y0104008D01*
X0051208Y0102546D01*
X0052000Y0100634D01*
X0052000Y0092966D01*
X0050774Y0090620D02*
X0063126Y0090620D01*
X0064609Y0089021D02*
X0048368Y0089021D01*
X0045232Y0089021D02*
X0030000Y0089021D01*
X0030000Y0087423D02*
X0043362Y0087423D01*
X0040328Y0085824D02*
X0030000Y0085824D01*
X0033803Y0090491D02*
X0034389Y0090066D01*
X0035034Y0089737D01*
X0035723Y0089513D01*
X0036438Y0089400D01*
X0036800Y0089400D01*
X0037162Y0089400D01*
X0037877Y0089513D01*
X0038566Y0089737D01*
X0039211Y0090066D01*
X0039797Y0090491D01*
X0040309Y0091003D01*
X0040734Y0091589D01*
X0041063Y0092234D01*
X0041287Y0092923D01*
X0041400Y0093638D01*
X0041400Y0096800D01*
X0041400Y0099962D01*
X0041287Y0100677D01*
X0041063Y0101366D01*
X0040734Y0102011D01*
X0040309Y0102597D01*
X0039797Y0103109D01*
X0039211Y0103534D01*
X0038566Y0103863D01*
X0037877Y0104087D01*
X0037162Y0104200D01*
X0036800Y0104200D01*
X0036800Y0096800D01*
X0036800Y0104300D01*
X0039300Y0106800D01*
X0046800Y0109300D01*
X0050346Y0103408D02*
X0083714Y0103408D01*
X0082584Y0105006D02*
X0015000Y0105006D01*
X0015000Y0103408D02*
X0023254Y0103408D01*
X0022087Y0101809D02*
X0015000Y0101809D01*
X0015000Y0100211D02*
X0021600Y0100211D01*
X0021600Y0098612D02*
X0015000Y0098612D01*
X0015000Y0097014D02*
X0021600Y0097014D01*
X0021600Y0095415D02*
X0015000Y0095415D01*
X0015000Y0093817D02*
X0021600Y0093817D01*
X0021910Y0092218D02*
X0015000Y0092218D01*
X0015000Y0090620D02*
X0022826Y0090620D01*
X0023600Y0089021D02*
X0015000Y0089021D01*
X0015000Y0087423D02*
X0023600Y0087423D01*
X0023600Y0085824D02*
X0015000Y0085824D01*
X0015000Y0084226D02*
X0018627Y0084226D01*
X0018239Y0082627D02*
X0015000Y0082627D01*
X0015000Y0081029D02*
X0018239Y0081029D01*
X0018239Y0079430D02*
X0015000Y0079430D01*
X0015000Y0077832D02*
X0018239Y0077832D01*
X0018239Y0076233D02*
X0015000Y0076233D01*
X0015991Y0074634D02*
X0018506Y0074634D01*
X0017589Y0073036D02*
X0042365Y0073036D01*
X0042219Y0074634D02*
X0040094Y0074634D01*
X0040361Y0076233D02*
X0042642Y0076233D01*
X0043853Y0077832D02*
X0040361Y0077832D01*
X0041923Y0079430D02*
X0064969Y0079430D01*
X0062978Y0077832D02*
X0049747Y0077832D01*
X0046800Y0074300D02*
X0066800Y0074300D01*
X0071628Y0076233D02*
X0086100Y0076233D01*
X0086100Y0074634D02*
X0072000Y0074634D01*
X0071905Y0073036D02*
X0086100Y0073036D01*
X0086100Y0071437D02*
X0071243Y0071437D01*
X0069618Y0069839D02*
X0086100Y0069839D01*
X0086100Y0068240D02*
X0070213Y0068240D01*
X0071458Y0066642D02*
X0086100Y0066642D01*
X0086100Y0065043D02*
X0072000Y0065043D01*
X0072000Y0063445D02*
X0086100Y0063445D01*
X0086046Y0061846D02*
X0071412Y0061846D01*
X0070102Y0060248D02*
X0086479Y0060248D01*
X0087554Y0058649D02*
X0048860Y0058649D01*
X0052112Y0060248D02*
X0004200Y0060248D01*
X0004200Y0061846D02*
X0019728Y0061846D01*
X0018130Y0063445D02*
X0004200Y0063445D01*
X0004200Y0065043D02*
X0016531Y0065043D01*
X0014933Y0066642D02*
X0004200Y0066642D01*
X0004200Y0068240D02*
X0013334Y0068240D01*
X0011736Y0069839D02*
X0004200Y0069839D01*
X0004200Y0071437D02*
X0010137Y0071437D01*
X0008860Y0073036D02*
X0004200Y0073036D01*
X0004200Y0074634D02*
X0008600Y0074634D01*
X0008600Y0076233D02*
X0004200Y0076233D01*
X0004200Y0077832D02*
X0008600Y0077832D01*
X0008600Y0079430D02*
X0004200Y0079430D01*
X0004200Y0081029D02*
X0008600Y0081029D01*
X0008600Y0082627D02*
X0004200Y0082627D01*
X0004200Y0084226D02*
X0008600Y0084226D01*
X0008600Y0085824D02*
X0004200Y0085824D01*
X0004200Y0087423D02*
X0008600Y0087423D01*
X0008600Y0089021D02*
X0004200Y0089021D01*
X0004200Y0090620D02*
X0008600Y0090620D01*
X0008600Y0092218D02*
X0004200Y0092218D01*
X0004200Y0093817D02*
X0008600Y0093817D01*
X0008600Y0095415D02*
X0004200Y0095415D01*
X0004200Y0097014D02*
X0008600Y0097014D01*
X0008600Y0098612D02*
X0004200Y0098612D01*
X0004200Y0100211D02*
X0008600Y0100211D01*
X0008600Y0101809D02*
X0004200Y0101809D01*
X0004200Y0103408D02*
X0008600Y0103408D01*
X0008600Y0105006D02*
X0004200Y0105006D01*
X0004200Y0106605D02*
X0008600Y0106605D01*
X0008600Y0108203D02*
X0004200Y0108203D01*
X0004200Y0109802D02*
X0008600Y0109802D01*
X0009325Y0111400D02*
X0004200Y0111400D01*
X0004200Y0112999D02*
X0011398Y0112999D01*
X0013530Y0114597D02*
X0004200Y0114597D01*
X0004200Y0116196D02*
X0015661Y0116196D01*
X0017792Y0117794D02*
X0004200Y0117794D01*
X0004200Y0119393D02*
X0019867Y0119393D01*
X0021800Y0116800D02*
X0011800Y0109300D01*
X0011800Y0074300D01*
X0021800Y0064300D01*
X0066800Y0064300D01*
X0054300Y0064300D01*
X0051842Y0068240D02*
X0022385Y0068240D01*
X0020787Y0069839D02*
X0045599Y0069839D01*
X0048001Y0069839D02*
X0063982Y0069839D01*
X0063387Y0068240D02*
X0056758Y0068240D01*
X0056488Y0060248D02*
X0063498Y0060248D01*
X0066021Y0057051D02*
X0088620Y0057051D01*
X0089686Y0055452D02*
X0067436Y0055452D01*
X0068635Y0053854D02*
X0090752Y0053854D01*
X0091817Y0052255D02*
X0069833Y0052255D01*
X0071032Y0050657D02*
X0098910Y0050657D01*
X0099435Y0049058D02*
X0101172Y0049058D01*
X0101558Y0047460D02*
X0103434Y0047460D01*
X0102354Y0045861D02*
X0105696Y0045861D01*
X0108101Y0044263D02*
X0102575Y0044263D01*
X0102324Y0042664D02*
X0108101Y0042664D01*
X0108387Y0041066D02*
X0102166Y0041066D01*
X0102914Y0039467D02*
X0143600Y0039467D01*
X0143600Y0037869D02*
X0137725Y0037869D01*
X0139324Y0036270D02*
X0143600Y0036270D01*
X0143600Y0034672D02*
X0140004Y0034672D01*
X0140262Y0033073D02*
X0143600Y0033073D01*
X0143600Y0031475D02*
X0140262Y0031475D01*
X0140262Y0029876D02*
X0143600Y0029876D01*
X0143600Y0028278D02*
X0140262Y0028278D01*
X0140262Y0026679D02*
X0143600Y0026679D01*
X0143600Y0025081D02*
X0140262Y0025081D01*
X0139819Y0023482D02*
X0143600Y0023482D01*
X0143010Y0021884D02*
X0138878Y0021884D01*
X0136716Y0020285D02*
X0141944Y0020285D01*
X0140878Y0018687D02*
X0101605Y0018687D01*
X0102374Y0020285D02*
X0111884Y0020285D01*
X0109722Y0021884D02*
X0102575Y0021884D01*
X0102304Y0023482D02*
X0108781Y0023482D01*
X0108338Y0025081D02*
X0103035Y0025081D01*
X0101800Y0029300D02*
X0097400Y0021800D01*
X0092225Y0021884D02*
X0091586Y0021884D01*
X0090787Y0023482D02*
X0092496Y0023482D01*
X0093362Y0025081D02*
X0090000Y0025081D01*
X0090000Y0026679D02*
X0095657Y0026679D01*
X0097490Y0028278D02*
X0090000Y0028278D01*
X0090000Y0029876D02*
X0098428Y0029876D01*
X0099371Y0031475D02*
X0090000Y0031475D01*
X0090000Y0033073D02*
X0098841Y0033073D01*
X0098093Y0034672D02*
X0090000Y0034672D01*
X0090000Y0036270D02*
X0097345Y0036270D01*
X0096596Y0037869D02*
X0089821Y0037869D01*
X0088658Y0039467D02*
X0095545Y0039467D01*
X0093316Y0041066D02*
X0087060Y0041066D01*
X0085461Y0042664D02*
X0092476Y0042664D01*
X0092225Y0044263D02*
X0084475Y0044263D01*
X0084254Y0045861D02*
X0092446Y0045861D01*
X0093242Y0047460D02*
X0083458Y0047460D01*
X0081335Y0049058D02*
X0095365Y0049058D01*
X0094300Y0054300D02*
X0089300Y0061800D01*
X0089300Y0081800D01*
X0086800Y0084300D01*
X0066800Y0084300D01*
X0044300Y0084300D01*
X0034812Y0079300D01*
X0026800Y0079812D02*
X0023788Y0079300D01*
X0026800Y0079812D02*
X0026800Y0096800D01*
X0032000Y0097014D02*
X0032200Y0097014D01*
X0032200Y0096800D02*
X0036800Y0096800D01*
X0041400Y0096800D01*
X0036800Y0096800D01*
X0036800Y0096800D01*
X0036800Y0096800D01*
X0036800Y0089400D01*
X0036800Y0096800D01*
X0036800Y0096800D01*
X0036800Y0096800D01*
X0036800Y0104200D01*
X0036438Y0104200D01*
X0035723Y0104087D01*
X0035034Y0103863D01*
X0034389Y0103534D01*
X0033803Y0103109D01*
X0033291Y0102597D01*
X0032866Y0102011D01*
X0032537Y0101366D01*
X0032313Y0100677D01*
X0032200Y0099962D01*
X0032200Y0096800D01*
X0032200Y0093638D01*
X0032313Y0092923D01*
X0032537Y0092234D01*
X0032866Y0091589D01*
X0033291Y0091003D01*
X0033803Y0090491D01*
X0033675Y0090620D02*
X0030774Y0090620D01*
X0031690Y0092218D02*
X0032545Y0092218D01*
X0032200Y0093817D02*
X0032000Y0093817D01*
X0032000Y0095415D02*
X0032200Y0095415D01*
X0032200Y0096800D02*
X0036800Y0096800D01*
X0036800Y0097014D02*
X0036800Y0097014D01*
X0036800Y0098612D02*
X0036800Y0098612D01*
X0036800Y0100211D02*
X0036800Y0100211D01*
X0036800Y0101809D02*
X0036800Y0101809D01*
X0036800Y0103408D02*
X0036800Y0103408D01*
X0034215Y0103408D02*
X0030346Y0103408D01*
X0031513Y0101809D02*
X0032763Y0101809D01*
X0032239Y0100211D02*
X0032000Y0100211D01*
X0032000Y0098612D02*
X0032200Y0098612D01*
X0036800Y0095415D02*
X0036800Y0095415D01*
X0036800Y0093817D02*
X0036800Y0093817D01*
X0036800Y0092218D02*
X0036800Y0092218D01*
X0036800Y0090620D02*
X0036800Y0090620D01*
X0039925Y0090620D02*
X0042826Y0090620D01*
X0041910Y0092218D02*
X0041055Y0092218D01*
X0041400Y0093817D02*
X0041600Y0093817D01*
X0041600Y0095415D02*
X0041400Y0095415D01*
X0041400Y0097014D02*
X0041600Y0097014D01*
X0041600Y0098612D02*
X0041400Y0098612D01*
X0041361Y0100211D02*
X0041600Y0100211D01*
X0042087Y0101809D02*
X0040837Y0101809D01*
X0039385Y0103408D02*
X0043254Y0103408D01*
X0051513Y0101809D02*
X0101100Y0101809D01*
X0101100Y0100211D02*
X0052000Y0100211D01*
X0063247Y0112999D02*
X0022065Y0112999D01*
X0019934Y0111400D02*
X0083600Y0111400D01*
X0083600Y0112999D02*
X0070353Y0112999D01*
X0071516Y0114597D02*
X0083600Y0114597D01*
X0083600Y0116196D02*
X0072000Y0116196D01*
X0072000Y0117794D02*
X0083600Y0117794D01*
X0083600Y0119393D02*
X0071354Y0119393D01*
X0069963Y0120991D02*
X0083600Y0120991D01*
X0083600Y0122590D02*
X0069944Y0122590D01*
X0071347Y0124188D02*
X0083600Y0124188D01*
X0083952Y0125787D02*
X0072000Y0125787D01*
X0072000Y0127385D02*
X0085360Y0127385D01*
X0086958Y0128984D02*
X0073509Y0128984D01*
X0075108Y0130582D02*
X0093228Y0130582D01*
X0094363Y0132181D02*
X0076706Y0132181D01*
X0078305Y0133779D02*
X0092467Y0133779D01*
X0091761Y0135378D02*
X0079903Y0135378D01*
X0078788Y0138788D02*
X0066800Y0126800D01*
X0062076Y0128984D02*
X0004200Y0128984D01*
X0004200Y0127385D02*
X0061600Y0127385D01*
X0061600Y0125787D02*
X0004200Y0125787D01*
X0004200Y0124188D02*
X0062253Y0124188D01*
X0063656Y0122590D02*
X0004200Y0122590D01*
X0004200Y0120991D02*
X0063637Y0120991D01*
X0066800Y0116800D02*
X0021800Y0116800D01*
X0017802Y0109802D02*
X0083323Y0109802D01*
X0082423Y0108203D02*
X0015671Y0108203D01*
X0015000Y0106605D02*
X0082219Y0106605D01*
X0086800Y0106800D02*
X0086800Y0124300D01*
X0089300Y0126800D01*
X0096800Y0126800D01*
X0093656Y0122590D02*
X0090000Y0122590D01*
X0090000Y0120991D02*
X0093637Y0120991D01*
X0092246Y0119393D02*
X0090000Y0119393D01*
X0090000Y0117794D02*
X0091600Y0117794D01*
X0091600Y0116196D02*
X0090000Y0116196D01*
X0090000Y0114597D02*
X0092084Y0114597D01*
X0093247Y0112999D02*
X0090000Y0112999D01*
X0090000Y0111400D02*
X0101100Y0111400D01*
X0101100Y0109802D02*
X0090277Y0109802D01*
X0091177Y0108203D02*
X0101100Y0108203D01*
X0101100Y0106605D02*
X0091381Y0106605D01*
X0091016Y0105006D02*
X0101100Y0105006D01*
X0101100Y0103408D02*
X0089886Y0103408D01*
X0099842Y0098612D02*
X0101100Y0098612D01*
X0107500Y0098612D02*
X0109068Y0098612D01*
X0108957Y0097014D02*
X0107500Y0097014D01*
X0113525Y0097014D02*
X0115075Y0097014D01*
X0115075Y0098612D02*
X0113525Y0098612D01*
X0101100Y0112999D02*
X0100353Y0112999D01*
X0120000Y0133779D02*
X0129200Y0133779D01*
X0128700Y0135378D02*
X0120000Y0135378D01*
X0120000Y0136976D02*
X0128700Y0136976D01*
X0128700Y0138575D02*
X0120000Y0138575D01*
X0120000Y0140173D02*
X0128700Y0140173D01*
X0128700Y0141772D02*
X0120000Y0141772D01*
X0120000Y0143370D02*
X0128700Y0143370D01*
X0129261Y0144969D02*
X0120000Y0144969D01*
X0120000Y0146568D02*
X0130448Y0146568D01*
X0131100Y0148166D02*
X0120000Y0148166D01*
X0120000Y0149765D02*
X0131100Y0149765D01*
X0127524Y0151363D02*
X0120000Y0151363D01*
X0120000Y0152962D02*
X0126880Y0152962D01*
X0126880Y0154560D02*
X0120000Y0154560D01*
X0120008Y0156159D02*
X0126880Y0156159D01*
X0126880Y0157757D02*
X0119345Y0157757D01*
X0104833Y0162553D02*
X0101308Y0162553D01*
X0100029Y0164151D02*
X0104833Y0164151D01*
X0104833Y0165750D02*
X0098750Y0165750D01*
X0095361Y0170545D02*
X0285601Y0170545D01*
X0285601Y0168947D02*
X0274179Y0168947D01*
X0275777Y0167348D02*
X0285601Y0167348D01*
X0285601Y0165750D02*
X0277163Y0165750D01*
X0277500Y0164151D02*
X0285601Y0164151D01*
X0285601Y0162553D02*
X0277500Y0162553D01*
X0277500Y0160954D02*
X0285601Y0160954D01*
X0285601Y0159356D02*
X0277500Y0159356D01*
X0277500Y0157757D02*
X0285601Y0157757D01*
X0285601Y0156159D02*
X0277500Y0156159D01*
X0277500Y0154560D02*
X0285601Y0154560D01*
X0285601Y0152962D02*
X0277500Y0152962D01*
X0277500Y0151363D02*
X0285601Y0151363D01*
X0285601Y0149765D02*
X0277500Y0149765D01*
X0277500Y0148166D02*
X0285601Y0148166D01*
X0285601Y0146568D02*
X0277500Y0146568D01*
X0277500Y0144969D02*
X0285601Y0144969D01*
X0285601Y0143370D02*
X0277500Y0143370D01*
X0277500Y0141772D02*
X0285601Y0141772D01*
X0285601Y0140173D02*
X0277500Y0140173D01*
X0277500Y0138575D02*
X0285601Y0138575D01*
X0285601Y0136976D02*
X0277500Y0136976D01*
X0277500Y0135378D02*
X0285601Y0135378D01*
X0285601Y0133779D02*
X0277500Y0133779D01*
X0277500Y0132181D02*
X0285601Y0132181D01*
X0285601Y0130582D02*
X0277500Y0130582D01*
X0277500Y0128984D02*
X0285601Y0128984D01*
X0285601Y0127385D02*
X0277500Y0127385D01*
X0277500Y0125787D02*
X0285601Y0125787D01*
X0285601Y0124188D02*
X0277500Y0124188D01*
X0277500Y0122590D02*
X0285601Y0122590D01*
X0285601Y0120991D02*
X0277500Y0120991D01*
X0277500Y0119393D02*
X0285601Y0119393D01*
X0285601Y0117794D02*
X0277500Y0117794D01*
X0277500Y0116196D02*
X0285601Y0116196D01*
X0285601Y0114597D02*
X0277500Y0114597D01*
X0277500Y0112999D02*
X0285601Y0112999D01*
X0285601Y0111400D02*
X0277500Y0111400D01*
X0277500Y0109802D02*
X0285601Y0109802D01*
X0285601Y0108203D02*
X0277500Y0108203D01*
X0277500Y0106605D02*
X0285601Y0106605D01*
X0285601Y0105006D02*
X0277500Y0105006D01*
X0277500Y0103408D02*
X0285601Y0103408D01*
X0285601Y0101809D02*
X0277500Y0101809D01*
X0277500Y0100211D02*
X0285601Y0100211D01*
X0285601Y0098612D02*
X0277500Y0098612D01*
X0277500Y0097014D02*
X0285601Y0097014D01*
X0285601Y0095415D02*
X0277500Y0095415D01*
X0277500Y0093817D02*
X0285601Y0093817D01*
X0285601Y0092218D02*
X0277500Y0092218D01*
X0277500Y0090620D02*
X0285601Y0090620D01*
X0285601Y0089021D02*
X0277500Y0089021D01*
X0276948Y0087423D02*
X0285601Y0087423D01*
X0285601Y0085824D02*
X0275350Y0085824D01*
X0273751Y0084226D02*
X0285601Y0084226D01*
X0285601Y0082627D02*
X0272153Y0082627D01*
X0270554Y0081029D02*
X0285601Y0081029D01*
X0285601Y0079430D02*
X0268956Y0079430D01*
X0267357Y0077832D02*
X0285601Y0077832D01*
X0285601Y0076233D02*
X0265758Y0076233D01*
X0265731Y0074634D02*
X0285601Y0074634D01*
X0285601Y0073036D02*
X0265731Y0073036D01*
X0265731Y0071437D02*
X0285601Y0071437D01*
X0285601Y0069839D02*
X0265731Y0069839D01*
X0265253Y0068240D02*
X0285601Y0068240D01*
X0285601Y0066642D02*
X0265000Y0066642D01*
X0265000Y0065043D02*
X0285601Y0065043D01*
X0285601Y0063445D02*
X0265000Y0063445D01*
X0265000Y0061846D02*
X0285601Y0061846D01*
X0285601Y0060248D02*
X0265000Y0060248D01*
X0265000Y0058649D02*
X0285601Y0058649D01*
X0285601Y0057051D02*
X0279648Y0057051D01*
X0280243Y0055452D02*
X0285601Y0055452D01*
X0285601Y0053854D02*
X0280243Y0053854D01*
X0280243Y0052255D02*
X0285601Y0052255D01*
X0285601Y0050657D02*
X0280243Y0050657D01*
X0280243Y0049058D02*
X0285601Y0049058D01*
X0285601Y0047460D02*
X0279535Y0047460D01*
X0278538Y0046115D02*
X0278080Y0046238D01*
X0275075Y0046238D01*
X0275075Y0042063D01*
X0279643Y0042063D01*
X0279643Y0044675D01*
X0279521Y0045133D01*
X0279284Y0045543D01*
X0278949Y0045878D01*
X0278538Y0046115D01*
X0278965Y0045861D02*
X0285601Y0045861D01*
X0285601Y0044263D02*
X0279643Y0044263D01*
X0279643Y0042664D02*
X0285601Y0042664D01*
X0285601Y0041066D02*
X0275075Y0041066D01*
X0275075Y0040513D02*
X0275075Y0042063D01*
X0273525Y0042063D01*
X0273525Y0040513D01*
X0275075Y0040513D01*
X0275075Y0036339D01*
X0278080Y0036339D01*
X0278538Y0036461D01*
X0278949Y0036698D01*
X0279284Y0037033D01*
X0279521Y0037444D01*
X0279643Y0037902D01*
X0279643Y0040513D01*
X0275075Y0040513D01*
X0275075Y0039467D02*
X0273525Y0039467D01*
X0273525Y0040513D02*
X0273525Y0036339D01*
X0270520Y0036339D01*
X0270062Y0036461D01*
X0269651Y0036698D01*
X0269316Y0037033D01*
X0269079Y0037444D01*
X0268957Y0037902D01*
X0268957Y0040513D01*
X0273525Y0040513D01*
X0273525Y0041066D02*
X0255583Y0041066D01*
X0257182Y0039467D02*
X0268957Y0039467D01*
X0268965Y0037869D02*
X0258780Y0037869D01*
X0260379Y0036270D02*
X0285601Y0036270D01*
X0285601Y0034672D02*
X0261977Y0034672D01*
X0262500Y0033073D02*
X0285601Y0033073D01*
X0285601Y0031475D02*
X0266668Y0031475D01*
X0267966Y0029876D02*
X0285601Y0029876D01*
X0285601Y0028278D02*
X0267999Y0028278D01*
X0267999Y0026679D02*
X0285601Y0026679D01*
X0285601Y0025081D02*
X0267999Y0025081D01*
X0267999Y0023482D02*
X0285601Y0023482D01*
X0285601Y0021884D02*
X0267999Y0021884D01*
X0267045Y0020285D02*
X0285601Y0020285D01*
X0259300Y0025776D02*
X0259300Y0032824D01*
X0239300Y0052824D01*
X0234600Y0055624D01*
X0234600Y0067700D01*
X0241400Y0068240D02*
X0252749Y0068240D01*
X0252270Y0069839D02*
X0241400Y0069839D01*
X0241044Y0071437D02*
X0252270Y0071437D01*
X0252270Y0073036D02*
X0241030Y0073036D01*
X0241400Y0074634D02*
X0252270Y0074634D01*
X0252270Y0076233D02*
X0241400Y0076233D01*
X0241400Y0077832D02*
X0252270Y0077832D01*
X0252270Y0079430D02*
X0241400Y0079430D01*
X0240566Y0081029D02*
X0252270Y0081029D01*
X0252270Y0082627D02*
X0241236Y0082627D01*
X0241400Y0084226D02*
X0252270Y0084226D01*
X0253213Y0085824D02*
X0241400Y0085824D01*
X0241400Y0087423D02*
X0267897Y0087423D01*
X0269496Y0089021D02*
X0241299Y0089021D01*
X0239671Y0090620D02*
X0271094Y0090620D01*
X0271100Y0092218D02*
X0197261Y0092218D01*
X0197261Y0093080D02*
X0197261Y0090075D01*
X0193087Y0090075D01*
X0193087Y0088525D01*
X0197261Y0088525D01*
X0197261Y0085520D01*
X0197139Y0085062D01*
X0196902Y0084651D01*
X0196567Y0084316D01*
X0196156Y0084079D01*
X0195698Y0083957D01*
X0193087Y0083957D01*
X0193087Y0088525D01*
X0191537Y0088525D01*
X0191537Y0083957D01*
X0188925Y0083957D01*
X0188467Y0084079D01*
X0188057Y0084316D01*
X0187722Y0084651D01*
X0187485Y0085062D01*
X0187362Y0085520D01*
X0187362Y0088525D01*
X0191537Y0088525D01*
X0191537Y0090075D01*
X0191537Y0094643D01*
X0188925Y0094643D01*
X0188467Y0094521D01*
X0188057Y0094284D01*
X0187722Y0093949D01*
X0187485Y0093538D01*
X0187362Y0093080D01*
X0187362Y0090075D01*
X0191537Y0090075D01*
X0193087Y0090075D01*
X0193087Y0094643D01*
X0195698Y0094643D01*
X0196156Y0094521D01*
X0196567Y0094284D01*
X0196902Y0093949D01*
X0197139Y0093538D01*
X0197261Y0093080D01*
X0196978Y0093817D02*
X0271100Y0093817D01*
X0271100Y0095415D02*
X0181164Y0095415D01*
X0180467Y0097014D02*
X0180137Y0097014D01*
X0176800Y0096288D02*
X0181288Y0089300D01*
X0176288Y0086288D01*
X0171800Y0081800D01*
X0155776Y0081800D01*
X0154300Y0083276D01*
X0162092Y0077832D02*
X0195806Y0077832D01*
X0197405Y0079430D02*
X0173956Y0079430D01*
X0175554Y0081029D02*
X0199003Y0081029D01*
X0200602Y0082627D02*
X0177153Y0082627D01*
X0186301Y0084226D02*
X0188214Y0084226D01*
X0187362Y0085824D02*
X0186838Y0085824D01*
X0186838Y0087423D02*
X0187362Y0087423D01*
X0186838Y0089021D02*
X0191537Y0089021D01*
X0193087Y0089021D02*
X0213598Y0089021D01*
X0219300Y0084812D02*
X0233512Y0084812D01*
X0234600Y0085900D01*
X0227901Y0089021D02*
X0225002Y0089021D01*
X0229529Y0090620D02*
X0197261Y0090620D01*
X0193087Y0090620D02*
X0191537Y0090620D01*
X0191537Y0092218D02*
X0193087Y0092218D01*
X0193087Y0093817D02*
X0191537Y0093817D01*
X0187646Y0093817D02*
X0186632Y0093817D01*
X0186838Y0092218D02*
X0187362Y0092218D01*
X0187362Y0090620D02*
X0186838Y0090620D01*
X0191537Y0087423D02*
X0193087Y0087423D01*
X0193087Y0085824D02*
X0191537Y0085824D01*
X0191537Y0084226D02*
X0193087Y0084226D01*
X0196409Y0084226D02*
X0202200Y0084226D01*
X0203799Y0085824D02*
X0197261Y0085824D01*
X0197261Y0087423D02*
X0205977Y0087423D01*
X0208133Y0097014D02*
X0210467Y0097014D01*
X0218133Y0097014D02*
X0220467Y0097014D01*
X0228133Y0097014D02*
X0230467Y0097014D01*
X0238133Y0097014D02*
X0240467Y0097014D01*
X0248133Y0097014D02*
X0250467Y0097014D01*
X0258133Y0097014D02*
X0271100Y0097014D01*
X0271100Y0098612D02*
X0259331Y0098612D01*
X0259900Y0100211D02*
X0271100Y0100211D01*
X0271100Y0101809D02*
X0259900Y0101809D01*
X0259900Y0103408D02*
X0271100Y0103408D01*
X0271100Y0105006D02*
X0259900Y0105006D01*
X0259900Y0106605D02*
X0271100Y0106605D01*
X0271100Y0108203D02*
X0259900Y0108203D01*
X0259408Y0109802D02*
X0271100Y0109802D01*
X0271100Y0111400D02*
X0266016Y0111400D01*
X0266219Y0111466D02*
X0266921Y0111824D01*
X0267557Y0112286D01*
X0268114Y0112843D01*
X0268576Y0113479D01*
X0268934Y0114181D01*
X0269177Y0114929D01*
X0269300Y0115706D01*
X0269300Y0119100D01*
X0264500Y0119100D01*
X0264500Y0111100D01*
X0264694Y0111100D01*
X0265471Y0111223D01*
X0266219Y0111466D01*
X0264500Y0111400D02*
X0264100Y0111400D01*
X0262584Y0111400D02*
X0258319Y0111400D01*
X0259077Y0112999D02*
X0260373Y0112999D01*
X0264100Y0112999D02*
X0264500Y0112999D01*
X0264500Y0114597D02*
X0264100Y0114597D01*
X0264100Y0116196D02*
X0264500Y0116196D01*
X0264500Y0117794D02*
X0264100Y0117794D01*
X0264500Y0119393D02*
X0271100Y0119393D01*
X0271100Y0120991D02*
X0269300Y0120991D01*
X0269300Y0119500D02*
X0269300Y0122894D01*
X0269177Y0123671D01*
X0268934Y0124419D01*
X0268576Y0125121D01*
X0268114Y0125757D01*
X0267557Y0126314D01*
X0266921Y0126776D01*
X0266219Y0127134D01*
X0265471Y0127377D01*
X0264694Y0127500D01*
X0264500Y0127500D01*
X0264500Y0119500D01*
X0269300Y0119500D01*
X0269300Y0117794D02*
X0271100Y0117794D01*
X0271100Y0116196D02*
X0269300Y0116196D01*
X0269069Y0114597D02*
X0271100Y0114597D01*
X0271100Y0112999D02*
X0268227Y0112999D01*
X0264500Y0120991D02*
X0264100Y0120991D01*
X0264100Y0122590D02*
X0264500Y0122590D01*
X0264500Y0124188D02*
X0264100Y0124188D01*
X0264100Y0125787D02*
X0264500Y0125787D01*
X0264500Y0127385D02*
X0264100Y0127385D01*
X0263183Y0127385D02*
X0257139Y0127385D01*
X0258933Y0125787D02*
X0260516Y0125787D01*
X0265417Y0127385D02*
X0271100Y0127385D01*
X0271100Y0125787D02*
X0268084Y0125787D01*
X0269009Y0124188D02*
X0271100Y0124188D01*
X0271100Y0122590D02*
X0269300Y0122590D01*
X0268300Y0132181D02*
X0271100Y0132181D01*
X0271100Y0133779D02*
X0269400Y0133779D01*
X0269900Y0135378D02*
X0271100Y0135378D01*
X0271100Y0136976D02*
X0269900Y0136976D01*
X0269900Y0138575D02*
X0271100Y0138575D01*
X0271100Y0140173D02*
X0269900Y0140173D01*
X0269900Y0141772D02*
X0271100Y0141772D01*
X0271100Y0143370D02*
X0269900Y0143370D01*
X0269339Y0144969D02*
X0271100Y0144969D01*
X0271100Y0146568D02*
X0268152Y0146568D01*
X0269146Y0148166D02*
X0271100Y0148166D01*
X0271100Y0149765D02*
X0269808Y0149765D01*
X0269900Y0151363D02*
X0271100Y0151363D01*
X0271100Y0152962D02*
X0269900Y0152962D01*
X0269900Y0154560D02*
X0271100Y0154560D01*
X0271100Y0156159D02*
X0269900Y0156159D01*
X0269900Y0157757D02*
X0271100Y0157757D01*
X0271100Y0159356D02*
X0269593Y0159356D01*
X0268765Y0160954D02*
X0271100Y0160954D01*
X0271100Y0162553D02*
X0266735Y0162553D01*
X0261865Y0162553D02*
X0256735Y0162553D01*
X0258765Y0160954D02*
X0259835Y0160954D01*
X0251865Y0162553D02*
X0246735Y0162553D01*
X0248765Y0160954D02*
X0249835Y0160954D01*
X0241865Y0162553D02*
X0236735Y0162553D01*
X0238765Y0160954D02*
X0239835Y0160954D01*
X0231865Y0162553D02*
X0226735Y0162553D01*
X0228765Y0160954D02*
X0229835Y0160954D01*
X0221865Y0162553D02*
X0216735Y0162553D01*
X0218765Y0160954D02*
X0219835Y0160954D01*
X0211865Y0162553D02*
X0206735Y0162553D01*
X0208765Y0160954D02*
X0209835Y0160954D01*
X0201865Y0162553D02*
X0196735Y0162553D01*
X0198765Y0160954D02*
X0199835Y0160954D01*
X0191865Y0162553D02*
X0186735Y0162553D01*
X0188765Y0160954D02*
X0189835Y0160954D01*
X0181865Y0162553D02*
X0176735Y0162553D01*
X0178765Y0160954D02*
X0179835Y0160954D01*
X0171865Y0162553D02*
X0166735Y0162553D01*
X0168765Y0160954D02*
X0169835Y0160954D01*
X0161865Y0162553D02*
X0156735Y0162553D01*
X0158765Y0160954D02*
X0159835Y0160954D01*
X0151865Y0162553D02*
X0143554Y0162553D01*
X0141956Y0160954D02*
X0149835Y0160954D01*
X0149007Y0159356D02*
X0140357Y0159356D01*
X0138767Y0157757D02*
X0148700Y0157757D01*
X0148700Y0156159D02*
X0138767Y0156159D01*
X0138767Y0154560D02*
X0148700Y0154560D01*
X0148700Y0152962D02*
X0138767Y0152962D01*
X0138123Y0151363D02*
X0148700Y0151363D01*
X0148792Y0149765D02*
X0137500Y0149765D01*
X0137500Y0148166D02*
X0149454Y0148166D01*
X0150448Y0146568D02*
X0148152Y0146568D01*
X0140448Y0146568D02*
X0138152Y0146568D01*
X0134300Y0157824D02*
X0132824Y0159300D01*
X0143276Y0166800D02*
X0271800Y0166800D01*
X0274300Y0164300D01*
X0274300Y0089300D01*
X0261800Y0076800D01*
X0261800Y0051800D01*
X0262312Y0052312D01*
X0274300Y0052312D01*
X0268357Y0049058D02*
X0267999Y0049058D01*
X0267999Y0047460D02*
X0269065Y0047460D01*
X0270062Y0046115D02*
X0269651Y0045878D01*
X0269316Y0045543D01*
X0269079Y0045133D01*
X0268957Y0044675D01*
X0268957Y0042063D01*
X0273525Y0042063D01*
X0273525Y0046238D01*
X0270520Y0046238D01*
X0270062Y0046115D01*
X0269635Y0045861D02*
X0267999Y0045861D01*
X0267999Y0044263D02*
X0268957Y0044263D01*
X0268957Y0042664D02*
X0267377Y0042664D01*
X0273525Y0042664D02*
X0275075Y0042664D01*
X0275075Y0044263D02*
X0273525Y0044263D01*
X0273525Y0045861D02*
X0275075Y0045861D01*
X0279643Y0039467D02*
X0285601Y0039467D01*
X0285601Y0037869D02*
X0279634Y0037869D01*
X0275075Y0037869D02*
X0273525Y0037869D01*
X0261800Y0050324D02*
X0259300Y0047824D01*
X0261800Y0050324D02*
X0261800Y0051800D01*
X0258600Y0053854D02*
X0247999Y0053854D01*
X0247999Y0055452D02*
X0258600Y0055452D01*
X0258600Y0057051D02*
X0247914Y0057051D01*
X0246360Y0058649D02*
X0258600Y0058649D01*
X0258600Y0060248D02*
X0237800Y0060248D01*
X0237800Y0061846D02*
X0258600Y0061846D01*
X0258600Y0063445D02*
X0240539Y0063445D01*
X0241400Y0065043D02*
X0258600Y0065043D01*
X0258600Y0066642D02*
X0241400Y0066642D01*
X0259001Y0076800D02*
X0261800Y0076800D01*
X0264788Y0085824D02*
X0266299Y0085824D01*
X0254300Y0104300D02*
X0254300Y0119300D01*
X0249667Y0125787D02*
X0248933Y0125787D01*
X0247139Y0127385D02*
X0251461Y0127385D01*
X0250299Y0132181D02*
X0248300Y0132181D01*
X0240299Y0132181D02*
X0238300Y0132181D01*
X0230299Y0132181D02*
X0228300Y0132181D01*
X0227139Y0127385D02*
X0231461Y0127385D01*
X0229667Y0125787D02*
X0228933Y0125787D01*
X0221461Y0127385D02*
X0217139Y0127385D01*
X0218933Y0125787D02*
X0219667Y0125787D01*
X0224300Y0119300D02*
X0224300Y0104300D01*
X0234300Y0104300D02*
X0234300Y0119300D01*
X0238933Y0125787D02*
X0239667Y0125787D01*
X0241461Y0127385D02*
X0237139Y0127385D01*
X0244300Y0119300D02*
X0244300Y0104300D01*
X0214300Y0104300D02*
X0214300Y0119300D01*
X0209667Y0125787D02*
X0208933Y0125787D01*
X0207139Y0127385D02*
X0211461Y0127385D01*
X0210299Y0132181D02*
X0208300Y0132181D01*
X0200299Y0132181D02*
X0198300Y0132181D01*
X0197139Y0127385D02*
X0201461Y0127385D01*
X0199667Y0125787D02*
X0198933Y0125787D01*
X0191461Y0127385D02*
X0187139Y0127385D01*
X0188933Y0125787D02*
X0189667Y0125787D01*
X0194300Y0119300D02*
X0194300Y0104300D01*
X0184300Y0104300D02*
X0184300Y0119300D01*
X0179667Y0125787D02*
X0178084Y0125787D01*
X0175417Y0127385D02*
X0181461Y0127385D01*
X0180299Y0132181D02*
X0178300Y0132181D01*
X0174500Y0127385D02*
X0174100Y0127385D01*
X0173183Y0127385D02*
X0167139Y0127385D01*
X0168933Y0125787D02*
X0170516Y0125787D01*
X0174100Y0125787D02*
X0174500Y0125787D01*
X0174500Y0124188D02*
X0174100Y0124188D01*
X0174100Y0122590D02*
X0174500Y0122590D01*
X0174500Y0120991D02*
X0174100Y0120991D01*
X0164300Y0119300D02*
X0176800Y0106800D01*
X0176800Y0096288D01*
X0170075Y0095415D02*
X0168525Y0095415D01*
X0168525Y0093817D02*
X0170075Y0093817D01*
X0170075Y0092218D02*
X0168525Y0092218D01*
X0170075Y0090620D02*
X0175739Y0090620D01*
X0175611Y0092218D02*
X0174643Y0092218D01*
X0163357Y0100211D02*
X0162424Y0100211D01*
X0162999Y0101809D02*
X0163357Y0101809D01*
X0163357Y0103408D02*
X0162999Y0103408D01*
X0162999Y0105006D02*
X0163357Y0105006D01*
X0169300Y0104300D02*
X0169300Y0102312D01*
X0169300Y0104300D02*
X0154300Y0119300D01*
X0149667Y0125787D02*
X0148084Y0125787D01*
X0157139Y0127385D02*
X0161461Y0127385D01*
X0159667Y0125787D02*
X0158933Y0125787D01*
X0158300Y0132181D02*
X0160299Y0132181D01*
X0168300Y0132181D02*
X0170299Y0132181D01*
X0174300Y0139300D02*
X0174300Y0154300D01*
X0164300Y0154300D02*
X0164300Y0139300D01*
X0154300Y0139300D02*
X0154300Y0154300D01*
X0184300Y0154300D02*
X0184300Y0139300D01*
X0188300Y0132181D02*
X0190299Y0132181D01*
X0194300Y0139300D02*
X0194300Y0154300D01*
X0204300Y0154300D02*
X0204300Y0139300D01*
X0214300Y0139300D02*
X0214300Y0154300D01*
X0224300Y0154300D02*
X0224300Y0139300D01*
X0220299Y0132181D02*
X0218300Y0132181D01*
X0234300Y0139300D02*
X0234300Y0154300D01*
X0244300Y0154300D02*
X0244300Y0139300D01*
X0254300Y0139300D02*
X0254300Y0154300D01*
X0264300Y0154300D02*
X0264300Y0139300D01*
X0260299Y0132181D02*
X0258300Y0132181D01*
X0204300Y0119300D02*
X0204300Y0104300D01*
X0200467Y0097014D02*
X0198133Y0097014D01*
X0190467Y0097014D02*
X0188133Y0097014D01*
X0194208Y0076233D02*
X0151044Y0076233D01*
X0152828Y0074634D02*
X0192609Y0074634D01*
X0191011Y0073036D02*
X0154613Y0073036D01*
X0156397Y0071437D02*
X0189412Y0071437D01*
X0175565Y0069839D02*
X0158182Y0069839D01*
X0159967Y0068240D02*
X0175369Y0068240D01*
X0175369Y0066642D02*
X0161751Y0066642D01*
X0163536Y0065043D02*
X0173296Y0065043D01*
X0173472Y0065043D02*
X0175369Y0065043D01*
X0158101Y0060248D02*
X0100102Y0060248D01*
X0101412Y0061846D02*
X0157513Y0061846D01*
X0155728Y0063445D02*
X0142663Y0063445D01*
X0142999Y0065043D02*
X0153944Y0065043D01*
X0152159Y0066642D02*
X0142999Y0066642D01*
X0142999Y0068240D02*
X0150374Y0068240D01*
X0148590Y0069839D02*
X0142999Y0069839D01*
X0142999Y0071437D02*
X0146805Y0071437D01*
X0145021Y0073036D02*
X0142693Y0073036D01*
X0143236Y0074634D02*
X0116373Y0074634D01*
X0115416Y0076233D02*
X0120842Y0076233D01*
X0124824Y0073036D02*
X0125907Y0073036D01*
X0118847Y0068276D02*
X0116800Y0067824D01*
X0112824Y0074300D01*
X0096800Y0074300D01*
X0099618Y0069839D02*
X0108101Y0069839D01*
X0108101Y0068240D02*
X0100213Y0068240D01*
X0101458Y0066642D02*
X0108101Y0066642D01*
X0108101Y0065043D02*
X0102000Y0065043D01*
X0102000Y0063445D02*
X0108249Y0063445D01*
X0101021Y0057051D02*
X0148952Y0057051D01*
X0148357Y0055452D02*
X0103214Y0055452D01*
X0105476Y0053854D02*
X0146987Y0053854D01*
X0146134Y0052255D02*
X0107738Y0052255D01*
X0107824Y0048276D02*
X0099300Y0054300D01*
X0094300Y0054300D01*
X0095246Y0058649D02*
X0158101Y0058649D01*
X0154300Y0052312D02*
X0149812Y0052312D01*
X0146800Y0046800D01*
X0146800Y0021800D01*
X0141800Y0014300D01*
X0091800Y0014300D01*
X0086800Y0024300D01*
X0086800Y0036800D01*
X0079300Y0044300D01*
X0071800Y0044300D01*
X0064300Y0054300D01*
X0042824Y0054300D01*
X0041800Y0052824D01*
X0033101Y0052255D02*
X0004200Y0052255D01*
X0004200Y0050657D02*
X0033101Y0050657D01*
X0033101Y0049058D02*
X0004200Y0049058D01*
X0004200Y0047460D02*
X0033927Y0047460D01*
X0033101Y0053854D02*
X0004200Y0053854D01*
X0004200Y0055452D02*
X0033101Y0055452D01*
X0033186Y0057051D02*
X0004200Y0057051D01*
X0004200Y0058649D02*
X0034740Y0058649D01*
X0043184Y0071437D02*
X0019188Y0071437D01*
X0029071Y0074634D02*
X0029529Y0074634D01*
X0044956Y0081029D02*
X0062718Y0081029D01*
X0068631Y0079430D02*
X0086100Y0079430D01*
X0086100Y0077832D02*
X0070622Y0077832D01*
X0070882Y0081029D02*
X0085546Y0081029D01*
X0118847Y0068276D02*
X0134300Y0068276D01*
X0125601Y0065043D02*
X0125499Y0065043D01*
X0125351Y0063445D02*
X0125937Y0063445D01*
X0125143Y0050657D02*
X0145261Y0050657D01*
X0144387Y0049058D02*
X0125499Y0049058D01*
X0125499Y0047460D02*
X0143610Y0047460D01*
X0143600Y0045861D02*
X0125499Y0045861D01*
X0125499Y0044263D02*
X0143600Y0044263D01*
X0143600Y0042664D02*
X0125499Y0042664D01*
X0125213Y0041066D02*
X0143600Y0041066D01*
X0150000Y0036270D02*
X0158101Y0036270D01*
X0158101Y0034672D02*
X0150000Y0034672D01*
X0150000Y0033073D02*
X0158101Y0033073D01*
X0158217Y0031475D02*
X0150000Y0031475D01*
X0150000Y0029876D02*
X0159919Y0029876D01*
X0167317Y0028278D02*
X0150000Y0028278D01*
X0150000Y0026679D02*
X0168516Y0026679D01*
X0169715Y0025081D02*
X0150000Y0025081D01*
X0150000Y0023482D02*
X0170913Y0023482D01*
X0172112Y0021884D02*
X0150047Y0021884D01*
X0134300Y0029300D02*
X0131800Y0034300D01*
X0101800Y0034300D01*
X0097400Y0043700D01*
X0097400Y0044300D01*
X0103663Y0037869D02*
X0110875Y0037869D01*
X0117725Y0037869D02*
X0122356Y0037869D01*
X0123919Y0037869D02*
X0124681Y0037869D01*
X0126244Y0037869D02*
X0130875Y0037869D01*
X0116800Y0045776D02*
X0107824Y0048276D01*
X0082804Y0036270D02*
X0049543Y0036270D01*
X0049459Y0036354D02*
X0050134Y0035679D01*
X0050499Y0034797D01*
X0050499Y0026756D01*
X0050134Y0025874D01*
X0049459Y0025198D01*
X0048577Y0024833D01*
X0047500Y0024833D01*
X0047500Y0020954D01*
X0049500Y0018954D01*
X0049500Y0014646D01*
X0046454Y0011600D01*
X0042146Y0011600D01*
X0039100Y0014646D01*
X0039100Y0018954D01*
X0041100Y0020954D01*
X0041100Y0024833D01*
X0035023Y0024833D01*
X0034141Y0025198D01*
X0033466Y0025874D01*
X0033101Y0026756D01*
X0033101Y0034797D01*
X0033466Y0035679D01*
X0034141Y0036354D01*
X0035023Y0036720D01*
X0048577Y0036720D01*
X0049459Y0036354D01*
X0050499Y0034672D02*
X0083600Y0034672D01*
X0083600Y0033073D02*
X0050499Y0033073D01*
X0050499Y0031475D02*
X0083600Y0031475D01*
X0083600Y0029876D02*
X0050499Y0029876D01*
X0050499Y0028278D02*
X0083600Y0028278D01*
X0083600Y0026679D02*
X0081043Y0026679D01*
X0083338Y0025081D02*
X0083600Y0025081D01*
X0079300Y0021800D02*
X0079300Y0009300D01*
X0076223Y0005899D02*
X0004200Y0005899D01*
X0004200Y0007497D02*
X0075088Y0007497D01*
X0074719Y0009096D02*
X0004200Y0009096D01*
X0004200Y0010694D02*
X0074919Y0010694D01*
X0075814Y0012293D02*
X0047146Y0012293D01*
X0048745Y0013891D02*
X0076100Y0013891D01*
X0076100Y0015490D02*
X0049500Y0015490D01*
X0049500Y0017088D02*
X0059053Y0017088D01*
X0058269Y0017413D02*
X0060171Y0016625D01*
X0062229Y0016625D01*
X0064131Y0017413D01*
X0065587Y0018869D01*
X0066375Y0020771D01*
X0066375Y0022829D01*
X0065587Y0024731D01*
X0064131Y0026187D01*
X0062229Y0026975D01*
X0060171Y0026975D01*
X0058269Y0026187D01*
X0056813Y0024731D01*
X0056025Y0022829D01*
X0056025Y0020771D01*
X0056813Y0018869D01*
X0058269Y0017413D01*
X0056995Y0018687D02*
X0049500Y0018687D01*
X0048169Y0020285D02*
X0056226Y0020285D01*
X0056025Y0021884D02*
X0047500Y0021884D01*
X0047500Y0023482D02*
X0056296Y0023482D01*
X0057162Y0025081D02*
X0049174Y0025081D01*
X0050467Y0026679D02*
X0059457Y0026679D01*
X0062943Y0026679D02*
X0077557Y0026679D01*
X0075262Y0025081D02*
X0065238Y0025081D01*
X0066104Y0023482D02*
X0074396Y0023482D01*
X0074125Y0021884D02*
X0066375Y0021884D01*
X0066174Y0020285D02*
X0074326Y0020285D01*
X0075095Y0018687D02*
X0065405Y0018687D01*
X0063347Y0017088D02*
X0076100Y0017088D01*
X0082500Y0017088D02*
X0086828Y0017088D01*
X0086029Y0018687D02*
X0083505Y0018687D01*
X0084274Y0020285D02*
X0085230Y0020285D01*
X0087627Y0015490D02*
X0082500Y0015490D01*
X0082500Y0013891D02*
X0088427Y0013891D01*
X0089231Y0012293D02*
X0082786Y0012293D01*
X0092385Y0020285D02*
X0092426Y0020285D01*
X0101800Y0029300D02*
X0114300Y0029300D01*
X0123919Y0028278D02*
X0124681Y0028278D01*
X0124681Y0026679D02*
X0123919Y0026679D01*
X0123919Y0025081D02*
X0124681Y0025081D01*
X0124681Y0023482D02*
X0123919Y0023482D01*
X0123919Y0021884D02*
X0124681Y0021884D01*
X0128029Y0021884D02*
X0129722Y0021884D01*
X0131884Y0020285D02*
X0116716Y0020285D01*
X0118878Y0021884D02*
X0120571Y0021884D01*
X0153525Y0037869D02*
X0155075Y0037869D01*
X0155075Y0039467D02*
X0153525Y0039467D01*
X0155075Y0040513D02*
X0155075Y0042063D01*
X0159643Y0042063D01*
X0159643Y0044675D01*
X0159521Y0045133D01*
X0159284Y0045543D01*
X0158949Y0045878D01*
X0158564Y0046100D01*
X0194937Y0046100D01*
X0196113Y0046587D01*
X0197013Y0047487D01*
X0197013Y0047487D01*
X0199025Y0049500D01*
X0199834Y0049500D01*
X0200065Y0048941D01*
X0200741Y0048265D01*
X0201623Y0047900D01*
X0211377Y0047900D01*
X0212124Y0048209D01*
X0212124Y0045499D01*
X0211303Y0045499D01*
X0210421Y0045134D01*
X0209746Y0044459D01*
X0209380Y0043577D01*
X0209380Y0030023D01*
X0209746Y0029141D01*
X0210421Y0028466D01*
X0211142Y0028167D01*
X0210475Y0027500D01*
X0175900Y0027500D01*
X0174014Y0030014D01*
X0174459Y0030198D01*
X0175134Y0030874D01*
X0175499Y0031756D01*
X0175499Y0039797D01*
X0175134Y0040679D01*
X0174459Y0041354D01*
X0173577Y0041720D01*
X0160023Y0041720D01*
X0159141Y0041354D01*
X0158466Y0040679D01*
X0158397Y0040513D01*
X0155075Y0040513D01*
X0155075Y0041066D02*
X0158853Y0041066D01*
X0159643Y0042664D02*
X0187933Y0042664D01*
X0187933Y0043336D02*
X0187933Y0037600D01*
X0192476Y0037600D01*
X0192476Y0036000D01*
X0187933Y0036000D01*
X0187933Y0030264D01*
X0188056Y0029806D01*
X0188293Y0029396D01*
X0188628Y0029060D01*
X0189038Y0028823D01*
X0189496Y0028701D01*
X0192476Y0028701D01*
X0192476Y0036000D01*
X0194076Y0036000D01*
X0194076Y0028701D01*
X0197057Y0028701D01*
X0197514Y0028823D01*
X0197925Y0029060D01*
X0198260Y0029396D01*
X0198497Y0029806D01*
X0198620Y0030264D01*
X0198620Y0036000D01*
X0194076Y0036000D01*
X0194076Y0037600D01*
X0192476Y0037600D01*
X0192476Y0044899D01*
X0189496Y0044899D01*
X0189038Y0044777D01*
X0188628Y0044540D01*
X0188293Y0044204D01*
X0188056Y0043794D01*
X0187933Y0043336D01*
X0188788Y0043788D02*
X0154300Y0043788D01*
X0154300Y0041288D01*
X0155075Y0042063D02*
X0153525Y0042063D01*
X0153525Y0046100D01*
X0155075Y0046100D01*
X0155075Y0042063D01*
X0155075Y0042664D02*
X0153525Y0042664D01*
X0153525Y0044263D02*
X0155075Y0044263D01*
X0155075Y0045861D02*
X0153525Y0045861D01*
X0152312Y0049300D02*
X0154300Y0052312D01*
X0152312Y0049300D02*
X0194300Y0049300D01*
X0197700Y0052700D01*
X0206500Y0052700D01*
X0200017Y0049058D02*
X0198584Y0049058D01*
X0196985Y0047460D02*
X0212124Y0047460D01*
X0212124Y0045861D02*
X0158965Y0045861D01*
X0159643Y0044263D02*
X0188351Y0044263D01*
X0188788Y0043788D02*
X0193276Y0036800D01*
X0192476Y0036270D02*
X0175499Y0036270D01*
X0175499Y0034672D02*
X0187933Y0034672D01*
X0187933Y0033073D02*
X0175499Y0033073D01*
X0175383Y0031475D02*
X0187933Y0031475D01*
X0188037Y0029876D02*
X0174118Y0029876D01*
X0175317Y0028278D02*
X0210876Y0028278D01*
X0209441Y0029876D02*
X0198516Y0029876D01*
X0198620Y0031475D02*
X0209380Y0031475D01*
X0209380Y0033073D02*
X0198620Y0033073D01*
X0198620Y0034672D02*
X0209380Y0034672D01*
X0209380Y0036270D02*
X0194076Y0036270D01*
X0194076Y0037600D02*
X0198620Y0037600D01*
X0198620Y0043336D01*
X0198497Y0043794D01*
X0198260Y0044204D01*
X0197925Y0044540D01*
X0197514Y0044777D01*
X0197057Y0044899D01*
X0194076Y0044899D01*
X0194076Y0037600D01*
X0194076Y0037869D02*
X0192476Y0037869D01*
X0192476Y0039467D02*
X0194076Y0039467D01*
X0194076Y0041066D02*
X0192476Y0041066D01*
X0192476Y0042664D02*
X0194076Y0042664D01*
X0194076Y0044263D02*
X0192476Y0044263D01*
X0187933Y0041066D02*
X0174747Y0041066D01*
X0175499Y0039467D02*
X0187933Y0039467D01*
X0187933Y0037869D02*
X0175499Y0037869D01*
X0166800Y0035776D02*
X0166800Y0034300D01*
X0174300Y0024300D01*
X0211800Y0024300D01*
X0216800Y0029300D01*
X0216800Y0035324D01*
X0215324Y0036800D01*
X0215324Y0065776D01*
X0211800Y0069300D01*
X0208100Y0069300D01*
X0206500Y0070900D01*
X0209665Y0044263D02*
X0198202Y0044263D01*
X0198620Y0042664D02*
X0209380Y0042664D01*
X0209380Y0041066D02*
X0198620Y0041066D01*
X0198620Y0039467D02*
X0209380Y0039467D01*
X0209380Y0037869D02*
X0198620Y0037869D01*
X0194076Y0034672D02*
X0192476Y0034672D01*
X0192476Y0033073D02*
X0194076Y0033073D01*
X0194076Y0031475D02*
X0192476Y0031475D01*
X0192476Y0029876D02*
X0194076Y0029876D01*
X0247399Y0033073D02*
X0254525Y0033073D01*
X0250601Y0047460D02*
X0249189Y0047460D01*
X0247999Y0049058D02*
X0250601Y0049058D01*
X0250601Y0050657D02*
X0247999Y0050657D01*
X0247999Y0052255D02*
X0250771Y0052255D01*
X0265000Y0057051D02*
X0268952Y0057051D01*
X0154300Y0105324D02*
X0135776Y0105324D01*
X0134300Y0106800D02*
X0134300Y0119300D01*
X0130299Y0132181D02*
X0121643Y0132181D01*
X0138300Y0132181D02*
X0140299Y0132181D01*
X0095361Y0172144D02*
X0285601Y0172144D01*
X0285601Y0173742D02*
X0095361Y0173742D01*
X0095361Y0175341D02*
X0285601Y0175341D01*
X0285601Y0176939D02*
X0094760Y0176939D01*
X0084864Y0176939D02*
X0083736Y0176939D01*
X0078788Y0171800D02*
X0078788Y0138788D01*
X0072312Y0142312D02*
X0072312Y0159300D01*
X0066800Y0155188D02*
X0067128Y0154397D01*
X0067803Y0153722D01*
X0068685Y0153357D01*
X0069112Y0153357D01*
X0069112Y0151471D01*
X0067834Y0152000D01*
X0065766Y0152000D01*
X0063854Y0151208D01*
X0062392Y0149746D01*
X0061600Y0147834D01*
X0061600Y0145766D01*
X0062392Y0143854D01*
X0063854Y0142392D01*
X0065283Y0141800D01*
X0063854Y0141208D01*
X0062646Y0140000D01*
X0060079Y0140000D01*
X0059395Y0140684D01*
X0057711Y0141381D01*
X0055889Y0141381D01*
X0054205Y0140684D01*
X0052916Y0139395D01*
X0052219Y0137711D01*
X0052219Y0135889D01*
X0052916Y0134205D01*
X0054205Y0132916D01*
X0055889Y0132219D01*
X0057711Y0132219D01*
X0059395Y0132916D01*
X0060079Y0133600D01*
X0062646Y0133600D01*
X0063854Y0132392D01*
X0065283Y0131800D01*
X0063854Y0131208D01*
X0064363Y0132181D02*
X0047335Y0132181D01*
X0047246Y0132092D02*
X0048708Y0133554D01*
X0049500Y0135466D01*
X0049500Y0143134D01*
X0048708Y0145046D01*
X0047246Y0146508D01*
X0045334Y0147300D01*
X0043266Y0147300D01*
X0041354Y0146508D01*
X0039892Y0145046D01*
X0039100Y0143134D01*
X0039100Y0135466D01*
X0039892Y0133554D01*
X0041354Y0132092D01*
X0043266Y0131300D01*
X0045334Y0131300D01*
X0047246Y0132092D01*
X0048802Y0133779D02*
X0053342Y0133779D01*
X0052430Y0135378D02*
X0049464Y0135378D01*
X0049500Y0136976D02*
X0052219Y0136976D01*
X0052577Y0138575D02*
X0049500Y0138575D01*
X0049500Y0140173D02*
X0053695Y0140173D01*
X0049500Y0141772D02*
X0065215Y0141772D01*
X0062876Y0143370D02*
X0049402Y0143370D01*
X0048740Y0144969D02*
X0061930Y0144969D01*
X0061600Y0146568D02*
X0047103Y0146568D01*
X0041497Y0146568D02*
X0036093Y0146568D01*
X0036066Y0146363D02*
X0035932Y0146406D01*
X0045625Y0156100D01*
X0055739Y0156100D01*
X0055739Y0155279D01*
X0056104Y0154397D01*
X0056779Y0153722D01*
X0057661Y0153357D01*
X0064915Y0153357D01*
X0065797Y0153722D01*
X0066472Y0154397D01*
X0066800Y0155188D01*
X0066540Y0154560D02*
X0067060Y0154560D01*
X0069112Y0152962D02*
X0042487Y0152962D01*
X0044086Y0154560D02*
X0056036Y0154560D01*
X0062411Y0149765D02*
X0039290Y0149765D01*
X0040889Y0151363D02*
X0064228Y0151363D01*
X0061737Y0148166D02*
X0037691Y0148166D01*
X0036711Y0146034D02*
X0036066Y0146363D01*
X0036711Y0146034D02*
X0037297Y0145609D01*
X0037809Y0145097D01*
X0038234Y0144511D01*
X0038563Y0143866D01*
X0038787Y0143177D01*
X0038900Y0142462D01*
X0038900Y0139300D01*
X0034300Y0139300D01*
X0034300Y0139300D01*
X0038900Y0139300D01*
X0038900Y0136138D01*
X0038787Y0135423D01*
X0038563Y0134734D01*
X0038234Y0134089D01*
X0037809Y0133503D01*
X0037297Y0132991D01*
X0036711Y0132566D01*
X0036066Y0132237D01*
X0035377Y0132013D01*
X0034662Y0131900D01*
X0034300Y0131900D01*
X0034300Y0139300D01*
X0034300Y0139300D01*
X0034300Y0139300D01*
X0034300Y0131900D01*
X0033938Y0131900D01*
X0033223Y0132013D01*
X0032534Y0132237D01*
X0031889Y0132566D01*
X0031303Y0132991D01*
X0030791Y0133503D01*
X0030366Y0134089D01*
X0030037Y0134734D01*
X0029813Y0135423D01*
X0029700Y0136138D01*
X0029700Y0139300D01*
X0034300Y0139300D01*
X0034300Y0138575D02*
X0034300Y0138575D01*
X0034300Y0136976D02*
X0034300Y0136976D01*
X0034300Y0135378D02*
X0034300Y0135378D01*
X0034300Y0133779D02*
X0034300Y0133779D01*
X0034300Y0132181D02*
X0034300Y0132181D01*
X0035893Y0132181D02*
X0041265Y0132181D01*
X0039798Y0133779D02*
X0038009Y0133779D01*
X0038772Y0135378D02*
X0039136Y0135378D01*
X0039100Y0136976D02*
X0038900Y0136976D01*
X0038900Y0138575D02*
X0039100Y0138575D01*
X0039100Y0140173D02*
X0038900Y0140173D01*
X0038900Y0141772D02*
X0039100Y0141772D01*
X0039198Y0143370D02*
X0038724Y0143370D01*
X0037901Y0144969D02*
X0039860Y0144969D01*
X0029699Y0140173D02*
X0029700Y0140173D01*
X0029700Y0138575D02*
X0029500Y0138575D01*
X0029500Y0136976D02*
X0029700Y0136976D01*
X0029828Y0135378D02*
X0029464Y0135378D01*
X0028802Y0133779D02*
X0030591Y0133779D01*
X0032707Y0132181D02*
X0027335Y0132181D01*
X0024300Y0139300D02*
X0044300Y0159300D01*
X0061288Y0159300D01*
X0066494Y0164151D02*
X0067106Y0164151D01*
X0078788Y0171800D02*
X0037824Y0171800D01*
X0031880Y0172144D02*
X0016576Y0172144D01*
X0016576Y0172600D02*
X0021120Y0172600D01*
X0021120Y0178336D01*
X0020997Y0178794D01*
X0020760Y0179204D01*
X0020425Y0179540D01*
X0020014Y0179777D01*
X0019557Y0179899D01*
X0016576Y0179899D01*
X0016576Y0172600D01*
X0016576Y0173742D02*
X0014976Y0173742D01*
X0014976Y0175341D02*
X0016576Y0175341D01*
X0016576Y0176939D02*
X0014976Y0176939D01*
X0014976Y0178538D02*
X0016576Y0178538D01*
X0021066Y0178538D02*
X0031880Y0178538D01*
X0031880Y0176939D02*
X0021120Y0176939D01*
X0021120Y0175341D02*
X0031880Y0175341D01*
X0031880Y0173742D02*
X0021120Y0173742D01*
X0021120Y0170545D02*
X0031880Y0170545D01*
X0031880Y0168947D02*
X0021120Y0168947D01*
X0021120Y0167348D02*
X0031880Y0167348D01*
X0031880Y0165750D02*
X0021120Y0165750D01*
X0020516Y0164151D02*
X0032242Y0164151D01*
X0043767Y0175341D02*
X0073239Y0175341D01*
X0073840Y0176939D02*
X0043767Y0176939D01*
X0043767Y0178538D02*
X0285601Y0178538D01*
X0285601Y0180136D02*
X0042721Y0180136D01*
X0032927Y0180136D02*
X0004200Y0180136D01*
X0004200Y0178538D02*
X0010487Y0178538D01*
X0010433Y0176939D02*
X0004200Y0176939D01*
X0004200Y0175341D02*
X0010433Y0175341D01*
X0014976Y0170545D02*
X0016576Y0170545D01*
X0016576Y0168947D02*
X0014976Y0168947D01*
X0014976Y0167348D02*
X0016576Y0167348D01*
X0016576Y0165750D02*
X0014976Y0165750D01*
X0014976Y0164151D02*
X0016576Y0164151D01*
X0004200Y0181735D02*
X0285601Y0181735D01*
X0285601Y0183333D02*
X0004200Y0183333D01*
X0059905Y0140173D02*
X0062820Y0140173D01*
X0066800Y0136800D02*
X0056800Y0136800D01*
X0066800Y0136800D02*
X0072312Y0142312D01*
X0063032Y0050657D02*
X0050499Y0050657D01*
X0050499Y0049058D02*
X0059165Y0049058D01*
X0058269Y0048687D02*
X0060171Y0049475D01*
X0062229Y0049475D01*
X0064131Y0048687D01*
X0065587Y0047231D01*
X0066375Y0045329D01*
X0066375Y0043271D01*
X0065587Y0041369D01*
X0064131Y0039913D01*
X0062229Y0039125D01*
X0060171Y0039125D01*
X0058269Y0039913D01*
X0056813Y0041369D01*
X0056025Y0043271D01*
X0056025Y0045329D01*
X0056813Y0047231D01*
X0058269Y0048687D01*
X0057042Y0047460D02*
X0049673Y0047460D01*
X0056246Y0045861D02*
X0004200Y0045861D01*
X0004200Y0044263D02*
X0056025Y0044263D01*
X0056276Y0042664D02*
X0004200Y0042664D01*
X0004200Y0041066D02*
X0057116Y0041066D01*
X0059345Y0039467D02*
X0004200Y0039467D01*
X0004200Y0037869D02*
X0081206Y0037869D01*
X0077445Y0039467D02*
X0063055Y0039467D01*
X0065284Y0041066D02*
X0071812Y0041066D01*
X0072070Y0041066D02*
X0075216Y0041066D01*
X0069014Y0042664D02*
X0066124Y0042664D01*
X0066375Y0044263D02*
X0067828Y0044263D01*
X0066629Y0045861D02*
X0066154Y0045861D01*
X0065430Y0047460D02*
X0065358Y0047460D01*
X0064231Y0049058D02*
X0063235Y0049058D01*
X0072231Y0049058D02*
X0077265Y0049058D01*
X0044300Y0030776D02*
X0041800Y0030776D01*
X0044300Y0030776D02*
X0044300Y0016800D01*
X0040431Y0020285D02*
X0037320Y0020285D01*
X0036205Y0021400D02*
X0034300Y0021400D01*
X0034300Y0016800D01*
X0034300Y0014300D01*
X0024300Y0024300D01*
X0024300Y0034300D01*
X0033101Y0034672D02*
X0004200Y0034672D01*
X0004200Y0036270D02*
X0034057Y0036270D01*
X0033101Y0033073D02*
X0004200Y0033073D01*
X0004200Y0031475D02*
X0033101Y0031475D01*
X0033101Y0029876D02*
X0004200Y0029876D01*
X0004200Y0028278D02*
X0033101Y0028278D01*
X0033132Y0026679D02*
X0004200Y0026679D01*
X0004200Y0025081D02*
X0034426Y0025081D01*
X0034300Y0021400D02*
X0032395Y0021400D01*
X0029700Y0018705D01*
X0029700Y0016800D01*
X0034300Y0016800D01*
X0038900Y0016800D01*
X0038900Y0018705D01*
X0036205Y0021400D01*
X0034300Y0021400D02*
X0034300Y0016800D01*
X0034300Y0016800D01*
X0034300Y0016800D01*
X0038900Y0016800D01*
X0038900Y0014895D01*
X0036205Y0012200D01*
X0034300Y0012200D01*
X0034300Y0016800D01*
X0034300Y0016800D01*
X0034300Y0016800D01*
X0034300Y0012200D01*
X0032395Y0012200D01*
X0029700Y0014895D01*
X0029700Y0016800D01*
X0034300Y0016800D01*
X0034300Y0017088D02*
X0034300Y0017088D01*
X0034300Y0015490D02*
X0034300Y0015490D01*
X0034300Y0013891D02*
X0034300Y0013891D01*
X0034300Y0012293D02*
X0034300Y0012293D01*
X0036298Y0012293D02*
X0041454Y0012293D01*
X0039855Y0013891D02*
X0037896Y0013891D01*
X0038900Y0015490D02*
X0039100Y0015490D01*
X0039100Y0017088D02*
X0038900Y0017088D01*
X0038900Y0018687D02*
X0039100Y0018687D01*
X0041100Y0021884D02*
X0004200Y0021884D01*
X0004200Y0023482D02*
X0041100Y0023482D01*
X0034300Y0020285D02*
X0034300Y0020285D01*
X0034300Y0018687D02*
X0034300Y0018687D01*
X0031280Y0020285D02*
X0004200Y0020285D01*
X0004200Y0018687D02*
X0029700Y0018687D01*
X0029700Y0017088D02*
X0004200Y0017088D01*
X0004200Y0015490D02*
X0029700Y0015490D01*
X0030704Y0013891D02*
X0004200Y0013891D01*
X0004200Y0012293D02*
X0032302Y0012293D01*
D23*
X0024300Y0034300D03*
X0016800Y0034300D03*
X0016800Y0041800D03*
X0024300Y0041800D03*
X0024300Y0049300D03*
X0016800Y0049300D03*
X0016800Y0056800D03*
X0024300Y0056800D03*
X0046800Y0074300D03*
X0054300Y0064300D03*
X0086800Y0106800D03*
X0046800Y0109300D03*
X0056800Y0136800D03*
X0079300Y0009300D03*
M02*
