G75*
%MOIN*%
%OFA0B0*%
%FSLAX25Y25*%
%IPPOS*%
%LPD*%
%AMOC8*
5,1,8,0,0,1.08239X$1,22.5*
%
%ADD10C,0.00800*%
%ADD11C,0.00400*%
%ADD12C,0.00600*%
%ADD13C,0.01000*%
%ADD14C,0.00500*%
D10*
X0214800Y0046400D02*
X0214800Y0072200D01*
X0228800Y0072200D01*
X0228800Y0046400D01*
X0214800Y0046400D01*
D11*
X0235798Y0046841D02*
X0238600Y0046841D01*
X0238600Y0045907D02*
X0238600Y0047775D01*
X0236732Y0045907D02*
X0235798Y0046841D01*
X0236302Y0054419D02*
X0235835Y0054886D01*
X0235835Y0055820D01*
X0236302Y0056287D01*
X0236769Y0056287D01*
X0238637Y0054419D01*
X0238637Y0056287D01*
X0238133Y0063519D02*
X0238600Y0063986D01*
X0238600Y0064920D01*
X0238133Y0065387D01*
X0237666Y0065387D01*
X0237199Y0064920D01*
X0237199Y0064453D01*
X0237199Y0064920D02*
X0236732Y0065387D01*
X0236265Y0065387D01*
X0235798Y0064920D01*
X0235798Y0063986D01*
X0236265Y0063519D01*
X0211600Y0068401D02*
X0208798Y0068401D01*
X0210199Y0067000D01*
X0210199Y0068868D01*
D12*
X0211800Y0099300D02*
X0216800Y0099300D01*
X0219300Y0101800D01*
X0221800Y0099300D01*
X0226800Y0099300D01*
X0229300Y0101800D01*
X0229300Y0106800D01*
X0226800Y0109300D01*
X0221800Y0109300D01*
X0219300Y0106800D01*
X0219300Y0101800D01*
X0219300Y0106800D02*
X0216800Y0109300D01*
X0211800Y0109300D01*
X0209300Y0106800D01*
X0209300Y0101800D01*
X0211800Y0099300D01*
X0209300Y0101800D02*
X0206800Y0099300D01*
X0201800Y0099300D01*
X0199300Y0101800D01*
X0196800Y0099300D01*
X0191800Y0099300D01*
X0189300Y0101800D01*
X0186800Y0099300D01*
X0181800Y0099300D01*
X0179300Y0101800D01*
X0179300Y0106800D01*
X0181800Y0109300D01*
X0186800Y0109300D01*
X0189300Y0106800D01*
X0191800Y0109300D01*
X0196800Y0109300D01*
X0199300Y0106800D01*
X0199300Y0101800D01*
X0199300Y0106800D02*
X0201800Y0109300D01*
X0206800Y0109300D01*
X0209300Y0106800D01*
X0206800Y0114300D02*
X0201800Y0114300D01*
X0199300Y0116800D01*
X0196800Y0114300D01*
X0191800Y0114300D01*
X0189300Y0116800D01*
X0186800Y0114300D01*
X0181800Y0114300D01*
X0179300Y0116800D01*
X0176800Y0114300D01*
X0171800Y0114300D01*
X0169300Y0116800D01*
X0166800Y0114300D01*
X0161800Y0114300D01*
X0159300Y0116800D01*
X0156800Y0114300D01*
X0151800Y0114300D01*
X0149300Y0116800D01*
X0146800Y0114300D01*
X0141800Y0114300D01*
X0139300Y0116800D01*
X0136800Y0114300D01*
X0131800Y0114300D01*
X0129300Y0116800D01*
X0129300Y0121800D01*
X0131800Y0124300D01*
X0136800Y0124300D01*
X0139300Y0121800D01*
X0141800Y0124300D01*
X0146800Y0124300D01*
X0149300Y0121800D01*
X0149300Y0116800D01*
X0149300Y0121800D02*
X0151800Y0124300D01*
X0156800Y0124300D01*
X0159300Y0121800D01*
X0161800Y0124300D01*
X0166800Y0124300D01*
X0169300Y0121800D01*
X0171800Y0124300D01*
X0176800Y0124300D01*
X0179300Y0121800D01*
X0179300Y0116800D01*
X0179300Y0121800D02*
X0181800Y0124300D01*
X0186800Y0124300D01*
X0189300Y0121800D01*
X0191800Y0124300D01*
X0196800Y0124300D01*
X0199300Y0121800D01*
X0201800Y0124300D01*
X0206800Y0124300D01*
X0209300Y0121800D01*
X0209300Y0116800D01*
X0206800Y0114300D01*
X0209300Y0116800D02*
X0211800Y0114300D01*
X0216800Y0114300D01*
X0219300Y0116800D01*
X0221800Y0114300D01*
X0226800Y0114300D01*
X0229300Y0116800D01*
X0231800Y0114300D01*
X0236800Y0114300D01*
X0239300Y0116800D01*
X0239300Y0121800D01*
X0236800Y0124300D01*
X0231800Y0124300D01*
X0229300Y0121800D01*
X0229300Y0116800D01*
X0229300Y0121800D02*
X0226800Y0124300D01*
X0221800Y0124300D01*
X0219300Y0121800D01*
X0219300Y0116800D01*
X0219300Y0121800D02*
X0216800Y0124300D01*
X0211800Y0124300D01*
X0209300Y0121800D01*
X0199300Y0121800D02*
X0199300Y0116800D01*
X0189300Y0116800D02*
X0189300Y0121800D01*
X0186800Y0134300D02*
X0181800Y0134300D01*
X0179300Y0136800D01*
X0176800Y0134300D01*
X0171800Y0134300D01*
X0169300Y0136800D01*
X0166800Y0134300D01*
X0161800Y0134300D01*
X0159300Y0136800D01*
X0159300Y0141800D01*
X0161800Y0144300D01*
X0166800Y0144300D01*
X0169300Y0141800D01*
X0171800Y0144300D01*
X0176800Y0144300D01*
X0179300Y0141800D01*
X0181800Y0144300D01*
X0186800Y0144300D01*
X0189300Y0141800D01*
X0191800Y0144300D01*
X0196800Y0144300D01*
X0199300Y0141800D01*
X0201800Y0144300D01*
X0206800Y0144300D01*
X0209300Y0141800D01*
X0211800Y0144300D01*
X0216800Y0144300D01*
X0219300Y0141800D01*
X0221800Y0144300D01*
X0226800Y0144300D01*
X0229300Y0141800D01*
X0231800Y0144300D01*
X0236800Y0144300D01*
X0239300Y0141800D01*
X0241800Y0144300D01*
X0246800Y0144300D01*
X0249300Y0141800D01*
X0251800Y0144300D01*
X0256800Y0144300D01*
X0259300Y0141800D01*
X0261800Y0144300D01*
X0266800Y0144300D01*
X0269300Y0141800D01*
X0269300Y0136800D01*
X0266800Y0134300D01*
X0261800Y0134300D01*
X0259300Y0136800D01*
X0256800Y0134300D01*
X0251800Y0134300D01*
X0249300Y0136800D01*
X0249300Y0141800D01*
X0249300Y0136800D02*
X0246800Y0134300D01*
X0241800Y0134300D01*
X0239300Y0136800D01*
X0236800Y0134300D01*
X0231800Y0134300D01*
X0229300Y0136800D01*
X0226800Y0134300D01*
X0221800Y0134300D01*
X0219300Y0136800D01*
X0219300Y0141800D01*
X0219300Y0136800D02*
X0216800Y0134300D01*
X0211800Y0134300D01*
X0209300Y0136800D01*
X0206800Y0134300D01*
X0201800Y0134300D01*
X0199300Y0136800D01*
X0196800Y0134300D01*
X0191800Y0134300D01*
X0189300Y0136800D01*
X0189300Y0141800D01*
X0189300Y0136800D02*
X0186800Y0134300D01*
X0179300Y0136800D02*
X0179300Y0141800D01*
X0169300Y0141800D02*
X0169300Y0136800D01*
X0159300Y0136800D02*
X0156800Y0134300D01*
X0151800Y0134300D01*
X0149300Y0136800D01*
X0146800Y0134300D01*
X0141800Y0134300D01*
X0139300Y0136800D01*
X0136800Y0134300D01*
X0131800Y0134300D01*
X0129300Y0136800D01*
X0129300Y0141800D01*
X0131800Y0144300D01*
X0136800Y0144300D01*
X0139300Y0141800D01*
X0141800Y0144300D01*
X0146800Y0144300D01*
X0149300Y0141800D01*
X0151800Y0144300D01*
X0156800Y0144300D01*
X0159300Y0141800D01*
X0149300Y0141800D02*
X0149300Y0136800D01*
X0139300Y0136800D02*
X0139300Y0141800D01*
X0149300Y0151800D02*
X0151800Y0149300D01*
X0156800Y0149300D01*
X0159300Y0151800D01*
X0161800Y0149300D01*
X0166800Y0149300D01*
X0169300Y0151800D01*
X0169300Y0156800D01*
X0166800Y0159300D01*
X0161800Y0159300D01*
X0159300Y0156800D01*
X0159300Y0151800D01*
X0159300Y0156800D02*
X0156800Y0159300D01*
X0151800Y0159300D01*
X0149300Y0156800D01*
X0149300Y0151800D01*
X0169300Y0151800D02*
X0171800Y0149300D01*
X0176800Y0149300D01*
X0179300Y0151800D01*
X0181800Y0149300D01*
X0186800Y0149300D01*
X0189300Y0151800D01*
X0191800Y0149300D01*
X0196800Y0149300D01*
X0199300Y0151800D01*
X0199300Y0156800D01*
X0196800Y0159300D01*
X0191800Y0159300D01*
X0189300Y0156800D01*
X0189300Y0151800D01*
X0189300Y0156800D02*
X0186800Y0159300D01*
X0181800Y0159300D01*
X0179300Y0156800D01*
X0179300Y0151800D01*
X0179300Y0156800D02*
X0176800Y0159300D01*
X0171800Y0159300D01*
X0169300Y0156800D01*
X0199300Y0156800D02*
X0201800Y0159300D01*
X0206800Y0159300D01*
X0209300Y0156800D01*
X0211800Y0159300D01*
X0216800Y0159300D01*
X0219300Y0156800D01*
X0221800Y0159300D01*
X0226800Y0159300D01*
X0229300Y0156800D01*
X0229300Y0151800D01*
X0226800Y0149300D01*
X0221800Y0149300D01*
X0219300Y0151800D01*
X0216800Y0149300D01*
X0211800Y0149300D01*
X0209300Y0151800D01*
X0206800Y0149300D01*
X0201800Y0149300D01*
X0199300Y0151800D01*
X0209300Y0151800D02*
X0209300Y0156800D01*
X0219300Y0156800D02*
X0219300Y0151800D01*
X0229300Y0151800D02*
X0231800Y0149300D01*
X0236800Y0149300D01*
X0239300Y0151800D01*
X0241800Y0149300D01*
X0246800Y0149300D01*
X0249300Y0151800D01*
X0251800Y0149300D01*
X0256800Y0149300D01*
X0259300Y0151800D01*
X0261800Y0149300D01*
X0266800Y0149300D01*
X0269300Y0151800D01*
X0269300Y0156800D01*
X0266800Y0159300D01*
X0261800Y0159300D01*
X0259300Y0156800D01*
X0259300Y0151800D01*
X0259300Y0156800D02*
X0256800Y0159300D01*
X0251800Y0159300D01*
X0249300Y0156800D01*
X0249300Y0151800D01*
X0249300Y0156800D02*
X0246800Y0159300D01*
X0241800Y0159300D01*
X0239300Y0156800D01*
X0239300Y0151800D01*
X0239300Y0156800D02*
X0236800Y0159300D01*
X0231800Y0159300D01*
X0229300Y0156800D01*
X0229300Y0141800D02*
X0229300Y0136800D01*
X0239300Y0136800D02*
X0239300Y0141800D01*
X0259300Y0141800D02*
X0259300Y0136800D01*
X0256800Y0124300D02*
X0251800Y0124300D01*
X0249300Y0121800D01*
X0249300Y0116800D01*
X0251800Y0114300D01*
X0256800Y0114300D01*
X0259300Y0116800D01*
X0261800Y0114300D01*
X0266800Y0114300D01*
X0269300Y0116800D01*
X0269300Y0121800D01*
X0266800Y0124300D01*
X0261800Y0124300D01*
X0259300Y0121800D01*
X0259300Y0116800D01*
X0259300Y0121800D02*
X0256800Y0124300D01*
X0249300Y0121800D02*
X0246800Y0124300D01*
X0241800Y0124300D01*
X0239300Y0121800D01*
X0239300Y0116800D02*
X0241800Y0114300D01*
X0246800Y0114300D01*
X0249300Y0116800D01*
X0246800Y0109300D02*
X0241800Y0109300D01*
X0239300Y0106800D01*
X0239300Y0101800D01*
X0241800Y0099300D01*
X0246800Y0099300D01*
X0249300Y0101800D01*
X0251800Y0099300D01*
X0256800Y0099300D01*
X0259300Y0101800D01*
X0259300Y0106800D01*
X0256800Y0109300D01*
X0251800Y0109300D01*
X0249300Y0106800D01*
X0249300Y0101800D01*
X0249300Y0106800D02*
X0246800Y0109300D01*
X0239300Y0106800D02*
X0236800Y0109300D01*
X0231800Y0109300D01*
X0229300Y0106800D01*
X0229300Y0101800D02*
X0231800Y0099300D01*
X0236800Y0099300D01*
X0239300Y0101800D01*
X0189300Y0101800D02*
X0189300Y0106800D01*
X0169300Y0116800D02*
X0169300Y0121800D01*
X0159300Y0121800D02*
X0159300Y0116800D01*
X0139300Y0116800D02*
X0139300Y0121800D01*
X0121800Y0119300D02*
X0121800Y0114300D01*
X0119300Y0111800D01*
X0114300Y0111800D01*
X0111800Y0114300D01*
X0111800Y0119300D01*
X0114300Y0121800D01*
X0111800Y0124300D01*
X0111800Y0129300D01*
X0114300Y0131800D01*
X0119300Y0131800D01*
X0121800Y0129300D01*
X0121800Y0124300D01*
X0119300Y0121800D01*
X0121800Y0119300D01*
X0119300Y0121800D02*
X0114300Y0121800D01*
X0093300Y0111800D02*
X0070300Y0111800D01*
X0070300Y0151800D01*
X0077800Y0151800D01*
X0077802Y0151674D01*
X0077808Y0151549D01*
X0077818Y0151424D01*
X0077832Y0151299D01*
X0077849Y0151174D01*
X0077871Y0151050D01*
X0077896Y0150927D01*
X0077926Y0150805D01*
X0077959Y0150684D01*
X0077996Y0150564D01*
X0078036Y0150445D01*
X0078081Y0150328D01*
X0078129Y0150211D01*
X0078181Y0150097D01*
X0078236Y0149984D01*
X0078295Y0149873D01*
X0078357Y0149764D01*
X0078423Y0149657D01*
X0078492Y0149552D01*
X0078564Y0149449D01*
X0078639Y0149348D01*
X0078718Y0149250D01*
X0078800Y0149155D01*
X0078884Y0149062D01*
X0078972Y0148972D01*
X0079062Y0148884D01*
X0079155Y0148800D01*
X0079250Y0148718D01*
X0079348Y0148639D01*
X0079449Y0148564D01*
X0079552Y0148492D01*
X0079657Y0148423D01*
X0079764Y0148357D01*
X0079873Y0148295D01*
X0079984Y0148236D01*
X0080097Y0148181D01*
X0080211Y0148129D01*
X0080328Y0148081D01*
X0080445Y0148036D01*
X0080564Y0147996D01*
X0080684Y0147959D01*
X0080805Y0147926D01*
X0080927Y0147896D01*
X0081050Y0147871D01*
X0081174Y0147849D01*
X0081299Y0147832D01*
X0081424Y0147818D01*
X0081549Y0147808D01*
X0081674Y0147802D01*
X0081800Y0147800D01*
X0081926Y0147802D01*
X0082051Y0147808D01*
X0082176Y0147818D01*
X0082301Y0147832D01*
X0082426Y0147849D01*
X0082550Y0147871D01*
X0082673Y0147896D01*
X0082795Y0147926D01*
X0082916Y0147959D01*
X0083036Y0147996D01*
X0083155Y0148036D01*
X0083272Y0148081D01*
X0083389Y0148129D01*
X0083503Y0148181D01*
X0083616Y0148236D01*
X0083727Y0148295D01*
X0083836Y0148357D01*
X0083943Y0148423D01*
X0084048Y0148492D01*
X0084151Y0148564D01*
X0084252Y0148639D01*
X0084350Y0148718D01*
X0084445Y0148800D01*
X0084538Y0148884D01*
X0084628Y0148972D01*
X0084716Y0149062D01*
X0084800Y0149155D01*
X0084882Y0149250D01*
X0084961Y0149348D01*
X0085036Y0149449D01*
X0085108Y0149552D01*
X0085177Y0149657D01*
X0085243Y0149764D01*
X0085305Y0149873D01*
X0085364Y0149984D01*
X0085419Y0150097D01*
X0085471Y0150211D01*
X0085519Y0150328D01*
X0085564Y0150445D01*
X0085604Y0150564D01*
X0085641Y0150684D01*
X0085674Y0150805D01*
X0085704Y0150927D01*
X0085729Y0151050D01*
X0085751Y0151174D01*
X0085768Y0151299D01*
X0085782Y0151424D01*
X0085792Y0151549D01*
X0085798Y0151674D01*
X0085800Y0151800D01*
X0093300Y0151800D01*
X0093300Y0111800D01*
X0093300Y0099300D02*
X0085800Y0099300D01*
X0085798Y0099174D01*
X0085792Y0099049D01*
X0085782Y0098924D01*
X0085768Y0098799D01*
X0085751Y0098674D01*
X0085729Y0098550D01*
X0085704Y0098427D01*
X0085674Y0098305D01*
X0085641Y0098184D01*
X0085604Y0098064D01*
X0085564Y0097945D01*
X0085519Y0097828D01*
X0085471Y0097711D01*
X0085419Y0097597D01*
X0085364Y0097484D01*
X0085305Y0097373D01*
X0085243Y0097264D01*
X0085177Y0097157D01*
X0085108Y0097052D01*
X0085036Y0096949D01*
X0084961Y0096848D01*
X0084882Y0096750D01*
X0084800Y0096655D01*
X0084716Y0096562D01*
X0084628Y0096472D01*
X0084538Y0096384D01*
X0084445Y0096300D01*
X0084350Y0096218D01*
X0084252Y0096139D01*
X0084151Y0096064D01*
X0084048Y0095992D01*
X0083943Y0095923D01*
X0083836Y0095857D01*
X0083727Y0095795D01*
X0083616Y0095736D01*
X0083503Y0095681D01*
X0083389Y0095629D01*
X0083272Y0095581D01*
X0083155Y0095536D01*
X0083036Y0095496D01*
X0082916Y0095459D01*
X0082795Y0095426D01*
X0082673Y0095396D01*
X0082550Y0095371D01*
X0082426Y0095349D01*
X0082301Y0095332D01*
X0082176Y0095318D01*
X0082051Y0095308D01*
X0081926Y0095302D01*
X0081800Y0095300D01*
X0081674Y0095302D01*
X0081549Y0095308D01*
X0081424Y0095318D01*
X0081299Y0095332D01*
X0081174Y0095349D01*
X0081050Y0095371D01*
X0080927Y0095396D01*
X0080805Y0095426D01*
X0080684Y0095459D01*
X0080564Y0095496D01*
X0080445Y0095536D01*
X0080328Y0095581D01*
X0080211Y0095629D01*
X0080097Y0095681D01*
X0079984Y0095736D01*
X0079873Y0095795D01*
X0079764Y0095857D01*
X0079657Y0095923D01*
X0079552Y0095992D01*
X0079449Y0096064D01*
X0079348Y0096139D01*
X0079250Y0096218D01*
X0079155Y0096300D01*
X0079062Y0096384D01*
X0078972Y0096472D01*
X0078884Y0096562D01*
X0078800Y0096655D01*
X0078718Y0096750D01*
X0078639Y0096848D01*
X0078564Y0096949D01*
X0078492Y0097052D01*
X0078423Y0097157D01*
X0078357Y0097264D01*
X0078295Y0097373D01*
X0078236Y0097484D01*
X0078181Y0097597D01*
X0078129Y0097711D01*
X0078081Y0097828D01*
X0078036Y0097945D01*
X0077996Y0098064D01*
X0077959Y0098184D01*
X0077926Y0098305D01*
X0077896Y0098427D01*
X0077871Y0098550D01*
X0077849Y0098674D01*
X0077832Y0098799D01*
X0077818Y0098924D01*
X0077808Y0099049D01*
X0077802Y0099174D01*
X0077800Y0099300D01*
X0070300Y0099300D01*
X0070300Y0059300D01*
X0093300Y0059300D01*
X0093300Y0099300D01*
X0199300Y0136800D02*
X0199300Y0141800D01*
X0209300Y0141800D02*
X0209300Y0136800D01*
X0139379Y0024969D02*
X0109221Y0024969D01*
X0039300Y0010800D02*
X0039146Y0010802D01*
X0038992Y0010808D01*
X0038838Y0010818D01*
X0038684Y0010832D01*
X0038531Y0010849D01*
X0038379Y0010871D01*
X0038227Y0010897D01*
X0038075Y0010926D01*
X0037925Y0010960D01*
X0037775Y0010997D01*
X0037627Y0011038D01*
X0037479Y0011083D01*
X0037333Y0011132D01*
X0037188Y0011184D01*
X0037045Y0011240D01*
X0036902Y0011300D01*
X0036762Y0011363D01*
X0036623Y0011430D01*
X0036486Y0011501D01*
X0036351Y0011575D01*
X0036218Y0011652D01*
X0036086Y0011733D01*
X0035957Y0011817D01*
X0035830Y0011905D01*
X0035706Y0011996D01*
X0035584Y0012089D01*
X0035464Y0012187D01*
X0035347Y0012287D01*
X0035232Y0012390D01*
X0035120Y0012496D01*
X0035011Y0012604D01*
X0034905Y0012716D01*
X0034801Y0012830D01*
X0034701Y0012947D01*
X0034603Y0013066D01*
X0034509Y0013188D01*
X0034418Y0013313D01*
X0039300Y0022800D02*
X0039452Y0022798D01*
X0039603Y0022792D01*
X0039754Y0022783D01*
X0039906Y0022769D01*
X0040056Y0022752D01*
X0040206Y0022731D01*
X0040356Y0022706D01*
X0040505Y0022678D01*
X0040653Y0022645D01*
X0040800Y0022609D01*
X0040947Y0022570D01*
X0041092Y0022526D01*
X0041236Y0022479D01*
X0041379Y0022428D01*
X0041520Y0022374D01*
X0041661Y0022316D01*
X0041799Y0022255D01*
X0041936Y0022190D01*
X0042072Y0022121D01*
X0042205Y0022050D01*
X0042337Y0021975D01*
X0042467Y0021896D01*
X0042594Y0021815D01*
X0042720Y0021730D01*
X0042844Y0021642D01*
X0042965Y0021551D01*
X0043084Y0021457D01*
X0043200Y0021359D01*
X0043314Y0021259D01*
X0043426Y0021157D01*
X0043534Y0021051D01*
X0043640Y0020943D01*
X0043744Y0020832D01*
X0043844Y0020718D01*
X0043942Y0020602D01*
X0044036Y0020483D01*
X0039300Y0022800D02*
X0039148Y0022798D01*
X0038997Y0022792D01*
X0038846Y0022783D01*
X0038694Y0022769D01*
X0038544Y0022752D01*
X0038394Y0022731D01*
X0038244Y0022706D01*
X0038095Y0022678D01*
X0037947Y0022645D01*
X0037800Y0022609D01*
X0037653Y0022570D01*
X0037508Y0022526D01*
X0037364Y0022479D01*
X0037221Y0022428D01*
X0037080Y0022374D01*
X0036939Y0022316D01*
X0036801Y0022255D01*
X0036664Y0022190D01*
X0036528Y0022121D01*
X0036395Y0022050D01*
X0036263Y0021975D01*
X0036133Y0021896D01*
X0036006Y0021815D01*
X0035880Y0021730D01*
X0035756Y0021642D01*
X0035635Y0021551D01*
X0035516Y0021457D01*
X0035400Y0021359D01*
X0035286Y0021259D01*
X0035174Y0021157D01*
X0035066Y0021051D01*
X0034960Y0020943D01*
X0034856Y0020832D01*
X0034756Y0020718D01*
X0034658Y0020602D01*
X0034564Y0020483D01*
X0039300Y0010800D02*
X0039450Y0010802D01*
X0039601Y0010808D01*
X0039751Y0010817D01*
X0039900Y0010830D01*
X0040050Y0010847D01*
X0040199Y0010868D01*
X0040347Y0010892D01*
X0040495Y0010920D01*
X0040642Y0010952D01*
X0040788Y0010987D01*
X0040933Y0011027D01*
X0041077Y0011069D01*
X0041220Y0011116D01*
X0041362Y0011166D01*
X0041503Y0011219D01*
X0041642Y0011276D01*
X0041780Y0011336D01*
X0041916Y0011400D01*
X0042050Y0011467D01*
X0042183Y0011538D01*
X0042314Y0011612D01*
X0042443Y0011689D01*
X0042570Y0011770D01*
X0042695Y0011853D01*
X0042818Y0011940D01*
X0042939Y0012029D01*
X0043057Y0012122D01*
X0043173Y0012218D01*
X0043287Y0012316D01*
X0043398Y0012417D01*
X0043507Y0012522D01*
X0043612Y0012628D01*
X0043716Y0012738D01*
X0043816Y0012850D01*
X0043914Y0012964D01*
X0044008Y0013081D01*
X0044100Y0013200D01*
D13*
X0046359Y0013035D02*
X0046266Y0012867D01*
X0046170Y0012701D01*
X0046070Y0012537D01*
X0045965Y0012376D01*
X0045857Y0012217D01*
X0045745Y0012061D01*
X0045629Y0011907D01*
X0045510Y0011757D01*
X0045387Y0011609D01*
X0045261Y0011464D01*
X0045131Y0011323D01*
X0044998Y0011184D01*
X0044861Y0011049D01*
X0044721Y0010917D01*
X0044579Y0010789D01*
X0044433Y0010664D01*
X0044284Y0010542D01*
X0044132Y0010424D01*
X0043978Y0010310D01*
X0043820Y0010200D01*
X0043661Y0010093D01*
X0043498Y0009990D01*
X0043333Y0009891D01*
X0043166Y0009796D01*
X0042997Y0009706D01*
X0042826Y0009619D01*
X0042652Y0009536D01*
X0042477Y0009458D01*
X0042299Y0009384D01*
X0042120Y0009314D01*
X0041940Y0009248D01*
X0041758Y0009187D01*
X0041574Y0009130D01*
X0041389Y0009078D01*
X0041203Y0009030D01*
X0041016Y0008986D01*
X0040828Y0008947D01*
X0040639Y0008913D01*
X0040449Y0008883D01*
X0040259Y0008858D01*
X0040068Y0008837D01*
X0039876Y0008821D01*
X0039684Y0008809D01*
X0039492Y0008802D01*
X0039300Y0008800D01*
X0046246Y0020769D02*
X0046147Y0020938D01*
X0046043Y0021104D01*
X0045936Y0021268D01*
X0045825Y0021429D01*
X0045710Y0021587D01*
X0045591Y0021742D01*
X0045468Y0021895D01*
X0045342Y0022044D01*
X0045212Y0022190D01*
X0045078Y0022333D01*
X0044941Y0022473D01*
X0044801Y0022609D01*
X0044657Y0022742D01*
X0044510Y0022871D01*
X0044360Y0022997D01*
X0044207Y0023118D01*
X0044051Y0023237D01*
X0043892Y0023351D01*
X0043731Y0023461D01*
X0043566Y0023567D01*
X0043400Y0023670D01*
X0043230Y0023768D01*
X0043059Y0023862D01*
X0042885Y0023952D01*
X0042709Y0024037D01*
X0042531Y0024119D01*
X0042351Y0024195D01*
X0042169Y0024268D01*
X0041986Y0024336D01*
X0041801Y0024399D01*
X0041614Y0024458D01*
X0041426Y0024512D01*
X0041237Y0024562D01*
X0041047Y0024607D01*
X0040855Y0024647D01*
X0040663Y0024683D01*
X0040470Y0024714D01*
X0040276Y0024740D01*
X0040081Y0024762D01*
X0039886Y0024778D01*
X0039691Y0024790D01*
X0039495Y0024798D01*
X0039300Y0024800D01*
X0039107Y0024798D01*
X0038914Y0024791D01*
X0038722Y0024779D01*
X0038529Y0024763D01*
X0038337Y0024742D01*
X0038146Y0024716D01*
X0037956Y0024686D01*
X0037766Y0024651D01*
X0037577Y0024612D01*
X0037389Y0024568D01*
X0037202Y0024520D01*
X0037016Y0024467D01*
X0036832Y0024410D01*
X0036649Y0024348D01*
X0036468Y0024282D01*
X0036288Y0024211D01*
X0036110Y0024137D01*
X0035934Y0024058D01*
X0035760Y0023974D01*
X0035588Y0023887D01*
X0035418Y0023795D01*
X0035251Y0023699D01*
X0035085Y0023600D01*
X0034922Y0023496D01*
X0034762Y0023389D01*
X0034605Y0023277D01*
X0034450Y0023162D01*
X0034298Y0023043D01*
X0034149Y0022921D01*
X0034002Y0022795D01*
X0033859Y0022665D01*
X0033719Y0022532D01*
X0033583Y0022396D01*
X0033449Y0022256D01*
X0033320Y0022114D01*
X0033193Y0021968D01*
X0033154Y0011678D02*
X0033281Y0011530D01*
X0033411Y0011385D01*
X0033544Y0011244D01*
X0033681Y0011105D01*
X0033821Y0010970D01*
X0033965Y0010839D01*
X0034112Y0010711D01*
X0034261Y0010586D01*
X0034414Y0010465D01*
X0034569Y0010348D01*
X0034728Y0010235D01*
X0034889Y0010126D01*
X0035053Y0010021D01*
X0035219Y0009919D01*
X0035388Y0009822D01*
X0035558Y0009729D01*
X0035732Y0009640D01*
X0035907Y0009555D01*
X0036084Y0009475D01*
X0036263Y0009399D01*
X0036444Y0009327D01*
X0036627Y0009260D01*
X0036811Y0009197D01*
X0036997Y0009139D01*
X0037184Y0009085D01*
X0037372Y0009036D01*
X0037562Y0008991D01*
X0037752Y0008951D01*
X0037944Y0008916D01*
X0038136Y0008885D01*
X0038329Y0008859D01*
X0038523Y0008838D01*
X0038717Y0008821D01*
X0038911Y0008809D01*
X0039105Y0008802D01*
X0039300Y0008800D01*
X0108788Y0023591D02*
X0139812Y0023591D01*
X0139812Y0035009D01*
X0108788Y0035009D01*
X0108788Y0023591D01*
D14*
X0101800Y0026800D02*
X0101800Y0039300D01*
X0056800Y0039300D01*
X0056800Y0026800D01*
X0101800Y0026800D01*
X0091800Y0029300D02*
X0071800Y0029300D01*
X0071800Y0036800D01*
X0064300Y0029300D01*
X0071800Y0029300D01*
X0064300Y0036800D01*
X0064300Y0029300D01*
X0064300Y0036800D02*
X0071800Y0036800D01*
X0091800Y0036800D01*
X0091800Y0029300D01*
M02*
