%
M48
M72
T01C0.02362
T02C0.03200
T03C0.04000
T04C0.04724
T05C0.05906
%
T01
X64700Y97200
X57200Y174700
X177200Y184700
X222200Y154700
X222200Y154700
X369700Y57200
X379700Y57200
X379700Y47200
X369700Y47200
T02
X107200Y74700
X107200Y84700
X107200Y94700
X107200Y104700
X137200Y104700
X137200Y94700
X137200Y84700
X137200Y74700
X169700Y74700
X169700Y84700
X169700Y94700
X169700Y104700
X199700Y104700
X199700Y94700
X199700Y84700
X199700Y74700
X197200Y164700
X187200Y164700
X207200Y164700
X127200Y164700
X117200Y164700
X107200Y164700
X359700Y34700
X359700Y24700
T03
X374700Y87200
X384700Y87200
X384700Y97200
X374700Y97200
X374700Y107200
X384700Y107200
X384700Y117200
X374700Y117200
X364700Y132200
X354700Y132200
X344700Y132200
X334700Y132200
X324700Y132200
X314700Y132200
X304700Y132200
X294700Y132200
X284700Y132200
X274700Y132200
X264700Y132200
X254700Y132200
X244700Y132200
X234700Y132200
X234700Y162200
X244700Y162200
X254700Y162200
X264700Y162200
X274700Y162200
X284700Y162200
X294700Y162200
X304700Y162200
X314700Y162200
X324700Y162200
X334700Y162200
X344700Y162200
X354700Y162200
X364700Y162200
X374700Y177200
X384700Y177200
X384700Y187200
X374700Y187200
X374700Y197200
X384700Y197200
X384700Y207200
X374700Y207200
X379700Y147200
X274700Y189700
X274700Y199700
X77200Y114700
X77200Y104700
T04
X214700Y59700
X224700Y59700
X234700Y59700
T05
X269700Y59700
X294700Y59700
X294700Y29700
X269700Y29700
M30
