G75*
%MOIN*%
%OFA0B0*%
%FSLAX25Y25*%
%IPPOS*%
%LPD*%
%AMOC8*
5,1,8,0,0,1.08239X$1,22.5*
%
%ADD10R,0.07887X0.07099*%
%ADD11R,0.07099X0.07887*%
%ADD12R,0.09600X0.05600*%
%ADD13R,0.09461X0.14973*%
%ADD14R,0.05600X0.09600*%
%ADD15R,0.14973X0.09461*%
%ADD16C,0.06400*%
%ADD17C,0.07200*%
%ADD18OC8,0.06400*%
%ADD19R,0.07887X0.13398*%
%ADD20C,0.06400*%
%ADD21R,0.13398X0.07887*%
%ADD22R,0.09658X0.09658*%
%ADD23C,0.07924*%
%ADD24OC8,0.07200*%
D10*
X0164700Y0181688D03*
X0164700Y0192712D03*
X0067200Y0195212D03*
X0067200Y0184188D03*
D11*
X0139188Y0189700D03*
X0150212Y0189700D03*
X0194188Y0182200D03*
X0205212Y0182200D03*
D12*
X0102500Y0195600D03*
X0102500Y0204700D03*
X0102500Y0213800D03*
D13*
X0126901Y0204700D03*
D14*
X0180600Y0221900D03*
X0189700Y0221900D03*
X0198800Y0221900D03*
D15*
X0189700Y0197499D03*
D16*
X0107200Y0074700D03*
X0107200Y0084700D03*
X0107200Y0094700D03*
X0107200Y0104700D03*
X0137200Y0104700D03*
X0137200Y0094700D03*
X0137200Y0084700D03*
X0137200Y0074700D03*
X0169700Y0074700D03*
X0169700Y0084700D03*
X0169700Y0094700D03*
X0169700Y0104700D03*
X0199700Y0104700D03*
X0199700Y0094700D03*
X0199700Y0084700D03*
X0199700Y0074700D03*
D17*
X0234700Y0129000D02*
X0234700Y0135400D01*
X0244700Y0135400D02*
X0244700Y0129000D01*
X0254700Y0129000D02*
X0254700Y0135400D01*
X0264700Y0135400D02*
X0264700Y0129000D01*
X0274700Y0129000D02*
X0274700Y0135400D01*
X0284700Y0135400D02*
X0284700Y0129000D01*
X0294700Y0129000D02*
X0294700Y0135400D01*
X0304700Y0135400D02*
X0304700Y0129000D01*
X0314700Y0129000D02*
X0314700Y0135400D01*
X0324700Y0135400D02*
X0324700Y0129000D01*
X0334700Y0129000D02*
X0334700Y0135400D01*
X0344700Y0135400D02*
X0344700Y0129000D01*
X0354700Y0129000D02*
X0354700Y0135400D01*
X0364700Y0135400D02*
X0364700Y0129000D01*
X0371500Y0117200D02*
X0377900Y0117200D01*
X0381500Y0117200D02*
X0387900Y0117200D01*
X0387900Y0107200D02*
X0381500Y0107200D01*
X0377900Y0107200D02*
X0371500Y0107200D01*
X0371500Y0097200D02*
X0377900Y0097200D01*
X0381500Y0097200D02*
X0387900Y0097200D01*
X0387900Y0087200D02*
X0381500Y0087200D01*
X0377900Y0087200D02*
X0371500Y0087200D01*
X0364700Y0159000D02*
X0364700Y0165400D01*
X0354700Y0165400D02*
X0354700Y0159000D01*
X0344700Y0159000D02*
X0344700Y0165400D01*
X0334700Y0165400D02*
X0334700Y0159000D01*
X0324700Y0159000D02*
X0324700Y0165400D01*
X0314700Y0165400D02*
X0314700Y0159000D01*
X0304700Y0159000D02*
X0304700Y0165400D01*
X0294700Y0165400D02*
X0294700Y0159000D01*
X0284700Y0159000D02*
X0284700Y0165400D01*
X0274700Y0165400D02*
X0274700Y0159000D01*
X0264700Y0159000D02*
X0264700Y0165400D01*
X0254700Y0165400D02*
X0254700Y0159000D01*
X0244700Y0159000D02*
X0244700Y0165400D01*
X0234700Y0165400D02*
X0234700Y0159000D01*
X0271500Y0189700D02*
X0277900Y0189700D01*
X0277900Y0199700D02*
X0271500Y0199700D01*
X0371500Y0197200D02*
X0377900Y0197200D01*
X0381500Y0197200D02*
X0387900Y0197200D01*
X0387900Y0187200D02*
X0381500Y0187200D01*
X0377900Y0187200D02*
X0371500Y0187200D01*
X0371500Y0177200D02*
X0377900Y0177200D01*
X0381500Y0177200D02*
X0387900Y0177200D01*
X0387900Y0207200D02*
X0381500Y0207200D01*
X0377900Y0207200D02*
X0371500Y0207200D01*
X0080400Y0114700D02*
X0074000Y0114700D01*
X0074000Y0104700D02*
X0080400Y0104700D01*
D18*
X0359700Y0034700D03*
X0359700Y0024700D03*
D19*
X0165724Y0207200D03*
X0143676Y0207200D03*
X0143676Y0224700D03*
X0165724Y0224700D03*
X0226176Y0222200D03*
X0248224Y0222200D03*
D20*
X0207200Y0167500D02*
X0207200Y0161900D01*
X0197200Y0161900D02*
X0197200Y0167500D01*
X0187200Y0167500D02*
X0187200Y0161900D01*
X0127200Y0161900D02*
X0127200Y0167500D01*
X0117200Y0167500D02*
X0117200Y0161900D01*
X0107200Y0161900D02*
X0107200Y0167500D01*
D21*
X0227200Y0181176D03*
X0227200Y0203224D03*
D22*
X0269700Y0059700D03*
X0294700Y0059700D03*
X0294700Y0029700D03*
X0269700Y0029700D03*
D23*
X0234700Y0056138D02*
X0234700Y0063262D01*
X0224700Y0063262D02*
X0224700Y0056138D01*
X0214700Y0056138D02*
X0214700Y0063262D01*
D24*
X0379700Y0147200D03*
M02*
