G75*
%MOIN*%
%OFA0B0*%
%FSLAX25Y25*%
%IPPOS*%
%LPD*%
%AMOC8*
5,1,8,0,0,1.08239X$1,22.5*
%
%ADD10C,0.00000*%
%ADD11R,0.07087X0.06299*%
%ADD12R,0.06299X0.07087*%
%ADD13R,0.08800X0.04800*%
%ADD14R,0.08661X0.14173*%
%ADD15R,0.04800X0.08800*%
%ADD16R,0.14173X0.08661*%
%ADD17C,0.05600*%
%ADD18C,0.06400*%
%ADD19OC8,0.05600*%
%ADD20R,0.07087X0.12598*%
%ADD21C,0.05600*%
%ADD22R,0.12598X0.07087*%
%ADD23R,0.08858X0.08858*%
%ADD24C,0.07124*%
%ADD25OC8,0.06400*%
%ADD26C,0.02400*%
%ADD27C,0.04362*%
D10*
X0004700Y0002200D02*
X0004700Y0242161D01*
X0400901Y0242161D01*
X0400901Y0002200D01*
X0004700Y0002200D01*
D11*
X0164700Y0181688D03*
X0164700Y0192712D03*
X0067200Y0195212D03*
X0067200Y0184188D03*
D12*
X0139188Y0189700D03*
X0150212Y0189700D03*
X0194188Y0182200D03*
X0205212Y0182200D03*
D13*
X0102500Y0195600D03*
X0102500Y0204700D03*
X0102500Y0213800D03*
D14*
X0126901Y0204700D03*
D15*
X0180600Y0221900D03*
X0189700Y0221900D03*
X0198800Y0221900D03*
D16*
X0189700Y0197499D03*
D17*
X0199700Y0104700D03*
X0199700Y0094700D03*
X0199700Y0084700D03*
X0199700Y0074700D03*
X0169700Y0074700D03*
X0169700Y0084700D03*
X0169700Y0094700D03*
X0169700Y0104700D03*
X0137200Y0104700D03*
X0137200Y0094700D03*
X0137200Y0084700D03*
X0137200Y0074700D03*
X0107200Y0074700D03*
X0107200Y0084700D03*
X0107200Y0094700D03*
X0107200Y0104700D03*
D18*
X0080400Y0104700D02*
X0074000Y0104700D01*
X0074000Y0114700D02*
X0080400Y0114700D01*
X0234700Y0129000D02*
X0234700Y0135400D01*
X0244700Y0135400D02*
X0244700Y0129000D01*
X0254700Y0129000D02*
X0254700Y0135400D01*
X0264700Y0135400D02*
X0264700Y0129000D01*
X0274700Y0129000D02*
X0274700Y0135400D01*
X0284700Y0135400D02*
X0284700Y0129000D01*
X0294700Y0129000D02*
X0294700Y0135400D01*
X0304700Y0135400D02*
X0304700Y0129000D01*
X0314700Y0129000D02*
X0314700Y0135400D01*
X0324700Y0135400D02*
X0324700Y0129000D01*
X0334700Y0129000D02*
X0334700Y0135400D01*
X0344700Y0135400D02*
X0344700Y0129000D01*
X0354700Y0129000D02*
X0354700Y0135400D01*
X0364700Y0135400D02*
X0364700Y0129000D01*
X0371500Y0117200D02*
X0377900Y0117200D01*
X0381500Y0117200D02*
X0387900Y0117200D01*
X0387900Y0107200D02*
X0381500Y0107200D01*
X0377900Y0107200D02*
X0371500Y0107200D01*
X0371500Y0097200D02*
X0377900Y0097200D01*
X0381500Y0097200D02*
X0387900Y0097200D01*
X0387900Y0087200D02*
X0381500Y0087200D01*
X0377900Y0087200D02*
X0371500Y0087200D01*
X0364700Y0159000D02*
X0364700Y0165400D01*
X0354700Y0165400D02*
X0354700Y0159000D01*
X0344700Y0159000D02*
X0344700Y0165400D01*
X0334700Y0165400D02*
X0334700Y0159000D01*
X0324700Y0159000D02*
X0324700Y0165400D01*
X0314700Y0165400D02*
X0314700Y0159000D01*
X0304700Y0159000D02*
X0304700Y0165400D01*
X0294700Y0165400D02*
X0294700Y0159000D01*
X0284700Y0159000D02*
X0284700Y0165400D01*
X0274700Y0165400D02*
X0274700Y0159000D01*
X0264700Y0159000D02*
X0264700Y0165400D01*
X0254700Y0165400D02*
X0254700Y0159000D01*
X0244700Y0159000D02*
X0244700Y0165400D01*
X0234700Y0165400D02*
X0234700Y0159000D01*
X0271500Y0189700D02*
X0277900Y0189700D01*
X0277900Y0199700D02*
X0271500Y0199700D01*
X0371500Y0197200D02*
X0377900Y0197200D01*
X0381500Y0197200D02*
X0387900Y0197200D01*
X0387900Y0187200D02*
X0381500Y0187200D01*
X0377900Y0187200D02*
X0371500Y0187200D01*
X0371500Y0177200D02*
X0377900Y0177200D01*
X0381500Y0177200D02*
X0387900Y0177200D01*
X0387900Y0207200D02*
X0381500Y0207200D01*
X0377900Y0207200D02*
X0371500Y0207200D01*
D19*
X0359700Y0034700D03*
X0359700Y0024700D03*
D20*
X0165724Y0207200D03*
X0143676Y0207200D03*
X0143676Y0224700D03*
X0165724Y0224700D03*
X0226176Y0222200D03*
X0248224Y0222200D03*
D21*
X0207200Y0167500D02*
X0207200Y0161900D01*
X0197200Y0161900D02*
X0197200Y0167500D01*
X0187200Y0167500D02*
X0187200Y0161900D01*
X0127200Y0161900D02*
X0127200Y0167500D01*
X0117200Y0167500D02*
X0117200Y0161900D01*
X0107200Y0161900D02*
X0107200Y0167500D01*
D22*
X0227200Y0181176D03*
X0227200Y0203224D03*
D23*
X0269700Y0059700D03*
X0294700Y0059700D03*
X0294700Y0029700D03*
X0269700Y0029700D03*
D24*
X0234700Y0056138D02*
X0234700Y0063262D01*
X0224700Y0063262D02*
X0224700Y0056138D01*
X0214700Y0056138D02*
X0214700Y0063262D01*
D25*
X0379700Y0147200D03*
D26*
X0385100Y0147200D01*
X0385100Y0149437D01*
X0381937Y0152600D01*
X0379700Y0152600D01*
X0379700Y0147200D01*
X0379700Y0147200D01*
X0379700Y0147200D01*
X0385100Y0147200D01*
X0385100Y0144963D01*
X0381937Y0141800D01*
X0379700Y0141800D01*
X0379700Y0147200D01*
X0379700Y0147200D01*
X0379700Y0147200D01*
X0374300Y0147200D01*
X0374300Y0149437D01*
X0377463Y0152600D01*
X0379700Y0152600D01*
X0379700Y0147200D01*
X0379700Y0141800D01*
X0377463Y0141800D01*
X0374300Y0144963D01*
X0374300Y0147200D01*
X0379700Y0147200D01*
X0379700Y0146111D02*
X0379700Y0146111D01*
X0379700Y0148509D02*
X0379700Y0148509D01*
X0379700Y0150908D02*
X0379700Y0150908D01*
X0383629Y0150908D02*
X0396501Y0150908D01*
X0396501Y0153306D02*
X0369754Y0153306D01*
X0369005Y0152557D02*
X0371143Y0154695D01*
X0372300Y0157488D01*
X0372300Y0166912D01*
X0371186Y0169600D01*
X0379412Y0169600D01*
X0379700Y0169719D01*
X0379988Y0169600D01*
X0389412Y0169600D01*
X0392205Y0170757D01*
X0394343Y0172895D01*
X0395500Y0175688D01*
X0395500Y0178712D01*
X0394343Y0181505D01*
X0393648Y0182200D01*
X0394343Y0182895D01*
X0395500Y0185688D01*
X0395500Y0188712D01*
X0394343Y0191505D01*
X0393648Y0192200D01*
X0394343Y0192895D01*
X0395500Y0195688D01*
X0395500Y0198712D01*
X0394343Y0201505D01*
X0393648Y0202200D01*
X0394343Y0202895D01*
X0395500Y0205688D01*
X0395500Y0208712D01*
X0394343Y0211505D01*
X0392205Y0213643D01*
X0389412Y0214800D01*
X0379988Y0214800D01*
X0379700Y0214681D01*
X0379412Y0214800D01*
X0369988Y0214800D01*
X0367195Y0213643D01*
X0365057Y0211505D01*
X0363900Y0208712D01*
X0363900Y0205688D01*
X0365057Y0202895D01*
X0365752Y0202200D01*
X0365057Y0201505D01*
X0363900Y0198712D01*
X0363900Y0195688D01*
X0365057Y0192895D01*
X0365752Y0192200D01*
X0365057Y0191505D01*
X0363900Y0188712D01*
X0363900Y0185688D01*
X0365057Y0182895D01*
X0365752Y0182200D01*
X0365057Y0181505D01*
X0363900Y0178712D01*
X0363900Y0175688D01*
X0365014Y0173000D01*
X0363188Y0173000D01*
X0360395Y0171843D01*
X0359700Y0171148D01*
X0359005Y0171843D01*
X0356212Y0173000D01*
X0353188Y0173000D01*
X0350395Y0171843D01*
X0349700Y0171148D01*
X0349005Y0171843D01*
X0346212Y0173000D01*
X0343188Y0173000D01*
X0340395Y0171843D01*
X0339700Y0171148D01*
X0339005Y0171843D01*
X0336212Y0173000D01*
X0333188Y0173000D01*
X0330395Y0171843D01*
X0329700Y0171148D01*
X0329005Y0171843D01*
X0326212Y0173000D01*
X0323188Y0173000D01*
X0320395Y0171843D01*
X0319700Y0171148D01*
X0319005Y0171843D01*
X0316212Y0173000D01*
X0313188Y0173000D01*
X0310395Y0171843D01*
X0309700Y0171148D01*
X0309005Y0171843D01*
X0306212Y0173000D01*
X0303188Y0173000D01*
X0300395Y0171843D01*
X0299700Y0171148D01*
X0299005Y0171843D01*
X0296212Y0173000D01*
X0293188Y0173000D01*
X0290395Y0171843D01*
X0288257Y0169705D01*
X0288189Y0169540D01*
X0287530Y0170018D01*
X0286773Y0170404D01*
X0285965Y0170667D01*
X0285125Y0170800D01*
X0284700Y0170800D01*
X0284700Y0162200D01*
X0284700Y0162200D01*
X0284700Y0170800D01*
X0284275Y0170800D01*
X0283435Y0170667D01*
X0282627Y0170404D01*
X0281870Y0170018D01*
X0281211Y0169540D01*
X0281143Y0169705D01*
X0279005Y0171843D01*
X0276212Y0173000D01*
X0273188Y0173000D01*
X0270395Y0171843D01*
X0268257Y0169705D01*
X0268189Y0169540D01*
X0267530Y0170018D01*
X0266773Y0170404D01*
X0265965Y0170667D01*
X0265125Y0170800D01*
X0264700Y0170800D01*
X0264700Y0162200D01*
X0264700Y0162200D01*
X0264700Y0170800D01*
X0264275Y0170800D01*
X0263435Y0170667D01*
X0262627Y0170404D01*
X0261870Y0170018D01*
X0261211Y0169540D01*
X0261143Y0169705D01*
X0259005Y0171843D01*
X0256212Y0173000D01*
X0253188Y0173000D01*
X0250395Y0171843D01*
X0249700Y0171148D01*
X0249005Y0171843D01*
X0246212Y0173000D01*
X0243188Y0173000D01*
X0240395Y0171843D01*
X0239700Y0171148D01*
X0239005Y0171843D01*
X0236212Y0173000D01*
X0233188Y0173000D01*
X0230395Y0171843D01*
X0228257Y0169705D01*
X0227800Y0168602D01*
X0227800Y0173233D01*
X0234374Y0173233D01*
X0235992Y0173903D01*
X0237229Y0175141D01*
X0237899Y0176758D01*
X0237899Y0185595D01*
X0237229Y0187212D01*
X0235992Y0188450D01*
X0234374Y0189120D01*
X0220026Y0189120D01*
X0218408Y0188450D01*
X0217171Y0187212D01*
X0216990Y0186776D01*
X0212696Y0186776D01*
X0212092Y0188236D01*
X0210854Y0189473D01*
X0209237Y0190143D01*
X0204975Y0190143D01*
X0201187Y0193932D01*
X0201187Y0202705D01*
X0200517Y0204322D01*
X0199279Y0205560D01*
X0197662Y0206230D01*
X0181738Y0206230D01*
X0180121Y0205560D01*
X0178883Y0204322D01*
X0178213Y0202705D01*
X0178213Y0192293D01*
X0178658Y0191219D01*
X0178559Y0191260D01*
X0172360Y0197459D01*
X0172341Y0197467D01*
X0172257Y0197669D01*
X0172997Y0198408D01*
X0173667Y0200026D01*
X0173667Y0207047D01*
X0179720Y0213100D01*
X0183875Y0213100D01*
X0185150Y0213628D01*
X0186425Y0213100D01*
X0192975Y0213100D01*
X0194250Y0213628D01*
X0195525Y0213100D01*
X0202075Y0213100D01*
X0203692Y0213770D01*
X0204930Y0215008D01*
X0205465Y0216300D01*
X0217983Y0216300D01*
X0218097Y0216258D01*
X0218233Y0216264D01*
X0218233Y0215026D01*
X0218903Y0213408D01*
X0220141Y0212171D01*
X0221600Y0211566D01*
X0221600Y0211167D01*
X0220026Y0211167D01*
X0218408Y0210497D01*
X0217171Y0209259D01*
X0216501Y0207642D01*
X0216501Y0198805D01*
X0217171Y0197188D01*
X0218408Y0195950D01*
X0220026Y0195280D01*
X0234374Y0195280D01*
X0235992Y0195950D01*
X0237229Y0197188D01*
X0237899Y0198805D01*
X0237899Y0207642D01*
X0237229Y0209259D01*
X0235992Y0210497D01*
X0234374Y0211167D01*
X0232800Y0211167D01*
X0232800Y0212759D01*
X0233450Y0213408D01*
X0234120Y0215026D01*
X0234120Y0229374D01*
X0233450Y0230992D01*
X0232212Y0232229D01*
X0230595Y0232899D01*
X0221758Y0232899D01*
X0220141Y0232229D01*
X0218903Y0230992D01*
X0218233Y0229374D01*
X0218233Y0227500D01*
X0205465Y0227500D01*
X0204930Y0228792D01*
X0203692Y0230030D01*
X0202075Y0230700D01*
X0195525Y0230700D01*
X0194250Y0230172D01*
X0192975Y0230700D01*
X0186425Y0230700D01*
X0185150Y0230172D01*
X0183875Y0230700D01*
X0177325Y0230700D01*
X0175708Y0230030D01*
X0174470Y0228792D01*
X0173800Y0227175D01*
X0173800Y0223020D01*
X0171467Y0220686D01*
X0171467Y0224128D01*
X0166295Y0224128D01*
X0166295Y0225272D01*
X0165152Y0225272D01*
X0165152Y0233199D01*
X0161891Y0233199D01*
X0161331Y0233049D01*
X0160829Y0232760D01*
X0160420Y0232350D01*
X0160130Y0231848D01*
X0159980Y0231289D01*
X0159980Y0225272D01*
X0165152Y0225272D01*
X0165152Y0224128D01*
X0159980Y0224128D01*
X0159980Y0218111D01*
X0160130Y0217552D01*
X0160195Y0217439D01*
X0159688Y0217229D01*
X0158450Y0215992D01*
X0157780Y0214374D01*
X0157780Y0202800D01*
X0151620Y0202800D01*
X0151620Y0214374D01*
X0150967Y0215950D01*
X0151620Y0217526D01*
X0151620Y0231874D01*
X0150950Y0233492D01*
X0149712Y0234729D01*
X0148095Y0235399D01*
X0139258Y0235399D01*
X0137641Y0234729D01*
X0136403Y0233492D01*
X0135733Y0231874D01*
X0135733Y0223063D01*
X0134349Y0224447D01*
X0132290Y0225300D01*
X0108586Y0225300D01*
X0106528Y0224447D01*
X0102680Y0220600D01*
X0097225Y0220600D01*
X0095608Y0219930D01*
X0094370Y0218692D01*
X0093700Y0217075D01*
X0093700Y0210525D01*
X0094228Y0209250D01*
X0093700Y0207975D01*
X0093700Y0201425D01*
X0093793Y0201200D01*
X0077498Y0201200D01*
X0075440Y0200347D01*
X0073864Y0198772D01*
X0072943Y0197851D01*
X0072943Y0198651D01*
X0072793Y0199211D01*
X0072504Y0199712D01*
X0072094Y0200122D01*
X0071592Y0200411D01*
X0071033Y0200561D01*
X0067575Y0200561D01*
X0067575Y0195587D01*
X0066825Y0195587D01*
X0066825Y0200561D01*
X0063367Y0200561D01*
X0062808Y0200411D01*
X0062306Y0200122D01*
X0061896Y0199712D01*
X0061607Y0199211D01*
X0061457Y0198651D01*
X0061457Y0195587D01*
X0066825Y0195587D01*
X0066825Y0194837D01*
X0061457Y0194837D01*
X0061457Y0191773D01*
X0061597Y0191247D01*
X0061164Y0191068D01*
X0059927Y0189830D01*
X0059257Y0188213D01*
X0059257Y0184543D01*
X0058646Y0183990D01*
X0058516Y0183936D01*
X0057825Y0183244D01*
X0057101Y0182587D01*
X0057040Y0182460D01*
X0055841Y0181260D01*
X0053472Y0180279D01*
X0051621Y0178428D01*
X0050619Y0176009D01*
X0050619Y0173391D01*
X0051621Y0170972D01*
X0053472Y0169121D01*
X0055891Y0168119D01*
X0058509Y0168119D01*
X0060928Y0169121D01*
X0062779Y0170972D01*
X0063760Y0173341D01*
X0065552Y0175132D01*
X0067212Y0176639D01*
X0071619Y0176639D01*
X0073236Y0177308D01*
X0074473Y0178546D01*
X0075143Y0180163D01*
X0075143Y0184212D01*
X0080931Y0190000D01*
X0095077Y0190000D01*
X0095608Y0189470D01*
X0097225Y0188800D01*
X0107775Y0188800D01*
X0109392Y0189470D01*
X0110630Y0190708D01*
X0111300Y0192325D01*
X0111300Y0198875D01*
X0110772Y0200150D01*
X0111300Y0201425D01*
X0111300Y0207975D01*
X0110772Y0209250D01*
X0111300Y0210525D01*
X0111300Y0213380D01*
X0112020Y0214100D01*
X0118766Y0214100D01*
X0118170Y0212662D01*
X0118170Y0196738D01*
X0118840Y0195121D01*
X0120078Y0193883D01*
X0121695Y0193213D01*
X0126944Y0193213D01*
X0127705Y0192453D01*
X0129763Y0191600D01*
X0131639Y0191600D01*
X0131639Y0185281D01*
X0132308Y0183664D01*
X0133546Y0182427D01*
X0135163Y0181757D01*
X0136972Y0181757D01*
X0136974Y0181756D01*
X0137368Y0181476D01*
X0137993Y0181334D01*
X0138586Y0181088D01*
X0139069Y0181088D01*
X0139540Y0180981D01*
X0140172Y0181088D01*
X0140814Y0181088D01*
X0141260Y0181273D01*
X0141736Y0181354D01*
X0142280Y0181695D01*
X0142428Y0181757D01*
X0143213Y0181757D01*
X0144830Y0182427D01*
X0146068Y0183664D01*
X0146247Y0184097D01*
X0146773Y0183957D01*
X0149837Y0183957D01*
X0149837Y0189325D01*
X0150587Y0189325D01*
X0150587Y0190075D01*
X0155561Y0190075D01*
X0155561Y0191600D01*
X0156757Y0191600D01*
X0156757Y0188687D01*
X0157427Y0187070D01*
X0158664Y0185832D01*
X0159097Y0185653D01*
X0158957Y0185127D01*
X0158957Y0182063D01*
X0164325Y0182063D01*
X0164325Y0181313D01*
X0165075Y0181313D01*
X0165075Y0176339D01*
X0168533Y0176339D01*
X0169092Y0176489D01*
X0169594Y0176778D01*
X0170004Y0177188D01*
X0170293Y0177689D01*
X0170443Y0178249D01*
X0170443Y0181313D01*
X0165075Y0181313D01*
X0165075Y0182063D01*
X0170443Y0182063D01*
X0170443Y0183537D01*
X0170640Y0183341D01*
X0171621Y0180972D01*
X0173472Y0179121D01*
X0173634Y0179054D01*
X0167380Y0172800D01*
X0142020Y0172800D01*
X0134447Y0180372D01*
X0132872Y0181947D01*
X0130814Y0182800D01*
X0091086Y0182800D01*
X0089028Y0181947D01*
X0061528Y0154447D01*
X0059953Y0152872D01*
X0059100Y0150814D01*
X0059100Y0100878D01*
X0058119Y0098509D01*
X0058119Y0095891D01*
X0059121Y0093472D01*
X0060972Y0091621D01*
X0063391Y0090619D01*
X0066009Y0090619D01*
X0068428Y0091621D01*
X0070279Y0093472D01*
X0071281Y0095891D01*
X0071281Y0097600D01*
X0072488Y0097100D01*
X0081912Y0097100D01*
X0084705Y0098257D01*
X0086843Y0100395D01*
X0088000Y0103188D01*
X0088000Y0106212D01*
X0086843Y0109005D01*
X0084705Y0111143D01*
X0084540Y0111211D01*
X0085018Y0111870D01*
X0085404Y0112627D01*
X0085667Y0113435D01*
X0085800Y0114275D01*
X0085800Y0114700D01*
X0085800Y0115125D01*
X0085667Y0115965D01*
X0085404Y0116773D01*
X0085018Y0117530D01*
X0084519Y0118218D01*
X0083918Y0118819D01*
X0083230Y0119318D01*
X0082473Y0119704D01*
X0081665Y0119967D01*
X0080825Y0120100D01*
X0077200Y0120100D01*
X0077200Y0114700D01*
X0077200Y0114700D01*
X0085800Y0114700D01*
X0077200Y0114700D01*
X0077200Y0114700D01*
X0077200Y0120100D01*
X0073575Y0120100D01*
X0072735Y0119967D01*
X0071927Y0119704D01*
X0071170Y0119318D01*
X0070482Y0118819D01*
X0070300Y0118637D01*
X0070300Y0147380D01*
X0094520Y0171600D01*
X0101118Y0171600D01*
X0101096Y0171578D01*
X0100000Y0168932D01*
X0100000Y0160468D01*
X0101096Y0157822D01*
X0103122Y0155796D01*
X0105768Y0154700D01*
X0108632Y0154700D01*
X0111278Y0155796D01*
X0113304Y0157822D01*
X0113568Y0158460D01*
X0113943Y0158086D01*
X0114579Y0157624D01*
X0115281Y0157266D01*
X0116029Y0157023D01*
X0116806Y0156900D01*
X0117200Y0156900D01*
X0117594Y0156900D01*
X0118371Y0157023D01*
X0119119Y0157266D01*
X0119821Y0157624D01*
X0120457Y0158086D01*
X0120831Y0158460D01*
X0121096Y0157822D01*
X0123122Y0155796D01*
X0125768Y0154700D01*
X0128632Y0154700D01*
X0131278Y0155796D01*
X0133304Y0157822D01*
X0134400Y0160468D01*
X0134400Y0164580D01*
X0136528Y0162453D01*
X0138586Y0161600D01*
X0170814Y0161600D01*
X0172872Y0162453D01*
X0174447Y0164028D01*
X0180458Y0170039D01*
X0180000Y0168932D01*
X0180000Y0160468D01*
X0181096Y0157822D01*
X0183122Y0155796D01*
X0185768Y0154700D01*
X0188632Y0154700D01*
X0191278Y0155796D01*
X0193304Y0157822D01*
X0193568Y0158460D01*
X0193943Y0158086D01*
X0194579Y0157624D01*
X0195281Y0157266D01*
X0196029Y0157023D01*
X0196806Y0156900D01*
X0197200Y0156900D01*
X0197594Y0156900D01*
X0198371Y0157023D01*
X0199119Y0157266D01*
X0199821Y0157624D01*
X0200457Y0158086D01*
X0200831Y0158460D01*
X0201096Y0157822D01*
X0203122Y0155796D01*
X0205768Y0154700D01*
X0208632Y0154700D01*
X0211278Y0155796D01*
X0213304Y0157822D01*
X0214400Y0160468D01*
X0214400Y0168932D01*
X0213304Y0171578D01*
X0211278Y0173604D01*
X0209469Y0174353D01*
X0210854Y0174927D01*
X0211396Y0175469D01*
X0211866Y0175576D01*
X0216600Y0175576D01*
X0216600Y0158378D01*
X0215619Y0156009D01*
X0215619Y0153391D01*
X0216621Y0150972D01*
X0218472Y0149121D01*
X0220891Y0148119D01*
X0223509Y0148119D01*
X0225928Y0149121D01*
X0227779Y0150972D01*
X0228781Y0153391D01*
X0228781Y0154171D01*
X0230395Y0152557D01*
X0233188Y0151400D01*
X0236212Y0151400D01*
X0239005Y0152557D01*
X0239700Y0153252D01*
X0240395Y0152557D01*
X0243188Y0151400D01*
X0246212Y0151400D01*
X0249005Y0152557D01*
X0249700Y0153252D01*
X0250395Y0152557D01*
X0253188Y0151400D01*
X0256212Y0151400D01*
X0259005Y0152557D01*
X0261143Y0154695D01*
X0261211Y0154860D01*
X0261870Y0154382D01*
X0262627Y0153996D01*
X0263435Y0153733D01*
X0264275Y0153600D01*
X0264700Y0153600D01*
X0265125Y0153600D01*
X0265965Y0153733D01*
X0266773Y0153996D01*
X0267530Y0154382D01*
X0268189Y0154860D01*
X0268257Y0154695D01*
X0270395Y0152557D01*
X0273188Y0151400D01*
X0276212Y0151400D01*
X0279005Y0152557D01*
X0281143Y0154695D01*
X0281211Y0154860D01*
X0281870Y0154382D01*
X0282627Y0153996D01*
X0283435Y0153733D01*
X0284275Y0153600D01*
X0284700Y0153600D01*
X0285125Y0153600D01*
X0285965Y0153733D01*
X0286773Y0153996D01*
X0287530Y0154382D01*
X0288189Y0154860D01*
X0288257Y0154695D01*
X0290395Y0152557D01*
X0293188Y0151400D01*
X0296212Y0151400D01*
X0299005Y0152557D01*
X0299700Y0153252D01*
X0300395Y0152557D01*
X0303188Y0151400D01*
X0306212Y0151400D01*
X0309005Y0152557D01*
X0309700Y0153252D01*
X0310395Y0152557D01*
X0313188Y0151400D01*
X0316212Y0151400D01*
X0319005Y0152557D01*
X0319700Y0153252D01*
X0320395Y0152557D01*
X0323188Y0151400D01*
X0326212Y0151400D01*
X0329005Y0152557D01*
X0329700Y0153252D01*
X0330395Y0152557D01*
X0333188Y0151400D01*
X0336212Y0151400D01*
X0339005Y0152557D01*
X0339700Y0153252D01*
X0340395Y0152557D01*
X0343188Y0151400D01*
X0346212Y0151400D01*
X0349005Y0152557D01*
X0349700Y0153252D01*
X0350395Y0152557D01*
X0353188Y0151400D01*
X0356212Y0151400D01*
X0359005Y0152557D01*
X0359700Y0153252D01*
X0360395Y0152557D01*
X0363188Y0151400D01*
X0366212Y0151400D01*
X0369005Y0152557D01*
X0371561Y0155705D02*
X0396501Y0155705D01*
X0396501Y0158103D02*
X0372300Y0158103D01*
X0372300Y0160502D02*
X0396501Y0160502D01*
X0396501Y0162900D02*
X0372300Y0162900D01*
X0372300Y0165299D02*
X0396501Y0165299D01*
X0396501Y0167697D02*
X0371975Y0167697D01*
X0361967Y0172494D02*
X0357433Y0172494D01*
X0364229Y0174893D02*
X0236981Y0174893D01*
X0237433Y0172494D02*
X0241967Y0172494D01*
X0247433Y0172494D02*
X0251967Y0172494D01*
X0257433Y0172494D02*
X0271967Y0172494D01*
X0268648Y0170096D02*
X0267378Y0170096D01*
X0264700Y0170096D02*
X0264700Y0170096D01*
X0264700Y0167697D02*
X0264700Y0167697D01*
X0264700Y0165299D02*
X0264700Y0165299D01*
X0264700Y0162900D02*
X0264700Y0162900D01*
X0264700Y0162200D02*
X0264700Y0153600D01*
X0264700Y0162200D01*
X0264700Y0162200D01*
X0264700Y0160502D02*
X0264700Y0160502D01*
X0264700Y0158103D02*
X0264700Y0158103D01*
X0264700Y0155705D02*
X0264700Y0155705D01*
X0259754Y0153306D02*
X0269646Y0153306D01*
X0279754Y0153306D02*
X0289646Y0153306D01*
X0284700Y0153600D02*
X0284700Y0162200D01*
X0284700Y0162200D01*
X0284700Y0153600D01*
X0284700Y0155705D02*
X0284700Y0155705D01*
X0284700Y0158103D02*
X0284700Y0158103D01*
X0284700Y0160502D02*
X0284700Y0160502D01*
X0284700Y0162900D02*
X0284700Y0162900D01*
X0284700Y0165299D02*
X0284700Y0165299D01*
X0284700Y0167697D02*
X0284700Y0167697D01*
X0284700Y0170096D02*
X0284700Y0170096D01*
X0287378Y0170096D02*
X0288648Y0170096D01*
X0291967Y0172494D02*
X0277433Y0172494D01*
X0280752Y0170096D02*
X0282022Y0170096D01*
X0297433Y0172494D02*
X0301967Y0172494D01*
X0307433Y0172494D02*
X0311967Y0172494D01*
X0317433Y0172494D02*
X0321967Y0172494D01*
X0327433Y0172494D02*
X0331967Y0172494D01*
X0337433Y0172494D02*
X0341967Y0172494D01*
X0347433Y0172494D02*
X0351967Y0172494D01*
X0363900Y0177291D02*
X0237899Y0177291D01*
X0237899Y0179690D02*
X0364305Y0179690D01*
X0365640Y0182088D02*
X0237899Y0182088D01*
X0237899Y0184487D02*
X0265965Y0184487D01*
X0265057Y0185395D02*
X0267195Y0183257D01*
X0269988Y0182100D01*
X0279412Y0182100D01*
X0282205Y0183257D01*
X0284343Y0185395D01*
X0285500Y0188188D01*
X0285500Y0191212D01*
X0284343Y0194005D01*
X0283648Y0194700D01*
X0284343Y0195395D01*
X0285500Y0198188D01*
X0285500Y0201212D01*
X0284343Y0204005D01*
X0282205Y0206143D01*
X0279412Y0207300D01*
X0269988Y0207300D01*
X0267195Y0206143D01*
X0265057Y0204005D01*
X0263900Y0201212D01*
X0263900Y0198188D01*
X0265057Y0195395D01*
X0265752Y0194700D01*
X0265057Y0194005D01*
X0263900Y0191212D01*
X0263900Y0188188D01*
X0265057Y0185395D01*
X0264440Y0186885D02*
X0237365Y0186885D01*
X0227200Y0181176D02*
X0222200Y0176176D01*
X0222200Y0154700D01*
X0215619Y0155705D02*
X0211058Y0155705D01*
X0213421Y0158103D02*
X0216486Y0158103D01*
X0216600Y0160502D02*
X0214400Y0160502D01*
X0214400Y0162900D02*
X0216600Y0162900D01*
X0216600Y0165299D02*
X0214400Y0165299D01*
X0214400Y0167697D02*
X0216600Y0167697D01*
X0216600Y0170096D02*
X0213918Y0170096D01*
X0212388Y0172494D02*
X0216600Y0172494D01*
X0216600Y0174893D02*
X0210772Y0174893D01*
X0204698Y0174257D02*
X0203122Y0173604D01*
X0201096Y0171578D01*
X0200831Y0170940D01*
X0200457Y0171314D01*
X0199821Y0171776D01*
X0199119Y0172134D01*
X0198371Y0172377D01*
X0197594Y0172500D01*
X0197200Y0172500D01*
X0197200Y0164700D01*
X0197200Y0164700D01*
X0197200Y0156900D01*
X0197200Y0164700D01*
X0197200Y0164700D01*
X0197200Y0172500D01*
X0196806Y0172500D01*
X0196029Y0172377D01*
X0195281Y0172134D01*
X0194579Y0171776D01*
X0193943Y0171314D01*
X0193568Y0170940D01*
X0193304Y0171578D01*
X0191278Y0173604D01*
X0188632Y0174700D01*
X0185768Y0174700D01*
X0184661Y0174242D01*
X0188839Y0178419D01*
X0188839Y0178367D01*
X0188989Y0177808D01*
X0189278Y0177306D01*
X0189688Y0176896D01*
X0190189Y0176607D01*
X0190749Y0176457D01*
X0193813Y0176457D01*
X0193813Y0181825D01*
X0194563Y0181825D01*
X0194563Y0176457D01*
X0197627Y0176457D01*
X0198153Y0176597D01*
X0198332Y0176164D01*
X0199570Y0174927D01*
X0201187Y0174257D01*
X0204698Y0174257D01*
X0202012Y0172494D02*
X0197629Y0172494D01*
X0197200Y0172494D02*
X0197200Y0172494D01*
X0196771Y0172494D02*
X0192388Y0172494D01*
X0197200Y0170096D02*
X0197200Y0170096D01*
X0197200Y0167697D02*
X0197200Y0167697D01*
X0197200Y0165299D02*
X0197200Y0165299D01*
X0197200Y0162900D02*
X0197200Y0162900D01*
X0197200Y0160502D02*
X0197200Y0160502D01*
X0197200Y0158103D02*
X0197200Y0158103D01*
X0200474Y0158103D02*
X0200979Y0158103D01*
X0203342Y0155705D02*
X0191058Y0155705D01*
X0193421Y0158103D02*
X0193926Y0158103D01*
X0183342Y0155705D02*
X0131058Y0155705D01*
X0133421Y0158103D02*
X0180979Y0158103D01*
X0180000Y0160502D02*
X0134400Y0160502D01*
X0134400Y0162900D02*
X0136080Y0162900D01*
X0139700Y0167200D02*
X0129700Y0177200D01*
X0092200Y0177200D01*
X0064700Y0149700D01*
X0064700Y0097200D01*
X0071219Y0095742D02*
X0100000Y0095742D01*
X0100000Y0096132D02*
X0100000Y0093268D01*
X0101096Y0090622D01*
X0102018Y0089700D01*
X0101096Y0088778D01*
X0100000Y0086132D01*
X0100000Y0083268D01*
X0101096Y0080622D01*
X0102018Y0079700D01*
X0101096Y0078778D01*
X0100000Y0076132D01*
X0100000Y0073268D01*
X0101096Y0070622D01*
X0103122Y0068596D01*
X0105768Y0067500D01*
X0108632Y0067500D01*
X0111278Y0068596D01*
X0113304Y0070622D01*
X0114400Y0073268D01*
X0114400Y0076132D01*
X0113304Y0078778D01*
X0112382Y0079700D01*
X0113304Y0080622D01*
X0114400Y0083268D01*
X0114400Y0086132D01*
X0113304Y0088778D01*
X0112382Y0089700D01*
X0113304Y0090622D01*
X0114400Y0093268D01*
X0114400Y0096132D01*
X0113304Y0098778D01*
X0112382Y0099700D01*
X0113304Y0100622D01*
X0114400Y0103268D01*
X0114400Y0106132D01*
X0113304Y0108778D01*
X0111278Y0110804D01*
X0108632Y0111900D01*
X0105768Y0111900D01*
X0103122Y0110804D01*
X0101096Y0108778D01*
X0100000Y0106132D01*
X0100000Y0103268D01*
X0101096Y0100622D01*
X0102018Y0099700D01*
X0101096Y0098778D01*
X0100000Y0096132D01*
X0100832Y0098140D02*
X0084424Y0098140D01*
X0086903Y0100539D02*
X0101179Y0100539D01*
X0100137Y0102937D02*
X0087896Y0102937D01*
X0088000Y0105336D02*
X0100000Y0105336D01*
X0100664Y0107734D02*
X0087369Y0107734D01*
X0085715Y0110133D02*
X0102451Y0110133D01*
X0111949Y0110133D02*
X0132451Y0110133D01*
X0133122Y0110804D02*
X0131096Y0108778D01*
X0130000Y0106132D01*
X0130000Y0103268D01*
X0131096Y0100622D01*
X0132018Y0099700D01*
X0131096Y0098778D01*
X0130000Y0096132D01*
X0130000Y0093268D01*
X0131096Y0090622D01*
X0132018Y0089700D01*
X0131096Y0088778D01*
X0130000Y0086132D01*
X0130000Y0083268D01*
X0131096Y0080622D01*
X0132018Y0079700D01*
X0131096Y0078778D01*
X0130000Y0076132D01*
X0130000Y0073268D01*
X0131096Y0070622D01*
X0133122Y0068596D01*
X0135768Y0067500D01*
X0138632Y0067500D01*
X0141278Y0068596D01*
X0143304Y0070622D01*
X0144400Y0073268D01*
X0144400Y0076132D01*
X0143304Y0078778D01*
X0142382Y0079700D01*
X0143304Y0080622D01*
X0144400Y0083268D01*
X0144400Y0086132D01*
X0143304Y0088778D01*
X0142382Y0089700D01*
X0143304Y0090622D01*
X0144400Y0093268D01*
X0144400Y0096132D01*
X0143304Y0098778D01*
X0142382Y0099700D01*
X0143304Y0100622D01*
X0144400Y0103268D01*
X0144400Y0106132D01*
X0143304Y0108778D01*
X0141278Y0110804D01*
X0138632Y0111900D01*
X0135768Y0111900D01*
X0133122Y0110804D01*
X0130664Y0107734D02*
X0113736Y0107734D01*
X0114400Y0105336D02*
X0130000Y0105336D01*
X0130137Y0102937D02*
X0114263Y0102937D01*
X0113221Y0100539D02*
X0131179Y0100539D01*
X0130832Y0098140D02*
X0113568Y0098140D01*
X0114400Y0095742D02*
X0130000Y0095742D01*
X0130000Y0093343D02*
X0114400Y0093343D01*
X0113438Y0090945D02*
X0130962Y0090945D01*
X0131000Y0088546D02*
X0113400Y0088546D01*
X0114393Y0086148D02*
X0130007Y0086148D01*
X0130000Y0083749D02*
X0114400Y0083749D01*
X0113606Y0081351D02*
X0130794Y0081351D01*
X0131270Y0078952D02*
X0113130Y0078952D01*
X0114225Y0076554D02*
X0130175Y0076554D01*
X0130000Y0074155D02*
X0114400Y0074155D01*
X0113774Y0071757D02*
X0130626Y0071757D01*
X0132359Y0069358D02*
X0112041Y0069358D01*
X0102359Y0069358D02*
X0009100Y0069358D01*
X0009100Y0066960D02*
X0207613Y0066960D01*
X0207950Y0067772D02*
X0206738Y0064846D01*
X0206738Y0054554D01*
X0207950Y0051628D01*
X0210190Y0049388D01*
X0213116Y0048176D01*
X0216284Y0048176D01*
X0219210Y0049388D01*
X0221305Y0051482D01*
X0221680Y0051210D01*
X0222488Y0050798D01*
X0223351Y0050517D01*
X0224246Y0050376D01*
X0224700Y0050376D01*
X0225153Y0050376D01*
X0226049Y0050517D01*
X0226912Y0050798D01*
X0227720Y0051210D01*
X0228095Y0051482D01*
X0230190Y0049388D01*
X0233116Y0048176D01*
X0236284Y0048176D01*
X0239210Y0049388D01*
X0241450Y0051628D01*
X0242662Y0054554D01*
X0242662Y0064846D01*
X0241450Y0067772D01*
X0239210Y0070012D01*
X0236284Y0071224D01*
X0233116Y0071224D01*
X0230190Y0070012D01*
X0228095Y0067918D01*
X0227720Y0068190D01*
X0226912Y0068602D01*
X0226049Y0068883D01*
X0225153Y0069024D01*
X0224700Y0069024D01*
X0224700Y0059700D01*
X0224700Y0059700D01*
X0224700Y0069024D01*
X0224246Y0069024D01*
X0223351Y0068883D01*
X0222488Y0068602D01*
X0221680Y0068190D01*
X0221305Y0067918D01*
X0219210Y0070012D01*
X0216284Y0071224D01*
X0213116Y0071224D01*
X0210190Y0070012D01*
X0207950Y0067772D01*
X0209536Y0069358D02*
X0204541Y0069358D01*
X0203778Y0068596D02*
X0205804Y0070622D01*
X0206900Y0073268D01*
X0206900Y0076132D01*
X0205804Y0078778D01*
X0204882Y0079700D01*
X0205804Y0080622D01*
X0206900Y0083268D01*
X0206900Y0086132D01*
X0205804Y0088778D01*
X0204882Y0089700D01*
X0205804Y0090622D01*
X0206900Y0093268D01*
X0206900Y0096132D01*
X0205804Y0098778D01*
X0204882Y0099700D01*
X0205804Y0100622D01*
X0206900Y0103268D01*
X0206900Y0106132D01*
X0205804Y0108778D01*
X0203778Y0110804D01*
X0201132Y0111900D01*
X0198268Y0111900D01*
X0195622Y0110804D01*
X0193596Y0108778D01*
X0192500Y0106132D01*
X0192500Y0103268D01*
X0193596Y0100622D01*
X0194518Y0099700D01*
X0193596Y0098778D01*
X0192500Y0096132D01*
X0192500Y0093268D01*
X0193596Y0090622D01*
X0194518Y0089700D01*
X0193596Y0088778D01*
X0192500Y0086132D01*
X0192500Y0083268D01*
X0193596Y0080622D01*
X0194518Y0079700D01*
X0193596Y0078778D01*
X0192500Y0076132D01*
X0192500Y0073268D01*
X0193596Y0070622D01*
X0195622Y0068596D01*
X0198268Y0067500D01*
X0201132Y0067500D01*
X0203778Y0068596D01*
X0206738Y0064561D02*
X0009100Y0064561D01*
X0009100Y0062163D02*
X0206738Y0062163D01*
X0206738Y0059764D02*
X0009100Y0059764D01*
X0009100Y0057366D02*
X0206738Y0057366D01*
X0206738Y0054967D02*
X0009100Y0054967D01*
X0009100Y0052569D02*
X0207560Y0052569D01*
X0209407Y0050170D02*
X0009100Y0050170D01*
X0009100Y0047772D02*
X0396501Y0047772D01*
X0396501Y0050170D02*
X0239993Y0050170D01*
X0241840Y0052569D02*
X0261750Y0052569D01*
X0261541Y0052778D02*
X0262778Y0051541D01*
X0264396Y0050871D01*
X0275004Y0050871D01*
X0276622Y0051541D01*
X0277859Y0052778D01*
X0278529Y0054396D01*
X0278529Y0065004D01*
X0277859Y0066622D01*
X0276622Y0067859D01*
X0275004Y0068529D01*
X0264396Y0068529D01*
X0262778Y0067859D01*
X0261541Y0066622D01*
X0260871Y0065004D01*
X0260871Y0054396D01*
X0261541Y0052778D01*
X0260871Y0054967D02*
X0242662Y0054967D01*
X0242662Y0057366D02*
X0260871Y0057366D01*
X0260871Y0059764D02*
X0242662Y0059764D01*
X0242662Y0062163D02*
X0260871Y0062163D01*
X0260871Y0064561D02*
X0242662Y0064561D01*
X0241787Y0066960D02*
X0261879Y0066960D01*
X0277521Y0066960D02*
X0286879Y0066960D01*
X0286541Y0066622D02*
X0287778Y0067859D01*
X0289396Y0068529D01*
X0300004Y0068529D01*
X0301622Y0067859D01*
X0302859Y0066622D01*
X0303529Y0065004D01*
X0303529Y0054396D01*
X0302859Y0052778D01*
X0301622Y0051541D01*
X0300004Y0050871D01*
X0289396Y0050871D01*
X0287778Y0051541D01*
X0286541Y0052778D01*
X0285871Y0054396D01*
X0285871Y0065004D01*
X0286541Y0066622D01*
X0285871Y0064561D02*
X0278529Y0064561D01*
X0278529Y0062163D02*
X0285871Y0062163D01*
X0285871Y0059764D02*
X0278529Y0059764D01*
X0278529Y0057366D02*
X0285871Y0057366D01*
X0285871Y0054967D02*
X0278529Y0054967D01*
X0277650Y0052569D02*
X0286750Y0052569D01*
X0302650Y0052569D02*
X0396501Y0052569D01*
X0396501Y0054967D02*
X0303529Y0054967D01*
X0303529Y0057366D02*
X0396501Y0057366D01*
X0396501Y0059764D02*
X0303529Y0059764D01*
X0303529Y0062163D02*
X0396501Y0062163D01*
X0396501Y0064561D02*
X0303529Y0064561D01*
X0302521Y0066960D02*
X0396501Y0066960D01*
X0396501Y0069358D02*
X0239864Y0069358D01*
X0229536Y0069358D02*
X0219864Y0069358D01*
X0224700Y0066960D02*
X0224700Y0066960D01*
X0224700Y0064561D02*
X0224700Y0064561D01*
X0224700Y0062163D02*
X0224700Y0062163D01*
X0224700Y0059764D02*
X0224700Y0059764D01*
X0224700Y0059700D02*
X0224700Y0050376D01*
X0224700Y0059700D01*
X0224700Y0059700D01*
X0224700Y0057366D02*
X0224700Y0057366D01*
X0224700Y0054967D02*
X0224700Y0054967D01*
X0224700Y0052569D02*
X0224700Y0052569D01*
X0219993Y0050170D02*
X0229407Y0050170D01*
X0261541Y0036622D02*
X0260871Y0035004D01*
X0260871Y0024396D01*
X0261541Y0022778D01*
X0262778Y0021541D01*
X0264396Y0020871D01*
X0275004Y0020871D01*
X0276622Y0021541D01*
X0277859Y0022778D01*
X0278529Y0024396D01*
X0278529Y0035004D01*
X0277859Y0036622D01*
X0276622Y0037859D01*
X0275004Y0038529D01*
X0264396Y0038529D01*
X0262778Y0037859D01*
X0261541Y0036622D01*
X0261192Y0035779D02*
X0009100Y0035779D01*
X0009100Y0033381D02*
X0260871Y0033381D01*
X0260871Y0030982D02*
X0009100Y0030982D01*
X0009100Y0028584D02*
X0260871Y0028584D01*
X0260871Y0026185D02*
X0009100Y0026185D01*
X0009100Y0023787D02*
X0261123Y0023787D01*
X0263147Y0021388D02*
X0009100Y0021388D01*
X0009100Y0018990D02*
X0396501Y0018990D01*
X0396501Y0021388D02*
X0363459Y0021388D01*
X0364700Y0022629D02*
X0361771Y0019700D01*
X0359700Y0019700D01*
X0359700Y0024700D01*
X0364700Y0024700D01*
X0364700Y0026771D01*
X0363327Y0028144D01*
X0366900Y0031718D01*
X0366900Y0037682D01*
X0362682Y0041900D01*
X0356718Y0041900D01*
X0352500Y0037682D01*
X0352500Y0031718D01*
X0356073Y0028144D01*
X0354700Y0026771D01*
X0354700Y0024700D01*
X0359700Y0024700D01*
X0359700Y0024700D01*
X0359700Y0024700D01*
X0364700Y0024700D01*
X0364700Y0022629D01*
X0364700Y0023787D02*
X0396501Y0023787D01*
X0396501Y0026185D02*
X0364700Y0026185D01*
X0363766Y0028584D02*
X0396501Y0028584D01*
X0396501Y0030982D02*
X0366164Y0030982D01*
X0366900Y0033381D02*
X0396501Y0033381D01*
X0396501Y0035779D02*
X0366900Y0035779D01*
X0366405Y0038178D02*
X0396501Y0038178D01*
X0396501Y0040576D02*
X0364006Y0040576D01*
X0355394Y0040576D02*
X0009100Y0040576D01*
X0009100Y0038178D02*
X0263547Y0038178D01*
X0275853Y0038178D02*
X0288547Y0038178D01*
X0287778Y0037859D02*
X0289396Y0038529D01*
X0300004Y0038529D01*
X0301622Y0037859D01*
X0302859Y0036622D01*
X0303529Y0035004D01*
X0303529Y0024396D01*
X0302859Y0022778D01*
X0301622Y0021541D01*
X0300004Y0020871D01*
X0289396Y0020871D01*
X0287778Y0021541D01*
X0286541Y0022778D01*
X0285871Y0024396D01*
X0285871Y0035004D01*
X0286541Y0036622D01*
X0287778Y0037859D01*
X0286192Y0035779D02*
X0278208Y0035779D01*
X0278529Y0033381D02*
X0285871Y0033381D01*
X0285871Y0030982D02*
X0278529Y0030982D01*
X0278529Y0028584D02*
X0285871Y0028584D01*
X0285871Y0026185D02*
X0278529Y0026185D01*
X0278277Y0023787D02*
X0286123Y0023787D01*
X0288147Y0021388D02*
X0276253Y0021388D01*
X0301253Y0021388D02*
X0355941Y0021388D01*
X0354700Y0022629D02*
X0357629Y0019700D01*
X0359700Y0019700D01*
X0359700Y0024700D01*
X0359700Y0024700D01*
X0354700Y0024700D01*
X0354700Y0022629D01*
X0354700Y0023787D02*
X0303277Y0023787D01*
X0303529Y0026185D02*
X0354700Y0026185D01*
X0355634Y0028584D02*
X0303529Y0028584D01*
X0303529Y0030982D02*
X0353236Y0030982D01*
X0352500Y0033381D02*
X0303529Y0033381D01*
X0303208Y0035779D02*
X0352500Y0035779D01*
X0352995Y0038178D02*
X0300853Y0038178D01*
X0359700Y0023787D02*
X0359700Y0023787D01*
X0359700Y0021388D02*
X0359700Y0021388D01*
X0396501Y0016591D02*
X0009100Y0016591D01*
X0009100Y0014193D02*
X0396501Y0014193D01*
X0396501Y0011794D02*
X0009100Y0011794D01*
X0009100Y0009396D02*
X0396501Y0009396D01*
X0396501Y0006997D02*
X0009100Y0006997D01*
X0009100Y0006600D02*
X0009100Y0237761D01*
X0396501Y0237761D01*
X0396501Y0006600D01*
X0009100Y0006600D01*
X0009100Y0042975D02*
X0396501Y0042975D01*
X0396501Y0045373D02*
X0009100Y0045373D01*
X0009100Y0071757D02*
X0100626Y0071757D01*
X0100000Y0074155D02*
X0009100Y0074155D01*
X0009100Y0076554D02*
X0100175Y0076554D01*
X0101270Y0078952D02*
X0009100Y0078952D01*
X0009100Y0081351D02*
X0100794Y0081351D01*
X0100000Y0083749D02*
X0009100Y0083749D01*
X0009100Y0086148D02*
X0100007Y0086148D01*
X0101000Y0088546D02*
X0009100Y0088546D01*
X0009100Y0090945D02*
X0062604Y0090945D01*
X0059249Y0093343D02*
X0009100Y0093343D01*
X0009100Y0095742D02*
X0058181Y0095742D01*
X0058119Y0098140D02*
X0009100Y0098140D01*
X0009100Y0100539D02*
X0058960Y0100539D01*
X0059100Y0102937D02*
X0009100Y0102937D01*
X0009100Y0105336D02*
X0059100Y0105336D01*
X0059100Y0107734D02*
X0009100Y0107734D01*
X0009100Y0110133D02*
X0059100Y0110133D01*
X0059100Y0112532D02*
X0009100Y0112532D01*
X0009100Y0114930D02*
X0059100Y0114930D01*
X0059100Y0117329D02*
X0009100Y0117329D01*
X0009100Y0119727D02*
X0059100Y0119727D01*
X0059100Y0122126D02*
X0009100Y0122126D01*
X0009100Y0124524D02*
X0059100Y0124524D01*
X0059100Y0126923D02*
X0009100Y0126923D01*
X0009100Y0129321D02*
X0059100Y0129321D01*
X0059100Y0131720D02*
X0009100Y0131720D01*
X0009100Y0134118D02*
X0059100Y0134118D01*
X0059100Y0136517D02*
X0009100Y0136517D01*
X0009100Y0138915D02*
X0059100Y0138915D01*
X0059100Y0141314D02*
X0009100Y0141314D01*
X0009100Y0143712D02*
X0059100Y0143712D01*
X0059100Y0146111D02*
X0009100Y0146111D01*
X0009100Y0148509D02*
X0059100Y0148509D01*
X0059139Y0150908D02*
X0009100Y0150908D01*
X0009100Y0153306D02*
X0060387Y0153306D01*
X0062785Y0155705D02*
X0009100Y0155705D01*
X0009100Y0158103D02*
X0065184Y0158103D01*
X0067582Y0160502D02*
X0009100Y0160502D01*
X0009100Y0162900D02*
X0069981Y0162900D01*
X0072379Y0165299D02*
X0009100Y0165299D01*
X0009100Y0167697D02*
X0074778Y0167697D01*
X0077176Y0170096D02*
X0061903Y0170096D01*
X0063410Y0172494D02*
X0079575Y0172494D01*
X0081973Y0174893D02*
X0065312Y0174893D01*
X0061688Y0179188D02*
X0057200Y0174700D01*
X0061688Y0179188D02*
X0067200Y0184188D01*
X0078612Y0195600D01*
X0102500Y0195600D01*
X0111300Y0196479D02*
X0118277Y0196479D01*
X0118170Y0198878D02*
X0111299Y0198878D01*
X0111239Y0201276D02*
X0118170Y0201276D01*
X0118170Y0203675D02*
X0111300Y0203675D01*
X0111300Y0206073D02*
X0118170Y0206073D01*
X0118170Y0208472D02*
X0111094Y0208472D01*
X0111300Y0210870D02*
X0118170Y0210870D01*
X0118422Y0213269D02*
X0111300Y0213269D01*
X0109700Y0219700D02*
X0103800Y0213800D01*
X0102500Y0213800D01*
X0093700Y0213269D02*
X0009100Y0213269D01*
X0009100Y0210870D02*
X0093700Y0210870D01*
X0093906Y0208472D02*
X0009100Y0208472D01*
X0009100Y0206073D02*
X0093700Y0206073D01*
X0093700Y0203675D02*
X0009100Y0203675D01*
X0009100Y0201276D02*
X0093761Y0201276D01*
X0111300Y0194081D02*
X0119880Y0194081D01*
X0111034Y0191682D02*
X0129564Y0191682D01*
X0131639Y0189284D02*
X0108943Y0189284D01*
X0096057Y0189284D02*
X0080215Y0189284D01*
X0077817Y0186885D02*
X0131639Y0186885D01*
X0131968Y0184487D02*
X0075418Y0184487D01*
X0075143Y0182088D02*
X0089368Y0182088D01*
X0086770Y0179690D02*
X0074947Y0179690D01*
X0073194Y0177291D02*
X0084372Y0177291D01*
X0093015Y0170096D02*
X0100482Y0170096D01*
X0100000Y0167697D02*
X0090617Y0167697D01*
X0088218Y0165299D02*
X0100000Y0165299D01*
X0100000Y0162900D02*
X0085820Y0162900D01*
X0083421Y0160502D02*
X0100000Y0160502D01*
X0100979Y0158103D02*
X0081023Y0158103D01*
X0078624Y0155705D02*
X0103342Y0155705D01*
X0111058Y0155705D02*
X0123342Y0155705D01*
X0120979Y0158103D02*
X0120474Y0158103D01*
X0117200Y0158103D02*
X0117200Y0158103D01*
X0117200Y0156900D02*
X0117200Y0164700D01*
X0117200Y0164700D01*
X0117200Y0156900D01*
X0113926Y0158103D02*
X0113421Y0158103D01*
X0117200Y0160502D02*
X0117200Y0160502D01*
X0117200Y0162900D02*
X0117200Y0162900D01*
X0139700Y0167200D02*
X0169700Y0167200D01*
X0184700Y0182200D01*
X0184700Y0192499D01*
X0189700Y0197499D01*
X0204999Y0182200D01*
X0205212Y0182200D01*
X0211235Y0181176D01*
X0227200Y0181176D01*
X0217035Y0186885D02*
X0212651Y0186885D01*
X0211043Y0189284D02*
X0263900Y0189284D01*
X0264095Y0191682D02*
X0203436Y0191682D01*
X0201187Y0194081D02*
X0265133Y0194081D01*
X0264608Y0196479D02*
X0236521Y0196479D01*
X0237899Y0198878D02*
X0263900Y0198878D01*
X0263927Y0201276D02*
X0237899Y0201276D01*
X0237899Y0203675D02*
X0264920Y0203675D01*
X0267125Y0206073D02*
X0237899Y0206073D01*
X0237555Y0208472D02*
X0363900Y0208472D01*
X0363900Y0206073D02*
X0282275Y0206073D01*
X0284480Y0203675D02*
X0364734Y0203675D01*
X0364962Y0201276D02*
X0285473Y0201276D01*
X0285500Y0198878D02*
X0363969Y0198878D01*
X0363900Y0196479D02*
X0284792Y0196479D01*
X0284267Y0194081D02*
X0364566Y0194081D01*
X0365234Y0191682D02*
X0285305Y0191682D01*
X0285500Y0189284D02*
X0364137Y0189284D01*
X0363900Y0186885D02*
X0284960Y0186885D01*
X0283435Y0184487D02*
X0364398Y0184487D01*
X0390609Y0170096D02*
X0396501Y0170096D01*
X0396501Y0172494D02*
X0393942Y0172494D01*
X0395170Y0174893D02*
X0396501Y0174893D01*
X0396501Y0177291D02*
X0395500Y0177291D01*
X0395095Y0179690D02*
X0396501Y0179690D01*
X0396501Y0182088D02*
X0393760Y0182088D01*
X0395002Y0184487D02*
X0396501Y0184487D01*
X0396501Y0186885D02*
X0395500Y0186885D01*
X0395263Y0189284D02*
X0396501Y0189284D01*
X0396501Y0191682D02*
X0394166Y0191682D01*
X0394834Y0194081D02*
X0396501Y0194081D01*
X0396501Y0196479D02*
X0395500Y0196479D01*
X0395431Y0198878D02*
X0396501Y0198878D01*
X0396501Y0201276D02*
X0394438Y0201276D01*
X0394666Y0203675D02*
X0396501Y0203675D01*
X0396501Y0206073D02*
X0395500Y0206073D01*
X0395500Y0208472D02*
X0396501Y0208472D01*
X0396501Y0210870D02*
X0394606Y0210870D01*
X0396501Y0213269D02*
X0392579Y0213269D01*
X0396501Y0215668D02*
X0253967Y0215668D01*
X0253967Y0215611D02*
X0253967Y0221628D01*
X0248795Y0221628D01*
X0248795Y0213701D01*
X0252057Y0213701D01*
X0252616Y0213851D01*
X0253118Y0214140D01*
X0253527Y0214550D01*
X0253817Y0215052D01*
X0253967Y0215611D01*
X0253967Y0218066D02*
X0396501Y0218066D01*
X0396501Y0220465D02*
X0253967Y0220465D01*
X0253967Y0222772D02*
X0253967Y0228789D01*
X0253817Y0229348D01*
X0253527Y0229850D01*
X0253118Y0230260D01*
X0252616Y0230549D01*
X0252057Y0230699D01*
X0248795Y0230699D01*
X0248795Y0222772D01*
X0247652Y0222772D01*
X0247652Y0230699D01*
X0244391Y0230699D01*
X0243831Y0230549D01*
X0243329Y0230260D01*
X0242920Y0229850D01*
X0242630Y0229348D01*
X0242480Y0228789D01*
X0242480Y0222772D01*
X0247652Y0222772D01*
X0247652Y0221628D01*
X0248795Y0221628D01*
X0248795Y0222772D01*
X0253967Y0222772D01*
X0253967Y0222863D02*
X0396501Y0222863D01*
X0396501Y0225262D02*
X0253967Y0225262D01*
X0253967Y0227660D02*
X0396501Y0227660D01*
X0396501Y0230059D02*
X0253319Y0230059D01*
X0248795Y0230059D02*
X0247652Y0230059D01*
X0247652Y0227660D02*
X0248795Y0227660D01*
X0248795Y0225262D02*
X0247652Y0225262D01*
X0247652Y0222863D02*
X0248795Y0222863D01*
X0247652Y0221628D02*
X0242480Y0221628D01*
X0242480Y0215611D01*
X0242630Y0215052D01*
X0242920Y0214550D01*
X0243329Y0214140D01*
X0243831Y0213851D01*
X0244391Y0213701D01*
X0247652Y0213701D01*
X0247652Y0221628D01*
X0247652Y0220465D02*
X0248795Y0220465D01*
X0248795Y0218066D02*
X0247652Y0218066D01*
X0247652Y0215668D02*
X0248795Y0215668D01*
X0242480Y0215668D02*
X0234120Y0215668D01*
X0234120Y0218066D02*
X0242480Y0218066D01*
X0242480Y0220465D02*
X0234120Y0220465D01*
X0234120Y0222863D02*
X0242480Y0222863D01*
X0242480Y0225262D02*
X0234120Y0225262D01*
X0234120Y0227660D02*
X0242480Y0227660D01*
X0243128Y0230059D02*
X0233836Y0230059D01*
X0231662Y0232457D02*
X0396501Y0232457D01*
X0396501Y0234856D02*
X0149407Y0234856D01*
X0151378Y0232457D02*
X0160527Y0232457D01*
X0159980Y0230059D02*
X0151620Y0230059D01*
X0151620Y0227660D02*
X0159980Y0227660D01*
X0165152Y0227660D02*
X0166295Y0227660D01*
X0166295Y0225272D02*
X0166295Y0233199D01*
X0169557Y0233199D01*
X0170116Y0233049D01*
X0170618Y0232760D01*
X0171027Y0232350D01*
X0171317Y0231848D01*
X0171467Y0231289D01*
X0171467Y0225272D01*
X0166295Y0225272D01*
X0166295Y0225262D02*
X0173800Y0225262D01*
X0173643Y0222863D02*
X0171467Y0222863D01*
X0165152Y0225262D02*
X0151620Y0225262D01*
X0151620Y0222863D02*
X0159980Y0222863D01*
X0159980Y0220465D02*
X0151620Y0220465D01*
X0151620Y0218066D02*
X0159992Y0218066D01*
X0158316Y0215668D02*
X0151084Y0215668D01*
X0151620Y0213269D02*
X0157780Y0213269D01*
X0157780Y0210870D02*
X0151620Y0210870D01*
X0151620Y0208472D02*
X0157780Y0208472D01*
X0157780Y0206073D02*
X0151620Y0206073D01*
X0151620Y0203675D02*
X0157780Y0203675D01*
X0164700Y0206176D02*
X0164700Y0197200D01*
X0139700Y0197200D01*
X0139700Y0186688D01*
X0139188Y0189700D01*
X0149837Y0189284D02*
X0150587Y0189284D01*
X0150587Y0189325D02*
X0150587Y0183957D01*
X0153651Y0183957D01*
X0154211Y0184107D01*
X0154712Y0184396D01*
X0155122Y0184806D01*
X0155411Y0185308D01*
X0155561Y0185867D01*
X0155561Y0189325D01*
X0150587Y0189325D01*
X0150587Y0186885D02*
X0149837Y0186885D01*
X0149837Y0184487D02*
X0150587Y0184487D01*
X0154803Y0184487D02*
X0158957Y0184487D01*
X0158957Y0182088D02*
X0144014Y0182088D01*
X0137528Y0177291D02*
X0159336Y0177291D01*
X0159396Y0177188D02*
X0159806Y0176778D01*
X0160308Y0176489D01*
X0160867Y0176339D01*
X0164325Y0176339D01*
X0164325Y0181313D01*
X0158957Y0181313D01*
X0158957Y0178249D01*
X0159107Y0177689D01*
X0159396Y0177188D01*
X0158957Y0179690D02*
X0135130Y0179690D01*
X0134363Y0182088D02*
X0132532Y0182088D01*
X0139927Y0174893D02*
X0169473Y0174893D01*
X0170064Y0177291D02*
X0171872Y0177291D01*
X0172903Y0179690D02*
X0170443Y0179690D01*
X0170443Y0182088D02*
X0171158Y0182088D01*
X0165075Y0179690D02*
X0164325Y0179690D01*
X0164325Y0177291D02*
X0165075Y0177291D01*
X0177200Y0184700D02*
X0169188Y0192712D01*
X0164700Y0192712D01*
X0164700Y0197200D01*
X0173192Y0198878D02*
X0178213Y0198878D01*
X0178213Y0201276D02*
X0173667Y0201276D01*
X0173667Y0203675D02*
X0178615Y0203675D01*
X0181360Y0206073D02*
X0173667Y0206073D01*
X0175092Y0208472D02*
X0216845Y0208472D01*
X0216501Y0206073D02*
X0198040Y0206073D01*
X0200785Y0203675D02*
X0216501Y0203675D01*
X0216501Y0201276D02*
X0201187Y0201276D01*
X0201187Y0198878D02*
X0216501Y0198878D01*
X0217879Y0196479D02*
X0201187Y0196479D01*
X0178213Y0196479D02*
X0173340Y0196479D01*
X0175739Y0194081D02*
X0178213Y0194081D01*
X0178137Y0191682D02*
X0178466Y0191682D01*
X0193813Y0179690D02*
X0194563Y0179690D01*
X0194563Y0177291D02*
X0193813Y0177291D01*
X0189293Y0177291D02*
X0187711Y0177291D01*
X0185312Y0174893D02*
X0199651Y0174893D01*
X0180000Y0167697D02*
X0178117Y0167697D01*
X0180000Y0165299D02*
X0175718Y0165299D01*
X0173320Y0162900D02*
X0180000Y0162900D01*
X0215654Y0153306D02*
X0076226Y0153306D01*
X0073827Y0150908D02*
X0216685Y0150908D01*
X0219949Y0148509D02*
X0071429Y0148509D01*
X0070300Y0146111D02*
X0374300Y0146111D01*
X0374300Y0148509D02*
X0224451Y0148509D01*
X0227715Y0150908D02*
X0375771Y0150908D01*
X0385100Y0148509D02*
X0396501Y0148509D01*
X0396501Y0146111D02*
X0385100Y0146111D01*
X0383849Y0143712D02*
X0396501Y0143712D01*
X0396501Y0141314D02*
X0359534Y0141314D01*
X0359005Y0141843D02*
X0356212Y0143000D01*
X0353188Y0143000D01*
X0350395Y0141843D01*
X0349700Y0141148D01*
X0349005Y0141843D01*
X0346212Y0143000D01*
X0343188Y0143000D01*
X0340395Y0141843D01*
X0339700Y0141148D01*
X0339005Y0141843D01*
X0336212Y0143000D01*
X0333188Y0143000D01*
X0330395Y0141843D01*
X0329700Y0141148D01*
X0329005Y0141843D01*
X0326212Y0143000D01*
X0323188Y0143000D01*
X0320395Y0141843D01*
X0319700Y0141148D01*
X0319005Y0141843D01*
X0316212Y0143000D01*
X0313188Y0143000D01*
X0310395Y0141843D01*
X0309700Y0141148D01*
X0309005Y0141843D01*
X0306212Y0143000D01*
X0303188Y0143000D01*
X0300395Y0141843D01*
X0299700Y0141148D01*
X0299005Y0141843D01*
X0296212Y0143000D01*
X0293188Y0143000D01*
X0290395Y0141843D01*
X0289700Y0141148D01*
X0289005Y0141843D01*
X0286212Y0143000D01*
X0283188Y0143000D01*
X0280395Y0141843D01*
X0278257Y0139705D01*
X0278189Y0139540D01*
X0277530Y0140018D01*
X0276773Y0140404D01*
X0275965Y0140667D01*
X0275125Y0140800D01*
X0274700Y0140800D01*
X0274700Y0132200D01*
X0274700Y0132200D01*
X0274700Y0123600D01*
X0275125Y0123600D01*
X0275965Y0123733D01*
X0276773Y0123996D01*
X0277530Y0124382D01*
X0278189Y0124860D01*
X0278257Y0124695D01*
X0280395Y0122557D01*
X0283188Y0121400D01*
X0286212Y0121400D01*
X0289005Y0122557D01*
X0289700Y0123252D01*
X0290395Y0122557D01*
X0293188Y0121400D01*
X0296212Y0121400D01*
X0299005Y0122557D01*
X0299700Y0123252D01*
X0300395Y0122557D01*
X0303188Y0121400D01*
X0306212Y0121400D01*
X0309005Y0122557D01*
X0309700Y0123252D01*
X0310395Y0122557D01*
X0313188Y0121400D01*
X0316212Y0121400D01*
X0319005Y0122557D01*
X0319700Y0123252D01*
X0320395Y0122557D01*
X0323188Y0121400D01*
X0326212Y0121400D01*
X0329005Y0122557D01*
X0329700Y0123252D01*
X0330395Y0122557D01*
X0333188Y0121400D01*
X0336212Y0121400D01*
X0339005Y0122557D01*
X0339700Y0123252D01*
X0340395Y0122557D01*
X0343188Y0121400D01*
X0346212Y0121400D01*
X0349005Y0122557D01*
X0349700Y0123252D01*
X0350395Y0122557D01*
X0353188Y0121400D01*
X0356212Y0121400D01*
X0359005Y0122557D01*
X0361143Y0124695D01*
X0361211Y0124860D01*
X0361870Y0124382D01*
X0362627Y0123996D01*
X0363435Y0123733D01*
X0364275Y0123600D01*
X0364700Y0123600D01*
X0365125Y0123600D01*
X0365965Y0123733D01*
X0366773Y0123996D01*
X0367530Y0124382D01*
X0368218Y0124881D01*
X0368819Y0125482D01*
X0369318Y0126170D01*
X0369704Y0126927D01*
X0369967Y0127735D01*
X0370100Y0128575D01*
X0370100Y0132200D01*
X0370100Y0135825D01*
X0369967Y0136665D01*
X0369704Y0137473D01*
X0369318Y0138230D01*
X0368819Y0138918D01*
X0368218Y0139519D01*
X0367530Y0140018D01*
X0366773Y0140404D01*
X0365965Y0140667D01*
X0365125Y0140800D01*
X0364700Y0140800D01*
X0364700Y0132200D01*
X0370100Y0132200D01*
X0364700Y0132200D01*
X0364700Y0132200D01*
X0364700Y0132200D01*
X0364700Y0123600D01*
X0364700Y0132200D01*
X0364700Y0132200D01*
X0364700Y0140800D01*
X0364275Y0140800D01*
X0363435Y0140667D01*
X0362627Y0140404D01*
X0361870Y0140018D01*
X0361211Y0139540D01*
X0361143Y0139705D01*
X0359005Y0141843D01*
X0364700Y0138915D02*
X0364700Y0138915D01*
X0364700Y0136517D02*
X0364700Y0136517D01*
X0364700Y0134118D02*
X0364700Y0134118D01*
X0364700Y0131720D02*
X0364700Y0131720D01*
X0364700Y0129321D02*
X0364700Y0129321D01*
X0364700Y0126923D02*
X0364700Y0126923D01*
X0364700Y0124524D02*
X0364700Y0124524D01*
X0365678Y0122126D02*
X0357963Y0122126D01*
X0360972Y0124524D02*
X0361674Y0124524D01*
X0365057Y0121505D02*
X0363900Y0118712D01*
X0363900Y0115688D01*
X0365057Y0112895D01*
X0365752Y0112200D01*
X0365057Y0111505D01*
X0363900Y0108712D01*
X0363900Y0105688D01*
X0365057Y0102895D01*
X0365752Y0102200D01*
X0365057Y0101505D01*
X0363900Y0098712D01*
X0363900Y0095688D01*
X0365057Y0092895D01*
X0365752Y0092200D01*
X0365057Y0091505D01*
X0363900Y0088712D01*
X0363900Y0085688D01*
X0365057Y0082895D01*
X0367195Y0080757D01*
X0369988Y0079600D01*
X0379412Y0079600D01*
X0379700Y0079719D01*
X0379988Y0079600D01*
X0389412Y0079600D01*
X0392205Y0080757D01*
X0394343Y0082895D01*
X0395500Y0085688D01*
X0395500Y0088712D01*
X0394343Y0091505D01*
X0393648Y0092200D01*
X0394343Y0092895D01*
X0395500Y0095688D01*
X0395500Y0098712D01*
X0394343Y0101505D01*
X0393648Y0102200D01*
X0394343Y0102895D01*
X0395500Y0105688D01*
X0395500Y0108712D01*
X0394343Y0111505D01*
X0393648Y0112200D01*
X0394343Y0112895D01*
X0395500Y0115688D01*
X0395500Y0118712D01*
X0394343Y0121505D01*
X0392205Y0123643D01*
X0389412Y0124800D01*
X0379988Y0124800D01*
X0379700Y0124681D01*
X0379412Y0124800D01*
X0369988Y0124800D01*
X0367195Y0123643D01*
X0365057Y0121505D01*
X0364321Y0119727D02*
X0082403Y0119727D01*
X0085121Y0117329D02*
X0363900Y0117329D01*
X0364214Y0114930D02*
X0085800Y0114930D01*
X0085356Y0112532D02*
X0365420Y0112532D01*
X0364489Y0110133D02*
X0204449Y0110133D01*
X0206236Y0107734D02*
X0363900Y0107734D01*
X0364046Y0105336D02*
X0206900Y0105336D01*
X0206763Y0102937D02*
X0365039Y0102937D01*
X0364657Y0100539D02*
X0205721Y0100539D01*
X0206068Y0098140D02*
X0363900Y0098140D01*
X0363900Y0095742D02*
X0206900Y0095742D01*
X0206900Y0093343D02*
X0364871Y0093343D01*
X0364825Y0090945D02*
X0205938Y0090945D01*
X0205900Y0088546D02*
X0363900Y0088546D01*
X0363900Y0086148D02*
X0206893Y0086148D01*
X0206900Y0083749D02*
X0364703Y0083749D01*
X0366601Y0081351D02*
X0206106Y0081351D01*
X0205630Y0078952D02*
X0396501Y0078952D01*
X0396501Y0076554D02*
X0206725Y0076554D01*
X0206900Y0074155D02*
X0396501Y0074155D01*
X0396501Y0071757D02*
X0206274Y0071757D01*
X0194859Y0069358D02*
X0174541Y0069358D01*
X0173778Y0068596D02*
X0175804Y0070622D01*
X0176900Y0073268D01*
X0176900Y0076132D01*
X0175804Y0078778D01*
X0174882Y0079700D01*
X0175804Y0080622D01*
X0176900Y0083268D01*
X0176900Y0086132D01*
X0175804Y0088778D01*
X0174882Y0089700D01*
X0175804Y0090622D01*
X0176900Y0093268D01*
X0176900Y0096132D01*
X0175804Y0098778D01*
X0174882Y0099700D01*
X0175804Y0100622D01*
X0176900Y0103268D01*
X0176900Y0106132D01*
X0175804Y0108778D01*
X0173778Y0110804D01*
X0171132Y0111900D01*
X0168268Y0111900D01*
X0165622Y0110804D01*
X0163596Y0108778D01*
X0162500Y0106132D01*
X0162500Y0103268D01*
X0163596Y0100622D01*
X0164518Y0099700D01*
X0163596Y0098778D01*
X0162500Y0096132D01*
X0162500Y0093268D01*
X0163596Y0090622D01*
X0164518Y0089700D01*
X0163596Y0088778D01*
X0162500Y0086132D01*
X0162500Y0083268D01*
X0163596Y0080622D01*
X0164518Y0079700D01*
X0163596Y0078778D01*
X0162500Y0076132D01*
X0162500Y0073268D01*
X0163596Y0070622D01*
X0165622Y0068596D01*
X0168268Y0067500D01*
X0171132Y0067500D01*
X0173778Y0068596D01*
X0176274Y0071757D02*
X0193126Y0071757D01*
X0192500Y0074155D02*
X0176900Y0074155D01*
X0176725Y0076554D02*
X0192675Y0076554D01*
X0193770Y0078952D02*
X0175630Y0078952D01*
X0176106Y0081351D02*
X0193294Y0081351D01*
X0192500Y0083749D02*
X0176900Y0083749D01*
X0176893Y0086148D02*
X0192507Y0086148D01*
X0193500Y0088546D02*
X0175900Y0088546D01*
X0175938Y0090945D02*
X0193462Y0090945D01*
X0192500Y0093343D02*
X0176900Y0093343D01*
X0176900Y0095742D02*
X0192500Y0095742D01*
X0193332Y0098140D02*
X0176068Y0098140D01*
X0175721Y0100539D02*
X0193679Y0100539D01*
X0192637Y0102937D02*
X0176763Y0102937D01*
X0176900Y0105336D02*
X0192500Y0105336D01*
X0193164Y0107734D02*
X0176236Y0107734D01*
X0174449Y0110133D02*
X0194951Y0110133D01*
X0164951Y0110133D02*
X0141949Y0110133D01*
X0143736Y0107734D02*
X0163164Y0107734D01*
X0162500Y0105336D02*
X0144400Y0105336D01*
X0144263Y0102937D02*
X0162637Y0102937D01*
X0163679Y0100539D02*
X0143221Y0100539D01*
X0143568Y0098140D02*
X0163332Y0098140D01*
X0162500Y0095742D02*
X0144400Y0095742D01*
X0144400Y0093343D02*
X0162500Y0093343D01*
X0163462Y0090945D02*
X0143438Y0090945D01*
X0143400Y0088546D02*
X0163500Y0088546D01*
X0162507Y0086148D02*
X0144393Y0086148D01*
X0144400Y0083749D02*
X0162500Y0083749D01*
X0163294Y0081351D02*
X0143606Y0081351D01*
X0143130Y0078952D02*
X0163770Y0078952D01*
X0162675Y0076554D02*
X0144225Y0076554D01*
X0144400Y0074155D02*
X0162500Y0074155D01*
X0163126Y0071757D02*
X0143774Y0071757D01*
X0142041Y0069358D02*
X0164859Y0069358D01*
X0100962Y0090945D02*
X0066796Y0090945D01*
X0070151Y0093343D02*
X0100000Y0093343D01*
X0077200Y0114930D02*
X0077200Y0114930D01*
X0077200Y0117329D02*
X0077200Y0117329D01*
X0077200Y0119727D02*
X0077200Y0119727D01*
X0071997Y0119727D02*
X0070300Y0119727D01*
X0070300Y0122126D02*
X0231437Y0122126D01*
X0230395Y0122557D02*
X0233188Y0121400D01*
X0236212Y0121400D01*
X0239005Y0122557D01*
X0241143Y0124695D01*
X0241211Y0124860D01*
X0241870Y0124382D01*
X0242627Y0123996D01*
X0243435Y0123733D01*
X0244275Y0123600D01*
X0244700Y0123600D01*
X0245125Y0123600D01*
X0245965Y0123733D01*
X0246773Y0123996D01*
X0247530Y0124382D01*
X0248189Y0124860D01*
X0248257Y0124695D01*
X0250395Y0122557D01*
X0253188Y0121400D01*
X0256212Y0121400D01*
X0259005Y0122557D01*
X0259700Y0123252D01*
X0260395Y0122557D01*
X0263188Y0121400D01*
X0266212Y0121400D01*
X0269005Y0122557D01*
X0271143Y0124695D01*
X0271211Y0124860D01*
X0271870Y0124382D01*
X0272627Y0123996D01*
X0273435Y0123733D01*
X0274275Y0123600D01*
X0274700Y0123600D01*
X0274700Y0132200D01*
X0274700Y0132200D01*
X0274700Y0140800D01*
X0274275Y0140800D01*
X0273435Y0140667D01*
X0272627Y0140404D01*
X0271870Y0140018D01*
X0271211Y0139540D01*
X0271143Y0139705D01*
X0269005Y0141843D01*
X0266212Y0143000D01*
X0263188Y0143000D01*
X0260395Y0141843D01*
X0259700Y0141148D01*
X0259005Y0141843D01*
X0256212Y0143000D01*
X0253188Y0143000D01*
X0250395Y0141843D01*
X0248257Y0139705D01*
X0248189Y0139540D01*
X0247530Y0140018D01*
X0246773Y0140404D01*
X0245965Y0140667D01*
X0245125Y0140800D01*
X0244700Y0140800D01*
X0244700Y0132200D01*
X0244700Y0132200D01*
X0244700Y0123600D01*
X0244700Y0132200D01*
X0244700Y0132200D01*
X0244700Y0140800D01*
X0244275Y0140800D01*
X0243435Y0140667D01*
X0242627Y0140404D01*
X0241870Y0140018D01*
X0241211Y0139540D01*
X0241143Y0139705D01*
X0239005Y0141843D01*
X0236212Y0143000D01*
X0233188Y0143000D01*
X0230395Y0141843D01*
X0228257Y0139705D01*
X0227100Y0136912D01*
X0227100Y0127488D01*
X0228257Y0124695D01*
X0230395Y0122557D01*
X0228428Y0124524D02*
X0070300Y0124524D01*
X0070300Y0126923D02*
X0227334Y0126923D01*
X0227100Y0129321D02*
X0070300Y0129321D01*
X0070300Y0131720D02*
X0227100Y0131720D01*
X0227100Y0134118D02*
X0070300Y0134118D01*
X0070300Y0136517D02*
X0227100Y0136517D01*
X0227930Y0138915D02*
X0070300Y0138915D01*
X0070300Y0141314D02*
X0229866Y0141314D01*
X0239534Y0141314D02*
X0249866Y0141314D01*
X0244700Y0138915D02*
X0244700Y0138915D01*
X0244700Y0136517D02*
X0244700Y0136517D01*
X0244700Y0134118D02*
X0244700Y0134118D01*
X0244700Y0131720D02*
X0244700Y0131720D01*
X0244700Y0129321D02*
X0244700Y0129321D01*
X0244700Y0126923D02*
X0244700Y0126923D01*
X0244700Y0124524D02*
X0244700Y0124524D01*
X0247726Y0124524D02*
X0248428Y0124524D01*
X0251437Y0122126D02*
X0237963Y0122126D01*
X0240972Y0124524D02*
X0241674Y0124524D01*
X0257963Y0122126D02*
X0261437Y0122126D01*
X0267963Y0122126D02*
X0281437Y0122126D01*
X0278428Y0124524D02*
X0277726Y0124524D01*
X0274700Y0124524D02*
X0274700Y0124524D01*
X0274700Y0126923D02*
X0274700Y0126923D01*
X0274700Y0129321D02*
X0274700Y0129321D01*
X0274700Y0131720D02*
X0274700Y0131720D01*
X0274700Y0134118D02*
X0274700Y0134118D01*
X0274700Y0136517D02*
X0274700Y0136517D01*
X0274700Y0138915D02*
X0274700Y0138915D01*
X0269534Y0141314D02*
X0279866Y0141314D01*
X0289534Y0141314D02*
X0289866Y0141314D01*
X0299534Y0141314D02*
X0299866Y0141314D01*
X0309534Y0141314D02*
X0309866Y0141314D01*
X0319534Y0141314D02*
X0319866Y0141314D01*
X0329534Y0141314D02*
X0329866Y0141314D01*
X0339534Y0141314D02*
X0339866Y0141314D01*
X0349534Y0141314D02*
X0349866Y0141314D01*
X0368821Y0138915D02*
X0396501Y0138915D01*
X0396501Y0136517D02*
X0369990Y0136517D01*
X0370100Y0134118D02*
X0396501Y0134118D01*
X0396501Y0131720D02*
X0370100Y0131720D01*
X0370100Y0129321D02*
X0396501Y0129321D01*
X0396501Y0126923D02*
X0369702Y0126923D01*
X0369322Y0124524D02*
X0367726Y0124524D01*
X0351437Y0122126D02*
X0347963Y0122126D01*
X0341437Y0122126D02*
X0337963Y0122126D01*
X0331437Y0122126D02*
X0327963Y0122126D01*
X0321437Y0122126D02*
X0317963Y0122126D01*
X0311437Y0122126D02*
X0307963Y0122126D01*
X0301437Y0122126D02*
X0297963Y0122126D01*
X0291437Y0122126D02*
X0287963Y0122126D01*
X0271674Y0124524D02*
X0270972Y0124524D01*
X0259866Y0141314D02*
X0259534Y0141314D01*
X0229646Y0153306D02*
X0228746Y0153306D01*
X0228648Y0170096D02*
X0227800Y0170096D01*
X0227800Y0172494D02*
X0231967Y0172494D01*
X0260752Y0170096D02*
X0262022Y0170096D01*
X0227200Y0203224D02*
X0227200Y0221176D01*
X0226176Y0222200D01*
X0218976Y0221900D01*
X0198800Y0221900D01*
X0205203Y0215668D02*
X0218233Y0215668D01*
X0219042Y0213269D02*
X0202483Y0213269D01*
X0195117Y0213269D02*
X0193383Y0213269D01*
X0186017Y0213269D02*
X0184283Y0213269D01*
X0177490Y0210870D02*
X0219310Y0210870D01*
X0233310Y0213269D02*
X0366821Y0213269D01*
X0364794Y0210870D02*
X0235090Y0210870D01*
X0218233Y0227660D02*
X0205399Y0227660D01*
X0203624Y0230059D02*
X0218516Y0230059D01*
X0220690Y0232457D02*
X0170920Y0232457D01*
X0171467Y0230059D02*
X0175776Y0230059D01*
X0174001Y0227660D02*
X0171467Y0227660D01*
X0166295Y0230059D02*
X0165152Y0230059D01*
X0165152Y0232457D02*
X0166295Y0232457D01*
X0180600Y0221900D02*
X0165900Y0207200D01*
X0165724Y0207200D01*
X0164700Y0206176D01*
X0143676Y0207200D02*
X0131176Y0219700D01*
X0109700Y0219700D01*
X0104943Y0222863D02*
X0009100Y0222863D01*
X0009100Y0220465D02*
X0096898Y0220465D01*
X0094110Y0218066D02*
X0009100Y0218066D01*
X0009100Y0215668D02*
X0093700Y0215668D01*
X0108493Y0225262D02*
X0009100Y0225262D01*
X0009100Y0227660D02*
X0135733Y0227660D01*
X0135733Y0225262D02*
X0132383Y0225262D01*
X0135733Y0230059D02*
X0009100Y0230059D01*
X0009100Y0232457D02*
X0135974Y0232457D01*
X0137945Y0234856D02*
X0009100Y0234856D01*
X0009100Y0237254D02*
X0396501Y0237254D01*
X0379700Y0143712D02*
X0379700Y0143712D01*
X0375551Y0143712D02*
X0070300Y0143712D01*
X0052497Y0170096D02*
X0009100Y0170096D01*
X0009100Y0172494D02*
X0050990Y0172494D01*
X0050619Y0174893D02*
X0009100Y0174893D01*
X0009100Y0177291D02*
X0051150Y0177291D01*
X0052883Y0179690D02*
X0009100Y0179690D01*
X0009100Y0182088D02*
X0056669Y0182088D01*
X0059194Y0184487D02*
X0009100Y0184487D01*
X0009100Y0186885D02*
X0059257Y0186885D01*
X0059700Y0189284D02*
X0009100Y0189284D01*
X0009100Y0191682D02*
X0061481Y0191682D01*
X0061457Y0194081D02*
X0009100Y0194081D01*
X0009100Y0196479D02*
X0061457Y0196479D01*
X0061517Y0198878D02*
X0009100Y0198878D01*
X0066825Y0198878D02*
X0067575Y0198878D01*
X0067575Y0196479D02*
X0066825Y0196479D01*
X0072883Y0198878D02*
X0073970Y0198878D01*
X0073864Y0198772D02*
X0073864Y0198772D01*
X0126901Y0204700D02*
X0130877Y0200724D01*
X0130877Y0197200D01*
X0139700Y0197200D01*
X0143676Y0207200D02*
X0143676Y0224700D01*
X0155561Y0189284D02*
X0156757Y0189284D01*
X0157611Y0186885D02*
X0155561Y0186885D01*
X0390078Y0124524D02*
X0396501Y0124524D01*
X0396501Y0122126D02*
X0393722Y0122126D01*
X0395079Y0119727D02*
X0396501Y0119727D01*
X0396501Y0117329D02*
X0395500Y0117329D01*
X0395186Y0114930D02*
X0396501Y0114930D01*
X0396501Y0112532D02*
X0393980Y0112532D01*
X0394911Y0110133D02*
X0396501Y0110133D01*
X0396501Y0107734D02*
X0395500Y0107734D01*
X0395354Y0105336D02*
X0396501Y0105336D01*
X0396501Y0102937D02*
X0394361Y0102937D01*
X0394743Y0100539D02*
X0396501Y0100539D01*
X0396501Y0098140D02*
X0395500Y0098140D01*
X0395500Y0095742D02*
X0396501Y0095742D01*
X0396501Y0093343D02*
X0394529Y0093343D01*
X0394575Y0090945D02*
X0396501Y0090945D01*
X0396501Y0088546D02*
X0395500Y0088546D01*
X0395500Y0086148D02*
X0396501Y0086148D01*
X0396501Y0083749D02*
X0394697Y0083749D01*
X0396501Y0081351D02*
X0392799Y0081351D01*
D27*
X0379700Y0057200D03*
X0369700Y0057200D03*
X0369700Y0047200D03*
X0379700Y0047200D03*
X0222200Y0154700D03*
X0222200Y0154700D03*
X0177200Y0184700D03*
X0057200Y0174700D03*
X0064700Y0097200D03*
M02*
