G75*
%MOIN*%
%OFA0B0*%
%FSLAX25Y25*%
%IPPOS*%
%LPD*%
%AMOC8*
5,1,8,0,0,1.08239X$1,22.5*
%
%ADD10R,0.06299X0.07087*%
%ADD11R,0.07087X0.06299*%
%ADD12R,0.08800X0.04800*%
%ADD13R,0.08661X0.14173*%
%ADD14C,0.05000*%
%ADD15C,0.06000*%
%ADD16OC8,0.04800*%
%ADD17R,0.12598X0.07087*%
%ADD18C,0.04800*%
%ADD19R,0.07087X0.12598*%
%ADD20R,0.08858X0.08858*%
%ADD21C,0.07087*%
%ADD22C,0.03369*%
%ADD23C,0.02400*%
%ADD24C,0.01600*%
%ADD25C,0.03762*%
%ADD26C,0.03200*%
D10*
X0069188Y0099700D03*
X0080212Y0099700D03*
X0174188Y0132200D03*
X0185212Y0132200D03*
X0229188Y0119700D03*
X0240212Y0119700D03*
X0082712Y0197200D03*
X0071688Y0197200D03*
X0071688Y0207200D03*
X0082712Y0207200D03*
D11*
X0057200Y0152712D03*
X0057200Y0141688D03*
X0154700Y0135212D03*
X0154700Y0124188D03*
D12*
X0121900Y0185600D03*
X0121900Y0194700D03*
X0121900Y0203800D03*
D13*
X0097499Y0194700D03*
D14*
X0092200Y0102200D03*
X0092200Y0092200D03*
X0092200Y0082200D03*
X0092200Y0072200D03*
X0122200Y0072200D03*
X0122200Y0082200D03*
X0122200Y0092200D03*
X0122200Y0102200D03*
X0152200Y0102200D03*
X0152200Y0092200D03*
X0152200Y0082200D03*
X0152200Y0072200D03*
X0182200Y0072200D03*
X0182200Y0082200D03*
X0182200Y0092200D03*
X0182200Y0102200D03*
D15*
X0199700Y0129200D02*
X0199700Y0135200D01*
X0209700Y0135200D02*
X0209700Y0129200D01*
X0219700Y0129200D02*
X0219700Y0135200D01*
X0229700Y0135200D02*
X0229700Y0129200D01*
X0239700Y0129200D02*
X0239700Y0135200D01*
X0249700Y0135200D02*
X0249700Y0129200D01*
X0259700Y0129200D02*
X0259700Y0135200D01*
X0269700Y0135200D02*
X0269700Y0129200D01*
X0279700Y0129200D02*
X0279700Y0135200D01*
X0289700Y0135200D02*
X0289700Y0129200D01*
X0299700Y0129200D02*
X0299700Y0135200D01*
X0309700Y0135200D02*
X0309700Y0129200D01*
X0319700Y0129200D02*
X0319700Y0135200D01*
X0329700Y0135200D02*
X0329700Y0129200D01*
X0329700Y0159200D02*
X0329700Y0165200D01*
X0319700Y0165200D02*
X0319700Y0159200D01*
X0309700Y0159200D02*
X0309700Y0165200D01*
X0299700Y0165200D02*
X0299700Y0159200D01*
X0289700Y0159200D02*
X0289700Y0165200D01*
X0279700Y0165200D02*
X0279700Y0159200D01*
X0269700Y0159200D02*
X0269700Y0165200D01*
X0259700Y0165200D02*
X0259700Y0159200D01*
X0249700Y0159200D02*
X0249700Y0165200D01*
X0239700Y0165200D02*
X0239700Y0159200D01*
X0229700Y0159200D02*
X0229700Y0165200D01*
X0219700Y0165200D02*
X0219700Y0159200D01*
X0209700Y0159200D02*
X0209700Y0165200D01*
X0199700Y0165200D02*
X0199700Y0159200D01*
X0236700Y0189700D02*
X0242700Y0189700D01*
X0242700Y0199700D02*
X0236700Y0199700D01*
X0077200Y0062700D02*
X0077200Y0056700D01*
X0067200Y0056700D02*
X0067200Y0062700D01*
D16*
X0324700Y0034700D03*
X0324700Y0024700D03*
D17*
X0237200Y0086176D03*
X0214700Y0096176D03*
X0197200Y0103224D03*
X0214700Y0118224D03*
X0237200Y0108224D03*
X0197200Y0081176D03*
X0137200Y0073224D03*
X0137200Y0051176D03*
X0077200Y0126176D03*
X0077200Y0148224D03*
D18*
X0072200Y0162300D02*
X0072200Y0167100D01*
X0082200Y0167100D02*
X0082200Y0162300D01*
X0092200Y0162300D02*
X0092200Y0167100D01*
X0152200Y0167100D02*
X0152200Y0162300D01*
X0162200Y0162300D02*
X0162200Y0167100D01*
X0172200Y0167100D02*
X0172200Y0162300D01*
D19*
X0163224Y0222200D03*
X0141176Y0222200D03*
X0115724Y0222200D03*
X0093676Y0222200D03*
X0078224Y0077200D03*
X0056176Y0077200D03*
X0288676Y0047200D03*
X0310724Y0047200D03*
D20*
X0259700Y0034700D03*
X0229700Y0034700D03*
X0229700Y0059700D03*
X0259700Y0059700D03*
D21*
X0202200Y0050743D02*
X0202200Y0043657D01*
X0192200Y0043657D02*
X0192200Y0050743D01*
X0182200Y0050743D02*
X0182200Y0043657D01*
D22*
X0349700Y0087200D03*
X0359700Y0087200D03*
X0359700Y0097200D03*
X0349700Y0097200D03*
X0349700Y0107200D03*
X0359700Y0107200D03*
X0359700Y0117200D03*
X0349700Y0117200D03*
X0349700Y0127200D03*
X0359700Y0127200D03*
X0359700Y0177200D03*
X0349700Y0177200D03*
X0349700Y0187200D03*
X0359700Y0187200D03*
X0359700Y0197200D03*
X0349700Y0197200D03*
X0349700Y0207200D03*
X0359700Y0207200D03*
D23*
X0006600Y0240261D02*
X0006600Y0006600D01*
X0369001Y0006600D01*
X0369001Y0240261D01*
X0006600Y0240261D01*
X0006600Y0239653D02*
X0369001Y0239653D01*
X0369001Y0237254D02*
X0006600Y0237254D01*
X0006600Y0234856D02*
X0369001Y0234856D01*
X0369001Y0232457D02*
X0146662Y0232457D01*
X0147212Y0232229D02*
X0145595Y0232899D01*
X0136758Y0232899D01*
X0135141Y0232229D01*
X0133903Y0230992D01*
X0133233Y0229374D01*
X0133233Y0228200D01*
X0123667Y0228200D01*
X0123667Y0229374D01*
X0122997Y0230992D01*
X0121759Y0232229D01*
X0120142Y0232899D01*
X0111305Y0232899D01*
X0109688Y0232229D01*
X0108450Y0230992D01*
X0107780Y0229374D01*
X0107780Y0215026D01*
X0108124Y0214195D01*
X0101620Y0220700D01*
X0101620Y0229374D01*
X0100950Y0230992D01*
X0099712Y0232229D01*
X0098095Y0232899D01*
X0089258Y0232899D01*
X0087641Y0232229D01*
X0086403Y0230992D01*
X0085733Y0229374D01*
X0085733Y0218707D01*
X0082170Y0215143D01*
X0078687Y0215143D01*
X0077070Y0214473D01*
X0075832Y0213236D01*
X0075653Y0212803D01*
X0075127Y0212943D01*
X0072063Y0212943D01*
X0072063Y0207575D01*
X0071313Y0207575D01*
X0071313Y0206825D01*
X0066339Y0206825D01*
X0066339Y0203367D01*
X0066489Y0202808D01*
X0066778Y0202306D01*
X0066884Y0202200D01*
X0066778Y0202094D01*
X0066489Y0201592D01*
X0066339Y0201033D01*
X0066339Y0197575D01*
X0071313Y0197575D01*
X0071313Y0196825D01*
X0066339Y0196825D01*
X0066339Y0195700D01*
X0046007Y0195700D01*
X0043801Y0194787D01*
X0024613Y0175599D01*
X0023700Y0173393D01*
X0023700Y0038507D01*
X0024613Y0036301D01*
X0034613Y0026301D01*
X0036301Y0024613D01*
X0038507Y0023700D01*
X0225893Y0023700D01*
X0228099Y0024613D01*
X0229356Y0025871D01*
X0235004Y0025871D01*
X0236622Y0026541D01*
X0237859Y0027778D01*
X0238529Y0029396D01*
X0238529Y0040004D01*
X0238034Y0041200D01*
X0245893Y0041200D01*
X0248099Y0042113D01*
X0249787Y0043801D01*
X0256856Y0050871D01*
X0265004Y0050871D01*
X0266622Y0051541D01*
X0267859Y0052778D01*
X0268529Y0054396D01*
X0268529Y0065004D01*
X0267859Y0066622D01*
X0266622Y0067859D01*
X0265004Y0068529D01*
X0254396Y0068529D01*
X0252778Y0067859D01*
X0251541Y0066622D01*
X0250871Y0065004D01*
X0250871Y0061856D01*
X0242215Y0053200D01*
X0238034Y0053200D01*
X0238529Y0054396D01*
X0238529Y0065004D01*
X0237859Y0066622D01*
X0236622Y0067859D01*
X0235004Y0068529D01*
X0229356Y0068529D01*
X0228099Y0069787D01*
X0225893Y0070700D01*
X0193507Y0070700D01*
X0191301Y0069787D01*
X0179905Y0058391D01*
X0177700Y0057477D01*
X0175466Y0055243D01*
X0174257Y0052323D01*
X0174257Y0042077D01*
X0175466Y0039157D01*
X0177700Y0036923D01*
X0180620Y0035713D01*
X0183780Y0035713D01*
X0186700Y0036923D01*
X0188803Y0039026D01*
X0189190Y0038745D01*
X0189995Y0038334D01*
X0190855Y0038055D01*
X0191748Y0037913D01*
X0192200Y0037913D01*
X0192652Y0037913D01*
X0193545Y0038055D01*
X0194405Y0038334D01*
X0195210Y0038745D01*
X0195597Y0039026D01*
X0197700Y0036923D01*
X0200620Y0035713D01*
X0203780Y0035713D01*
X0206700Y0036923D01*
X0208934Y0039157D01*
X0209780Y0041200D01*
X0221366Y0041200D01*
X0220871Y0040004D01*
X0220871Y0035700D01*
X0042185Y0035700D01*
X0035700Y0042185D01*
X0035700Y0169715D01*
X0049685Y0183700D01*
X0078540Y0183700D01*
X0078572Y0183687D01*
X0079732Y0183700D01*
X0080893Y0183700D01*
X0080925Y0183713D01*
X0080958Y0183713D01*
X0082026Y0184169D01*
X0083099Y0184613D01*
X0083123Y0184637D01*
X0083154Y0184651D01*
X0083966Y0185481D01*
X0084787Y0186301D01*
X0084799Y0186332D01*
X0084823Y0186357D01*
X0085256Y0187434D01*
X0085700Y0188507D01*
X0085700Y0188540D01*
X0085925Y0189100D01*
X0088769Y0189100D01*
X0088769Y0186738D01*
X0089438Y0185121D01*
X0090676Y0183883D01*
X0092293Y0183213D01*
X0102705Y0183213D01*
X0104322Y0183883D01*
X0105560Y0185121D01*
X0106230Y0186738D01*
X0106230Y0187751D01*
X0106528Y0187453D01*
X0110080Y0183900D01*
X0106528Y0180347D01*
X0104953Y0178772D01*
X0104100Y0176714D01*
X0104100Y0084520D01*
X0098175Y0078595D01*
X0099100Y0080827D01*
X0099100Y0083572D01*
X0098050Y0086109D01*
X0096958Y0087200D01*
X0098050Y0088291D01*
X0099100Y0090827D01*
X0099100Y0091746D01*
X0100146Y0092792D01*
X0101608Y0094254D01*
X0102400Y0096166D01*
X0102400Y0135734D01*
X0101608Y0137646D01*
X0100146Y0139108D01*
X0095146Y0144108D01*
X0093234Y0144900D01*
X0085699Y0144900D01*
X0085699Y0147652D01*
X0077772Y0147652D01*
X0077772Y0148795D01*
X0085699Y0148795D01*
X0085699Y0152057D01*
X0085549Y0152616D01*
X0085260Y0153118D01*
X0084850Y0153527D01*
X0084348Y0153817D01*
X0083789Y0153967D01*
X0077772Y0153967D01*
X0077772Y0148795D01*
X0076628Y0148795D01*
X0076628Y0147652D01*
X0068701Y0147652D01*
X0068701Y0144900D01*
X0065143Y0144900D01*
X0065143Y0145713D01*
X0064527Y0147200D01*
X0065143Y0148687D01*
X0065143Y0149158D01*
X0071485Y0155500D01*
X0073553Y0155500D01*
X0076052Y0156535D01*
X0077965Y0158448D01*
X0078454Y0159630D01*
X0078691Y0159303D01*
X0079203Y0158791D01*
X0079789Y0158366D01*
X0080434Y0158037D01*
X0081123Y0157813D01*
X0081838Y0157700D01*
X0082200Y0157700D01*
X0082562Y0157700D01*
X0083277Y0157813D01*
X0083966Y0158037D01*
X0084611Y0158366D01*
X0085197Y0158791D01*
X0085709Y0159303D01*
X0085946Y0159630D01*
X0086435Y0158448D01*
X0088348Y0156535D01*
X0090847Y0155500D01*
X0093553Y0155500D01*
X0096052Y0156535D01*
X0097965Y0158448D01*
X0099000Y0160947D01*
X0099000Y0168453D01*
X0097965Y0170952D01*
X0096052Y0172865D01*
X0093553Y0173900D01*
X0090847Y0173900D01*
X0088348Y0172865D01*
X0086435Y0170952D01*
X0085946Y0169770D01*
X0085709Y0170097D01*
X0085197Y0170609D01*
X0084611Y0171034D01*
X0083966Y0171363D01*
X0083277Y0171587D01*
X0082562Y0171700D01*
X0082200Y0171700D01*
X0082200Y0164700D01*
X0082200Y0164700D01*
X0082200Y0171700D01*
X0081838Y0171700D01*
X0081123Y0171587D01*
X0080434Y0171363D01*
X0079789Y0171034D01*
X0079203Y0170609D01*
X0078691Y0170097D01*
X0078454Y0169770D01*
X0077965Y0170952D01*
X0076052Y0172865D01*
X0073553Y0173900D01*
X0070847Y0173900D01*
X0068348Y0172865D01*
X0066435Y0170952D01*
X0065400Y0168453D01*
X0065400Y0166385D01*
X0059276Y0160261D01*
X0052781Y0160261D01*
X0051164Y0159592D01*
X0049927Y0158354D01*
X0049257Y0156737D01*
X0049257Y0148687D01*
X0049670Y0147688D01*
X0045495Y0147688D01*
X0043289Y0146775D01*
X0041602Y0145087D01*
X0037113Y0140599D01*
X0036200Y0138393D01*
X0036200Y0051007D01*
X0037113Y0048801D01*
X0038801Y0047113D01*
X0048801Y0037113D01*
X0051007Y0036200D01*
X0129417Y0036200D01*
X0131622Y0037113D01*
X0133310Y0038801D01*
X0137742Y0043233D01*
X0144374Y0043233D01*
X0145992Y0043903D01*
X0147229Y0045141D01*
X0147899Y0046758D01*
X0147899Y0055595D01*
X0147229Y0057212D01*
X0145992Y0058450D01*
X0144374Y0059120D01*
X0130026Y0059120D01*
X0128408Y0058450D01*
X0127171Y0057212D01*
X0126501Y0055595D01*
X0126501Y0048962D01*
X0125738Y0048200D01*
X0054685Y0048200D01*
X0048200Y0054685D01*
X0048200Y0134715D01*
X0049173Y0135688D01*
X0050285Y0135688D01*
X0051164Y0134808D01*
X0052781Y0134139D01*
X0057981Y0134139D01*
X0058074Y0134100D01*
X0060302Y0134100D01*
X0060395Y0134139D01*
X0061619Y0134139D01*
X0062491Y0134500D01*
X0090046Y0134500D01*
X0092000Y0132546D01*
X0092000Y0109100D01*
X0090827Y0109100D01*
X0088291Y0108050D01*
X0086535Y0106293D01*
X0085854Y0106973D01*
X0084237Y0107643D01*
X0082800Y0107643D01*
X0082800Y0118233D01*
X0084374Y0118233D01*
X0085992Y0118903D01*
X0087229Y0120141D01*
X0087899Y0121758D01*
X0087899Y0130595D01*
X0087229Y0132212D01*
X0085992Y0133450D01*
X0084374Y0134120D01*
X0070026Y0134120D01*
X0068408Y0133450D01*
X0067171Y0132212D01*
X0066501Y0130595D01*
X0066501Y0121758D01*
X0067171Y0120141D01*
X0068408Y0118903D01*
X0070026Y0118233D01*
X0071600Y0118233D01*
X0071600Y0107643D01*
X0065163Y0107643D01*
X0063546Y0106973D01*
X0062308Y0105736D01*
X0061639Y0104119D01*
X0061639Y0095281D01*
X0062308Y0093664D01*
X0063546Y0092427D01*
X0063588Y0092409D01*
X0063588Y0089074D01*
X0063495Y0088305D01*
X0063588Y0087970D01*
X0063588Y0087622D01*
X0063885Y0086906D01*
X0064093Y0086159D01*
X0064307Y0085885D01*
X0064441Y0085563D01*
X0064989Y0085015D01*
X0070280Y0078260D01*
X0070280Y0070026D01*
X0070950Y0068408D01*
X0071600Y0067759D01*
X0071600Y0067565D01*
X0070927Y0066892D01*
X0070761Y0066493D01*
X0070588Y0066666D01*
X0069925Y0067147D01*
X0069196Y0067519D01*
X0068418Y0067772D01*
X0067609Y0067900D01*
X0067200Y0067900D01*
X0067200Y0059700D01*
X0067200Y0059700D01*
X0067200Y0051500D01*
X0067609Y0051500D01*
X0068418Y0051628D01*
X0069196Y0051881D01*
X0069925Y0052253D01*
X0070588Y0052734D01*
X0070761Y0052907D01*
X0070927Y0052508D01*
X0073008Y0050427D01*
X0075728Y0049300D01*
X0078672Y0049300D01*
X0081392Y0050427D01*
X0083473Y0052508D01*
X0084600Y0055228D01*
X0084600Y0064172D01*
X0083490Y0066852D01*
X0084259Y0067171D01*
X0085497Y0068408D01*
X0085900Y0069380D01*
X0086350Y0068291D01*
X0088291Y0066350D01*
X0090827Y0065300D01*
X0093572Y0065300D01*
X0094500Y0065684D01*
X0094500Y0063666D01*
X0095292Y0061754D01*
X0096754Y0060292D01*
X0098666Y0059500D01*
X0153234Y0059500D01*
X0155146Y0060292D01*
X0156608Y0061754D01*
X0157400Y0063666D01*
X0157400Y0067642D01*
X0158050Y0068291D01*
X0159100Y0070827D01*
X0159100Y0073572D01*
X0158050Y0076109D01*
X0156958Y0077200D01*
X0158050Y0078291D01*
X0159100Y0080827D01*
X0159100Y0082000D01*
X0175300Y0082000D01*
X0175300Y0080827D01*
X0176350Y0078291D01*
X0177442Y0077200D01*
X0176350Y0076109D01*
X0175300Y0073572D01*
X0175300Y0070827D01*
X0176350Y0068291D01*
X0178291Y0066350D01*
X0180827Y0065300D01*
X0183572Y0065300D01*
X0186109Y0066350D01*
X0188050Y0068291D01*
X0189100Y0070827D01*
X0189100Y0073572D01*
X0189078Y0073626D01*
X0190026Y0073233D01*
X0204374Y0073233D01*
X0205992Y0073903D01*
X0207229Y0075141D01*
X0207899Y0076758D01*
X0207899Y0082971D01*
X0214038Y0088233D01*
X0221874Y0088233D01*
X0223492Y0088903D01*
X0224729Y0090141D01*
X0225399Y0091758D01*
X0225399Y0095516D01*
X0227937Y0092978D01*
X0227171Y0092212D01*
X0226501Y0090595D01*
X0226501Y0081758D01*
X0227171Y0080141D01*
X0228408Y0078903D01*
X0230026Y0078233D01*
X0244374Y0078233D01*
X0245992Y0078903D01*
X0247229Y0080141D01*
X0247899Y0081758D01*
X0247899Y0090595D01*
X0247229Y0092212D01*
X0245992Y0093450D01*
X0244374Y0094120D01*
X0240700Y0094120D01*
X0240700Y0095893D01*
X0239787Y0098099D01*
X0238099Y0099787D01*
X0237605Y0100280D01*
X0244374Y0100280D01*
X0245992Y0100950D01*
X0247229Y0102188D01*
X0247899Y0103805D01*
X0247899Y0112642D01*
X0247229Y0114259D01*
X0245992Y0115497D01*
X0245515Y0115694D01*
X0245561Y0115867D01*
X0245561Y0119325D01*
X0240587Y0119325D01*
X0240587Y0120075D01*
X0245561Y0120075D01*
X0245561Y0121485D01*
X0249500Y0117546D01*
X0249500Y0103666D01*
X0250292Y0101754D01*
X0251754Y0100292D01*
X0251754Y0100292D01*
X0269254Y0082792D01*
X0271166Y0082000D01*
X0346355Y0082000D01*
X0348490Y0081116D01*
X0350910Y0081116D01*
X0353146Y0082042D01*
X0354700Y0083596D01*
X0356254Y0082042D01*
X0358490Y0081116D01*
X0360910Y0081116D01*
X0363146Y0082042D01*
X0364858Y0083754D01*
X0365784Y0085990D01*
X0365784Y0088410D01*
X0364858Y0090646D01*
X0363304Y0092200D01*
X0364858Y0093754D01*
X0365784Y0095990D01*
X0365784Y0098410D01*
X0364858Y0100646D01*
X0363304Y0102200D01*
X0364858Y0103754D01*
X0365784Y0105990D01*
X0365784Y0108410D01*
X0364858Y0110646D01*
X0363304Y0112200D01*
X0364858Y0113754D01*
X0365784Y0115990D01*
X0365784Y0118410D01*
X0364900Y0120545D01*
X0364900Y0120734D01*
X0364108Y0122646D01*
X0362646Y0124108D01*
X0362374Y0124380D01*
X0362717Y0124724D01*
X0363142Y0125360D01*
X0363435Y0126067D01*
X0363584Y0126817D01*
X0363584Y0127200D01*
X0363584Y0127583D01*
X0363435Y0128333D01*
X0363142Y0129040D01*
X0362717Y0129676D01*
X0362176Y0130217D01*
X0361540Y0130642D01*
X0360833Y0130935D01*
X0360083Y0131084D01*
X0359700Y0131084D01*
X0359317Y0131084D01*
X0358567Y0130935D01*
X0357860Y0130642D01*
X0357224Y0130217D01*
X0356683Y0129676D01*
X0356258Y0129040D01*
X0355965Y0128333D01*
X0355816Y0127583D01*
X0355816Y0127400D01*
X0353584Y0127400D01*
X0353584Y0127583D01*
X0353435Y0128333D01*
X0353142Y0129040D01*
X0352717Y0129676D01*
X0352176Y0130217D01*
X0351540Y0130642D01*
X0350833Y0130935D01*
X0350083Y0131084D01*
X0349700Y0131084D01*
X0349317Y0131084D01*
X0348567Y0130935D01*
X0347860Y0130642D01*
X0347224Y0130217D01*
X0346683Y0129676D01*
X0346258Y0129040D01*
X0345965Y0128333D01*
X0345816Y0127583D01*
X0345816Y0127400D01*
X0334583Y0127400D01*
X0334772Y0127982D01*
X0334900Y0128791D01*
X0334900Y0132200D01*
X0334900Y0135609D01*
X0334772Y0136418D01*
X0334519Y0137196D01*
X0334147Y0137925D01*
X0333666Y0138588D01*
X0333088Y0139166D01*
X0332425Y0139647D01*
X0331696Y0140019D01*
X0330918Y0140272D01*
X0330109Y0140400D01*
X0329700Y0140400D01*
X0329700Y0132200D01*
X0329700Y0132200D01*
X0334900Y0132200D01*
X0329700Y0132200D01*
X0329700Y0132200D01*
X0329700Y0140400D01*
X0329291Y0140400D01*
X0328482Y0140272D01*
X0327704Y0140019D01*
X0326975Y0139647D01*
X0326312Y0139166D01*
X0326139Y0138993D01*
X0325973Y0139392D01*
X0323892Y0141473D01*
X0321172Y0142600D01*
X0318228Y0142600D01*
X0315508Y0141473D01*
X0314700Y0140665D01*
X0313892Y0141473D01*
X0311172Y0142600D01*
X0308228Y0142600D01*
X0305508Y0141473D01*
X0304700Y0140665D01*
X0303892Y0141473D01*
X0301172Y0142600D01*
X0298228Y0142600D01*
X0295508Y0141473D01*
X0294700Y0140665D01*
X0293892Y0141473D01*
X0291172Y0142600D01*
X0288228Y0142600D01*
X0285508Y0141473D01*
X0284700Y0140665D01*
X0283892Y0141473D01*
X0281172Y0142600D01*
X0278228Y0142600D01*
X0275508Y0141473D01*
X0274700Y0140665D01*
X0273892Y0141473D01*
X0271172Y0142600D01*
X0268228Y0142600D01*
X0265508Y0141473D01*
X0264700Y0140665D01*
X0263892Y0141473D01*
X0261172Y0142600D01*
X0258228Y0142600D01*
X0255508Y0141473D01*
X0254700Y0140665D01*
X0253892Y0141473D01*
X0251172Y0142600D01*
X0248228Y0142600D01*
X0245508Y0141473D01*
X0243427Y0139392D01*
X0243261Y0138993D01*
X0243088Y0139166D01*
X0242425Y0139647D01*
X0241696Y0140019D01*
X0240918Y0140272D01*
X0240109Y0140400D01*
X0239700Y0140400D01*
X0239700Y0132200D01*
X0239700Y0132200D01*
X0239700Y0140400D01*
X0239291Y0140400D01*
X0238482Y0140272D01*
X0237704Y0140019D01*
X0236975Y0139647D01*
X0236312Y0139166D01*
X0236139Y0138993D01*
X0235973Y0139392D01*
X0233892Y0141473D01*
X0231172Y0142600D01*
X0228228Y0142600D01*
X0225508Y0141473D01*
X0224700Y0140665D01*
X0223892Y0141473D01*
X0222960Y0141859D01*
X0222872Y0141947D01*
X0217872Y0146947D01*
X0215814Y0147800D01*
X0183074Y0147800D01*
X0181016Y0146947D01*
X0179441Y0145372D01*
X0174212Y0140143D01*
X0170163Y0140143D01*
X0168546Y0139473D01*
X0167308Y0138236D01*
X0166639Y0136619D01*
X0166639Y0127781D01*
X0167308Y0126164D01*
X0168546Y0124927D01*
X0170163Y0124257D01*
X0178213Y0124257D01*
X0179830Y0124927D01*
X0181068Y0126164D01*
X0181247Y0126597D01*
X0181773Y0126457D01*
X0184837Y0126457D01*
X0184837Y0131825D01*
X0185587Y0131825D01*
X0185587Y0132575D01*
X0190561Y0132575D01*
X0190561Y0136033D01*
X0190411Y0136592D01*
X0190407Y0136600D01*
X0192300Y0136600D01*
X0192300Y0127728D01*
X0193427Y0125008D01*
X0193700Y0124735D01*
X0193700Y0123507D01*
X0194613Y0121301D01*
X0202113Y0113801D01*
X0203801Y0112113D01*
X0205412Y0111446D01*
X0205908Y0110950D01*
X0207526Y0110280D01*
X0210634Y0110280D01*
X0216795Y0104120D01*
X0207899Y0104120D01*
X0207899Y0107642D01*
X0207229Y0109259D01*
X0205992Y0110497D01*
X0204374Y0111167D01*
X0198868Y0111167D01*
X0195999Y0115143D01*
X0195810Y0115599D01*
X0195307Y0116102D01*
X0194891Y0116678D01*
X0194471Y0116938D01*
X0194122Y0117287D01*
X0193465Y0117559D01*
X0192860Y0117932D01*
X0192373Y0118011D01*
X0191917Y0118200D01*
X0191206Y0118200D01*
X0190504Y0118314D01*
X0190024Y0118200D01*
X0165200Y0118200D01*
X0162643Y0121609D01*
X0162643Y0128213D01*
X0162027Y0129700D01*
X0162643Y0131187D01*
X0162643Y0139237D01*
X0161973Y0140854D01*
X0160736Y0142092D01*
X0159119Y0142761D01*
X0158200Y0142761D01*
X0158200Y0159016D01*
X0158454Y0159630D01*
X0158691Y0159303D01*
X0159203Y0158791D01*
X0159789Y0158366D01*
X0160434Y0158037D01*
X0161123Y0157813D01*
X0161838Y0157700D01*
X0162200Y0157700D01*
X0162562Y0157700D01*
X0163277Y0157813D01*
X0163966Y0158037D01*
X0164611Y0158366D01*
X0165197Y0158791D01*
X0165709Y0159303D01*
X0165946Y0159630D01*
X0166435Y0158448D01*
X0168348Y0156535D01*
X0170847Y0155500D01*
X0173553Y0155500D01*
X0176052Y0156535D01*
X0177965Y0158448D01*
X0179000Y0160947D01*
X0179000Y0168453D01*
X0177965Y0170952D01*
X0176052Y0172865D01*
X0173553Y0173900D01*
X0170847Y0173900D01*
X0168348Y0172865D01*
X0166435Y0170952D01*
X0165946Y0169770D01*
X0165709Y0170097D01*
X0165197Y0170609D01*
X0164611Y0171034D01*
X0163966Y0171363D01*
X0163277Y0171587D01*
X0162562Y0171700D01*
X0162200Y0171700D01*
X0162200Y0164700D01*
X0162200Y0164700D01*
X0162200Y0171700D01*
X0161838Y0171700D01*
X0161123Y0171587D01*
X0160434Y0171363D01*
X0159789Y0171034D01*
X0159203Y0170609D01*
X0158691Y0170097D01*
X0158454Y0169770D01*
X0157965Y0170952D01*
X0156052Y0172865D01*
X0153553Y0173900D01*
X0150847Y0173900D01*
X0148348Y0172865D01*
X0146435Y0170952D01*
X0145700Y0169177D01*
X0145700Y0190272D01*
X0145981Y0190951D01*
X0145981Y0193449D01*
X0145025Y0195758D01*
X0143258Y0197525D01*
X0140949Y0198481D01*
X0138451Y0198481D01*
X0136142Y0197525D01*
X0134375Y0195758D01*
X0133419Y0193449D01*
X0133419Y0190951D01*
X0133700Y0190272D01*
X0133700Y0097400D01*
X0127158Y0097400D01*
X0128050Y0098291D01*
X0129100Y0100827D01*
X0129100Y0103572D01*
X0128050Y0106109D01*
X0126109Y0108050D01*
X0123572Y0109100D01*
X0120827Y0109100D01*
X0118291Y0108050D01*
X0116350Y0106109D01*
X0115300Y0103572D01*
X0115300Y0100827D01*
X0116350Y0098291D01*
X0117442Y0097200D01*
X0116350Y0096109D01*
X0115300Y0093572D01*
X0115300Y0090827D01*
X0116350Y0088291D01*
X0117442Y0087200D01*
X0116350Y0086109D01*
X0115300Y0083572D01*
X0115300Y0080827D01*
X0116350Y0078291D01*
X0117442Y0077200D01*
X0116350Y0076109D01*
X0115300Y0073572D01*
X0115300Y0070827D01*
X0115684Y0069900D01*
X0105320Y0069900D01*
X0112872Y0077453D01*
X0114447Y0079028D01*
X0115300Y0081086D01*
X0115300Y0173280D01*
X0120820Y0178800D01*
X0127175Y0178800D01*
X0128792Y0179470D01*
X0130030Y0180708D01*
X0130700Y0182325D01*
X0130700Y0188875D01*
X0130172Y0190150D01*
X0130700Y0191425D01*
X0130700Y0197975D01*
X0130172Y0199250D01*
X0130700Y0200525D01*
X0130700Y0207075D01*
X0130030Y0208692D01*
X0128792Y0209930D01*
X0127175Y0210600D01*
X0123020Y0210600D01*
X0121540Y0212080D01*
X0121759Y0212171D01*
X0122997Y0213408D01*
X0123667Y0215026D01*
X0123667Y0216200D01*
X0133233Y0216200D01*
X0133233Y0215026D01*
X0133903Y0213408D01*
X0135141Y0212171D01*
X0136758Y0211501D01*
X0145595Y0211501D01*
X0147212Y0212171D01*
X0148450Y0213408D01*
X0149120Y0215026D01*
X0149120Y0229374D01*
X0148450Y0230992D01*
X0147212Y0232229D01*
X0148836Y0230059D02*
X0158128Y0230059D01*
X0158329Y0230260D02*
X0157920Y0229850D01*
X0157630Y0229348D01*
X0157480Y0228789D01*
X0157480Y0222772D01*
X0162652Y0222772D01*
X0162652Y0230699D01*
X0159391Y0230699D01*
X0158831Y0230549D01*
X0158329Y0230260D01*
X0157480Y0227660D02*
X0149120Y0227660D01*
X0149120Y0225262D02*
X0157480Y0225262D01*
X0157480Y0222863D02*
X0149120Y0222863D01*
X0149120Y0220465D02*
X0157480Y0220465D01*
X0157480Y0221628D02*
X0157480Y0215611D01*
X0157630Y0215052D01*
X0157920Y0214550D01*
X0158329Y0214140D01*
X0158831Y0213851D01*
X0159391Y0213701D01*
X0162652Y0213701D01*
X0162652Y0221628D01*
X0163795Y0221628D01*
X0163795Y0213701D01*
X0167057Y0213701D01*
X0167616Y0213851D01*
X0168118Y0214140D01*
X0168527Y0214550D01*
X0168817Y0215052D01*
X0168967Y0215611D01*
X0168967Y0221628D01*
X0163795Y0221628D01*
X0163795Y0222772D01*
X0162652Y0222772D01*
X0162652Y0221628D01*
X0157480Y0221628D01*
X0157480Y0218066D02*
X0149120Y0218066D01*
X0149120Y0215668D02*
X0157480Y0215668D01*
X0162652Y0215668D02*
X0163795Y0215668D01*
X0163795Y0218066D02*
X0162652Y0218066D01*
X0162652Y0220465D02*
X0163795Y0220465D01*
X0163795Y0222772D02*
X0168967Y0222772D01*
X0168967Y0228789D01*
X0168817Y0229348D01*
X0168527Y0229850D01*
X0168118Y0230260D01*
X0167616Y0230549D01*
X0167057Y0230699D01*
X0163795Y0230699D01*
X0163795Y0222772D01*
X0163795Y0222863D02*
X0162652Y0222863D01*
X0162652Y0225262D02*
X0163795Y0225262D01*
X0163795Y0227660D02*
X0162652Y0227660D01*
X0162652Y0230059D02*
X0163795Y0230059D01*
X0168319Y0230059D02*
X0369001Y0230059D01*
X0369001Y0227660D02*
X0168967Y0227660D01*
X0168967Y0225262D02*
X0369001Y0225262D01*
X0369001Y0222863D02*
X0168967Y0222863D01*
X0168967Y0220465D02*
X0369001Y0220465D01*
X0369001Y0218066D02*
X0168967Y0218066D01*
X0168967Y0215668D02*
X0369001Y0215668D01*
X0369001Y0213269D02*
X0360947Y0213269D01*
X0360910Y0213284D02*
X0358490Y0213284D01*
X0356254Y0212358D01*
X0354700Y0210804D01*
X0353146Y0212358D01*
X0350910Y0213284D01*
X0348490Y0213284D01*
X0346355Y0212400D01*
X0268666Y0212400D01*
X0266754Y0211608D01*
X0256754Y0201608D01*
X0255292Y0200146D01*
X0254500Y0198234D01*
X0254500Y0170465D01*
X0253427Y0169392D01*
X0253261Y0168993D01*
X0253088Y0169166D01*
X0252425Y0169647D01*
X0251696Y0170019D01*
X0250918Y0170272D01*
X0250109Y0170400D01*
X0249700Y0170400D01*
X0249700Y0162200D01*
X0249700Y0162200D01*
X0249700Y0170400D01*
X0249291Y0170400D01*
X0248482Y0170272D01*
X0247704Y0170019D01*
X0246975Y0169647D01*
X0246312Y0169166D01*
X0246139Y0168993D01*
X0245973Y0169392D01*
X0245300Y0170065D01*
X0245300Y0182767D01*
X0246892Y0183427D01*
X0248973Y0185508D01*
X0250100Y0188228D01*
X0250100Y0191172D01*
X0248973Y0193892D01*
X0248165Y0194700D01*
X0248973Y0195508D01*
X0250100Y0198228D01*
X0250100Y0201172D01*
X0248973Y0203892D01*
X0246892Y0205973D01*
X0244172Y0207100D01*
X0235228Y0207100D01*
X0232508Y0205973D01*
X0231835Y0205300D01*
X0231086Y0205300D01*
X0229028Y0204447D01*
X0214953Y0190372D01*
X0214100Y0188314D01*
X0214100Y0171265D01*
X0213892Y0171473D01*
X0211172Y0172600D01*
X0208228Y0172600D01*
X0205508Y0171473D01*
X0204700Y0170665D01*
X0203892Y0171473D01*
X0201172Y0172600D01*
X0198228Y0172600D01*
X0197915Y0172470D01*
X0193200Y0177185D01*
X0193200Y0180272D01*
X0193481Y0180951D01*
X0193481Y0183449D01*
X0192525Y0185758D01*
X0190758Y0187525D01*
X0188449Y0188481D01*
X0185951Y0188481D01*
X0183642Y0187525D01*
X0181875Y0185758D01*
X0180919Y0183449D01*
X0180919Y0180951D01*
X0181200Y0180272D01*
X0181200Y0173507D01*
X0182113Y0171301D01*
X0183801Y0169613D01*
X0192300Y0161115D01*
X0192300Y0157728D01*
X0193427Y0155008D01*
X0195508Y0152927D01*
X0198228Y0151800D01*
X0201172Y0151800D01*
X0203892Y0152927D01*
X0204700Y0153735D01*
X0205508Y0152927D01*
X0208228Y0151800D01*
X0211172Y0151800D01*
X0213892Y0152927D01*
X0214700Y0153735D01*
X0215508Y0152927D01*
X0218228Y0151800D01*
X0221172Y0151800D01*
X0223892Y0152927D01*
X0225973Y0155008D01*
X0226139Y0155407D01*
X0226312Y0155234D01*
X0226975Y0154753D01*
X0227704Y0154381D01*
X0228482Y0154128D01*
X0229291Y0154000D01*
X0229700Y0154000D01*
X0230109Y0154000D01*
X0230918Y0154128D01*
X0231696Y0154381D01*
X0232425Y0154753D01*
X0233088Y0155234D01*
X0233261Y0155407D01*
X0233427Y0155008D01*
X0235508Y0152927D01*
X0238228Y0151800D01*
X0241172Y0151800D01*
X0243892Y0152927D01*
X0245973Y0155008D01*
X0246139Y0155407D01*
X0246312Y0155234D01*
X0246975Y0154753D01*
X0247704Y0154381D01*
X0248482Y0154128D01*
X0249291Y0154000D01*
X0249700Y0154000D01*
X0250109Y0154000D01*
X0250918Y0154128D01*
X0251696Y0154381D01*
X0252425Y0154753D01*
X0253088Y0155234D01*
X0253261Y0155407D01*
X0253427Y0155008D01*
X0255508Y0152927D01*
X0258228Y0151800D01*
X0261172Y0151800D01*
X0263892Y0152927D01*
X0264700Y0153735D01*
X0265508Y0152927D01*
X0268228Y0151800D01*
X0271172Y0151800D01*
X0273892Y0152927D01*
X0274700Y0153735D01*
X0275508Y0152927D01*
X0278228Y0151800D01*
X0281172Y0151800D01*
X0283892Y0152927D01*
X0284700Y0153735D01*
X0285508Y0152927D01*
X0288228Y0151800D01*
X0291172Y0151800D01*
X0293892Y0152927D01*
X0294700Y0153735D01*
X0295508Y0152927D01*
X0298228Y0151800D01*
X0301172Y0151800D01*
X0303892Y0152927D01*
X0304700Y0153735D01*
X0305508Y0152927D01*
X0308228Y0151800D01*
X0311172Y0151800D01*
X0313892Y0152927D01*
X0314700Y0153735D01*
X0315508Y0152927D01*
X0318228Y0151800D01*
X0321172Y0151800D01*
X0323892Y0152927D01*
X0324700Y0153735D01*
X0325508Y0152927D01*
X0328228Y0151800D01*
X0331172Y0151800D01*
X0333892Y0152927D01*
X0335973Y0155008D01*
X0336798Y0157000D01*
X0338234Y0157000D01*
X0340146Y0157792D01*
X0342646Y0160292D01*
X0344108Y0161754D01*
X0344900Y0163666D01*
X0344900Y0167000D01*
X0355734Y0167000D01*
X0357646Y0167792D01*
X0361012Y0171158D01*
X0363146Y0172042D01*
X0364858Y0173754D01*
X0365784Y0175990D01*
X0365784Y0178410D01*
X0364858Y0180646D01*
X0363304Y0182200D01*
X0364858Y0183754D01*
X0365784Y0185990D01*
X0365784Y0188410D01*
X0364858Y0190646D01*
X0363304Y0192200D01*
X0364858Y0193754D01*
X0365784Y0195990D01*
X0365784Y0198410D01*
X0364858Y0200646D01*
X0363304Y0202200D01*
X0364858Y0203754D01*
X0365784Y0205990D01*
X0365784Y0208410D01*
X0364858Y0210646D01*
X0363146Y0212358D01*
X0360910Y0213284D01*
X0358453Y0213269D02*
X0350947Y0213269D01*
X0348453Y0213269D02*
X0148310Y0213269D01*
X0134042Y0213269D02*
X0122858Y0213269D01*
X0122749Y0210870D02*
X0266017Y0210870D01*
X0263618Y0208472D02*
X0130121Y0208472D01*
X0130700Y0206073D02*
X0232750Y0206073D01*
X0228255Y0203675D02*
X0130700Y0203675D01*
X0130700Y0201276D02*
X0225857Y0201276D01*
X0223458Y0198878D02*
X0130326Y0198878D01*
X0130700Y0196479D02*
X0135097Y0196479D01*
X0133680Y0194081D02*
X0130700Y0194081D01*
X0130700Y0191682D02*
X0133419Y0191682D01*
X0133700Y0189284D02*
X0130531Y0189284D01*
X0130700Y0186885D02*
X0133700Y0186885D01*
X0133700Y0184487D02*
X0130700Y0184487D01*
X0130602Y0182088D02*
X0133700Y0182088D01*
X0133700Y0179690D02*
X0129012Y0179690D01*
X0133700Y0177291D02*
X0119311Y0177291D01*
X0116912Y0174893D02*
X0133700Y0174893D01*
X0133700Y0172494D02*
X0115300Y0172494D01*
X0115300Y0170096D02*
X0133700Y0170096D01*
X0133700Y0167697D02*
X0115300Y0167697D01*
X0115300Y0165299D02*
X0133700Y0165299D01*
X0133700Y0162900D02*
X0115300Y0162900D01*
X0115300Y0160502D02*
X0133700Y0160502D01*
X0133700Y0158103D02*
X0115300Y0158103D01*
X0115300Y0155705D02*
X0133700Y0155705D01*
X0133700Y0153306D02*
X0115300Y0153306D01*
X0115300Y0150908D02*
X0133700Y0150908D01*
X0133700Y0148509D02*
X0115300Y0148509D01*
X0115300Y0146111D02*
X0133700Y0146111D01*
X0133700Y0143712D02*
X0115300Y0143712D01*
X0115300Y0141314D02*
X0133700Y0141314D01*
X0133700Y0138915D02*
X0115300Y0138915D01*
X0115300Y0136517D02*
X0133700Y0136517D01*
X0133700Y0134118D02*
X0115300Y0134118D01*
X0115300Y0131720D02*
X0133700Y0131720D01*
X0133700Y0129321D02*
X0115300Y0129321D01*
X0115300Y0126923D02*
X0133700Y0126923D01*
X0133700Y0124524D02*
X0115300Y0124524D01*
X0115300Y0122126D02*
X0133700Y0122126D01*
X0133700Y0119727D02*
X0115300Y0119727D01*
X0115300Y0117329D02*
X0133700Y0117329D01*
X0133700Y0114930D02*
X0115300Y0114930D01*
X0115300Y0112532D02*
X0133700Y0112532D01*
X0133700Y0110133D02*
X0115300Y0110133D01*
X0115300Y0107734D02*
X0117976Y0107734D01*
X0116030Y0105336D02*
X0115300Y0105336D01*
X0115300Y0102937D02*
X0115300Y0102937D01*
X0115300Y0100539D02*
X0115420Y0100539D01*
X0115300Y0098140D02*
X0116501Y0098140D01*
X0116199Y0095742D02*
X0115300Y0095742D01*
X0115300Y0093343D02*
X0115300Y0093343D01*
X0115300Y0090945D02*
X0115300Y0090945D01*
X0115300Y0088546D02*
X0116245Y0088546D01*
X0116390Y0086148D02*
X0115300Y0086148D01*
X0115300Y0083749D02*
X0115373Y0083749D01*
X0115300Y0081351D02*
X0115300Y0081351D01*
X0116077Y0078952D02*
X0114372Y0078952D01*
X0111973Y0076554D02*
X0116796Y0076554D01*
X0115541Y0074155D02*
X0109575Y0074155D01*
X0107176Y0071757D02*
X0115300Y0071757D01*
X0109700Y0082200D02*
X0109700Y0175600D01*
X0119700Y0185600D01*
X0116300Y0185600D01*
X0109700Y0192200D01*
X0109700Y0204700D01*
X0094188Y0220212D01*
X0095212Y0216235D01*
X0091747Y0216235D01*
X0094188Y0220212D02*
X0093676Y0222200D01*
X0085733Y0222863D02*
X0006600Y0222863D01*
X0006600Y0220465D02*
X0085733Y0220465D01*
X0085093Y0218066D02*
X0006600Y0218066D01*
X0006600Y0215668D02*
X0082694Y0215668D01*
X0075865Y0213269D02*
X0006600Y0213269D01*
X0006600Y0210870D02*
X0066339Y0210870D01*
X0066339Y0211033D02*
X0066339Y0207575D01*
X0071313Y0207575D01*
X0071313Y0212943D01*
X0068249Y0212943D01*
X0067689Y0212793D01*
X0067188Y0212504D01*
X0066778Y0212094D01*
X0066489Y0211592D01*
X0066339Y0211033D01*
X0066339Y0208472D02*
X0006600Y0208472D01*
X0006600Y0206073D02*
X0066339Y0206073D01*
X0066339Y0203675D02*
X0006600Y0203675D01*
X0006600Y0201276D02*
X0017791Y0201276D01*
X0017113Y0200599D02*
X0012113Y0195599D01*
X0011200Y0193393D01*
X0011200Y0028507D01*
X0012113Y0026301D01*
X0026301Y0012113D01*
X0028507Y0011200D01*
X0280893Y0011200D01*
X0283099Y0012113D01*
X0284787Y0013801D01*
X0293310Y0022325D01*
X0294224Y0024530D01*
X0294224Y0036968D01*
X0294712Y0037171D01*
X0295950Y0038408D01*
X0296620Y0040026D01*
X0296620Y0054374D01*
X0295950Y0055992D01*
X0294712Y0057229D01*
X0293095Y0057899D01*
X0284258Y0057899D01*
X0282641Y0057229D01*
X0281403Y0055992D01*
X0280733Y0054374D01*
X0280733Y0040026D01*
X0281403Y0038408D01*
X0282224Y0037588D01*
X0282224Y0028209D01*
X0277215Y0023200D01*
X0267185Y0023200D01*
X0265700Y0024685D01*
X0265700Y0026159D01*
X0266622Y0026541D01*
X0267859Y0027778D01*
X0268529Y0029396D01*
X0268529Y0040004D01*
X0267859Y0041622D01*
X0266622Y0042859D01*
X0265004Y0043529D01*
X0254396Y0043529D01*
X0252778Y0042859D01*
X0251541Y0041622D01*
X0250871Y0040004D01*
X0250871Y0029396D01*
X0251541Y0027778D01*
X0252778Y0026541D01*
X0253700Y0026159D01*
X0253700Y0023200D01*
X0032185Y0023200D01*
X0023200Y0032185D01*
X0023200Y0189715D01*
X0024685Y0191200D01*
X0027772Y0191200D01*
X0028451Y0190919D01*
X0030949Y0190919D01*
X0033258Y0191875D01*
X0035025Y0193642D01*
X0035981Y0195951D01*
X0035981Y0198449D01*
X0035025Y0200758D01*
X0033258Y0202525D01*
X0030949Y0203481D01*
X0028451Y0203481D01*
X0027772Y0203200D01*
X0021007Y0203200D01*
X0018801Y0202287D01*
X0017113Y0200599D01*
X0015393Y0198878D02*
X0006600Y0198878D01*
X0006600Y0196479D02*
X0012994Y0196479D01*
X0011485Y0194081D02*
X0006600Y0194081D01*
X0006600Y0191682D02*
X0011200Y0191682D01*
X0011200Y0189284D02*
X0006600Y0189284D01*
X0006600Y0186885D02*
X0011200Y0186885D01*
X0011200Y0184487D02*
X0006600Y0184487D01*
X0006600Y0182088D02*
X0011200Y0182088D01*
X0011200Y0179690D02*
X0006600Y0179690D01*
X0006600Y0177291D02*
X0011200Y0177291D01*
X0011200Y0174893D02*
X0006600Y0174893D01*
X0006600Y0172494D02*
X0011200Y0172494D01*
X0011200Y0170096D02*
X0006600Y0170096D01*
X0006600Y0167697D02*
X0011200Y0167697D01*
X0011200Y0165299D02*
X0006600Y0165299D01*
X0006600Y0162900D02*
X0011200Y0162900D01*
X0011200Y0160502D02*
X0006600Y0160502D01*
X0006600Y0158103D02*
X0011200Y0158103D01*
X0011200Y0155705D02*
X0006600Y0155705D01*
X0006600Y0153306D02*
X0011200Y0153306D01*
X0011200Y0150908D02*
X0006600Y0150908D01*
X0006600Y0148509D02*
X0011200Y0148509D01*
X0011200Y0146111D02*
X0006600Y0146111D01*
X0006600Y0143712D02*
X0011200Y0143712D01*
X0011200Y0141314D02*
X0006600Y0141314D01*
X0006600Y0138915D02*
X0011200Y0138915D01*
X0011200Y0136517D02*
X0006600Y0136517D01*
X0006600Y0134118D02*
X0011200Y0134118D01*
X0011200Y0131720D02*
X0006600Y0131720D01*
X0006600Y0129321D02*
X0011200Y0129321D01*
X0011200Y0126923D02*
X0006600Y0126923D01*
X0006600Y0124524D02*
X0011200Y0124524D01*
X0011200Y0122126D02*
X0006600Y0122126D01*
X0006600Y0119727D02*
X0011200Y0119727D01*
X0011200Y0117329D02*
X0006600Y0117329D01*
X0006600Y0114930D02*
X0011200Y0114930D01*
X0011200Y0112532D02*
X0006600Y0112532D01*
X0006600Y0110133D02*
X0011200Y0110133D01*
X0011200Y0107734D02*
X0006600Y0107734D01*
X0006600Y0105336D02*
X0011200Y0105336D01*
X0011200Y0102937D02*
X0006600Y0102937D01*
X0006600Y0100539D02*
X0011200Y0100539D01*
X0011200Y0098140D02*
X0006600Y0098140D01*
X0006600Y0095742D02*
X0011200Y0095742D01*
X0011200Y0093343D02*
X0006600Y0093343D01*
X0006600Y0090945D02*
X0011200Y0090945D01*
X0011200Y0088546D02*
X0006600Y0088546D01*
X0006600Y0086148D02*
X0011200Y0086148D01*
X0011200Y0083749D02*
X0006600Y0083749D01*
X0006600Y0081351D02*
X0011200Y0081351D01*
X0011200Y0078952D02*
X0006600Y0078952D01*
X0006600Y0076554D02*
X0011200Y0076554D01*
X0011200Y0074155D02*
X0006600Y0074155D01*
X0006600Y0071757D02*
X0011200Y0071757D01*
X0011200Y0069358D02*
X0006600Y0069358D01*
X0006600Y0066960D02*
X0011200Y0066960D01*
X0011200Y0064561D02*
X0006600Y0064561D01*
X0006600Y0062163D02*
X0011200Y0062163D01*
X0011200Y0059764D02*
X0006600Y0059764D01*
X0006600Y0057366D02*
X0011200Y0057366D01*
X0011200Y0054967D02*
X0006600Y0054967D01*
X0006600Y0052569D02*
X0011200Y0052569D01*
X0011200Y0050170D02*
X0006600Y0050170D01*
X0006600Y0047772D02*
X0011200Y0047772D01*
X0011200Y0045373D02*
X0006600Y0045373D01*
X0006600Y0042975D02*
X0011200Y0042975D01*
X0011200Y0040576D02*
X0006600Y0040576D01*
X0006600Y0038178D02*
X0011200Y0038178D01*
X0011200Y0035779D02*
X0006600Y0035779D01*
X0006600Y0033381D02*
X0011200Y0033381D01*
X0011200Y0030982D02*
X0006600Y0030982D01*
X0006600Y0028584D02*
X0011200Y0028584D01*
X0012230Y0026185D02*
X0006600Y0026185D01*
X0006600Y0023787D02*
X0014628Y0023787D01*
X0017027Y0021388D02*
X0006600Y0021388D01*
X0006600Y0018990D02*
X0019425Y0018990D01*
X0021824Y0016591D02*
X0006600Y0016591D01*
X0006600Y0014193D02*
X0024222Y0014193D01*
X0027072Y0011794D02*
X0006600Y0011794D01*
X0006600Y0009396D02*
X0369001Y0009396D01*
X0369001Y0011794D02*
X0282328Y0011794D01*
X0285178Y0014193D02*
X0369001Y0014193D01*
X0369001Y0016591D02*
X0287576Y0016591D01*
X0289975Y0018990D02*
X0369001Y0018990D01*
X0369001Y0021388D02*
X0327893Y0021388D01*
X0326605Y0020100D02*
X0329300Y0022795D01*
X0329300Y0024700D01*
X0329300Y0026605D01*
X0327761Y0028144D01*
X0331500Y0031883D01*
X0331500Y0037517D01*
X0327517Y0041500D01*
X0326385Y0041500D01*
X0318667Y0049218D01*
X0318667Y0054374D01*
X0317997Y0055992D01*
X0316759Y0057229D01*
X0315142Y0057899D01*
X0306305Y0057899D01*
X0304688Y0057229D01*
X0303450Y0055992D01*
X0302780Y0054374D01*
X0302780Y0040026D01*
X0303450Y0038408D01*
X0304688Y0037171D01*
X0306305Y0036501D01*
X0314414Y0036501D01*
X0317900Y0033015D01*
X0317900Y0031883D01*
X0321639Y0028144D01*
X0320100Y0026605D01*
X0320100Y0024700D01*
X0324700Y0024700D01*
X0329300Y0024700D01*
X0324700Y0024700D01*
X0324700Y0024700D01*
X0324700Y0024700D01*
X0324700Y0020100D01*
X0326605Y0020100D01*
X0324700Y0020100D02*
X0324700Y0024700D01*
X0324700Y0024700D01*
X0320100Y0024700D01*
X0320100Y0022795D01*
X0322795Y0020100D01*
X0324700Y0020100D01*
X0324700Y0021388D02*
X0324700Y0021388D01*
X0324700Y0023787D02*
X0324700Y0023787D01*
X0321507Y0021388D02*
X0292373Y0021388D01*
X0293916Y0023787D02*
X0320100Y0023787D01*
X0320100Y0026185D02*
X0294224Y0026185D01*
X0294224Y0028584D02*
X0321200Y0028584D01*
X0318801Y0030982D02*
X0294224Y0030982D01*
X0294224Y0033381D02*
X0317534Y0033381D01*
X0315136Y0035779D02*
X0294224Y0035779D01*
X0295719Y0038178D02*
X0303681Y0038178D01*
X0302780Y0040576D02*
X0296620Y0040576D01*
X0296620Y0042975D02*
X0302780Y0042975D01*
X0302780Y0045373D02*
X0296620Y0045373D01*
X0296620Y0047772D02*
X0302780Y0047772D01*
X0302780Y0050170D02*
X0296620Y0050170D01*
X0296620Y0052569D02*
X0302780Y0052569D01*
X0303026Y0054967D02*
X0296374Y0054967D01*
X0294383Y0057366D02*
X0305017Y0057366D01*
X0316430Y0057366D02*
X0369001Y0057366D01*
X0369001Y0059764D02*
X0268529Y0059764D01*
X0268529Y0057366D02*
X0282970Y0057366D01*
X0280979Y0054967D02*
X0268529Y0054967D01*
X0267650Y0052569D02*
X0280733Y0052569D01*
X0280733Y0050170D02*
X0256155Y0050170D01*
X0253757Y0047772D02*
X0280733Y0047772D01*
X0280733Y0045373D02*
X0251358Y0045373D01*
X0249787Y0043801D02*
X0249787Y0043801D01*
X0248960Y0042975D02*
X0253057Y0042975D01*
X0251108Y0040576D02*
X0238292Y0040576D01*
X0238529Y0038178D02*
X0250871Y0038178D01*
X0250871Y0035779D02*
X0238529Y0035779D01*
X0238529Y0033381D02*
X0250871Y0033381D01*
X0250871Y0030982D02*
X0238529Y0030982D01*
X0238193Y0028584D02*
X0251207Y0028584D01*
X0253637Y0026185D02*
X0235763Y0026185D01*
X0226103Y0023787D02*
X0253700Y0023787D01*
X0265763Y0026185D02*
X0280200Y0026185D01*
X0282224Y0028584D02*
X0268193Y0028584D01*
X0268529Y0030982D02*
X0282224Y0030982D01*
X0282224Y0033381D02*
X0268529Y0033381D01*
X0268529Y0035779D02*
X0282224Y0035779D01*
X0281634Y0038178D02*
X0268529Y0038178D01*
X0268292Y0040576D02*
X0280733Y0040576D01*
X0280733Y0042975D02*
X0266343Y0042975D01*
X0288224Y0045724D02*
X0289700Y0047200D01*
X0288676Y0047200D01*
X0288676Y0051176D01*
X0289700Y0049700D01*
X0268529Y0062163D02*
X0369001Y0062163D01*
X0369001Y0064561D02*
X0268529Y0064561D01*
X0267521Y0066960D02*
X0369001Y0066960D01*
X0369001Y0069358D02*
X0228527Y0069358D01*
X0237521Y0066960D02*
X0251879Y0066960D01*
X0250871Y0064561D02*
X0238529Y0064561D01*
X0238529Y0062163D02*
X0250871Y0062163D01*
X0248779Y0059764D02*
X0238529Y0059764D01*
X0238529Y0057366D02*
X0246380Y0057366D01*
X0243982Y0054967D02*
X0238529Y0054967D01*
X0221108Y0040576D02*
X0209522Y0040576D01*
X0207955Y0038178D02*
X0220871Y0038178D01*
X0220871Y0035779D02*
X0203939Y0035779D01*
X0200461Y0035779D02*
X0183939Y0035779D01*
X0180461Y0035779D02*
X0042106Y0035779D01*
X0039708Y0038178D02*
X0047737Y0038178D01*
X0045339Y0040576D02*
X0037309Y0040576D01*
X0035700Y0042975D02*
X0042940Y0042975D01*
X0040542Y0045373D02*
X0035700Y0045373D01*
X0035700Y0047772D02*
X0038143Y0047772D01*
X0036546Y0050170D02*
X0035700Y0050170D01*
X0035700Y0052569D02*
X0036200Y0052569D01*
X0036200Y0054967D02*
X0035700Y0054967D01*
X0035700Y0057366D02*
X0036200Y0057366D01*
X0036200Y0059764D02*
X0035700Y0059764D01*
X0035700Y0062163D02*
X0036200Y0062163D01*
X0036200Y0064561D02*
X0035700Y0064561D01*
X0035700Y0066960D02*
X0036200Y0066960D01*
X0036200Y0069358D02*
X0035700Y0069358D01*
X0035700Y0071757D02*
X0036200Y0071757D01*
X0036200Y0074155D02*
X0035700Y0074155D01*
X0035700Y0076554D02*
X0036200Y0076554D01*
X0036200Y0078952D02*
X0035700Y0078952D01*
X0035700Y0081351D02*
X0036200Y0081351D01*
X0036200Y0083749D02*
X0035700Y0083749D01*
X0035700Y0086148D02*
X0036200Y0086148D01*
X0036200Y0088546D02*
X0035700Y0088546D01*
X0035700Y0090945D02*
X0036200Y0090945D01*
X0036200Y0093343D02*
X0035700Y0093343D01*
X0035700Y0095742D02*
X0036200Y0095742D01*
X0036200Y0098140D02*
X0035700Y0098140D01*
X0035700Y0100539D02*
X0036200Y0100539D01*
X0036200Y0102937D02*
X0035700Y0102937D01*
X0035700Y0105336D02*
X0036200Y0105336D01*
X0036200Y0107734D02*
X0035700Y0107734D01*
X0035700Y0110133D02*
X0036200Y0110133D01*
X0036200Y0112532D02*
X0035700Y0112532D01*
X0035700Y0114930D02*
X0036200Y0114930D01*
X0036200Y0117329D02*
X0035700Y0117329D01*
X0035700Y0119727D02*
X0036200Y0119727D01*
X0036200Y0122126D02*
X0035700Y0122126D01*
X0035700Y0124524D02*
X0036200Y0124524D01*
X0036200Y0126923D02*
X0035700Y0126923D01*
X0035700Y0129321D02*
X0036200Y0129321D01*
X0036200Y0131720D02*
X0035700Y0131720D01*
X0035700Y0134118D02*
X0036200Y0134118D01*
X0036200Y0136517D02*
X0035700Y0136517D01*
X0035700Y0138915D02*
X0036416Y0138915D01*
X0035700Y0141314D02*
X0037828Y0141314D01*
X0035700Y0143712D02*
X0040227Y0143712D01*
X0042625Y0146111D02*
X0035700Y0146111D01*
X0035700Y0148509D02*
X0049330Y0148509D01*
X0049257Y0150908D02*
X0035700Y0150908D01*
X0035700Y0153306D02*
X0049257Y0153306D01*
X0049257Y0155705D02*
X0035700Y0155705D01*
X0035700Y0158103D02*
X0049823Y0158103D01*
X0059516Y0160502D02*
X0035700Y0160502D01*
X0035700Y0162900D02*
X0061915Y0162900D01*
X0064314Y0165299D02*
X0035700Y0165299D01*
X0035700Y0167697D02*
X0065400Y0167697D01*
X0066081Y0170096D02*
X0036081Y0170096D01*
X0038480Y0172494D02*
X0067978Y0172494D01*
X0076422Y0172494D02*
X0087978Y0172494D01*
X0086081Y0170096D02*
X0085709Y0170096D01*
X0082200Y0170096D02*
X0082200Y0170096D01*
X0082200Y0167697D02*
X0082200Y0167697D01*
X0082200Y0165299D02*
X0082200Y0165299D01*
X0082200Y0164700D02*
X0082200Y0157700D01*
X0082200Y0164700D01*
X0082200Y0164700D01*
X0082200Y0162900D02*
X0082200Y0162900D01*
X0082200Y0160502D02*
X0082200Y0160502D01*
X0082200Y0158103D02*
X0082200Y0158103D01*
X0084096Y0158103D02*
X0086780Y0158103D01*
X0090353Y0155705D02*
X0074047Y0155705D01*
X0076628Y0153967D02*
X0070611Y0153967D01*
X0070052Y0153817D01*
X0069550Y0153527D01*
X0069140Y0153118D01*
X0068851Y0152616D01*
X0068701Y0152057D01*
X0068701Y0148795D01*
X0076628Y0148795D01*
X0076628Y0153967D01*
X0076628Y0153306D02*
X0077772Y0153306D01*
X0077772Y0150908D02*
X0076628Y0150908D01*
X0076628Y0148509D02*
X0065070Y0148509D01*
X0064979Y0146111D02*
X0068701Y0146111D01*
X0068701Y0150908D02*
X0066893Y0150908D01*
X0069291Y0153306D02*
X0069329Y0153306D01*
X0060212Y0152712D02*
X0057200Y0152712D01*
X0057200Y0141688D02*
X0059188Y0139700D01*
X0058031Y0134118D02*
X0048200Y0134118D01*
X0048200Y0131720D02*
X0066967Y0131720D01*
X0066501Y0129321D02*
X0048200Y0129321D01*
X0048200Y0126923D02*
X0066501Y0126923D01*
X0066501Y0124524D02*
X0048200Y0124524D01*
X0048200Y0122126D02*
X0066501Y0122126D01*
X0067584Y0119727D02*
X0048200Y0119727D01*
X0048200Y0117329D02*
X0071600Y0117329D01*
X0071600Y0114930D02*
X0058353Y0114930D01*
X0058258Y0115025D02*
X0055949Y0115981D01*
X0053451Y0115981D01*
X0051142Y0115025D01*
X0049375Y0113258D01*
X0048419Y0110949D01*
X0048419Y0108451D01*
X0049100Y0106806D01*
X0049100Y0086189D01*
X0048903Y0085992D01*
X0048233Y0084374D01*
X0048233Y0070026D01*
X0048903Y0068408D01*
X0050141Y0067171D01*
X0051758Y0066501D01*
X0060595Y0066501D01*
X0062212Y0067171D01*
X0063450Y0068408D01*
X0064120Y0070026D01*
X0064120Y0084374D01*
X0063450Y0085992D01*
X0062212Y0087229D01*
X0060595Y0087899D01*
X0060300Y0087899D01*
X0060300Y0106806D01*
X0060981Y0108451D01*
X0060981Y0110949D01*
X0060025Y0113258D01*
X0058258Y0115025D01*
X0060326Y0112532D02*
X0071600Y0112532D01*
X0071600Y0110133D02*
X0060981Y0110133D01*
X0060684Y0107734D02*
X0071600Y0107734D01*
X0077200Y0104188D02*
X0077200Y0126176D01*
X0070022Y0134118D02*
X0060346Y0134118D01*
X0077772Y0148509D02*
X0104100Y0148509D01*
X0104100Y0146111D02*
X0085699Y0146111D01*
X0085699Y0150908D02*
X0104100Y0150908D01*
X0104100Y0153306D02*
X0085071Y0153306D01*
X0080304Y0158103D02*
X0077620Y0158103D01*
X0078319Y0170096D02*
X0078691Y0170096D01*
X0096422Y0172494D02*
X0104100Y0172494D01*
X0104100Y0170096D02*
X0098319Y0170096D01*
X0099000Y0167697D02*
X0104100Y0167697D01*
X0104100Y0165299D02*
X0099000Y0165299D01*
X0099000Y0162900D02*
X0104100Y0162900D01*
X0104100Y0160502D02*
X0098815Y0160502D01*
X0097620Y0158103D02*
X0104100Y0158103D01*
X0104100Y0155705D02*
X0094047Y0155705D01*
X0095542Y0143712D02*
X0104100Y0143712D01*
X0104100Y0141314D02*
X0097940Y0141314D01*
X0100339Y0138915D02*
X0104100Y0138915D01*
X0104100Y0136517D02*
X0102076Y0136517D01*
X0102400Y0134118D02*
X0104100Y0134118D01*
X0104100Y0131720D02*
X0102400Y0131720D01*
X0102400Y0129321D02*
X0104100Y0129321D01*
X0104100Y0126923D02*
X0102400Y0126923D01*
X0102400Y0124524D02*
X0104100Y0124524D01*
X0104100Y0122126D02*
X0102400Y0122126D01*
X0102400Y0119727D02*
X0104100Y0119727D01*
X0104100Y0117329D02*
X0102400Y0117329D01*
X0102400Y0114930D02*
X0104100Y0114930D01*
X0104100Y0112532D02*
X0102400Y0112532D01*
X0102400Y0110133D02*
X0104100Y0110133D01*
X0104100Y0107734D02*
X0102400Y0107734D01*
X0102400Y0105336D02*
X0104100Y0105336D01*
X0104100Y0102937D02*
X0102400Y0102937D01*
X0102400Y0100539D02*
X0104100Y0100539D01*
X0104100Y0098140D02*
X0102400Y0098140D01*
X0102224Y0095742D02*
X0104100Y0095742D01*
X0104100Y0093343D02*
X0100697Y0093343D01*
X0099100Y0090945D02*
X0104100Y0090945D01*
X0104100Y0088546D02*
X0098155Y0088546D01*
X0098010Y0086148D02*
X0104100Y0086148D01*
X0103330Y0083749D02*
X0099027Y0083749D01*
X0099100Y0081351D02*
X0100931Y0081351D01*
X0098533Y0078952D02*
X0098323Y0078952D01*
X0099700Y0072200D02*
X0109700Y0082200D01*
X0085909Y0069358D02*
X0085891Y0069358D01*
X0087682Y0066960D02*
X0083750Y0066960D01*
X0084439Y0064561D02*
X0094500Y0064561D01*
X0095122Y0062163D02*
X0084600Y0062163D01*
X0084600Y0059764D02*
X0098028Y0059764D01*
X0084600Y0057366D02*
X0127324Y0057366D01*
X0126501Y0054967D02*
X0084492Y0054967D01*
X0083498Y0052569D02*
X0126501Y0052569D01*
X0126501Y0050170D02*
X0080773Y0050170D01*
X0073627Y0050170D02*
X0052715Y0050170D01*
X0050317Y0052569D02*
X0064039Y0052569D01*
X0063812Y0052734D02*
X0064475Y0052253D01*
X0065204Y0051881D01*
X0065982Y0051628D01*
X0066791Y0051500D01*
X0067200Y0051500D01*
X0067200Y0059700D01*
X0067200Y0059700D01*
X0067200Y0059700D01*
X0062000Y0059700D01*
X0062000Y0063109D01*
X0062128Y0063918D01*
X0062381Y0064696D01*
X0062753Y0065425D01*
X0063234Y0066088D01*
X0063812Y0066666D01*
X0064475Y0067147D01*
X0065204Y0067519D01*
X0065982Y0067772D01*
X0066791Y0067900D01*
X0067200Y0067900D01*
X0067200Y0059700D01*
X0062000Y0059700D01*
X0062000Y0056291D01*
X0062128Y0055482D01*
X0062381Y0054704D01*
X0062753Y0053975D01*
X0063234Y0053312D01*
X0063812Y0052734D01*
X0062295Y0054967D02*
X0048200Y0054967D01*
X0048200Y0057366D02*
X0062000Y0057366D01*
X0062000Y0059764D02*
X0048200Y0059764D01*
X0048200Y0062163D02*
X0062000Y0062163D01*
X0062337Y0064561D02*
X0048200Y0064561D01*
X0048200Y0066960D02*
X0050650Y0066960D01*
X0048509Y0069358D02*
X0048200Y0069358D01*
X0048200Y0071757D02*
X0048233Y0071757D01*
X0048200Y0074155D02*
X0048233Y0074155D01*
X0048200Y0076554D02*
X0048233Y0076554D01*
X0048200Y0078952D02*
X0048233Y0078952D01*
X0048200Y0081351D02*
X0048233Y0081351D01*
X0048200Y0083749D02*
X0048233Y0083749D01*
X0048200Y0086148D02*
X0049059Y0086148D01*
X0049100Y0088546D02*
X0048200Y0088546D01*
X0048200Y0090945D02*
X0049100Y0090945D01*
X0049100Y0093343D02*
X0048200Y0093343D01*
X0048200Y0095742D02*
X0049100Y0095742D01*
X0049100Y0098140D02*
X0048200Y0098140D01*
X0048200Y0100539D02*
X0049100Y0100539D01*
X0049100Y0102937D02*
X0048200Y0102937D01*
X0048200Y0105336D02*
X0049100Y0105336D01*
X0048716Y0107734D02*
X0048200Y0107734D01*
X0048200Y0110133D02*
X0048419Y0110133D01*
X0048200Y0112532D02*
X0049074Y0112532D01*
X0048200Y0114930D02*
X0051047Y0114930D01*
X0054700Y0109700D02*
X0054700Y0083676D01*
X0056176Y0077200D01*
X0064120Y0076554D02*
X0070280Y0076554D01*
X0070280Y0074155D02*
X0064120Y0074155D01*
X0064120Y0071757D02*
X0070280Y0071757D01*
X0070557Y0069358D02*
X0063843Y0069358D01*
X0064216Y0066960D02*
X0061703Y0066960D01*
X0067200Y0066960D02*
X0067200Y0066960D01*
X0067200Y0064561D02*
X0067200Y0064561D01*
X0067200Y0062163D02*
X0067200Y0062163D01*
X0067200Y0059764D02*
X0067200Y0059764D01*
X0067200Y0057366D02*
X0067200Y0057366D01*
X0067200Y0054967D02*
X0067200Y0054967D01*
X0067200Y0052569D02*
X0067200Y0052569D01*
X0070361Y0052569D02*
X0070902Y0052569D01*
X0077200Y0059700D02*
X0077200Y0076176D01*
X0078224Y0077200D01*
X0069188Y0088735D01*
X0069188Y0099700D01*
X0061639Y0100539D02*
X0060300Y0100539D01*
X0060300Y0102937D02*
X0061639Y0102937D01*
X0062143Y0105336D02*
X0060300Y0105336D01*
X0060300Y0098140D02*
X0061639Y0098140D01*
X0061639Y0095742D02*
X0060300Y0095742D01*
X0060300Y0093343D02*
X0062629Y0093343D01*
X0063588Y0090945D02*
X0060300Y0090945D01*
X0060300Y0088546D02*
X0063524Y0088546D01*
X0063294Y0086148D02*
X0064102Y0086148D01*
X0064120Y0083749D02*
X0065980Y0083749D01*
X0064120Y0081351D02*
X0067859Y0081351D01*
X0069738Y0078952D02*
X0064120Y0078952D01*
X0070184Y0066960D02*
X0070995Y0066960D01*
X0023700Y0066960D02*
X0023200Y0066960D01*
X0023200Y0069358D02*
X0023700Y0069358D01*
X0023700Y0071757D02*
X0023200Y0071757D01*
X0023200Y0074155D02*
X0023700Y0074155D01*
X0023700Y0076554D02*
X0023200Y0076554D01*
X0023200Y0078952D02*
X0023700Y0078952D01*
X0023700Y0081351D02*
X0023200Y0081351D01*
X0023200Y0083749D02*
X0023700Y0083749D01*
X0023700Y0086148D02*
X0023200Y0086148D01*
X0023200Y0088546D02*
X0023700Y0088546D01*
X0023700Y0090945D02*
X0023200Y0090945D01*
X0023200Y0093343D02*
X0023700Y0093343D01*
X0023700Y0095742D02*
X0023200Y0095742D01*
X0023200Y0098140D02*
X0023700Y0098140D01*
X0023700Y0100539D02*
X0023200Y0100539D01*
X0023200Y0102937D02*
X0023700Y0102937D01*
X0023700Y0105336D02*
X0023200Y0105336D01*
X0023200Y0107734D02*
X0023700Y0107734D01*
X0023700Y0110133D02*
X0023200Y0110133D01*
X0023200Y0112532D02*
X0023700Y0112532D01*
X0023700Y0114930D02*
X0023200Y0114930D01*
X0023200Y0117329D02*
X0023700Y0117329D01*
X0023700Y0119727D02*
X0023200Y0119727D01*
X0023200Y0122126D02*
X0023700Y0122126D01*
X0023700Y0124524D02*
X0023200Y0124524D01*
X0023200Y0126923D02*
X0023700Y0126923D01*
X0023700Y0129321D02*
X0023200Y0129321D01*
X0023200Y0131720D02*
X0023700Y0131720D01*
X0023700Y0134118D02*
X0023200Y0134118D01*
X0023200Y0136517D02*
X0023700Y0136517D01*
X0023700Y0138915D02*
X0023200Y0138915D01*
X0023200Y0141314D02*
X0023700Y0141314D01*
X0023700Y0143712D02*
X0023200Y0143712D01*
X0023200Y0146111D02*
X0023700Y0146111D01*
X0023700Y0148509D02*
X0023200Y0148509D01*
X0023200Y0150908D02*
X0023700Y0150908D01*
X0023700Y0153306D02*
X0023200Y0153306D01*
X0023200Y0155705D02*
X0023700Y0155705D01*
X0023700Y0158103D02*
X0023200Y0158103D01*
X0023200Y0160502D02*
X0023700Y0160502D01*
X0023700Y0162900D02*
X0023200Y0162900D01*
X0023200Y0165299D02*
X0023700Y0165299D01*
X0023700Y0167697D02*
X0023200Y0167697D01*
X0023200Y0170096D02*
X0023700Y0170096D01*
X0023700Y0172494D02*
X0023200Y0172494D01*
X0023200Y0174893D02*
X0024321Y0174893D01*
X0023200Y0177291D02*
X0026306Y0177291D01*
X0028705Y0179690D02*
X0023200Y0179690D01*
X0023200Y0182088D02*
X0031103Y0182088D01*
X0033502Y0184487D02*
X0023200Y0184487D01*
X0023200Y0186885D02*
X0035900Y0186885D01*
X0038299Y0189284D02*
X0023200Y0189284D01*
X0032793Y0191682D02*
X0040697Y0191682D01*
X0043096Y0194081D02*
X0035207Y0194081D01*
X0035981Y0196479D02*
X0066339Y0196479D01*
X0066339Y0198878D02*
X0035804Y0198878D01*
X0034506Y0201276D02*
X0066404Y0201276D01*
X0071313Y0201276D02*
X0072063Y0201276D01*
X0072063Y0201457D02*
X0072063Y0206825D01*
X0071313Y0206825D01*
X0071313Y0197575D01*
X0072063Y0197575D01*
X0072063Y0201457D01*
X0072063Y0203675D02*
X0071313Y0203675D01*
X0071313Y0206073D02*
X0072063Y0206073D01*
X0072063Y0208472D02*
X0071313Y0208472D01*
X0071313Y0210870D02*
X0072063Y0210870D01*
X0072063Y0198878D02*
X0071313Y0198878D01*
X0082712Y0197200D02*
X0085212Y0194700D01*
X0097499Y0194700D01*
X0102499Y0194700D01*
X0106528Y0187453D02*
X0106528Y0187453D01*
X0106230Y0186885D02*
X0107095Y0186885D01*
X0104926Y0184487D02*
X0109494Y0184487D01*
X0108269Y0182088D02*
X0048074Y0182088D01*
X0045675Y0179690D02*
X0105870Y0179690D01*
X0106528Y0180347D02*
X0106528Y0180347D01*
X0104339Y0177291D02*
X0043277Y0177291D01*
X0040878Y0174893D02*
X0104100Y0174893D01*
X0090072Y0184487D02*
X0082793Y0184487D01*
X0085035Y0186885D02*
X0088769Y0186885D01*
X0119700Y0185600D02*
X0121900Y0185600D01*
X0145700Y0184487D02*
X0181349Y0184487D01*
X0180919Y0182088D02*
X0145700Y0182088D01*
X0145700Y0179690D02*
X0181200Y0179690D01*
X0181200Y0177291D02*
X0145700Y0177291D01*
X0145700Y0174893D02*
X0181200Y0174893D01*
X0181619Y0172494D02*
X0176422Y0172494D01*
X0178319Y0170096D02*
X0183319Y0170096D01*
X0185717Y0167697D02*
X0179000Y0167697D01*
X0179000Y0165299D02*
X0188116Y0165299D01*
X0190514Y0162900D02*
X0179000Y0162900D01*
X0178815Y0160502D02*
X0192300Y0160502D01*
X0192300Y0158103D02*
X0177620Y0158103D01*
X0174047Y0155705D02*
X0193138Y0155705D01*
X0195129Y0153306D02*
X0158200Y0153306D01*
X0158200Y0150908D02*
X0369001Y0150908D01*
X0369001Y0153306D02*
X0334271Y0153306D01*
X0336262Y0155705D02*
X0369001Y0155705D01*
X0369001Y0158103D02*
X0340457Y0158103D01*
X0342856Y0160502D02*
X0369001Y0160502D01*
X0369001Y0162900D02*
X0344583Y0162900D01*
X0344900Y0165299D02*
X0369001Y0165299D01*
X0369001Y0167697D02*
X0357418Y0167697D01*
X0359950Y0170096D02*
X0369001Y0170096D01*
X0369001Y0172494D02*
X0363599Y0172494D01*
X0365330Y0174893D02*
X0369001Y0174893D01*
X0369001Y0177291D02*
X0365784Y0177291D01*
X0365254Y0179690D02*
X0369001Y0179690D01*
X0369001Y0182088D02*
X0363416Y0182088D01*
X0365162Y0184487D02*
X0369001Y0184487D01*
X0369001Y0186885D02*
X0365784Y0186885D01*
X0365422Y0189284D02*
X0369001Y0189284D01*
X0369001Y0191682D02*
X0363822Y0191682D01*
X0364994Y0194081D02*
X0369001Y0194081D01*
X0369001Y0196479D02*
X0365784Y0196479D01*
X0365591Y0198878D02*
X0369001Y0198878D01*
X0369001Y0201276D02*
X0364228Y0201276D01*
X0364779Y0203675D02*
X0369001Y0203675D01*
X0369001Y0206073D02*
X0365784Y0206073D01*
X0365759Y0208472D02*
X0369001Y0208472D01*
X0369001Y0210870D02*
X0364634Y0210870D01*
X0354766Y0210870D02*
X0354634Y0210870D01*
X0325129Y0153306D02*
X0324271Y0153306D01*
X0315129Y0153306D02*
X0314271Y0153306D01*
X0305129Y0153306D02*
X0304271Y0153306D01*
X0295129Y0153306D02*
X0294271Y0153306D01*
X0285129Y0153306D02*
X0284271Y0153306D01*
X0275129Y0153306D02*
X0274271Y0153306D01*
X0265129Y0153306D02*
X0264271Y0153306D01*
X0255129Y0153306D02*
X0244271Y0153306D01*
X0249700Y0154000D02*
X0249700Y0162200D01*
X0249700Y0154000D01*
X0249700Y0155705D02*
X0249700Y0155705D01*
X0249700Y0158103D02*
X0249700Y0158103D01*
X0249700Y0160502D02*
X0249700Y0160502D01*
X0249700Y0162200D02*
X0249700Y0162200D01*
X0249700Y0162900D02*
X0249700Y0162900D01*
X0249700Y0165299D02*
X0249700Y0165299D01*
X0249700Y0167697D02*
X0249700Y0167697D01*
X0249700Y0170096D02*
X0249700Y0170096D01*
X0251460Y0170096D02*
X0254131Y0170096D01*
X0254500Y0172494D02*
X0245300Y0172494D01*
X0245300Y0170096D02*
X0247940Y0170096D01*
X0245300Y0174893D02*
X0254500Y0174893D01*
X0254500Y0177291D02*
X0245300Y0177291D01*
X0245300Y0179690D02*
X0254500Y0179690D01*
X0254500Y0182088D02*
X0245300Y0182088D01*
X0247952Y0184487D02*
X0254500Y0184487D01*
X0254500Y0186885D02*
X0249544Y0186885D01*
X0250100Y0189284D02*
X0254500Y0189284D01*
X0254500Y0191682D02*
X0249889Y0191682D01*
X0248784Y0194081D02*
X0254500Y0194081D01*
X0254500Y0196479D02*
X0249376Y0196479D01*
X0250100Y0198878D02*
X0254767Y0198878D01*
X0256423Y0201276D02*
X0250057Y0201276D01*
X0249063Y0203675D02*
X0258821Y0203675D01*
X0261220Y0206073D02*
X0246650Y0206073D01*
X0239700Y0199700D02*
X0232200Y0199700D01*
X0219700Y0187200D01*
X0219700Y0162200D01*
X0209700Y0162200D02*
X0199700Y0162200D01*
X0204271Y0153306D02*
X0205129Y0153306D01*
X0214271Y0153306D02*
X0215129Y0153306D01*
X0224271Y0153306D02*
X0235129Y0153306D01*
X0229700Y0154000D02*
X0229700Y0162200D01*
X0229700Y0162200D01*
X0229700Y0170400D01*
X0230109Y0170400D01*
X0230918Y0170272D01*
X0231696Y0170019D01*
X0232425Y0169647D01*
X0233088Y0169166D01*
X0233261Y0168993D01*
X0233427Y0169392D01*
X0234100Y0170065D01*
X0234100Y0182767D01*
X0232508Y0183427D01*
X0230427Y0185508D01*
X0229300Y0188228D01*
X0229300Y0188880D01*
X0225300Y0184880D01*
X0225300Y0170065D01*
X0225973Y0169392D01*
X0226139Y0168993D01*
X0226312Y0169166D01*
X0226975Y0169647D01*
X0227704Y0170019D01*
X0228482Y0170272D01*
X0229291Y0170400D01*
X0229700Y0170400D01*
X0229700Y0162200D01*
X0229700Y0162200D01*
X0229700Y0154000D01*
X0229700Y0155705D02*
X0229700Y0155705D01*
X0229700Y0158103D02*
X0229700Y0158103D01*
X0229700Y0160502D02*
X0229700Y0160502D01*
X0229700Y0162900D02*
X0229700Y0162900D01*
X0229700Y0165299D02*
X0229700Y0165299D01*
X0229700Y0167697D02*
X0229700Y0167697D01*
X0229700Y0170096D02*
X0229700Y0170096D01*
X0231460Y0170096D02*
X0234100Y0170096D01*
X0234100Y0172494D02*
X0225300Y0172494D01*
X0225300Y0170096D02*
X0227940Y0170096D01*
X0225300Y0174893D02*
X0234100Y0174893D01*
X0234100Y0177291D02*
X0225300Y0177291D01*
X0225300Y0179690D02*
X0234100Y0179690D01*
X0234100Y0182088D02*
X0225300Y0182088D01*
X0225300Y0184487D02*
X0231448Y0184487D01*
X0229856Y0186885D02*
X0227305Y0186885D01*
X0218661Y0194081D02*
X0145720Y0194081D01*
X0145981Y0191682D02*
X0216263Y0191682D01*
X0214502Y0189284D02*
X0145700Y0189284D01*
X0145700Y0186885D02*
X0183003Y0186885D01*
X0191397Y0186885D02*
X0214100Y0186885D01*
X0214100Y0184487D02*
X0193051Y0184487D01*
X0193481Y0182088D02*
X0214100Y0182088D01*
X0214100Y0179690D02*
X0193200Y0179690D01*
X0193200Y0177291D02*
X0214100Y0177291D01*
X0214100Y0174893D02*
X0195492Y0174893D01*
X0197891Y0172494D02*
X0197973Y0172494D01*
X0201427Y0172494D02*
X0207973Y0172494D01*
X0211427Y0172494D02*
X0214100Y0172494D01*
X0239700Y0162200D02*
X0239700Y0189700D01*
X0221060Y0196479D02*
X0144303Y0196479D01*
X0121900Y0203800D02*
X0115724Y0209976D01*
X0115724Y0222200D01*
X0107780Y0222863D02*
X0101620Y0222863D01*
X0101620Y0225262D02*
X0107780Y0225262D01*
X0107780Y0227660D02*
X0101620Y0227660D01*
X0101336Y0230059D02*
X0108064Y0230059D01*
X0110238Y0232457D02*
X0099162Y0232457D01*
X0088190Y0232457D02*
X0006600Y0232457D01*
X0006600Y0230059D02*
X0086016Y0230059D01*
X0085733Y0227660D02*
X0006600Y0227660D01*
X0006600Y0225262D02*
X0085733Y0225262D01*
X0101855Y0220465D02*
X0107780Y0220465D01*
X0107780Y0218066D02*
X0104254Y0218066D01*
X0106652Y0215668D02*
X0107780Y0215668D01*
X0123667Y0215668D02*
X0133233Y0215668D01*
X0133516Y0230059D02*
X0123384Y0230059D01*
X0121210Y0232457D02*
X0135690Y0232457D01*
X0145700Y0172494D02*
X0147978Y0172494D01*
X0146081Y0170096D02*
X0145700Y0170096D01*
X0156422Y0172494D02*
X0167978Y0172494D01*
X0166081Y0170096D02*
X0165709Y0170096D01*
X0162200Y0170096D02*
X0162200Y0170096D01*
X0162200Y0167697D02*
X0162200Y0167697D01*
X0162200Y0165299D02*
X0162200Y0165299D01*
X0162200Y0164700D02*
X0162200Y0157700D01*
X0162200Y0164700D01*
X0162200Y0164700D01*
X0162200Y0162900D02*
X0162200Y0162900D01*
X0162200Y0160502D02*
X0162200Y0160502D01*
X0162200Y0158103D02*
X0162200Y0158103D01*
X0164096Y0158103D02*
X0166780Y0158103D01*
X0170353Y0155705D02*
X0158200Y0155705D01*
X0158200Y0158103D02*
X0160304Y0158103D01*
X0158200Y0148509D02*
X0369001Y0148509D01*
X0369001Y0146111D02*
X0218709Y0146111D01*
X0221107Y0143712D02*
X0369001Y0143712D01*
X0369001Y0141314D02*
X0324052Y0141314D01*
X0329700Y0138915D02*
X0329700Y0138915D01*
X0329700Y0136517D02*
X0329700Y0136517D01*
X0329700Y0134118D02*
X0329700Y0134118D01*
X0334900Y0134118D02*
X0369001Y0134118D01*
X0369001Y0131720D02*
X0334900Y0131720D01*
X0334900Y0129321D02*
X0346446Y0129321D01*
X0349700Y0129321D02*
X0349700Y0129321D01*
X0349700Y0131084D02*
X0349700Y0127400D01*
X0349700Y0127400D01*
X0349700Y0131084D01*
X0352954Y0129321D02*
X0356446Y0129321D01*
X0359700Y0129321D02*
X0359700Y0129321D01*
X0359700Y0131084D02*
X0359700Y0127200D01*
X0363584Y0127200D01*
X0359700Y0127200D01*
X0359700Y0127200D01*
X0359700Y0127200D01*
X0359700Y0131084D01*
X0362954Y0129321D02*
X0369001Y0129321D01*
X0369001Y0126923D02*
X0363584Y0126923D01*
X0362517Y0124524D02*
X0369001Y0124524D01*
X0369001Y0122126D02*
X0364324Y0122126D01*
X0365239Y0119727D02*
X0369001Y0119727D01*
X0369001Y0117329D02*
X0365784Y0117329D01*
X0365345Y0114930D02*
X0369001Y0114930D01*
X0369001Y0112532D02*
X0363636Y0112532D01*
X0365071Y0110133D02*
X0369001Y0110133D01*
X0369001Y0107734D02*
X0365784Y0107734D01*
X0365513Y0105336D02*
X0369001Y0105336D01*
X0369001Y0102937D02*
X0364042Y0102937D01*
X0364902Y0100539D02*
X0369001Y0100539D01*
X0369001Y0098140D02*
X0365784Y0098140D01*
X0365682Y0095742D02*
X0369001Y0095742D01*
X0369001Y0093343D02*
X0364448Y0093343D01*
X0364559Y0090945D02*
X0369001Y0090945D01*
X0369001Y0088546D02*
X0365728Y0088546D01*
X0365784Y0086148D02*
X0369001Y0086148D01*
X0369001Y0083749D02*
X0364854Y0083749D01*
X0361478Y0081351D02*
X0369001Y0081351D01*
X0369001Y0078952D02*
X0246041Y0078952D01*
X0247731Y0081351D02*
X0347922Y0081351D01*
X0351478Y0081351D02*
X0357922Y0081351D01*
X0369001Y0076554D02*
X0207815Y0076554D01*
X0207899Y0078952D02*
X0228359Y0078952D01*
X0226669Y0081351D02*
X0207899Y0081351D01*
X0208807Y0083749D02*
X0226501Y0083749D01*
X0226501Y0086148D02*
X0211605Y0086148D01*
X0214700Y0096176D02*
X0197200Y0081176D01*
X0206244Y0074155D02*
X0369001Y0074155D01*
X0369001Y0071757D02*
X0189100Y0071757D01*
X0188491Y0069358D02*
X0190873Y0069358D01*
X0188475Y0066960D02*
X0186718Y0066960D01*
X0186076Y0064561D02*
X0157400Y0064561D01*
X0157400Y0066960D02*
X0177682Y0066960D01*
X0175909Y0069358D02*
X0158491Y0069358D01*
X0159100Y0071757D02*
X0175300Y0071757D01*
X0175541Y0074155D02*
X0158859Y0074155D01*
X0157604Y0076554D02*
X0176796Y0076554D01*
X0176077Y0078952D02*
X0158323Y0078952D01*
X0159100Y0081351D02*
X0175300Y0081351D01*
X0183678Y0062163D02*
X0156777Y0062163D01*
X0153872Y0059764D02*
X0181279Y0059764D01*
X0177589Y0057366D02*
X0147076Y0057366D01*
X0147899Y0054967D02*
X0175352Y0054967D01*
X0174358Y0052569D02*
X0147899Y0052569D01*
X0147899Y0050170D02*
X0174257Y0050170D01*
X0174257Y0047772D02*
X0147899Y0047772D01*
X0147326Y0045373D02*
X0174257Y0045373D01*
X0174257Y0042975D02*
X0137484Y0042975D01*
X0135085Y0040576D02*
X0174878Y0040576D01*
X0176445Y0038178D02*
X0132687Y0038178D01*
X0137200Y0073224D02*
X0139700Y0075724D01*
X0133700Y0098140D02*
X0127899Y0098140D01*
X0128980Y0100539D02*
X0133700Y0100539D01*
X0133700Y0102937D02*
X0129100Y0102937D01*
X0128370Y0105336D02*
X0133700Y0105336D01*
X0133700Y0107734D02*
X0126424Y0107734D01*
X0092000Y0110133D02*
X0082800Y0110133D01*
X0082800Y0107734D02*
X0087976Y0107734D01*
X0092000Y0112532D02*
X0082800Y0112532D01*
X0082800Y0114930D02*
X0092000Y0114930D01*
X0092000Y0117329D02*
X0082800Y0117329D01*
X0086816Y0119727D02*
X0092000Y0119727D01*
X0092000Y0122126D02*
X0087899Y0122126D01*
X0087899Y0124524D02*
X0092000Y0124524D01*
X0092000Y0126923D02*
X0087899Y0126923D01*
X0087899Y0129321D02*
X0092000Y0129321D01*
X0092000Y0131720D02*
X0087433Y0131720D01*
X0090428Y0134118D02*
X0084378Y0134118D01*
X0077200Y0104188D02*
X0080212Y0099700D01*
X0023700Y0064561D02*
X0023200Y0064561D01*
X0023200Y0062163D02*
X0023700Y0062163D01*
X0023700Y0059764D02*
X0023200Y0059764D01*
X0023200Y0057366D02*
X0023700Y0057366D01*
X0023700Y0054967D02*
X0023200Y0054967D01*
X0023200Y0052569D02*
X0023700Y0052569D01*
X0023700Y0050170D02*
X0023200Y0050170D01*
X0023200Y0047772D02*
X0023700Y0047772D01*
X0023700Y0045373D02*
X0023200Y0045373D01*
X0023200Y0042975D02*
X0023700Y0042975D01*
X0023700Y0040576D02*
X0023200Y0040576D01*
X0023200Y0038178D02*
X0023836Y0038178D01*
X0023200Y0035779D02*
X0025136Y0035779D01*
X0023200Y0033381D02*
X0027534Y0033381D01*
X0029933Y0030982D02*
X0024403Y0030982D01*
X0026802Y0028584D02*
X0032331Y0028584D01*
X0034730Y0026185D02*
X0029200Y0026185D01*
X0031599Y0023787D02*
X0038297Y0023787D01*
X0006600Y0006997D02*
X0369001Y0006997D01*
X0369001Y0023787D02*
X0329300Y0023787D01*
X0329300Y0026185D02*
X0369001Y0026185D01*
X0369001Y0028584D02*
X0328200Y0028584D01*
X0330599Y0030982D02*
X0369001Y0030982D01*
X0369001Y0033381D02*
X0331500Y0033381D01*
X0331500Y0035779D02*
X0369001Y0035779D01*
X0369001Y0038178D02*
X0330839Y0038178D01*
X0328440Y0040576D02*
X0369001Y0040576D01*
X0369001Y0042975D02*
X0324911Y0042975D01*
X0322512Y0045373D02*
X0369001Y0045373D01*
X0369001Y0047772D02*
X0320114Y0047772D01*
X0318667Y0050170D02*
X0369001Y0050170D01*
X0369001Y0052569D02*
X0318667Y0052569D01*
X0318421Y0054967D02*
X0369001Y0054967D01*
X0310724Y0048676D02*
X0310724Y0047200D01*
X0277801Y0023787D02*
X0266599Y0023787D01*
X0196445Y0038178D02*
X0193923Y0038178D01*
X0192200Y0038178D02*
X0192200Y0038178D01*
X0192200Y0037913D02*
X0192200Y0047200D01*
X0192200Y0037913D01*
X0190477Y0038178D02*
X0187955Y0038178D01*
X0192200Y0040576D02*
X0192200Y0040576D01*
X0192200Y0042975D02*
X0192200Y0042975D01*
X0192200Y0045373D02*
X0192200Y0045373D01*
X0192200Y0047200D02*
X0192200Y0047200D01*
X0247899Y0083749D02*
X0268297Y0083749D01*
X0265898Y0086148D02*
X0247899Y0086148D01*
X0247899Y0088546D02*
X0263500Y0088546D01*
X0261101Y0090945D02*
X0247754Y0090945D01*
X0246098Y0093343D02*
X0258703Y0093343D01*
X0256304Y0095742D02*
X0240700Y0095742D01*
X0239745Y0098140D02*
X0253906Y0098140D01*
X0251507Y0100539D02*
X0244999Y0100539D01*
X0247540Y0102937D02*
X0249802Y0102937D01*
X0249500Y0105336D02*
X0247899Y0105336D01*
X0247899Y0107734D02*
X0249500Y0107734D01*
X0249500Y0110133D02*
X0247899Y0110133D01*
X0247899Y0112532D02*
X0249500Y0112532D01*
X0249500Y0114930D02*
X0246559Y0114930D01*
X0245561Y0117329D02*
X0249500Y0117329D01*
X0247319Y0119727D02*
X0240587Y0119727D01*
X0219700Y0132200D02*
X0219700Y0137200D01*
X0214700Y0142200D01*
X0184188Y0142200D01*
X0174188Y0132200D01*
X0166639Y0131720D02*
X0162643Y0131720D01*
X0162643Y0134118D02*
X0166639Y0134118D01*
X0166639Y0136517D02*
X0162643Y0136517D01*
X0162643Y0138915D02*
X0167988Y0138915D01*
X0161514Y0141314D02*
X0175382Y0141314D01*
X0177781Y0143712D02*
X0158200Y0143712D01*
X0158200Y0146111D02*
X0180179Y0146111D01*
X0190432Y0136517D02*
X0192300Y0136517D01*
X0192300Y0134118D02*
X0190561Y0134118D01*
X0190561Y0131825D02*
X0185587Y0131825D01*
X0185587Y0126457D01*
X0188651Y0126457D01*
X0189211Y0126607D01*
X0189712Y0126896D01*
X0190122Y0127306D01*
X0190411Y0127808D01*
X0190561Y0128367D01*
X0190561Y0131825D01*
X0190561Y0131720D02*
X0192300Y0131720D01*
X0192300Y0129321D02*
X0190561Y0129321D01*
X0189739Y0126923D02*
X0192634Y0126923D01*
X0193700Y0124524D02*
X0178859Y0124524D01*
X0184837Y0126923D02*
X0185587Y0126923D01*
X0185587Y0129321D02*
X0184837Y0129321D01*
X0184837Y0131720D02*
X0185587Y0131720D01*
X0194272Y0122126D02*
X0162643Y0122126D01*
X0162643Y0124524D02*
X0169518Y0124524D01*
X0166994Y0126923D02*
X0162643Y0126923D01*
X0162184Y0129321D02*
X0166639Y0129321D01*
X0164055Y0119727D02*
X0196188Y0119727D01*
X0194021Y0117329D02*
X0198586Y0117329D01*
X0200985Y0114930D02*
X0196153Y0114930D01*
X0197883Y0112532D02*
X0203383Y0112532D01*
X0202113Y0113801D02*
X0202113Y0113801D01*
X0206356Y0110133D02*
X0210782Y0110133D01*
X0213180Y0107734D02*
X0207861Y0107734D01*
X0207899Y0105336D02*
X0215579Y0105336D01*
X0225399Y0093343D02*
X0227571Y0093343D01*
X0226646Y0090945D02*
X0225062Y0090945D01*
X0226501Y0088546D02*
X0222631Y0088546D01*
X0239700Y0134118D02*
X0239700Y0134118D01*
X0239700Y0136517D02*
X0239700Y0136517D01*
X0239700Y0138915D02*
X0239700Y0138915D01*
X0234052Y0141314D02*
X0245348Y0141314D01*
X0254052Y0141314D02*
X0255348Y0141314D01*
X0264052Y0141314D02*
X0265348Y0141314D01*
X0274052Y0141314D02*
X0275348Y0141314D01*
X0284052Y0141314D02*
X0285348Y0141314D01*
X0294052Y0141314D02*
X0295348Y0141314D01*
X0304052Y0141314D02*
X0305348Y0141314D01*
X0314052Y0141314D02*
X0315348Y0141314D01*
X0333339Y0138915D02*
X0369001Y0138915D01*
X0369001Y0136517D02*
X0334740Y0136517D01*
X0225348Y0141314D02*
X0224052Y0141314D01*
X0158691Y0170096D02*
X0158319Y0170096D01*
D24*
X0097200Y0134700D02*
X0097200Y0097200D01*
X0092200Y0092200D01*
X0090212Y0084188D02*
X0090212Y0082200D01*
X0092200Y0082200D01*
X0090212Y0084188D02*
X0080212Y0094188D01*
X0080212Y0099700D01*
X0122200Y0092200D02*
X0137200Y0092200D01*
X0139700Y0089700D01*
X0142200Y0087200D01*
X0174700Y0087200D01*
X0179700Y0092200D01*
X0182200Y0092200D01*
X0182200Y0082200D02*
X0183224Y0081176D01*
X0197200Y0081176D01*
X0172200Y0102200D02*
X0172200Y0112200D01*
X0172200Y0102200D02*
X0162200Y0092200D01*
X0152200Y0092200D01*
X0152200Y0082200D02*
X0146176Y0082200D01*
X0137200Y0073224D01*
X0128224Y0082200D01*
X0122200Y0082200D01*
X0099700Y0072200D02*
X0099700Y0064700D01*
X0152200Y0064700D01*
X0152200Y0072200D01*
X0099700Y0072200D02*
X0092200Y0072200D01*
X0097200Y0134700D02*
X0092200Y0139700D01*
X0059188Y0139700D01*
X0229188Y0119700D02*
X0230720Y0120918D01*
X0231688Y0121688D01*
X0232200Y0122200D01*
X0239700Y0122712D02*
X0240212Y0119700D01*
X0239700Y0122712D02*
X0239700Y0132200D01*
X0249700Y0132200D02*
X0249700Y0124700D01*
X0254700Y0119700D01*
X0254700Y0104700D01*
X0272200Y0087200D01*
X0349700Y0087200D01*
X0354700Y0092200D02*
X0277200Y0092200D01*
X0259700Y0109700D01*
X0259700Y0132200D01*
X0269700Y0132200D02*
X0269700Y0109700D01*
X0282200Y0097200D01*
X0349700Y0097200D01*
X0354700Y0092200D02*
X0359700Y0087200D01*
X0359700Y0097200D02*
X0354700Y0102200D01*
X0287200Y0102200D01*
X0279700Y0109700D01*
X0279700Y0132200D01*
X0289700Y0132200D02*
X0292200Y0129700D01*
X0292200Y0109700D01*
X0294700Y0107200D01*
X0349700Y0107200D01*
X0354700Y0112200D02*
X0359700Y0107200D01*
X0354700Y0112200D02*
X0307200Y0112200D01*
X0299700Y0119700D01*
X0299700Y0132200D01*
X0309700Y0132200D02*
X0309700Y0122200D01*
X0314700Y0117200D01*
X0349700Y0117200D01*
X0357200Y0122200D02*
X0359700Y0119700D01*
X0359700Y0117200D01*
X0357200Y0122200D02*
X0324700Y0122200D01*
X0319700Y0127200D01*
X0319700Y0132200D01*
X0319700Y0162200D02*
X0319700Y0174700D01*
X0322200Y0177200D01*
X0349700Y0177200D01*
X0354700Y0172200D02*
X0339700Y0172200D01*
X0339700Y0164700D01*
X0337200Y0162200D01*
X0329700Y0162200D01*
X0309700Y0162200D02*
X0309700Y0177200D01*
X0314700Y0182200D01*
X0354700Y0182200D01*
X0359700Y0187200D01*
X0354700Y0192200D02*
X0359700Y0197200D01*
X0354700Y0192200D02*
X0297200Y0192200D01*
X0289700Y0184700D01*
X0289700Y0162200D01*
X0279700Y0162200D02*
X0279700Y0189700D01*
X0287200Y0197200D01*
X0349700Y0197200D01*
X0354700Y0202200D02*
X0359700Y0207200D01*
X0354700Y0202200D02*
X0277200Y0202200D01*
X0269700Y0194700D01*
X0269700Y0162200D01*
X0259700Y0162200D02*
X0259700Y0197200D01*
X0269700Y0207200D01*
X0349700Y0207200D01*
X0349700Y0187200D02*
X0304700Y0187200D01*
X0299700Y0182200D01*
X0299700Y0162200D01*
X0354700Y0172200D02*
X0359700Y0177200D01*
D25*
X0187200Y0182200D03*
X0139700Y0192200D03*
X0029700Y0197200D03*
X0054700Y0109700D03*
X0334700Y0057200D03*
X0344700Y0057200D03*
X0344700Y0047200D03*
X0334700Y0047200D03*
D26*
X0324700Y0034700D02*
X0310724Y0048676D01*
X0288224Y0045724D02*
X0288224Y0025724D01*
X0279700Y0017200D01*
X0264700Y0017200D01*
X0259700Y0022200D01*
X0259700Y0034700D01*
X0244700Y0047200D02*
X0202200Y0047200D01*
X0194700Y0064700D02*
X0182200Y0052200D01*
X0182200Y0047200D01*
X0194700Y0064700D02*
X0224700Y0064700D01*
X0229700Y0059700D01*
X0244700Y0047200D02*
X0257200Y0059700D01*
X0259700Y0059700D01*
X0237200Y0086176D02*
X0234700Y0088676D01*
X0234700Y0094700D01*
X0213676Y0115724D01*
X0213676Y0117200D01*
X0214700Y0118224D01*
X0213676Y0117200D02*
X0207200Y0117200D01*
X0199700Y0124700D01*
X0199700Y0132200D01*
X0190724Y0112200D02*
X0172200Y0112200D01*
X0162200Y0112200D01*
X0154700Y0122200D01*
X0154700Y0124188D01*
X0154700Y0135212D02*
X0152200Y0137712D01*
X0152200Y0164700D01*
X0187200Y0174700D02*
X0187200Y0182200D01*
X0187200Y0174700D02*
X0199700Y0162200D01*
X0229700Y0132200D02*
X0229700Y0121938D01*
X0230720Y0120918D01*
X0229188Y0119700D02*
X0229188Y0116235D01*
X0237200Y0108224D01*
X0232200Y0110724D01*
X0197200Y0103224D02*
X0190724Y0112200D01*
X0139700Y0089700D02*
X0139700Y0192200D01*
X0141176Y0222200D02*
X0115724Y0222200D01*
X0091747Y0216235D02*
X0082712Y0207200D01*
X0082712Y0197200D02*
X0079700Y0189700D01*
X0047200Y0189700D01*
X0029700Y0172200D01*
X0029700Y0039700D01*
X0039700Y0029700D01*
X0224700Y0029700D01*
X0229700Y0034700D01*
X0264700Y0017200D02*
X0029700Y0017200D01*
X0017200Y0029700D01*
X0017200Y0192200D01*
X0022200Y0197200D01*
X0029700Y0197200D01*
X0072200Y0164700D02*
X0060212Y0152712D01*
X0057200Y0141688D02*
X0046688Y0141688D01*
X0042200Y0137200D01*
X0042200Y0052200D01*
X0052200Y0042200D01*
X0128224Y0042200D01*
X0137200Y0051176D01*
M02*
