G75*
%MOIN*%
%OFA0B0*%
%FSLAX25Y25*%
%IPPOS*%
%LPD*%
%AMOC8*
5,1,8,0,0,1.08239X$1,22.5*
%
%ADD10R,0.07687X0.06899*%
%ADD11R,0.06899X0.07687*%
%ADD12R,0.09400X0.05400*%
%ADD13R,0.09261X0.14773*%
%ADD14R,0.05400X0.09400*%
%ADD15R,0.14773X0.09261*%
%ADD16C,0.05600*%
%ADD17C,0.06600*%
%ADD18OC8,0.05400*%
%ADD19R,0.07687X0.13198*%
%ADD20C,0.05400*%
%ADD21R,0.13198X0.07687*%
%ADD22R,0.09458X0.09458*%
%ADD23C,0.07687*%
%ADD24C,0.03969*%
%ADD25C,0.04362*%
D10*
X0129700Y0181688D03*
X0129700Y0192712D03*
X0049700Y0196688D03*
X0049700Y0207712D03*
D11*
X0104188Y0192200D03*
X0115212Y0192200D03*
X0159188Y0182200D03*
X0170212Y0182200D03*
D12*
X0067500Y0195600D03*
X0067500Y0204700D03*
X0067500Y0213800D03*
D13*
X0091901Y0204700D03*
D14*
X0145600Y0221900D03*
X0154700Y0221900D03*
X0163800Y0221900D03*
D15*
X0154700Y0197499D03*
D16*
X0152200Y0102200D03*
X0152200Y0092200D03*
X0152200Y0082200D03*
X0152200Y0072200D03*
X0182200Y0072200D03*
X0182200Y0082200D03*
X0182200Y0092200D03*
X0182200Y0102200D03*
X0122200Y0102200D03*
X0122200Y0092200D03*
X0122200Y0082200D03*
X0122200Y0072200D03*
X0092200Y0072200D03*
X0092200Y0082200D03*
X0092200Y0092200D03*
X0092200Y0102200D03*
D17*
X0067200Y0062700D02*
X0067200Y0056700D01*
X0077200Y0056700D02*
X0077200Y0062700D01*
X0199700Y0129200D02*
X0199700Y0135200D01*
X0209700Y0135200D02*
X0209700Y0129200D01*
X0219700Y0129200D02*
X0219700Y0135200D01*
X0229700Y0135200D02*
X0229700Y0129200D01*
X0239700Y0129200D02*
X0239700Y0135200D01*
X0249700Y0135200D02*
X0249700Y0129200D01*
X0259700Y0129200D02*
X0259700Y0135200D01*
X0269700Y0135200D02*
X0269700Y0129200D01*
X0279700Y0129200D02*
X0279700Y0135200D01*
X0289700Y0135200D02*
X0289700Y0129200D01*
X0299700Y0129200D02*
X0299700Y0135200D01*
X0309700Y0135200D02*
X0309700Y0129200D01*
X0319700Y0129200D02*
X0319700Y0135200D01*
X0329700Y0135200D02*
X0329700Y0129200D01*
X0329700Y0159200D02*
X0329700Y0165200D01*
X0319700Y0165200D02*
X0319700Y0159200D01*
X0309700Y0159200D02*
X0309700Y0165200D01*
X0299700Y0165200D02*
X0299700Y0159200D01*
X0289700Y0159200D02*
X0289700Y0165200D01*
X0279700Y0165200D02*
X0279700Y0159200D01*
X0269700Y0159200D02*
X0269700Y0165200D01*
X0259700Y0165200D02*
X0259700Y0159200D01*
X0249700Y0159200D02*
X0249700Y0165200D01*
X0239700Y0165200D02*
X0239700Y0159200D01*
X0229700Y0159200D02*
X0229700Y0165200D01*
X0219700Y0165200D02*
X0219700Y0159200D01*
X0209700Y0159200D02*
X0209700Y0165200D01*
X0199700Y0165200D02*
X0199700Y0159200D01*
X0236700Y0189700D02*
X0242700Y0189700D01*
X0242700Y0199700D02*
X0236700Y0199700D01*
D18*
X0324700Y0034700D03*
X0324700Y0024700D03*
D19*
X0130724Y0209700D03*
X0108676Y0209700D03*
X0108676Y0227200D03*
X0130724Y0227200D03*
X0191176Y0222200D03*
X0213224Y0222200D03*
D20*
X0172200Y0167100D02*
X0172200Y0162300D01*
X0162200Y0162300D02*
X0162200Y0167100D01*
X0152200Y0167100D02*
X0152200Y0162300D01*
X0092200Y0162300D02*
X0092200Y0167100D01*
X0082200Y0167100D02*
X0082200Y0162300D01*
X0072200Y0162300D02*
X0072200Y0167100D01*
D21*
X0212200Y0181176D03*
X0212200Y0203224D03*
D22*
X0229700Y0059700D03*
X0259700Y0059700D03*
X0259700Y0034700D03*
X0229700Y0034700D03*
D23*
X0202200Y0043657D02*
X0202200Y0050743D01*
X0192200Y0050743D02*
X0192200Y0043657D01*
X0182200Y0043657D02*
X0182200Y0050743D01*
D24*
X0349700Y0087200D03*
X0359700Y0087200D03*
X0359700Y0097200D03*
X0349700Y0097200D03*
X0349700Y0107200D03*
X0359700Y0107200D03*
X0359700Y0117200D03*
X0349700Y0117200D03*
X0349700Y0127200D03*
X0359700Y0127200D03*
X0359700Y0177200D03*
X0349700Y0177200D03*
X0349700Y0187200D03*
X0359700Y0187200D03*
X0359700Y0197200D03*
X0349700Y0197200D03*
X0349700Y0207200D03*
X0359700Y0207200D03*
D25*
X0187200Y0182200D03*
X0139700Y0192200D03*
X0029700Y0197200D03*
X0054700Y0109700D03*
X0334700Y0057200D03*
X0344700Y0057200D03*
X0344700Y0047200D03*
X0334700Y0047200D03*
M02*
