%
M48
M72
T01C0.01969
T02C0.02362
T03C0.03200
T04C0.04000
T05C0.04724
T06C0.05906
%
T01
X349700Y87200
X359700Y87200
X359700Y97200
X349700Y97200
X349700Y107200
X359700Y107200
X359700Y117200
X349700Y117200
X349700Y127200
X359700Y127200
X359700Y177200
X349700Y177200
X349700Y187200
X359700Y187200
X359700Y197200
X349700Y197200
X349700Y207200
X359700Y207200
T02
X187200Y182200
X139700Y192200
X29700Y197200
X54700Y109700
X334700Y57200
X344700Y57200
X344700Y47200
X334700Y47200
T03
X324700Y34700
X324700Y24700
X182200Y72200
X182200Y82200
X182200Y92200
X182200Y102200
X152200Y102200
X152200Y92200
X152200Y82200
X152200Y72200
X122200Y72200
X122200Y82200
X122200Y92200
X122200Y102200
X92200Y102200
X92200Y92200
X92200Y82200
X92200Y72200
X92200Y164700
X82200Y164700
X72200Y164700
X154700Y164700
X164700Y164700
X174700Y164700
T04
X67200Y59700
X77200Y59700
X199700Y132200
X209700Y132200
X219700Y132200
X229700Y132200
X239700Y132200
X249700Y132200
X259700Y132200
X269700Y132200
X279700Y132200
X289700Y132200
X299700Y132200
X309700Y132200
X319700Y132200
X329700Y132200
X329700Y162200
X319700Y162200
X309700Y162200
X299700Y162200
X289700Y162200
X279700Y162200
X269700Y162200
X259700Y162200
X249700Y162200
X239700Y162200
X229700Y162200
X219700Y162200
X209700Y162200
X199700Y162200
X239700Y189700
X239700Y199700
T05
X202200Y47200
X192200Y47200
X182200Y47200
T06
X229700Y34700
X259700Y34700
X259700Y59700
X229700Y59700
M30
