G75*
%MOIN*%
%OFA0B0*%
%FSLAX25Y25*%
%IPPOS*%
%LPD*%
%AMOC8*
5,1,8,0,0,1.08239X$1,22.5*
%
%ADD10R,0.07887X0.07099*%
%ADD11R,0.07099X0.07887*%
%ADD12R,0.09600X0.05600*%
%ADD13R,0.09461X0.14973*%
%ADD14R,0.05600X0.09600*%
%ADD15R,0.14973X0.09461*%
%ADD16C,0.06400*%
%ADD17C,0.07200*%
%ADD18OC8,0.06400*%
%ADD19R,0.07887X0.13398*%
%ADD20C,0.06400*%
%ADD21R,0.13398X0.07887*%
%ADD22R,0.09658X0.09658*%
%ADD23C,0.07924*%
%ADD24C,0.05169*%
D10*
X0129700Y0181688D03*
X0129700Y0192712D03*
X0049700Y0196688D03*
X0049700Y0207712D03*
D11*
X0104188Y0192200D03*
X0115212Y0192200D03*
X0159188Y0182200D03*
X0170212Y0182200D03*
D12*
X0067500Y0195600D03*
X0067500Y0204700D03*
X0067500Y0213800D03*
D13*
X0091901Y0204700D03*
D14*
X0145600Y0221900D03*
X0154700Y0221900D03*
X0163800Y0221900D03*
D15*
X0154700Y0197499D03*
D16*
X0152200Y0102200D03*
X0152200Y0092200D03*
X0152200Y0082200D03*
X0152200Y0072200D03*
X0182200Y0072200D03*
X0182200Y0082200D03*
X0182200Y0092200D03*
X0182200Y0102200D03*
X0122200Y0102200D03*
X0122200Y0092200D03*
X0122200Y0082200D03*
X0122200Y0072200D03*
X0092200Y0072200D03*
X0092200Y0082200D03*
X0092200Y0092200D03*
X0092200Y0102200D03*
D17*
X0067200Y0062900D02*
X0067200Y0056500D01*
X0077200Y0056500D02*
X0077200Y0062900D01*
X0199700Y0129000D02*
X0199700Y0135400D01*
X0209700Y0135400D02*
X0209700Y0129000D01*
X0219700Y0129000D02*
X0219700Y0135400D01*
X0229700Y0135400D02*
X0229700Y0129000D01*
X0239700Y0129000D02*
X0239700Y0135400D01*
X0249700Y0135400D02*
X0249700Y0129000D01*
X0259700Y0129000D02*
X0259700Y0135400D01*
X0269700Y0135400D02*
X0269700Y0129000D01*
X0279700Y0129000D02*
X0279700Y0135400D01*
X0289700Y0135400D02*
X0289700Y0129000D01*
X0299700Y0129000D02*
X0299700Y0135400D01*
X0309700Y0135400D02*
X0309700Y0129000D01*
X0319700Y0129000D02*
X0319700Y0135400D01*
X0329700Y0135400D02*
X0329700Y0129000D01*
X0329700Y0159000D02*
X0329700Y0165400D01*
X0319700Y0165400D02*
X0319700Y0159000D01*
X0309700Y0159000D02*
X0309700Y0165400D01*
X0299700Y0165400D02*
X0299700Y0159000D01*
X0289700Y0159000D02*
X0289700Y0165400D01*
X0279700Y0165400D02*
X0279700Y0159000D01*
X0269700Y0159000D02*
X0269700Y0165400D01*
X0259700Y0165400D02*
X0259700Y0159000D01*
X0249700Y0159000D02*
X0249700Y0165400D01*
X0239700Y0165400D02*
X0239700Y0159000D01*
X0229700Y0159000D02*
X0229700Y0165400D01*
X0219700Y0165400D02*
X0219700Y0159000D01*
X0209700Y0159000D02*
X0209700Y0165400D01*
X0199700Y0165400D02*
X0199700Y0159000D01*
X0236500Y0189700D02*
X0242900Y0189700D01*
X0242900Y0199700D02*
X0236500Y0199700D01*
D18*
X0324700Y0034700D03*
X0324700Y0024700D03*
D19*
X0130724Y0209700D03*
X0108676Y0209700D03*
X0108676Y0227200D03*
X0130724Y0227200D03*
X0191176Y0222200D03*
X0213224Y0222200D03*
D20*
X0174700Y0167500D02*
X0174700Y0161900D01*
X0164700Y0161900D02*
X0164700Y0167500D01*
X0154700Y0167500D02*
X0154700Y0161900D01*
X0092200Y0161900D02*
X0092200Y0167500D01*
X0082200Y0167500D02*
X0082200Y0161900D01*
X0072200Y0161900D02*
X0072200Y0167500D01*
D21*
X0212200Y0181176D03*
X0212200Y0203224D03*
D22*
X0229700Y0059700D03*
X0259700Y0059700D03*
X0259700Y0034700D03*
X0229700Y0034700D03*
D23*
X0202200Y0043638D02*
X0202200Y0050762D01*
X0192200Y0050762D02*
X0192200Y0043638D01*
X0182200Y0043638D02*
X0182200Y0050762D01*
D24*
X0349700Y0087200D03*
X0359700Y0087200D03*
X0359700Y0097200D03*
X0349700Y0097200D03*
X0349700Y0107200D03*
X0359700Y0107200D03*
X0359700Y0117200D03*
X0349700Y0117200D03*
X0349700Y0127200D03*
X0359700Y0127200D03*
X0359700Y0177200D03*
X0349700Y0177200D03*
X0349700Y0187200D03*
X0359700Y0187200D03*
X0359700Y0197200D03*
X0349700Y0197200D03*
X0349700Y0207200D03*
X0359700Y0207200D03*
M02*
